<svg xmlns="http://www.w3.org/2000/svg" viewBox="0 0 1200 1000" role="img">
<title>장기선 밀집 저항·회복 시도형 실제 대표사례 GILD 2017-06-26 기준봉 이전 차트</title>
<rect width="1200" height="1000" fill="#ffffff"/>
<style>text{font-family:system-ui,-apple-system,'Noto Sans KR',sans-serif;fill:#202735}.title{font-size:21px;font-weight:800}.sub{font-size:12px;fill:#667085}.label{font-size:13px;font-weight:750}.axis{font-size:10px;fill:#6b7280}.legend{font-size:11px;font-weight:750}</style>
<text x="70.0" y="28" class="title">실제 대표사례 · GILD 2017-06-26 · 장기선 밀집 저항·회복 시도형</text>
<text x="70.0" y="50" class="sub">Investing 근사 주봉 · 기준봉 이전 52주와 기준봉만 표시 · 기준봉 이후 성과는 숨김</text>
<rect x="70.0" y="80.0" width="1010.0" height="310.0" fill="#fcfdff" stroke="#d9e1ec"/>
<line x1="70.00" y1="80.0" x2="70.00" y2="390.0" stroke="#e8edf4" stroke-width="1.0"/>
<line x1="322.50" y1="80.0" x2="322.50" y2="390.0" stroke="#e8edf4" stroke-width="1.0"/>
<line x1="575.00" y1="80.0" x2="575.00" y2="390.0" stroke="#e8edf4" stroke-width="1.0"/>
<line x1="827.50" y1="80.0" x2="827.50" y2="390.0" stroke="#e8edf4" stroke-width="1.0"/>
<line x1="1080.00" y1="80.0" x2="1080.00" y2="390.0" stroke="#1d5fd1" stroke-width="2.2"/>
<rect x="70.0" y="400.0" width="1010.0" height="110.0" fill="#fcfdff" stroke="#d9e1ec"/>
<line x1="70.00" y1="400.0" x2="70.00" y2="510.0" stroke="#e8edf4" stroke-width="1.0"/>
<line x1="322.50" y1="400.0" x2="322.50" y2="510.0" stroke="#e8edf4" stroke-width="1.0"/>
<line x1="575.00" y1="400.0" x2="575.00" y2="510.0" stroke="#e8edf4" stroke-width="1.0"/>
<line x1="827.50" y1="400.0" x2="827.50" y2="510.0" stroke="#e8edf4" stroke-width="1.0"/>
<line x1="1080.00" y1="400.0" x2="1080.00" y2="510.0" stroke="#1d5fd1" stroke-width="2.2"/>
<rect x="70.0" y="520.0" width="1010.0" height="90.0" fill="#fcfdff" stroke="#d9e1ec"/>
<line x1="70.00" y1="520.0" x2="70.00" y2="610.0" stroke="#e8edf4" stroke-width="1.0"/>
<line x1="322.50" y1="520.0" x2="322.50" y2="610.0" stroke="#e8edf4" stroke-width="1.0"/>
<line x1="575.00" y1="520.0" x2="575.00" y2="610.0" stroke="#e8edf4" stroke-width="1.0"/>
<line x1="827.50" y1="520.0" x2="827.50" y2="610.0" stroke="#e8edf4" stroke-width="1.0"/>
<line x1="1080.00" y1="520.0" x2="1080.00" y2="610.0" stroke="#1d5fd1" stroke-width="2.2"/>
<rect x="70.0" y="620.0" width="1010.0" height="120.0" fill="#fcfdff" stroke="#d9e1ec"/>
<line x1="70.00" y1="620.0" x2="70.00" y2="740.0" stroke="#e8edf4" stroke-width="1.0"/>
<line x1="322.50" y1="620.0" x2="322.50" y2="740.0" stroke="#e8edf4" stroke-width="1.0"/>
<line x1="575.00" y1="620.0" x2="575.00" y2="740.0" stroke="#e8edf4" stroke-width="1.0"/>
<line x1="827.50" y1="620.0" x2="827.50" y2="740.0" stroke="#e8edf4" stroke-width="1.0"/>
<line x1="1080.00" y1="620.0" x2="1080.00" y2="740.0" stroke="#1d5fd1" stroke-width="2.2"/>
<rect x="70.0" y="750.0" width="1010.0" height="90.0" fill="#fcfdff" stroke="#d9e1ec"/>
<line x1="70.00" y1="750.0" x2="70.00" y2="840.0" stroke="#e8edf4" stroke-width="1.0"/>
<line x1="322.50" y1="750.0" x2="322.50" y2="840.0" stroke="#e8edf4" stroke-width="1.0"/>
<line x1="575.00" y1="750.0" x2="575.00" y2="840.0" stroke="#e8edf4" stroke-width="1.0"/>
<line x1="827.50" y1="750.0" x2="827.50" y2="840.0" stroke="#e8edf4" stroke-width="1.0"/>
<line x1="1080.00" y1="750.0" x2="1080.00" y2="840.0" stroke="#1d5fd1" stroke-width="2.2"/>
<rect x="70.0" y="850.0" width="1010.0" height="90.0" fill="#fcfdff" stroke="#d9e1ec"/>
<line x1="70.00" y1="850.0" x2="70.00" y2="940.0" stroke="#e8edf4" stroke-width="1.0"/>
<line x1="322.50" y1="850.0" x2="322.50" y2="940.0" stroke="#e8edf4" stroke-width="1.0"/>
<line x1="575.00" y1="850.0" x2="575.00" y2="940.0" stroke="#e8edf4" stroke-width="1.0"/>
<line x1="827.50" y1="850.0" x2="827.50" y2="940.0" stroke="#e8edf4" stroke-width="1.0"/>
<line x1="1080.00" y1="850.0" x2="1080.00" y2="940.0" stroke="#1d5fd1" stroke-width="2.2"/>
<text x="77.0" y="98.0" class="label">주봉 가격 · MA 5 / 20 / 50 / 150 / 200</text>
<text x="1088.0" y="92.0" class="axis">98.72</text>
<text x="1088.0" y="386.0" class="axis">62.10</text>
<line x1="70.00" y1="200.21" x2="70.00" y2="252.68" stroke="#ef3b3b"/>
<rect x="64.76" y="203.33" width="10.48" height="35.27" fill="#ef3b3b" stroke="#ef3b3b"/>
<line x1="89.42" y1="188.55" x2="89.42" y2="214.21" stroke="#ef3b3b"/>
<rect x="84.18" y="191.32" width="10.48" height="13.30" fill="#ef3b3b" stroke="#ef3b3b"/>
<line x1="108.85" y1="181.29" x2="108.85" y2="200.42" stroke="#ef3b3b"/>
<rect x="103.61" y="190.46" width="10.48" height="1.20" fill="#ef3b3b" stroke="#ef3b3b"/>
<line x1="128.27" y1="182.22" x2="128.27" y2="201.63" stroke="#3156d9"/>
<rect x="123.03" y="188.55" width="10.48" height="2.77" fill="#ffffff" stroke="#3156d9"/>
<line x1="147.69" y1="174.96" x2="147.69" y2="242.37" stroke="#3156d9"/>
<rect x="142.45" y="191.18" width="10.48" height="50.48" fill="#ffffff" stroke="#3156d9"/>
<line x1="167.12" y1="229.29" x2="167.12" y2="244.22" stroke="#ef3b3b"/>
<rect x="161.87" y="234.98" width="10.48" height="4.27" fill="#ef3b3b" stroke="#ef3b3b"/>
<line x1="186.54" y1="232.27" x2="186.54" y2="248.91" stroke="#3156d9"/>
<rect x="181.30" y="234.62" width="10.48" height="5.69" fill="#ffffff" stroke="#3156d9"/>
<line x1="205.96" y1="228.86" x2="205.96" y2="243.29" stroke="#ef3b3b"/>
<rect x="200.72" y="230.78" width="10.48" height="7.96" fill="#ef3b3b" stroke="#ef3b3b"/>
<line x1="225.38" y1="222.96" x2="225.38" y2="243.08" stroke="#3156d9"/>
<rect x="220.14" y="231.56" width="10.48" height="7.96" fill="#ffffff" stroke="#3156d9"/>
<line x1="244.81" y1="240.02" x2="244.81" y2="261.57" stroke="#3156d9"/>
<rect x="239.57" y="240.38" width="10.48" height="19.62" fill="#ffffff" stroke="#3156d9"/>
<line x1="264.23" y1="244.01" x2="264.23" y2="257.44" stroke="#ef3b3b"/>
<rect x="258.99" y="251.76" width="10.48" height="1.92" fill="#ef3b3b" stroke="#ef3b3b"/>
<line x1="283.65" y1="243.58" x2="283.65" y2="257.30" stroke="#ef3b3b"/>
<rect x="278.41" y="246.42" width="10.48" height="7.89" fill="#ef3b3b" stroke="#ef3b3b"/>
<line x1="303.08" y1="223.17" x2="303.08" y2="246.35" stroke="#ef3b3b"/>
<rect x="297.84" y="228.15" width="10.48" height="17.42" fill="#ef3b3b" stroke="#ef3b3b"/>
<line x1="322.50" y1="229.86" x2="322.50" y2="253.89" stroke="#3156d9"/>
<rect x="317.26" y="230.78" width="10.48" height="13.37" fill="#ffffff" stroke="#3156d9"/>
<line x1="341.92" y1="245.21" x2="341.92" y2="274.01" stroke="#3156d9"/>
<rect x="336.68" y="247.63" width="10.48" height="24.10" fill="#ffffff" stroke="#3156d9"/>
<line x1="361.35" y1="266.55" x2="361.35" y2="293.28" stroke="#3156d9"/>
<rect x="356.11" y="269.89" width="10.48" height="19.55" fill="#ffffff" stroke="#3156d9"/>
<line x1="380.77" y1="273.87" x2="380.77" y2="292.57" stroke="#ef3b3b"/>
<rect x="375.53" y="278.49" width="10.48" height="12.44" fill="#ef3b3b" stroke="#ef3b3b"/>
<line x1="400.19" y1="263.77" x2="400.19" y2="286.03" stroke="#3156d9"/>
<rect x="394.95" y="276.93" width="10.48" height="4.48" fill="#ffffff" stroke="#3156d9"/>
<line x1="419.62" y1="277.42" x2="419.62" y2="299.11" stroke="#3156d9"/>
<rect x="414.37" y="279.91" width="10.48" height="11.80" fill="#ffffff" stroke="#3156d9"/>
<line x1="439.04" y1="237.89" x2="439.04" y2="287.31" stroke="#ef3b3b"/>
<rect x="433.80" y="263.35" width="10.48" height="20.90" fill="#ef3b3b" stroke="#ef3b3b"/>
<line x1="458.46" y1="258.30" x2="458.46" y2="278.78" stroke="#3156d9"/>
<rect x="453.22" y="258.94" width="10.48" height="17.21" fill="#ffffff" stroke="#3156d9"/>
<line x1="477.88" y1="269.53" x2="477.88" y2="282.26" stroke="#ef3b3b"/>
<rect x="472.64" y="270.31" width="10.48" height="5.55" fill="#ef3b3b" stroke="#ef3b3b"/>
<line x1="497.31" y1="270.31" x2="497.31" y2="293.64" stroke="#3156d9"/>
<rect x="492.07" y="271.31" width="10.48" height="20.48" fill="#ffffff" stroke="#3156d9"/>
<line x1="516.73" y1="286.74" x2="516.73" y2="303.09" stroke="#3156d9"/>
<rect x="511.49" y="289.16" width="10.48" height="1.20" fill="#ffffff" stroke="#3156d9"/>
<line x1="536.15" y1="264.06" x2="536.15" y2="293.85" stroke="#ef3b3b"/>
<rect x="530.91" y="279.84" width="10.48" height="10.95" fill="#ef3b3b" stroke="#ef3b3b"/>
<line x1="555.58" y1="271.31" x2="555.58" y2="288.23" stroke="#ef3b3b"/>
<rect x="550.34" y="283.11" width="10.48" height="1.20" fill="#ef3b3b" stroke="#ef3b3b"/>
<line x1="575.00" y1="274.87" x2="575.00" y2="299.75" stroke="#3156d9"/>
<rect x="569.76" y="283.97" width="10.48" height="13.58" fill="#ffffff" stroke="#3156d9"/>
<line x1="594.42" y1="259.36" x2="594.42" y2="293.49" stroke="#ef3b3b"/>
<rect x="589.18" y="269.96" width="10.48" height="22.40" fill="#ef3b3b" stroke="#ef3b3b"/>
<line x1="613.85" y1="262.78" x2="613.85" y2="288.16" stroke="#3156d9"/>
<rect x="608.61" y="266.83" width="10.48" height="20.34" fill="#ffffff" stroke="#3156d9"/>
<line x1="633.27" y1="288.23" x2="633.27" y2="304.87" stroke="#3156d9"/>
<rect x="628.03" y="288.23" width="10.48" height="13.58" fill="#ffffff" stroke="#3156d9"/>
<line x1="652.69" y1="292.36" x2="652.69" y2="310.56" stroke="#ef3b3b"/>
<rect x="647.45" y="300.04" width="10.48" height="2.77" fill="#ef3b3b" stroke="#ef3b3b"/>
<line x1="672.12" y1="288.52" x2="672.12" y2="303.66" stroke="#ef3b3b"/>
<rect x="666.87" y="292.36" width="10.48" height="9.53" fill="#ef3b3b" stroke="#ef3b3b"/>
<line x1="691.54" y1="285.53" x2="691.54" y2="341.84" stroke="#3156d9"/>
<rect x="686.30" y="294.63" width="10.48" height="40.24" fill="#ffffff" stroke="#3156d9"/>
<line x1="710.96" y1="303.38" x2="710.96" y2="333.88" stroke="#ef3b3b"/>
<rect x="705.72" y="310.06" width="10.48" height="21.62" fill="#ef3b3b" stroke="#ef3b3b"/>
<line x1="730.38" y1="308.50" x2="730.38" y2="320.16" stroke="#3156d9"/>
<rect x="725.14" y="308.99" width="10.48" height="1.20" fill="#ffffff" stroke="#3156d9"/>
<line x1="749.81" y1="301.96" x2="749.81" y2="310.42" stroke="#ef3b3b"/>
<rect x="744.57" y="303.73" width="10.48" height="6.54" fill="#ef3b3b" stroke="#ef3b3b"/>
<line x1="769.23" y1="304.73" x2="769.23" y2="327.13" stroke="#3156d9"/>
<rect x="763.99" y="305.01" width="10.48" height="16.85" fill="#ffffff" stroke="#3156d9"/>
<line x1="788.65" y1="309.85" x2="788.65" y2="327.48" stroke="#ef3b3b"/>
<rect x="783.41" y="315.68" width="10.48" height="5.26" fill="#ef3b3b" stroke="#ef3b3b"/>
<line x1="808.08" y1="314.61" x2="808.08" y2="328.90" stroke="#3156d9"/>
<rect x="802.84" y="316.53" width="10.48" height="10.17" fill="#ffffff" stroke="#3156d9"/>
<line x1="827.50" y1="320.87" x2="827.50" y2="331.75" stroke="#ef3b3b"/>
<rect x="822.26" y="323.78" width="10.48" height="5.76" fill="#ef3b3b" stroke="#ef3b3b"/>
<line x1="846.92" y1="323.07" x2="846.92" y2="335.80" stroke="#3156d9"/>
<rect x="841.68" y="324.28" width="10.48" height="9.03" fill="#ffffff" stroke="#3156d9"/>
<line x1="866.35" y1="328.62" x2="866.35" y2="338.93" stroke="#3156d9"/>
<rect x="861.11" y="333.45" width="10.48" height="1.20" fill="#ffffff" stroke="#3156d9"/>
<line x1="885.77" y1="329.26" x2="885.77" y2="339.57" stroke="#3156d9"/>
<rect x="880.53" y="331.68" width="10.48" height="6.26" fill="#ffffff" stroke="#3156d9"/>
<line x1="905.19" y1="316.39" x2="905.19" y2="339.50" stroke="#ef3b3b"/>
<rect x="899.95" y="319.30" width="10.48" height="14.65" fill="#ef3b3b" stroke="#ef3b3b"/>
<line x1="924.62" y1="314.97" x2="924.62" y2="335.52" stroke="#3156d9"/>
<rect x="919.37" y="319.38" width="10.48" height="5.26" fill="#ffffff" stroke="#3156d9"/>
<line x1="944.04" y1="324.50" x2="944.04" y2="339.29" stroke="#3156d9"/>
<rect x="938.80" y="324.78" width="10.48" height="12.23" fill="#ffffff" stroke="#3156d9"/>
<line x1="963.46" y1="336.23" x2="963.46" y2="352.51" stroke="#3156d9"/>
<rect x="958.22" y="336.87" width="10.48" height="13.15" fill="#ffffff" stroke="#3156d9"/>
<line x1="982.88" y1="345.76" x2="982.88" y2="350.80" stroke="#ef3b3b"/>
<rect x="977.64" y="348.10" width="10.48" height="1.85" fill="#ef3b3b" stroke="#ef3b3b"/>
<line x1="1002.31" y1="339.50" x2="1002.31" y2="350.38" stroke="#ef3b3b"/>
<rect x="997.07" y="341.70" width="10.48" height="6.61" fill="#ef3b3b" stroke="#ef3b3b"/>
<line x1="1021.73" y1="338.93" x2="1021.73" y2="352.01" stroke="#3156d9"/>
<rect x="1016.49" y="340.35" width="10.48" height="6.33" fill="#ffffff" stroke="#3156d9"/>
<line x1="1041.15" y1="332.46" x2="1041.15" y2="353.36" stroke="#3156d9"/>
<rect x="1035.91" y="347.39" width="10.48" height="3.41" fill="#ffffff" stroke="#3156d9"/>
<line x1="1060.58" y1="298.76" x2="1060.58" y2="351.51" stroke="#ef3b3b"/>
<rect x="1055.34" y="305.30" width="10.48" height="45.01" fill="#ef3b3b" stroke="#ef3b3b"/>
<line x1="1080.00" y1="293.57" x2="1080.00" y2="308.85" stroke="#3156d9"/>
<rect x="1074.76" y="300.11" width="10.48" height="3.34" fill="#ffffff" stroke="#3156d9"/>
<path d="M 70.00 211.47 L 89.42 210.90 L 108.85 207.74 L 128.27 202.20 L 147.69 203.62 L 167.12 209.95 L 186.54 219.75 L 205.96 227.81 L 225.38 237.45 L 244.81 241.12 L 264.23 244.48 L 283.65 245.70 L 303.08 245.17 L 322.50 246.10 L 341.92 248.44 L 361.35 255.98 L 380.77 262.39 L 400.19 273.04 L 419.62 282.56 L 439.04 280.88 L 458.46 278.22 L 477.88 276.59 L 497.31 278.66 L 516.73 278.28 L 536.15 281.58 L 555.58 282.97 L 575.00 288.42 L 594.42 284.05 L 613.85 283.53 L 633.27 287.92 L 652.69 291.30 L 672.12 290.27 L 691.54 303.25 L 710.96 307.83 L 730.38 309.35 L 749.81 310.09 L 769.23 315.99 L 788.65 312.15 L 808.08 315.48 L 827.50 318.35 L 846.92 324.27 L 866.35 326.66 L 885.77 331.11 L 905.19 329.63 L 924.62 329.80 L 944.04 330.54 L 963.46 333.78 L 982.88 335.82 L 1002.31 340.29 L 1021.73 344.70 L 1041.15 347.46 L 1060.58 338.52 L 1080.00 329.59" fill="none" stroke="#168b4b" stroke-width="2"/>
<path d="M 70.00 178.50 L 89.42 178.82 L 108.85 179.33 L 128.27 179.56 L 147.69 183.18 L 167.12 186.69 L 186.54 190.83 L 205.96 195.50 L 225.38 201.30 L 244.81 208.91 L 264.23 217.40 L 283.65 220.74 L 303.08 221.92 L 322.50 223.19 L 341.92 225.82 L 361.35 230.47 L 380.77 234.68 L 400.19 238.44 L 419.62 242.08 L 439.04 243.52 L 458.46 247.16 L 477.88 251.11 L 497.31 256.17 L 516.73 261.10 L 536.15 263.00 L 555.58 265.41 L 575.00 268.27 L 594.42 270.23 L 613.85 272.61 L 633.27 274.71 L 652.69 277.12 L 672.12 279.42 L 691.54 284.75 L 710.96 288.05 L 730.38 289.93 L 749.81 290.65 L 769.23 292.82 L 788.65 294.53 L 808.08 296.28 L 827.50 299.30 L 846.92 302.16 L 866.35 305.33 L 885.77 307.64 L 905.19 309.12 L 924.62 311.36 L 944.04 314.05 L 963.46 316.67 L 982.88 320.58 L 1002.31 323.31 L 1021.73 325.55 L 1041.15 328.09 L 1060.58 328.74 L 1080.00 327.17" fill="none" stroke="#13b8c8" stroke-width="2"/>
<path d="M 70.00 116.64 L 89.42 120.37 L 108.85 124.81 L 128.27 128.78 L 147.69 133.91 L 167.12 137.46 L 186.54 141.46 L 205.96 144.45 L 225.38 148.70 L 244.81 153.18 L 264.23 156.33 L 283.65 159.10 L 303.08 161.84 L 322.50 165.21 L 341.92 169.87 L 361.35 174.90 L 380.77 179.74 L 400.19 183.82 L 419.62 188.67 L 439.04 193.16 L 458.46 197.35 L 477.88 200.85 L 497.31 205.00 L 516.73 209.39 L 536.15 213.24 L 555.58 216.48 L 575.00 219.36 L 594.42 221.68 L 613.85 223.10 L 633.27 225.11 L 652.69 227.69 L 672.12 229.84 L 691.54 232.93 L 710.96 235.40 L 730.38 238.20 L 749.81 240.98 L 769.23 244.27 L 788.65 247.83 L 808.08 251.90 L 827.50 256.21 L 846.92 261.24 L 866.35 264.33 L 885.77 266.99 L 905.19 269.01 L 924.62 271.12 L 944.04 273.93 L 963.46 277.04 L 982.88 279.88 L 1002.31 282.33 L 1021.73 284.58 L 1041.15 287.53 L 1060.58 289.81 L 1080.00 292.07" fill="none" stroke="#3156d9" stroke-width="2"/>
<path d="M 70.00 149.19 L 89.42 147.92 L 108.85 146.67 L 128.27 145.46 L 147.69 144.70 L 167.12 143.92 L 186.54 143.16 L 205.96 142.30 L 225.38 141.50 L 244.81 141.08 L 264.23 140.69 L 283.65 140.32 L 303.08 139.65 L 322.50 139.21 L 341.92 139.17 L 361.35 139.27 L 380.77 139.25 L 400.19 139.13 L 419.62 139.24 L 439.04 139.15 L 458.46 139.13 L 477.88 139.11 L 497.31 139.39 L 516.73 139.76 L 536.15 140.08 L 555.58 140.32 L 575.00 140.77 L 594.42 141.11 L 613.85 141.57 L 633.27 141.98 L 652.69 142.16 L 672.12 142.14 L 691.54 142.25 L 710.96 142.36 L 730.38 142.17 L 749.81 142.14 L 769.23 142.41 L 788.65 142.82 L 808.08 143.40 L 827.50 144.01 L 846.92 144.69 L 866.35 145.39 L 885.77 146.17 L 905.19 146.74 L 924.62 147.38 L 944.04 148.18 L 963.46 149.30 L 982.88 150.45 L 1002.31 151.58 L 1021.73 152.77 L 1041.15 154.07 L 1060.58 155.11 L 1080.00 156.47" fill="none" stroke="#8b3f2b" stroke-width="3"/>
<path d="M 70.00 234.18 L 89.42 232.16 L 108.85 230.18 L 128.27 228.30 L 147.69 226.66 L 167.12 225.03 L 186.54 223.41 L 205.96 221.71 L 225.38 220.07 L 244.81 218.53 L 264.23 216.91 L 283.65 215.43 L 303.08 213.89 L 322.50 212.41 L 341.92 211.05 L 361.35 209.78 L 380.77 208.43 L 400.19 207.09 L 419.62 205.86 L 439.04 204.54 L 458.46 203.27 L 477.88 202.00 L 497.31 200.87 L 516.73 199.74 L 536.15 198.58 L 555.58 197.48 L 575.00 196.47 L 594.42 195.41 L 613.85 194.41 L 633.27 193.51 L 652.69 192.71 L 672.12 191.83 L 691.54 191.31 L 710.96 190.72 L 730.38 190.06 L 749.81 189.51 L 769.23 188.96 L 788.65 188.51 L 808.08 188.09 L 827.50 187.61 L 846.92 187.13 L 866.35 186.62 L 885.77 186.01 L 905.19 185.40 L 924.62 184.88 L 944.04 184.57 L 963.46 184.43 L 982.88 184.36 L 1002.31 184.23 L 1021.73 184.03 L 1041.15 183.78 L 1060.58 183.39 L 1080.00 183.02" fill="none" stroke="#e05252" stroke-width="3"/>
<line x1="470.0" y1="95.0" x2="489.0" y2="95.0" stroke="#168b4b" stroke-width="3"/>
<text x="494.0" y="99.0" class="legend">5</text>
<line x1="552.0" y1="95.0" x2="571.0" y2="95.0" stroke="#13b8c8" stroke-width="3"/>
<text x="576.0" y="99.0" class="legend">20</text>
<line x1="634.0" y1="95.0" x2="653.0" y2="95.0" stroke="#3156d9" stroke-width="3"/>
<text x="658.0" y="99.0" class="legend">50</text>
<line x1="716.0" y1="95.0" x2="735.0" y2="95.0" stroke="#8b3f2b" stroke-width="3"/>
<text x="740.0" y="99.0" class="legend">150</text>
<line x1="798.0" y1="95.0" x2="817.0" y2="95.0" stroke="#e05252" stroke-width="3"/>
<text x="822.0" y="99.0" class="legend">200</text>
<text x="77.0" y="418.0" class="label">거래량 · 50주 평균</text>
<text x="1088.0" y="412.0" class="axis">117,376,140.00</text>
<text x="1088.0" y="506.0" class="axis">0.00</text>
<rect x="64.09" y="457.93" width="11.82" height="43.27" fill="#ef9a9a" opacity="0.78"/>
<rect x="83.52" y="476.25" width="11.82" height="24.95" fill="#ef9a9a" opacity="0.78"/>
<rect x="102.94" y="467.17" width="11.82" height="34.03" fill="#ef9a9a" opacity="0.78"/>
<rect x="122.36" y="467.74" width="11.82" height="33.46" fill="#94a3e8" opacity="0.78"/>
<rect x="141.78" y="414.87" width="11.82" height="86.33" fill="#94a3e8" opacity="0.78"/>
<rect x="161.21" y="454.39" width="11.82" height="46.81" fill="#ef9a9a" opacity="0.78"/>
<rect x="180.63" y="463.41" width="11.82" height="37.79" fill="#94a3e8" opacity="0.78"/>
<rect x="200.05" y="467.16" width="11.82" height="34.04" fill="#ef9a9a" opacity="0.78"/>
<rect x="219.48" y="466.84" width="11.82" height="34.36" fill="#94a3e8" opacity="0.78"/>
<rect x="238.90" y="458.16" width="11.82" height="43.04" fill="#94a3e8" opacity="0.78"/>
<rect x="258.32" y="470.62" width="11.82" height="30.58" fill="#ef9a9a" opacity="0.78"/>
<rect x="277.75" y="464.19" width="11.82" height="37.01" fill="#ef9a9a" opacity="0.78"/>
<rect x="297.17" y="458.56" width="11.82" height="42.64" fill="#ef9a9a" opacity="0.78"/>
<rect x="316.59" y="463.61" width="11.82" height="37.59" fill="#94a3e8" opacity="0.78"/>
<rect x="336.02" y="463.36" width="11.82" height="37.84" fill="#94a3e8" opacity="0.78"/>
<rect x="355.44" y="464.18" width="11.82" height="37.02" fill="#94a3e8" opacity="0.78"/>
<rect x="374.86" y="470.13" width="11.82" height="31.07" fill="#ef9a9a" opacity="0.78"/>
<rect x="394.28" y="466.06" width="11.82" height="35.14" fill="#94a3e8" opacity="0.78"/>
<rect x="413.71" y="457.99" width="11.82" height="43.21" fill="#94a3e8" opacity="0.78"/>
<rect x="433.13" y="443.53" width="11.82" height="57.67" fill="#ef9a9a" opacity="0.78"/>
<rect x="452.55" y="467.02" width="11.82" height="34.18" fill="#94a3e8" opacity="0.78"/>
<rect x="471.98" y="483.29" width="11.82" height="17.91" fill="#ef9a9a" opacity="0.78"/>
<rect x="491.40" y="466.07" width="11.82" height="35.13" fill="#94a3e8" opacity="0.78"/>
<rect x="510.82" y="458.66" width="11.82" height="42.54" fill="#94a3e8" opacity="0.78"/>
<rect x="530.25" y="455.64" width="11.82" height="45.56" fill="#ef9a9a" opacity="0.78"/>
<rect x="549.67" y="471.75" width="11.82" height="29.45" fill="#ef9a9a" opacity="0.78"/>
<rect x="569.09" y="477.76" width="11.82" height="23.44" fill="#94a3e8" opacity="0.78"/>
<rect x="588.52" y="466.36" width="11.82" height="34.84" fill="#ef9a9a" opacity="0.78"/>
<rect x="607.94" y="463.00" width="11.82" height="38.20" fill="#94a3e8" opacity="0.78"/>
<rect x="627.36" y="468.37" width="11.82" height="32.83" fill="#94a3e8" opacity="0.78"/>
<rect x="646.78" y="461.77" width="11.82" height="39.43" fill="#ef9a9a" opacity="0.78"/>
<rect x="666.21" y="468.22" width="11.82" height="32.98" fill="#ef9a9a" opacity="0.78"/>
<rect x="685.63" y="413.20" width="11.82" height="88.00" fill="#94a3e8" opacity="0.78"/>
<rect x="705.05" y="446.36" width="11.82" height="54.84" fill="#ef9a9a" opacity="0.78"/>
<rect x="724.48" y="472.72" width="11.82" height="28.48" fill="#94a3e8" opacity="0.78"/>
<rect x="743.90" y="469.63" width="11.82" height="31.57" fill="#ef9a9a" opacity="0.78"/>
<rect x="763.32" y="460.39" width="11.82" height="40.81" fill="#94a3e8" opacity="0.78"/>
<rect x="782.75" y="463.40" width="11.82" height="37.80" fill="#ef9a9a" opacity="0.78"/>
<rect x="802.17" y="475.54" width="11.82" height="25.66" fill="#94a3e8" opacity="0.78"/>
<rect x="821.59" y="473.44" width="11.82" height="27.76" fill="#ef9a9a" opacity="0.78"/>
<rect x="841.02" y="471.45" width="11.82" height="29.75" fill="#94a3e8" opacity="0.78"/>
<rect x="860.44" y="479.32" width="11.82" height="21.88" fill="#94a3e8" opacity="0.78"/>
<rect x="879.86" y="476.00" width="11.82" height="25.20" fill="#94a3e8" opacity="0.78"/>
<rect x="899.28" y="464.77" width="11.82" height="36.43" fill="#ef9a9a" opacity="0.78"/>
<rect x="918.71" y="464.64" width="11.82" height="36.56" fill="#94a3e8" opacity="0.78"/>
<rect x="938.13" y="472.84" width="11.82" height="28.36" fill="#94a3e8" opacity="0.78"/>
<rect x="957.55" y="471.68" width="11.82" height="29.52" fill="#94a3e8" opacity="0.78"/>
<rect x="976.98" y="479.26" width="11.82" height="21.94" fill="#ef9a9a" opacity="0.78"/>
<rect x="996.40" y="476.05" width="11.82" height="25.15" fill="#ef9a9a" opacity="0.78"/>
<rect x="1015.82" y="470.23" width="11.82" height="30.97" fill="#94a3e8" opacity="0.78"/>
<rect x="1035.25" y="467.71" width="11.82" height="33.49" fill="#94a3e8" opacity="0.78"/>
<rect x="1054.67" y="432.81" width="11.82" height="68.39" fill="#ef9a9a" opacity="0.78"/>
<rect x="1074.09" y="458.95" width="11.82" height="42.25" fill="#94a3e8" opacity="0.78"/>
<path d="M 70.00 459.42 L 89.42 459.58 L 108.85 460.09 L 128.27 460.18 L 147.69 458.97 L 167.12 458.86 L 186.54 459.45 L 205.96 459.67 L 225.38 459.57 L 244.81 459.44 L 264.23 459.89 L 283.65 460.58 L 303.08 460.71 L 322.50 460.70 L 341.92 461.01 L 361.35 461.27 L 380.77 461.32 L 400.19 461.27 L 419.62 460.99 L 439.04 460.15 L 458.46 460.29 L 477.88 460.52 L 497.31 460.70 L 516.73 460.25 L 536.15 459.72 L 555.58 460.10 L 575.00 460.71 L 594.42 460.89 L 613.85 461.39 L 633.27 462.15 L 652.69 462.48 L 672.12 462.76 L 691.54 461.77 L 710.96 461.75 L 730.38 462.06 L 749.81 462.34 L 769.23 462.28 L 788.65 462.33 L 808.08 462.68 L 827.50 462.83 L 846.92 462.96 L 866.35 463.72 L 885.77 464.05 L 905.19 464.01 L 924.62 463.90 L 944.04 464.07 L 963.46 464.03 L 982.88 464.22 L 1002.31 464.43 L 1021.73 464.50 L 1041.15 464.70 L 1060.58 463.83 L 1080.00 463.66" fill="none" stroke="#173ee6" stroke-width="2"/>
<text x="77.0" y="538.0" class="label">Momentum 14</text>
<text x="1088.0" y="532.0" class="axis">4.56</text>
<text x="1088.0" y="606.0" class="axis">-23.75</text>
<line x1="70.0" y1="539.37" x2="1080.0" y2="539.37" stroke="#8a94a5" stroke-dasharray="5 5"/>
<rect x="65.05" y="539.37" width="9.91" height="17.26" fill="#8b929d"/>
<rect x="84.47" y="539.37" width="9.91" height="20.22" fill="#8b929d"/>
<rect x="103.89" y="539.37" width="9.91" height="25.16" fill="#8b929d"/>
<rect x="123.31" y="539.37" width="9.91" height="31.36" fill="#8b929d"/>
<rect x="142.74" y="539.37" width="9.91" height="59.99" fill="#8b929d"/>
<rect x="162.16" y="539.37" width="9.91" height="20.83" fill="#8b929d"/>
<rect x="181.58" y="539.37" width="9.91" height="13.41" fill="#8b929d"/>
<rect x="201.01" y="539.37" width="9.91" height="4.54" fill="#8b929d"/>
<rect x="220.43" y="539.37" width="9.91" height="7.67" fill="#8b929d"/>
<rect x="239.85" y="539.37" width="9.91" height="23.85" fill="#8b929d"/>
<rect x="259.28" y="539.37" width="9.91" height="21.64" fill="#8b929d"/>
<rect x="278.70" y="539.37" width="9.91" height="15.09" fill="#8b929d"/>
<rect x="298.12" y="539.37" width="9.91" height="3.42" fill="#8b929d"/>
<rect x="317.55" y="539.37" width="9.91" height="3.61" fill="#8b929d"/>
<rect x="336.97" y="539.37" width="9.91" height="25.70" fill="#8b929d"/>
<rect x="356.39" y="539.37" width="9.91" height="36.86" fill="#8b929d"/>
<rect x="375.81" y="539.37" width="9.91" height="33.07" fill="#8b929d"/>
<rect x="395.24" y="539.37" width="9.91" height="33.84" fill="#8b929d"/>
<rect x="414.66" y="539.37" width="9.91" height="18.80" fill="#8b929d"/>
<rect x="434.08" y="539.37" width="9.91" height="10.66" fill="#8b929d"/>
<rect x="453.51" y="539.37" width="9.91" height="13.46" fill="#8b929d"/>
<rect x="472.93" y="539.37" width="9.91" height="14.85" fill="#8b929d"/>
<rect x="492.35" y="539.37" width="9.91" height="19.63" fill="#8b929d"/>
<rect x="511.78" y="539.37" width="9.91" height="11.19" fill="#8b929d"/>
<rect x="531.20" y="539.37" width="9.91" height="10.55" fill="#8b929d"/>
<rect x="550.62" y="539.37" width="9.91" height="13.78" fill="#8b929d"/>
<rect x="570.05" y="539.37" width="9.91" height="26.07" fill="#8b929d"/>
<rect x="589.47" y="539.37" width="9.91" height="9.70" fill="#8b929d"/>
<rect x="608.89" y="539.37" width="9.91" height="5.80" fill="#8b929d"/>
<rect x="628.31" y="539.37" width="9.91" height="4.65" fill="#8b929d"/>
<rect x="647.74" y="539.37" width="9.91" height="8.09" fill="#8b929d"/>
<rect x="667.16" y="539.37" width="9.91" height="4.11" fill="#8b929d"/>
<rect x="686.58" y="539.37" width="9.91" height="16.21" fill="#8b929d"/>
<rect x="706.01" y="539.37" width="9.91" height="17.55" fill="#8b929d"/>
<rect x="725.43" y="539.37" width="9.91" height="12.50" fill="#8b929d"/>
<rect x="744.85" y="539.37" width="9.91" height="12.55" fill="#8b929d"/>
<rect x="764.28" y="539.37" width="9.91" height="11.30" fill="#8b929d"/>
<rect x="783.70" y="539.37" width="9.91" height="9.72" fill="#8b929d"/>
<rect x="803.12" y="539.37" width="9.91" height="17.60" fill="#8b929d"/>
<rect x="822.55" y="539.37" width="9.91" height="15.28" fill="#8b929d"/>
<rect x="841.97" y="539.37" width="9.91" height="13.44" fill="#8b929d"/>
<rect x="861.39" y="539.37" width="9.91" height="23.99" fill="#8b929d"/>
<rect x="880.81" y="539.37" width="9.91" height="19.07" fill="#8b929d"/>
<rect x="900.24" y="539.37" width="9.91" height="6.57" fill="#8b929d"/>
<rect x="919.66" y="539.37" width="9.91" height="9.24" fill="#8b929d"/>
<rect x="939.08" y="539.37" width="9.91" height="16.77" fill="#8b929d"/>
<rect x="958.51" y="539.37" width="9.91" height="5.69" fill="#8b929d"/>
<rect x="977.93" y="539.37" width="9.91" height="14.29" fill="#8b929d"/>
<rect x="997.35" y="539.37" width="9.91" height="12.13" fill="#8b929d"/>
<rect x="1016.78" y="539.37" width="9.91" height="16.13" fill="#8b929d"/>
<rect x="1036.20" y="539.37" width="9.91" height="10.87" fill="#8b929d"/>
<rect x="1055.62" y="535.47" width="9.91" height="3.90" fill="#ef4444"/>
<rect x="1075.05" y="530.64" width="9.91" height="8.73" fill="#ef4444"/>
<text x="77.0" y="638.0" class="label">MACD 12·26 · Signal 9</text>
<text x="1088.0" y="632.0" class="axis">1.00</text>
<text x="1088.0" y="736.0" class="axis">-4.20</text>
<line x1="70.0" y1="649.00" x2="1080.0" y2="649.00" stroke="#8a94a5" stroke-dasharray="5 5"/>
<rect x="65.05" y="649.00" width="9.91" height="4.01" fill="#c8ccd3" opacity="0.7"/>
<rect x="84.47" y="647.00" width="9.91" height="2.00" fill="#f2a0a0" opacity="0.7"/>
<rect x="103.89" y="642.56" width="9.91" height="6.44" fill="#f2a0a0" opacity="0.7"/>
<rect x="123.31" y="639.65" width="9.91" height="9.36" fill="#f2a0a0" opacity="0.7"/>
<rect x="142.74" y="646.47" width="9.91" height="2.54" fill="#f2a0a0" opacity="0.7"/>
<rect x="162.16" y="649.00" width="9.91" height="0.70" fill="#c8ccd3" opacity="0.7"/>
<rect x="181.58" y="649.00" width="9.91" height="2.11" fill="#c8ccd3" opacity="0.7"/>
<rect x="201.01" y="649.00" width="9.91" height="1.00" fill="#c8ccd3" opacity="0.7"/>
<rect x="220.43" y="649.00" width="9.91" height="1.17" fill="#c8ccd3" opacity="0.7"/>
<rect x="239.85" y="649.00" width="9.91" height="4.18" fill="#c8ccd3" opacity="0.7"/>
<rect x="259.28" y="649.00" width="9.91" height="3.80" fill="#c8ccd3" opacity="0.7"/>
<rect x="278.70" y="649.00" width="9.91" height="1.81" fill="#c8ccd3" opacity="0.7"/>
<rect x="298.12" y="645.68" width="9.91" height="3.33" fill="#f2a0a0" opacity="0.7"/>
<rect x="317.55" y="644.80" width="9.91" height="4.21" fill="#f2a0a0" opacity="0.7"/>
<rect x="336.97" y="648.66" width="9.91" height="0.70" fill="#f2a0a0" opacity="0.7"/>
<rect x="356.39" y="649.00" width="9.91" height="4.56" fill="#c8ccd3" opacity="0.7"/>
<rect x="375.81" y="649.00" width="9.91" height="4.88" fill="#c8ccd3" opacity="0.7"/>
<rect x="395.24" y="649.00" width="9.91" height="4.71" fill="#c8ccd3" opacity="0.7"/>
<rect x="414.66" y="649.00" width="9.91" height="5.50" fill="#c8ccd3" opacity="0.7"/>
<rect x="434.08" y="649.00" width="9.91" height="0.70" fill="#c8ccd3" opacity="0.7"/>
<rect x="453.51" y="647.34" width="9.91" height="1.67" fill="#f2a0a0" opacity="0.7"/>
<rect x="472.93" y="644.64" width="9.91" height="4.37" fill="#f2a0a0" opacity="0.7"/>
<rect x="492.35" y="646.27" width="9.91" height="2.73" fill="#f2a0a0" opacity="0.7"/>
<rect x="511.78" y="646.46" width="9.91" height="2.54" fill="#f2a0a0" opacity="0.7"/>
<rect x="531.20" y="644.36" width="9.91" height="4.65" fill="#f2a0a0" opacity="0.7"/>
<rect x="550.62" y="643.24" width="9.91" height="5.77" fill="#f2a0a0" opacity="0.7"/>
<rect x="570.05" y="644.75" width="9.91" height="4.26" fill="#f2a0a0" opacity="0.7"/>
<rect x="589.47" y="640.53" width="9.91" height="8.48" fill="#f2a0a0" opacity="0.7"/>
<rect x="608.89" y="640.75" width="9.91" height="8.26" fill="#f2a0a0" opacity="0.7"/>
<rect x="628.31" y="643.31" width="9.91" height="5.69" fill="#f2a0a0" opacity="0.7"/>
<rect x="647.74" y="644.37" width="9.91" height="4.64" fill="#f2a0a0" opacity="0.7"/>
<rect x="667.16" y="643.41" width="9.91" height="5.59" fill="#f2a0a0" opacity="0.7"/>
<rect x="686.58" y="649.00" width="9.91" height="0.97" fill="#c8ccd3" opacity="0.7"/>
<rect x="706.01" y="649.00" width="9.91" height="0.70" fill="#c8ccd3" opacity="0.7"/>
<rect x="725.43" y="648.09" width="9.91" height="0.92" fill="#f2a0a0" opacity="0.7"/>
<rect x="744.85" y="645.92" width="9.91" height="3.08" fill="#f2a0a0" opacity="0.7"/>
<rect x="764.28" y="647.37" width="9.91" height="1.63" fill="#f2a0a0" opacity="0.7"/>
<rect x="783.70" y="646.78" width="9.91" height="2.22" fill="#f2a0a0" opacity="0.7"/>
<rect x="803.12" y="647.94" width="9.91" height="1.06" fill="#f2a0a0" opacity="0.7"/>
<rect x="822.55" y="647.72" width="9.91" height="1.28" fill="#f2a0a0" opacity="0.7"/>
<rect x="841.97" y="648.81" width="9.91" height="0.70" fill="#f2a0a0" opacity="0.7"/>
<rect x="861.39" y="649.00" width="9.91" height="0.70" fill="#c8ccd3" opacity="0.7"/>
<rect x="880.81" y="649.00" width="9.91" height="0.70" fill="#c8ccd3" opacity="0.7"/>
<rect x="900.24" y="645.97" width="9.91" height="3.03" fill="#f2a0a0" opacity="0.7"/>
<rect x="919.66" y="644.36" width="9.91" height="4.64" fill="#f2a0a0" opacity="0.7"/>
<rect x="939.08" y="645.27" width="9.91" height="3.73" fill="#f2a0a0" opacity="0.7"/>
<rect x="958.51" y="647.83" width="9.91" height="1.18" fill="#f2a0a0" opacity="0.7"/>
<rect x="977.93" y="648.69" width="9.91" height="0.70" fill="#f2a0a0" opacity="0.7"/>
<rect x="997.35" y="647.66" width="9.91" height="1.34" fill="#f2a0a0" opacity="0.7"/>
<rect x="1016.78" y="647.49" width="9.91" height="1.51" fill="#f2a0a0" opacity="0.7"/>
<rect x="1036.20" y="647.72" width="9.91" height="1.28" fill="#f2a0a0" opacity="0.7"/>
<rect x="1055.62" y="639.56" width="9.91" height="9.44" fill="#f2a0a0" opacity="0.7"/>
<rect x="1075.05" y="634.18" width="9.91" height="14.82" fill="#f2a0a0" opacity="0.7"/>
<path d="M 70.00 722.92 L 89.42 716.41 L 108.85 710.36 L 128.27 705.10 L 147.69 711.29 L 167.12 713.97 L 186.54 716.49 L 205.96 715.63 L 225.38 716.09 L 244.81 720.14 L 264.23 720.71 L 283.65 719.18 L 303.08 713.21 L 322.50 711.28 L 341.92 715.05 L 361.35 721.10 L 380.77 722.64 L 400.19 723.64 L 419.62 725.82 L 439.04 720.48 L 458.46 718.26 L 477.88 714.47 L 497.31 715.42 L 516.73 714.98 L 536.15 711.71 L 555.58 709.15 L 575.00 709.60 L 594.42 703.26 L 613.85 701.41 L 633.27 702.56 L 652.69 702.45 L 672.12 700.10 L 691.54 706.91 L 710.96 706.19 L 730.38 704.84 L 749.81 701.91 L 769.23 702.95 L 788.65 701.80 L 808.08 702.70 L 827.50 702.16 L 846.92 703.20 L 866.35 703.50 L 885.77 704.02 L 905.19 699.74 L 924.62 696.98 L 944.04 696.95 L 963.46 699.21 L 982.88 700.00 L 1002.31 698.64 L 1021.73 698.09 L 1041.15 698.00 L 1060.58 687.48 L 1080.00 678.39" fill="none" stroke="#ef4444" stroke-width="2.2"/>
<path d="M 70.00 718.91 L 89.42 718.41 L 108.85 716.80 L 128.27 714.46 L 147.69 713.83 L 167.12 713.86 L 186.54 714.38 L 205.96 714.63 L 225.38 714.92 L 244.81 715.97 L 264.23 716.92 L 283.65 717.37 L 303.08 716.54 L 322.50 715.49 L 341.92 715.40 L 361.35 716.54 L 380.77 717.76 L 400.19 718.94 L 419.62 720.31 L 439.04 720.35 L 458.46 719.93 L 477.88 718.84 L 497.31 718.16 L 516.73 717.52 L 536.15 716.36 L 555.58 714.92 L 575.00 713.85 L 594.42 711.73 L 613.85 709.67 L 633.27 708.25 L 652.69 707.09 L 672.12 705.69 L 691.54 705.93 L 710.96 705.98 L 730.38 705.76 L 749.81 704.99 L 769.23 704.58 L 788.65 704.02 L 808.08 703.76 L 827.50 703.44 L 846.92 703.39 L 866.35 703.41 L 885.77 703.53 L 905.19 702.78 L 924.62 701.62 L 944.04 700.68 L 963.46 700.39 L 982.88 700.31 L 1002.31 699.98 L 1021.73 699.60 L 1041.15 699.28 L 1060.58 696.92 L 1080.00 693.21" fill="none" stroke="#3156d9" stroke-width="2.2"/>
<text x="77.0" y="768.0" class="label">RSI 14</text>
<text x="1088.0" y="762.0" class="axis">100.00</text>
<text x="1088.0" y="836.0" class="axis">0.00</text>
<line x1="70.0" y1="810.12" x2="1080.0" y2="810.12" stroke="#3156d9" stroke-dasharray="5 5"/>
<line x1="70.0" y1="795.00" x2="1080.0" y2="795.00" stroke="#aab1bd" stroke-dasharray="5 5"/>
<line x1="70.0" y1="779.88" x2="1080.0" y2="779.88" stroke="#ef4444" stroke-dasharray="5 5"/>
<path d="M 70.00 800.19 L 89.42 798.31 L 108.85 798.18 L 128.27 798.30 L 147.69 804.68 L 167.12 803.46 L 186.54 804.10 L 205.96 802.22 L 225.38 803.38 L 244.81 805.96 L 264.23 804.17 L 283.65 803.01 L 303.08 799.16 L 322.50 801.63 L 341.92 805.37 L 361.35 807.47 L 380.77 805.03 L 400.19 805.41 L 419.62 806.77 L 439.04 800.41 L 458.46 802.31 L 477.88 801.05 L 497.31 804.22 L 516.73 803.76 L 536.15 801.41 L 555.58 801.96 L 575.00 804.33 L 594.42 797.88 L 613.85 800.82 L 633.27 803.11 L 652.69 802.69 L 672.12 800.81 L 691.54 807.13 L 710.96 801.61 L 730.38 801.48 L 749.81 800.22 L 769.23 803.12 L 788.65 801.66 L 808.08 803.45 L 827.50 802.70 L 846.92 804.31 L 866.35 804.40 L 885.77 805.14 L 905.19 799.74 L 924.62 800.85 L 944.04 803.32 L 963.46 805.70 L 982.88 805.08 L 1002.31 803.01 L 1021.73 804.05 L 1041.15 804.92 L 1060.58 792.28 L 1080.00 791.88" fill="none" stroke="#e83e8c" stroke-width="2.2"/>
<text x="77.0" y="868.0" class="label">MFI 14</text>
<text x="1088.0" y="862.0" class="axis">100.00</text>
<text x="1088.0" y="936.0" class="axis">0.00</text>
<line x1="70.0" y1="910.12" x2="1080.0" y2="910.12" stroke="#3156d9" stroke-dasharray="5 5"/>
<line x1="70.0" y1="895.00" x2="1080.0" y2="895.00" stroke="#aab1bd" stroke-dasharray="5 5"/>
<line x1="70.0" y1="879.88" x2="1080.0" y2="879.88" stroke="#ef4444" stroke-dasharray="5 5"/>
<path d="M 70.00 894.18 L 89.42 895.51 L 108.85 896.53 L 128.27 902.03 L 147.69 910.15 L 167.12 909.26 L 186.54 908.96 L 205.96 904.24 L 225.38 904.36 L 244.81 909.74 L 264.23 909.71 L 283.65 904.98 L 303.08 899.59 L 322.50 899.71 L 341.92 905.18 L 361.35 909.05 L 380.77 909.80 L 400.19 905.26 L 419.62 902.59 L 439.04 895.06 L 458.46 894.66 L 477.88 898.52 L 497.31 898.36 L 516.73 898.12 L 536.15 897.12 L 555.58 902.00 L 575.00 907.45 L 594.42 901.94 L 613.85 901.90 L 633.27 901.58 L 652.69 906.62 L 672.12 906.94 L 691.54 908.79 L 710.96 909.60 L 730.38 905.41 L 749.81 901.80 L 769.23 901.97 L 788.65 896.65 L 808.08 901.82 L 827.50 901.57 L 846.92 901.81 L 866.35 906.19 L 885.77 905.33 L 905.19 900.21 L 924.62 894.63 L 944.04 899.23 L 963.46 894.76 L 982.88 901.64 L 1002.31 902.18 L 1021.73 907.96 L 1041.15 901.38 L 1060.58 898.23 L 1080.00 892.25" fill="none" stroke="#e83e8c" stroke-width="2.2"/>
<rect x="978.00" y="85.0" width="98" height="23" rx="5" fill="#1d5fd1"/>
<text x="1027.00" y="101.0" text-anchor="middle" style="font-size:11px;fill:#fff;font-weight:800">MMRM 기준봉</text>
<text x="70.00" y="962.0" text-anchor="middle" class="axis">2016-06</text>
<text x="322.50" y="962.0" text-anchor="middle" class="axis">2016-09</text>
<text x="575.00" y="962.0" text-anchor="middle" class="axis">2016-12</text>
<text x="827.50" y="962.0" text-anchor="middle" class="axis">2017-03</text>
<text x="1080.00" y="962.0" text-anchor="middle" class="axis">T0 2017-06-26</text>
<text x="1080.0" y="988" text-anchor="end" class="sub">이 그림은 패턴을 익히기 위한 실제 대표사례이며, 해당 사건의 기준봉 이후 결과를 포함하지 않는다.</text>
</svg>