<svg xmlns="http://www.w3.org/2000/svg" viewBox="0 0 1200 1000" role="img">
<title>완만한 조정·정상 회복형 실제 대표사례 CVX 2019-02-18 기준봉 이전 차트</title>
<rect width="1200" height="1000" fill="#ffffff"/>
<style>text{font-family:system-ui,-apple-system,'Noto Sans KR',sans-serif;fill:#202735}.title{font-size:21px;font-weight:800}.sub{font-size:12px;fill:#667085}.label{font-size:13px;font-weight:750}.axis{font-size:10px;fill:#6b7280}.legend{font-size:11px;font-weight:750}</style>
<text x="70.0" y="28" class="title">실제 대표사례 · CVX 2019-02-18 · 완만한 조정·정상 회복형</text>
<text x="70.0" y="50" class="sub">Investing 근사 주봉 · 기준봉 이전 52주와 기준봉만 표시 · 기준봉 이후 성과는 숨김</text>
<rect x="70.0" y="80.0" width="1010.0" height="310.0" fill="#fcfdff" stroke="#d9e1ec"/>
<line x1="70.00" y1="80.0" x2="70.00" y2="390.0" stroke="#e8edf4" stroke-width="1.0"/>
<line x1="322.50" y1="80.0" x2="322.50" y2="390.0" stroke="#e8edf4" stroke-width="1.0"/>
<line x1="575.00" y1="80.0" x2="575.00" y2="390.0" stroke="#e8edf4" stroke-width="1.0"/>
<line x1="827.50" y1="80.0" x2="827.50" y2="390.0" stroke="#e8edf4" stroke-width="1.0"/>
<line x1="1080.00" y1="80.0" x2="1080.00" y2="390.0" stroke="#1d5fd1" stroke-width="2.2"/>
<rect x="70.0" y="400.0" width="1010.0" height="110.0" fill="#fcfdff" stroke="#d9e1ec"/>
<line x1="70.00" y1="400.0" x2="70.00" y2="510.0" stroke="#e8edf4" stroke-width="1.0"/>
<line x1="322.50" y1="400.0" x2="322.50" y2="510.0" stroke="#e8edf4" stroke-width="1.0"/>
<line x1="575.00" y1="400.0" x2="575.00" y2="510.0" stroke="#e8edf4" stroke-width="1.0"/>
<line x1="827.50" y1="400.0" x2="827.50" y2="510.0" stroke="#e8edf4" stroke-width="1.0"/>
<line x1="1080.00" y1="400.0" x2="1080.00" y2="510.0" stroke="#1d5fd1" stroke-width="2.2"/>
<rect x="70.0" y="520.0" width="1010.0" height="90.0" fill="#fcfdff" stroke="#d9e1ec"/>
<line x1="70.00" y1="520.0" x2="70.00" y2="610.0" stroke="#e8edf4" stroke-width="1.0"/>
<line x1="322.50" y1="520.0" x2="322.50" y2="610.0" stroke="#e8edf4" stroke-width="1.0"/>
<line x1="575.00" y1="520.0" x2="575.00" y2="610.0" stroke="#e8edf4" stroke-width="1.0"/>
<line x1="827.50" y1="520.0" x2="827.50" y2="610.0" stroke="#e8edf4" stroke-width="1.0"/>
<line x1="1080.00" y1="520.0" x2="1080.00" y2="610.0" stroke="#1d5fd1" stroke-width="2.2"/>
<rect x="70.0" y="620.0" width="1010.0" height="120.0" fill="#fcfdff" stroke="#d9e1ec"/>
<line x1="70.00" y1="620.0" x2="70.00" y2="740.0" stroke="#e8edf4" stroke-width="1.0"/>
<line x1="322.50" y1="620.0" x2="322.50" y2="740.0" stroke="#e8edf4" stroke-width="1.0"/>
<line x1="575.00" y1="620.0" x2="575.00" y2="740.0" stroke="#e8edf4" stroke-width="1.0"/>
<line x1="827.50" y1="620.0" x2="827.50" y2="740.0" stroke="#e8edf4" stroke-width="1.0"/>
<line x1="1080.00" y1="620.0" x2="1080.00" y2="740.0" stroke="#1d5fd1" stroke-width="2.2"/>
<rect x="70.0" y="750.0" width="1010.0" height="90.0" fill="#fcfdff" stroke="#d9e1ec"/>
<line x1="70.00" y1="750.0" x2="70.00" y2="840.0" stroke="#e8edf4" stroke-width="1.0"/>
<line x1="322.50" y1="750.0" x2="322.50" y2="840.0" stroke="#e8edf4" stroke-width="1.0"/>
<line x1="575.00" y1="750.0" x2="575.00" y2="840.0" stroke="#e8edf4" stroke-width="1.0"/>
<line x1="827.50" y1="750.0" x2="827.50" y2="840.0" stroke="#e8edf4" stroke-width="1.0"/>
<line x1="1080.00" y1="750.0" x2="1080.00" y2="840.0" stroke="#1d5fd1" stroke-width="2.2"/>
<rect x="70.0" y="850.0" width="1010.0" height="90.0" fill="#fcfdff" stroke="#d9e1ec"/>
<line x1="70.00" y1="850.0" x2="70.00" y2="940.0" stroke="#e8edf4" stroke-width="1.0"/>
<line x1="322.50" y1="850.0" x2="322.50" y2="940.0" stroke="#e8edf4" stroke-width="1.0"/>
<line x1="575.00" y1="850.0" x2="575.00" y2="940.0" stroke="#e8edf4" stroke-width="1.0"/>
<line x1="827.50" y1="850.0" x2="827.50" y2="940.0" stroke="#e8edf4" stroke-width="1.0"/>
<line x1="1080.00" y1="850.0" x2="1080.00" y2="940.0" stroke="#1d5fd1" stroke-width="2.2"/>
<text x="77.0" y="98.0" class="label">주봉 가격 · MA 5 / 20 / 50 / 150 / 200</text>
<text x="1088.0" y="92.0" class="axis">132.62</text>
<text x="1088.0" y="386.0" class="axis">98.68</text>
<line x1="70.00" y1="257.17" x2="70.00" y2="286.78" stroke="#ef3b3b"/>
<rect x="64.76" y="258.47" width="10.48" height="2.38" fill="#ef3b3b" stroke="#ef3b3b"/>
<line x1="89.42" y1="231.93" x2="89.42" y2="279.65" stroke="#3156d9"/>
<rect x="84.18" y="253.95" width="10.48" height="11.81" fill="#ffffff" stroke="#3156d9"/>
<line x1="108.85" y1="221.65" x2="108.85" y2="270.52" stroke="#ef3b3b"/>
<rect x="103.61" y="222.96" width="10.48" height="44.65" fill="#ef3b3b" stroke="#ef3b3b"/>
<line x1="128.27" y1="214.29" x2="128.27" y2="243.36" stroke="#3156d9"/>
<rect x="123.03" y="220.81" width="10.48" height="16.11" fill="#ffffff" stroke="#3156d9"/>
<line x1="147.69" y1="216.13" x2="147.69" y2="257.63" stroke="#3156d9"/>
<rect x="142.45" y="239.45" width="10.48" height="16.03" fill="#ffffff" stroke="#3156d9"/>
<line x1="167.12" y1="225.72" x2="167.12" y2="262.54" stroke="#3156d9"/>
<rect x="161.87" y="245.82" width="10.48" height="1.53" fill="#ffffff" stroke="#3156d9"/>
<line x1="186.54" y1="217.82" x2="186.54" y2="274.20" stroke="#ef3b3b"/>
<rect x="181.30" y="241.83" width="10.48" height="6.67" fill="#ef3b3b" stroke="#ef3b3b"/>
<line x1="205.96" y1="195.57" x2="205.96" y2="240.91" stroke="#ef3b3b"/>
<rect x="200.72" y="202.24" width="10.48" height="35.44" fill="#ef3b3b" stroke="#ef3b3b"/>
<line x1="225.38" y1="163.28" x2="225.38" y2="203.40" stroke="#ef3b3b"/>
<rect x="220.14" y="183.91" width="10.48" height="13.12" fill="#ef3b3b" stroke="#ef3b3b"/>
<line x1="244.81" y1="147.55" x2="244.81" y2="193.04" stroke="#ef3b3b"/>
<rect x="239.57" y="150.85" width="10.48" height="35.44" fill="#ef3b3b" stroke="#ef3b3b"/>
<line x1="264.23" y1="141.03" x2="264.23" y2="178.00" stroke="#3156d9"/>
<rect x="258.99" y="147.78" width="10.48" height="11.43" fill="#ffffff" stroke="#3156d9"/>
<line x1="283.65" y1="119.09" x2="283.65" y2="173.79" stroke="#ef3b3b"/>
<rect x="278.41" y="126.15" width="10.48" height="24.93" fill="#ef3b3b" stroke="#ef3b3b"/>
<line x1="303.08" y1="116.64" x2="303.08" y2="141.80" stroke="#3156d9"/>
<rect x="297.84" y="123.00" width="10.48" height="18.33" fill="#ffffff" stroke="#3156d9"/>
<line x1="322.50" y1="121.93" x2="322.50" y2="192.27" stroke="#3156d9"/>
<rect x="317.26" y="134.20" width="10.48" height="50.63" fill="#ffffff" stroke="#3156d9"/>
<line x1="341.92" y1="158.14" x2="341.92" y2="201.17" stroke="#ef3b3b"/>
<rect x="336.68" y="172.10" width="10.48" height="21.10" fill="#ef3b3b" stroke="#ef3b3b"/>
<line x1="361.35" y1="140.42" x2="361.35" y2="189.74" stroke="#ef3b3b"/>
<rect x="356.11" y="152.23" width="10.48" height="14.65" fill="#ef3b3b" stroke="#ef3b3b"/>
<line x1="380.77" y1="137.35" x2="380.77" y2="172.17" stroke="#3156d9"/>
<rect x="375.53" y="149.70" width="10.48" height="20.94" fill="#ffffff" stroke="#3156d9"/>
<line x1="400.19" y1="148.09" x2="400.19" y2="185.06" stroke="#ef3b3b"/>
<rect x="394.95" y="162.51" width="10.48" height="5.75" fill="#ef3b3b" stroke="#ef3b3b"/>
<line x1="419.62" y1="142.33" x2="419.62" y2="186.83" stroke="#ef3b3b"/>
<rect x="414.37" y="152.31" width="10.48" height="15.34" fill="#ef3b3b" stroke="#ef3b3b"/>
<line x1="439.04" y1="150.31" x2="439.04" y2="177.16" stroke="#3156d9"/>
<rect x="433.80" y="161.13" width="10.48" height="8.74" fill="#ffffff" stroke="#3156d9"/>
<line x1="458.46" y1="136.35" x2="458.46" y2="178.85" stroke="#3156d9"/>
<rect x="453.22" y="163.28" width="10.48" height="7.36" fill="#ffffff" stroke="#3156d9"/>
<line x1="477.88" y1="171.87" x2="477.88" y2="204.16" stroke="#3156d9"/>
<rect x="472.64" y="178.54" width="10.48" height="5.68" fill="#ffffff" stroke="#3156d9"/>
<line x1="497.31" y1="147.63" x2="497.31" y2="192.73" stroke="#ef3b3b"/>
<rect x="492.07" y="155.84" width="10.48" height="27.77" fill="#ef3b3b" stroke="#ef3b3b"/>
<line x1="516.73" y1="136.04" x2="516.73" y2="176.32" stroke="#3156d9"/>
<rect x="511.49" y="149.78" width="10.48" height="20.79" fill="#ffffff" stroke="#3156d9"/>
<line x1="536.15" y1="157.91" x2="536.15" y2="190.12" stroke="#3156d9"/>
<rect x="530.91" y="167.73" width="10.48" height="8.28" fill="#ffffff" stroke="#3156d9"/>
<line x1="555.58" y1="173.40" x2="555.58" y2="223.95" stroke="#3156d9"/>
<rect x="550.34" y="176.24" width="10.48" height="42.27" fill="#ffffff" stroke="#3156d9"/>
<line x1="575.00" y1="205.16" x2="575.00" y2="222.11" stroke="#ef3b3b"/>
<rect x="569.76" y="209.23" width="10.48" height="7.75" fill="#ef3b3b" stroke="#ef3b3b"/>
<line x1="594.42" y1="191.35" x2="594.42" y2="216.28" stroke="#3156d9"/>
<rect x="589.18" y="206.54" width="10.48" height="6.90" fill="#ffffff" stroke="#3156d9"/>
<line x1="613.85" y1="204.47" x2="613.85" y2="252.34" stroke="#3156d9"/>
<rect x="608.61" y="209.84" width="10.48" height="33.22" fill="#ffffff" stroke="#3156d9"/>
<line x1="633.27" y1="219.96" x2="633.27" y2="249.50" stroke="#ef3b3b"/>
<rect x="628.03" y="221.73" width="10.48" height="14.96" fill="#ef3b3b" stroke="#ef3b3b"/>
<line x1="652.69" y1="191.51" x2="652.69" y2="222.50" stroke="#ef3b3b"/>
<rect x="647.45" y="192.96" width="10.48" height="27.00" fill="#ef3b3b" stroke="#ef3b3b"/>
<line x1="672.12" y1="169.11" x2="672.12" y2="189.59" stroke="#ef3b3b"/>
<rect x="666.87" y="184.14" width="10.48" height="2.84" fill="#ef3b3b" stroke="#ef3b3b"/>
<line x1="691.54" y1="156.37" x2="691.54" y2="177.77" stroke="#ef3b3b"/>
<rect x="686.30" y="160.74" width="10.48" height="17.03" fill="#ef3b3b" stroke="#ef3b3b"/>
<line x1="710.96" y1="143.33" x2="710.96" y2="230.93" stroke="#3156d9"/>
<rect x="705.72" y="170.56" width="10.48" height="48.17" fill="#ffffff" stroke="#3156d9"/>
<line x1="730.38" y1="207.31" x2="730.38" y2="232.16" stroke="#ef3b3b"/>
<rect x="725.14" y="215.90" width="10.48" height="3.38" fill="#ef3b3b" stroke="#ef3b3b"/>
<line x1="749.81" y1="213.21" x2="749.81" y2="280.95" stroke="#3156d9"/>
<rect x="744.57" y="216.21" width="10.48" height="50.40" fill="#ffffff" stroke="#3156d9"/>
<line x1="769.23" y1="223.80" x2="769.23" y2="297.21" stroke="#ef3b3b"/>
<rect x="763.99" y="242.06" width="10.48" height="20.64" fill="#ef3b3b" stroke="#ef3b3b"/>
<line x1="788.65" y1="187.29" x2="788.65" y2="227.71" stroke="#ef3b3b"/>
<rect x="783.41" y="205.39" width="10.48" height="22.17" fill="#ef3b3b" stroke="#ef3b3b"/>
<line x1="808.08" y1="191.12" x2="808.08" y2="257.48" stroke="#3156d9"/>
<rect x="802.84" y="194.73" width="10.48" height="14.11" fill="#ffffff" stroke="#3156d9"/>
<line x1="827.50" y1="205.47" x2="827.50" y2="262.16" stroke="#3156d9"/>
<rect x="822.26" y="215.90" width="10.48" height="34.83" fill="#ffffff" stroke="#3156d9"/>
<line x1="846.92" y1="203.70" x2="846.92" y2="247.50" stroke="#ef3b3b"/>
<rect x="841.68" y="209.76" width="10.48" height="33.29" fill="#ef3b3b" stroke="#ef3b3b"/>
<line x1="866.35" y1="182.99" x2="866.35" y2="255.10" stroke="#3156d9"/>
<rect x="861.11" y="195.72" width="10.48" height="40.50" fill="#ffffff" stroke="#3156d9"/>
<line x1="885.77" y1="219.12" x2="885.77" y2="265.53" stroke="#3156d9"/>
<rect x="880.53" y="237.68" width="10.48" height="11.28" fill="#ffffff" stroke="#3156d9"/>
<line x1="905.19" y1="240.22" x2="905.19" y2="332.73" stroke="#3156d9"/>
<rect x="899.95" y="251.95" width="10.48" height="70.80" fill="#ffffff" stroke="#3156d9"/>
<line x1="924.62" y1="275.58" x2="924.62" y2="353.36" stroke="#ef3b3b"/>
<rect x="919.37" y="288.70" width="10.48" height="41.04" fill="#ef3b3b" stroke="#ef3b3b"/>
<line x1="944.04" y1="265.45" x2="944.04" y2="300.59" stroke="#ef3b3b"/>
<rect x="938.80" y="272.05" width="10.48" height="12.81" fill="#ef3b3b" stroke="#ef3b3b"/>
<line x1="963.46" y1="247.66" x2="963.46" y2="278.95" stroke="#ef3b3b"/>
<rect x="958.22" y="258.86" width="10.48" height="11.35" fill="#ef3b3b" stroke="#ef3b3b"/>
<line x1="982.88" y1="242.67" x2="982.88" y2="277.04" stroke="#ef3b3b"/>
<rect x="977.64" y="244.82" width="10.48" height="23.24" fill="#ef3b3b" stroke="#ef3b3b"/>
<line x1="1002.31" y1="241.67" x2="1002.31" y2="275.12" stroke="#ef3b3b"/>
<rect x="997.07" y="253.64" width="10.48" height="1.20" fill="#ef3b3b" stroke="#ef3b3b"/>
<line x1="1021.73" y1="207.38" x2="1021.73" y2="270.13" stroke="#ef3b3b"/>
<rect x="1016.49" y="214.13" width="10.48" height="49.55" fill="#ef3b3b" stroke="#ef3b3b"/>
<line x1="1041.15" y1="202.71" x2="1041.15" y2="232.93" stroke="#ef3b3b"/>
<rect x="1035.91" y="220.19" width="10.48" height="1.20" fill="#ef3b3b" stroke="#ef3b3b"/>
<line x1="1060.58" y1="198.64" x2="1060.58" y2="229.32" stroke="#ef3b3b"/>
<rect x="1055.34" y="206.62" width="10.48" height="18.56" fill="#ef3b3b" stroke="#ef3b3b"/>
<line x1="1080.00" y1="196.11" x2="1080.00" y2="213.98" stroke="#ef3b3b"/>
<rect x="1074.76" y="206.31" width="10.48" height="3.76" fill="#ef3b3b" stroke="#ef3b3b"/>
<path d="M 70.00 220.04 L 89.42 250.04 L 108.85 252.12 L 128.27 249.21 L 147.69 247.92 L 167.12 245.69 L 186.54 240.91 L 205.96 236.76 L 225.38 226.16 L 244.81 205.24 L 264.23 187.61 L 283.65 164.47 L 303.08 152.29 L 322.50 152.48 L 341.92 156.73 L 361.35 155.33 L 380.77 164.23 L 400.19 168.46 L 419.62 161.96 L 439.04 161.51 L 458.46 165.19 L 477.88 167.91 L 497.31 166.57 L 516.73 170.23 L 536.15 171.45 L 555.58 181.03 L 575.00 186.03 L 594.42 197.55 L 613.85 212.05 L 633.27 221.19 L 652.69 216.08 L 672.12 211.07 L 691.54 200.53 L 710.96 195.66 L 730.38 194.50 L 749.81 209.23 L 769.23 220.81 L 788.65 229.74 L 808.08 227.76 L 827.50 234.72 L 846.92 223.36 L 866.35 222.19 L 885.77 230.90 L 905.19 253.69 L 924.62 261.28 L 944.04 273.74 L 963.46 278.26 L 982.88 277.44 L 1002.31 263.61 L 1021.73 248.70 L 1041.15 238.33 L 1060.58 227.88 L 1080.00 220.18" fill="none" stroke="#168b4b" stroke-width="2"/>
<path d="M 70.00 199.77 L 89.42 202.65 L 108.85 203.20 L 128.27 202.48 L 147.69 203.25 L 167.12 204.46 L 186.54 204.44 L 205.96 203.13 L 225.38 202.06 L 244.81 199.49 L 264.23 197.26 L 283.65 195.40 L 303.08 194.37 L 322.50 196.56 L 341.92 200.30 L 361.35 202.17 L 380.77 204.91 L 400.19 202.41 L 419.62 197.45 L 439.04 192.85 L 458.46 188.46 L 477.88 184.38 L 497.31 181.02 L 516.73 177.71 L 536.15 173.73 L 555.58 172.29 L 575.00 170.66 L 594.42 171.22 L 613.85 174.18 L 633.27 177.72 L 652.69 179.41 L 672.12 182.31 L 691.54 183.28 L 710.96 184.97 L 730.38 187.16 L 749.81 192.88 L 769.23 196.45 L 788.65 198.60 L 808.08 201.42 L 827.50 205.47 L 846.92 207.42 L 866.35 210.02 L 885.77 214.68 L 905.19 222.29 L 924.62 227.92 L 944.04 230.60 L 963.46 233.08 L 982.88 234.65 L 1002.31 235.18 L 1021.73 234.80 L 1041.15 236.16 L 1060.58 237.29 L 1080.00 239.56" fill="none" stroke="#13b8c8" stroke-width="2"/>
<path d="M 70.00 256.25 L 89.42 255.65 L 108.85 254.23 L 128.27 253.00 L 147.69 252.37 L 167.12 251.15 L 186.54 249.63 L 205.96 247.61 L 225.38 245.07 L 244.81 241.90 L 264.23 238.98 L 283.65 235.13 L 303.08 231.33 L 322.50 228.91 L 341.92 226.53 L 361.35 223.24 L 380.77 220.22 L 400.19 216.90 L 419.62 213.53 L 439.04 210.33 L 458.46 207.88 L 477.88 206.02 L 497.31 203.45 L 516.73 200.75 L 536.15 198.44 L 555.58 197.05 L 575.00 195.79 L 594.42 195.20 L 613.85 195.61 L 633.27 195.63 L 652.69 195.00 L 672.12 194.52 L 691.54 193.50 L 710.96 192.85 L 730.38 192.36 L 749.81 193.23 L 769.23 193.23 L 788.65 192.77 L 808.08 192.84 L 827.50 193.81 L 846.92 193.93 L 866.35 195.38 L 885.77 197.13 L 905.19 200.76 L 924.62 204.59 L 944.04 207.73 L 963.46 210.59 L 982.88 211.24 L 1002.31 211.28 L 1021.73 210.32 L 1041.15 209.56 L 1060.58 208.38 L 1080.00 208.04" fill="none" stroke="#3156d9" stroke-width="2"/>
<path d="M 70.00 330.04 L 89.42 329.91 L 108.85 329.53 L 128.27 329.21 L 147.69 328.99 L 167.12 328.68 L 186.54 328.18 L 205.96 327.31 L 225.38 326.25 L 244.81 324.88 L 264.23 323.55 L 283.65 321.95 L 303.08 320.32 L 322.50 318.90 L 341.92 317.33 L 361.35 315.49 L 380.77 313.67 L 400.19 311.56 L 419.62 309.49 L 439.04 307.02 L 458.46 304.79 L 477.88 302.45 L 497.31 299.89 L 516.73 297.52 L 536.15 295.19 L 555.58 293.33 L 575.00 291.83 L 594.42 290.44 L 613.85 289.24 L 633.27 287.89 L 652.69 286.50 L 672.12 284.78 L 691.54 282.93 L 710.96 281.52 L 730.38 280.07 L 749.81 278.79 L 769.23 277.51 L 788.65 276.11 L 808.08 274.62 L 827.50 273.01 L 846.92 271.21 L 866.35 269.57 L 885.77 268.17 L 905.19 267.08 L 924.62 265.90 L 944.04 264.65 L 963.46 263.21 L 982.88 261.86 L 1002.31 260.91 L 1021.73 259.85 L 1041.15 258.69 L 1060.58 257.40 L 1080.00 256.22" fill="none" stroke="#8b3f2b" stroke-width="3"/>
<path d="M 70.00 302.75 L 89.42 303.25 L 108.85 303.55 L 128.27 303.85 L 147.69 304.25 L 167.12 304.58 L 186.54 304.95 L 205.96 305.23 L 225.38 305.61 L 244.81 305.76 L 264.23 305.97 L 283.65 305.92 L 303.08 306.02 L 322.50 306.45 L 341.92 306.61 L 361.35 306.66 L 380.77 306.74 L 400.19 306.82 L 419.62 306.94 L 439.04 307.06 L 458.46 307.01 L 477.88 307.10 L 497.31 306.93 L 516.73 306.69 L 536.15 306.33 L 555.58 306.10 L 575.00 305.98 L 594.42 306.03 L 613.85 306.20 L 633.27 306.16 L 652.69 306.06 L 672.12 305.54 L 691.54 304.99 L 710.96 304.40 L 730.38 304.20 L 749.81 304.26 L 769.23 304.18 L 788.65 303.75 L 808.08 303.21 L 827.50 302.95 L 846.92 302.33 L 866.35 302.10 L 885.77 302.06 L 905.19 302.23 L 924.62 302.15 L 944.04 301.87 L 963.46 301.45 L 982.88 301.17 L 1002.31 300.83 L 1021.73 300.33 L 1041.15 299.92 L 1060.58 299.53 L 1080.00 299.16" fill="none" stroke="#e05252" stroke-width="3"/>
<line x1="470.0" y1="95.0" x2="489.0" y2="95.0" stroke="#168b4b" stroke-width="3"/>
<text x="494.0" y="99.0" class="legend">5</text>
<line x1="552.0" y1="95.0" x2="571.0" y2="95.0" stroke="#13b8c8" stroke-width="3"/>
<text x="576.0" y="99.0" class="legend">20</text>
<line x1="634.0" y1="95.0" x2="653.0" y2="95.0" stroke="#3156d9" stroke-width="3"/>
<text x="658.0" y="99.0" class="legend">50</text>
<line x1="716.0" y1="95.0" x2="735.0" y2="95.0" stroke="#8b3f2b" stroke-width="3"/>
<text x="740.0" y="99.0" class="legend">150</text>
<line x1="798.0" y1="95.0" x2="817.0" y2="95.0" stroke="#e05252" stroke-width="3"/>
<text x="822.0" y="99.0" class="legend">200</text>
<text x="77.0" y="418.0" class="label">거래량 · 50주 평균</text>
<text x="1088.0" y="412.0" class="axis">61,728,450.00</text>
<text x="1088.0" y="506.0" class="axis">0.00</text>
<rect x="64.09" y="458.78" width="11.82" height="42.42" fill="#ef9a9a" opacity="0.78"/>
<rect x="83.52" y="448.76" width="11.82" height="52.44" fill="#94a3e8" opacity="0.78"/>
<rect x="102.94" y="445.27" width="11.82" height="55.93" fill="#ef9a9a" opacity="0.78"/>
<rect x="122.36" y="444.09" width="11.82" height="57.11" fill="#94a3e8" opacity="0.78"/>
<rect x="141.78" y="458.17" width="11.82" height="43.03" fill="#94a3e8" opacity="0.78"/>
<rect x="161.21" y="462.26" width="11.82" height="38.94" fill="#94a3e8" opacity="0.78"/>
<rect x="180.63" y="451.84" width="11.82" height="49.36" fill="#ef9a9a" opacity="0.78"/>
<rect x="200.05" y="451.80" width="11.82" height="49.40" fill="#ef9a9a" opacity="0.78"/>
<rect x="219.48" y="448.90" width="11.82" height="52.30" fill="#ef9a9a" opacity="0.78"/>
<rect x="238.90" y="449.51" width="11.82" height="51.69" fill="#ef9a9a" opacity="0.78"/>
<rect x="258.32" y="452.15" width="11.82" height="49.05" fill="#94a3e8" opacity="0.78"/>
<rect x="277.75" y="439.95" width="11.82" height="61.25" fill="#ef9a9a" opacity="0.78"/>
<rect x="297.17" y="458.62" width="11.82" height="42.58" fill="#94a3e8" opacity="0.78"/>
<rect x="316.59" y="454.22" width="11.82" height="46.98" fill="#94a3e8" opacity="0.78"/>
<rect x="336.02" y="459.70" width="11.82" height="41.50" fill="#ef9a9a" opacity="0.78"/>
<rect x="355.44" y="454.25" width="11.82" height="46.95" fill="#ef9a9a" opacity="0.78"/>
<rect x="374.86" y="448.47" width="11.82" height="52.73" fill="#94a3e8" opacity="0.78"/>
<rect x="394.28" y="445.14" width="11.82" height="56.06" fill="#ef9a9a" opacity="0.78"/>
<rect x="413.71" y="461.95" width="11.82" height="39.25" fill="#ef9a9a" opacity="0.78"/>
<rect x="433.13" y="472.85" width="11.82" height="28.35" fill="#94a3e8" opacity="0.78"/>
<rect x="452.55" y="466.14" width="11.82" height="35.06" fill="#94a3e8" opacity="0.78"/>
<rect x="471.98" y="464.71" width="11.82" height="36.49" fill="#94a3e8" opacity="0.78"/>
<rect x="491.40" y="460.50" width="11.82" height="40.70" fill="#ef9a9a" opacity="0.78"/>
<rect x="510.82" y="461.95" width="11.82" height="39.25" fill="#94a3e8" opacity="0.78"/>
<rect x="530.25" y="461.83" width="11.82" height="39.37" fill="#94a3e8" opacity="0.78"/>
<rect x="549.67" y="457.75" width="11.82" height="43.45" fill="#94a3e8" opacity="0.78"/>
<rect x="569.09" y="467.83" width="11.82" height="33.37" fill="#ef9a9a" opacity="0.78"/>
<rect x="588.52" y="469.27" width="11.82" height="31.93" fill="#94a3e8" opacity="0.78"/>
<rect x="607.94" y="465.22" width="11.82" height="35.98" fill="#94a3e8" opacity="0.78"/>
<rect x="627.36" y="459.60" width="11.82" height="41.60" fill="#ef9a9a" opacity="0.78"/>
<rect x="646.78" y="448.91" width="11.82" height="52.29" fill="#ef9a9a" opacity="0.78"/>
<rect x="666.21" y="462.43" width="11.82" height="38.77" fill="#ef9a9a" opacity="0.78"/>
<rect x="685.63" y="464.65" width="11.82" height="36.55" fill="#ef9a9a" opacity="0.78"/>
<rect x="705.05" y="447.90" width="11.82" height="53.30" fill="#94a3e8" opacity="0.78"/>
<rect x="724.48" y="451.49" width="11.82" height="49.71" fill="#ef9a9a" opacity="0.78"/>
<rect x="743.90" y="447.99" width="11.82" height="53.21" fill="#94a3e8" opacity="0.78"/>
<rect x="763.32" y="435.32" width="11.82" height="65.88" fill="#ef9a9a" opacity="0.78"/>
<rect x="782.75" y="448.84" width="11.82" height="52.36" fill="#ef9a9a" opacity="0.78"/>
<rect x="802.17" y="444.16" width="11.82" height="57.04" fill="#94a3e8" opacity="0.78"/>
<rect x="821.59" y="464.51" width="11.82" height="36.69" fill="#94a3e8" opacity="0.78"/>
<rect x="841.02" y="451.05" width="11.82" height="50.15" fill="#ef9a9a" opacity="0.78"/>
<rect x="860.44" y="446.78" width="11.82" height="54.42" fill="#94a3e8" opacity="0.78"/>
<rect x="879.86" y="449.23" width="11.82" height="51.97" fill="#94a3e8" opacity="0.78"/>
<rect x="899.28" y="413.20" width="11.82" height="88.00" fill="#94a3e8" opacity="0.78"/>
<rect x="918.71" y="451.06" width="11.82" height="50.14" fill="#ef9a9a" opacity="0.78"/>
<rect x="938.13" y="460.57" width="11.82" height="40.63" fill="#ef9a9a" opacity="0.78"/>
<rect x="957.55" y="457.71" width="11.82" height="43.49" fill="#ef9a9a" opacity="0.78"/>
<rect x="976.98" y="456.60" width="11.82" height="44.60" fill="#ef9a9a" opacity="0.78"/>
<rect x="996.40" y="459.20" width="11.82" height="42.00" fill="#ef9a9a" opacity="0.78"/>
<rect x="1015.82" y="437.81" width="11.82" height="63.39" fill="#ef9a9a" opacity="0.78"/>
<rect x="1035.25" y="452.07" width="11.82" height="49.13" fill="#ef9a9a" opacity="0.78"/>
<rect x="1054.67" y="459.57" width="11.82" height="41.63" fill="#ef9a9a" opacity="0.78"/>
<rect x="1074.09" y="471.45" width="11.82" height="29.75" fill="#ef9a9a" opacity="0.78"/>
<path d="M 70.00 459.80 L 89.42 460.21 L 108.85 460.07 L 128.27 459.85 L 147.69 459.76 L 167.12 459.60 L 186.54 459.41 L 205.96 459.27 L 225.38 459.09 L 244.81 458.80 L 264.23 458.78 L 283.65 458.17 L 303.08 458.00 L 322.50 457.95 L 341.92 458.26 L 361.35 458.12 L 380.77 457.71 L 400.19 457.20 L 419.62 457.05 L 439.04 457.24 L 458.46 457.46 L 477.88 457.70 L 497.31 457.52 L 516.73 457.48 L 536.15 457.38 L 555.58 457.09 L 575.00 457.13 L 594.42 457.43 L 613.85 457.49 L 633.27 457.39 L 652.69 456.97 L 672.12 456.82 L 691.54 456.85 L 710.96 456.73 L 730.38 456.58 L 749.81 456.31 L 769.23 455.79 L 788.65 455.19 L 808.08 454.86 L 827.50 454.89 L 846.92 454.77 L 866.35 454.59 L 885.77 453.94 L 905.19 452.78 L 924.62 452.78 L 944.04 452.68 L 963.46 452.67 L 982.88 453.13 L 1002.31 454.27 L 1021.73 454.02 L 1041.15 453.88 L 1060.58 454.10 L 1080.00 454.62" fill="none" stroke="#173ee6" stroke-width="2"/>
<text x="77.0" y="538.0" class="label">Momentum 14</text>
<text x="1088.0" y="532.0" class="axis">16.20</text>
<text x="1088.0" y="606.0" class="axis">-14.57</text>
<line x1="70.0" y1="567.00" x2="1080.0" y2="567.00" stroke="#8a94a5" stroke-dasharray="5 5"/>
<rect x="65.05" y="567.00" width="9.91" height="5.21" fill="#8b929d"/>
<rect x="84.47" y="567.00" width="9.91" height="11.97" fill="#8b929d"/>
<rect x="103.89" y="567.00" width="9.91" height="5.63" fill="#8b929d"/>
<rect x="123.31" y="567.00" width="9.91" height="11.11" fill="#8b929d"/>
<rect x="142.74" y="567.00" width="9.91" height="16.59" fill="#8b929d"/>
<rect x="162.16" y="567.00" width="9.91" height="26.88" fill="#8b929d"/>
<rect x="181.58" y="567.00" width="9.91" height="25.63" fill="#8b929d"/>
<rect x="201.01" y="567.00" width="9.91" height="19.61" fill="#8b929d"/>
<rect x="220.43" y="567.00" width="9.91" height="27.74" fill="#8b929d"/>
<rect x="239.85" y="567.00" width="9.91" height="11.50" fill="#8b929d"/>
<rect x="259.28" y="567.00" width="9.91" height="13.91" fill="#8b929d"/>
<rect x="278.70" y="539.33" width="9.91" height="27.67" fill="#ef4444"/>
<rect x="298.12" y="531.72" width="9.91" height="35.29" fill="#ef4444"/>
<rect x="317.55" y="542.31" width="9.91" height="24.69" fill="#ef4444"/>
<rect x="336.97" y="539.33" width="9.91" height="27.67" fill="#ef4444"/>
<rect x="356.39" y="530.64" width="9.91" height="36.37" fill="#ef4444"/>
<rect x="375.81" y="550.24" width="9.91" height="16.76" fill="#ef4444"/>
<rect x="395.24" y="543.17" width="9.91" height="23.83" fill="#ef4444"/>
<rect x="414.66" y="533.95" width="9.91" height="33.05" fill="#ef4444"/>
<rect x="434.08" y="542.19" width="9.91" height="24.82" fill="#ef4444"/>
<rect x="453.51" y="544.20" width="9.91" height="22.80" fill="#ef4444"/>
<rect x="472.93" y="561.23" width="9.91" height="5.77" fill="#ef4444"/>
<rect x="492.35" y="558.01" width="9.91" height="8.99" fill="#ef4444"/>
<rect x="511.78" y="567.00" width="9.91" height="6.31" fill="#8b929d"/>
<rect x="531.20" y="567.00" width="9.91" height="5.38" fill="#8b929d"/>
<rect x="550.62" y="567.00" width="9.91" height="29.58" fill="#8b929d"/>
<rect x="570.05" y="567.00" width="9.91" height="21.75" fill="#8b929d"/>
<rect x="589.47" y="567.00" width="9.91" height="9.17" fill="#8b929d"/>
<rect x="608.89" y="567.00" width="9.91" height="22.73" fill="#8b929d"/>
<rect x="628.31" y="567.00" width="9.91" height="22.26" fill="#8b929d"/>
<rect x="647.74" y="567.00" width="9.91" height="7.15" fill="#8b929d"/>
<rect x="667.16" y="567.00" width="9.91" height="6.93" fill="#8b929d"/>
<rect x="686.58" y="567.00" width="9.91" height="2.70" fill="#8b929d"/>
<rect x="706.01" y="567.00" width="9.91" height="15.65" fill="#8b929d"/>
<rect x="725.43" y="567.00" width="9.91" height="14.50" fill="#8b929d"/>
<rect x="744.85" y="567.00" width="9.91" height="26.39" fill="#8b929d"/>
<rect x="764.28" y="567.00" width="9.91" height="27.62" fill="#8b929d"/>
<rect x="783.70" y="567.00" width="9.91" height="11.16" fill="#8b929d"/>
<rect x="803.12" y="567.00" width="9.91" height="10.52" fill="#8b929d"/>
<rect x="822.55" y="567.00" width="9.91" height="10.32" fill="#8b929d"/>
<rect x="841.97" y="567.00" width="9.91" height="0.80" fill="#8b929d"/>
<rect x="861.39" y="567.00" width="9.91" height="7.30" fill="#8b929d"/>
<rect x="880.81" y="567.00" width="9.91" height="1.89" fill="#8b929d"/>
<rect x="900.24" y="567.00" width="9.91" height="32.36" fill="#8b929d"/>
<rect x="919.66" y="567.00" width="9.91" height="30.67" fill="#8b929d"/>
<rect x="939.08" y="567.00" width="9.91" height="28.16" fill="#8b929d"/>
<rect x="958.51" y="567.00" width="9.91" height="31.43" fill="#8b929d"/>
<rect x="977.93" y="567.00" width="9.91" height="8.35" fill="#8b929d"/>
<rect x="997.35" y="567.00" width="9.91" height="12.09" fill="#8b929d"/>
<rect x="1016.78" y="550.20" width="9.91" height="16.81" fill="#ef4444"/>
<rect x="1036.20" y="560.00" width="9.91" height="7.00" fill="#ef4444"/>
<rect x="1055.62" y="567.00" width="9.91" height="0.80" fill="#8b929d"/>
<rect x="1075.05" y="566.19" width="9.91" height="0.81" fill="#ef4444"/>
<text x="77.0" y="638.0" class="label">MACD 12·26 · Signal 9</text>
<text x="1088.0" y="632.0" class="axis">3.42</text>
<text x="1088.0" y="736.0" class="axis">-3.13</text>
<line x1="70.0" y1="682.25" x2="1080.0" y2="682.25" stroke="#8a94a5" stroke-dasharray="5 5"/>
<rect x="65.05" y="682.25" width="9.91" height="27.32" fill="#c8ccd3" opacity="0.7"/>
<rect x="84.47" y="682.25" width="9.91" height="30.85" fill="#c8ccd3" opacity="0.7"/>
<rect x="103.89" y="682.25" width="9.91" height="26.34" fill="#c8ccd3" opacity="0.7"/>
<rect x="123.31" y="682.25" width="9.91" height="24.22" fill="#c8ccd3" opacity="0.7"/>
<rect x="142.74" y="682.25" width="9.91" height="24.26" fill="#c8ccd3" opacity="0.7"/>
<rect x="162.16" y="682.25" width="9.91" height="22.16" fill="#c8ccd3" opacity="0.7"/>
<rect x="181.58" y="682.25" width="9.91" height="19.13" fill="#c8ccd3" opacity="0.7"/>
<rect x="201.01" y="682.25" width="9.91" height="11.26" fill="#c8ccd3" opacity="0.7"/>
<rect x="220.43" y="682.25" width="9.91" height="3.47" fill="#c8ccd3" opacity="0.7"/>
<rect x="239.85" y="676.49" width="9.91" height="5.76" fill="#f2a0a0" opacity="0.7"/>
<rect x="259.28" y="672.16" width="9.91" height="10.09" fill="#f2a0a0" opacity="0.7"/>
<rect x="278.70" y="665.85" width="9.91" height="16.40" fill="#f2a0a0" opacity="0.7"/>
<rect x="298.12" y="664.84" width="9.91" height="17.41" fill="#f2a0a0" opacity="0.7"/>
<rect x="317.55" y="670.87" width="9.91" height="11.38" fill="#f2a0a0" opacity="0.7"/>
<rect x="336.97" y="673.82" width="9.91" height="8.42" fill="#f2a0a0" opacity="0.7"/>
<rect x="356.39" y="673.80" width="9.91" height="8.44" fill="#f2a0a0" opacity="0.7"/>
<rect x="375.81" y="676.84" width="9.91" height="5.41" fill="#f2a0a0" opacity="0.7"/>
<rect x="395.24" y="678.24" width="9.91" height="4.01" fill="#f2a0a0" opacity="0.7"/>
<rect x="414.66" y="678.29" width="9.91" height="3.95" fill="#f2a0a0" opacity="0.7"/>
<rect x="434.08" y="681.06" width="9.91" height="1.19" fill="#f2a0a0" opacity="0.7"/>
<rect x="453.51" y="682.25" width="9.91" height="0.99" fill="#c8ccd3" opacity="0.7"/>
<rect x="472.93" y="682.25" width="9.91" height="4.31" fill="#c8ccd3" opacity="0.7"/>
<rect x="492.35" y="682.25" width="9.91" height="2.81" fill="#c8ccd3" opacity="0.7"/>
<rect x="511.78" y="682.25" width="9.91" height="3.87" fill="#c8ccd3" opacity="0.7"/>
<rect x="531.20" y="682.25" width="9.91" height="5.27" fill="#c8ccd3" opacity="0.7"/>
<rect x="550.62" y="682.25" width="9.91" height="11.56" fill="#c8ccd3" opacity="0.7"/>
<rect x="570.05" y="682.25" width="9.91" height="13.92" fill="#c8ccd3" opacity="0.7"/>
<rect x="589.47" y="682.25" width="9.91" height="15.40" fill="#c8ccd3" opacity="0.7"/>
<rect x="608.89" y="682.25" width="9.91" height="19.45" fill="#c8ccd3" opacity="0.7"/>
<rect x="628.31" y="682.25" width="9.91" height="18.35" fill="#c8ccd3" opacity="0.7"/>
<rect x="647.74" y="682.25" width="9.91" height="13.07" fill="#c8ccd3" opacity="0.7"/>
<rect x="667.16" y="682.25" width="9.91" height="7.98" fill="#c8ccd3" opacity="0.7"/>
<rect x="686.58" y="682.25" width="9.91" height="1.39" fill="#c8ccd3" opacity="0.7"/>
<rect x="706.01" y="682.25" width="9.91" height="4.63" fill="#c8ccd3" opacity="0.7"/>
<rect x="725.43" y="682.25" width="9.91" height="6.05" fill="#c8ccd3" opacity="0.7"/>
<rect x="744.85" y="682.25" width="9.91" height="13.09" fill="#c8ccd3" opacity="0.7"/>
<rect x="764.28" y="682.25" width="9.91" height="13.64" fill="#c8ccd3" opacity="0.7"/>
<rect x="783.70" y="682.25" width="9.91" height="8.50" fill="#c8ccd3" opacity="0.7"/>
<rect x="803.12" y="682.25" width="9.91" height="5.18" fill="#c8ccd3" opacity="0.7"/>
<rect x="822.55" y="682.25" width="9.91" height="8.08" fill="#c8ccd3" opacity="0.7"/>
<rect x="841.97" y="682.25" width="9.91" height="4.11" fill="#c8ccd3" opacity="0.7"/>
<rect x="861.39" y="682.25" width="9.91" height="4.66" fill="#c8ccd3" opacity="0.7"/>
<rect x="880.81" y="682.25" width="9.91" height="6.25" fill="#c8ccd3" opacity="0.7"/>
<rect x="900.24" y="682.25" width="9.91" height="16.20" fill="#c8ccd3" opacity="0.7"/>
<rect x="919.66" y="682.25" width="9.91" height="17.03" fill="#c8ccd3" opacity="0.7"/>
<rect x="939.08" y="682.25" width="9.91" height="14.30" fill="#c8ccd3" opacity="0.7"/>
<rect x="958.51" y="682.25" width="9.91" height="9.88" fill="#c8ccd3" opacity="0.7"/>
<rect x="977.93" y="682.25" width="9.91" height="4.51" fill="#c8ccd3" opacity="0.7"/>
<rect x="997.35" y="682.25" width="9.91" height="1.73" fill="#c8ccd3" opacity="0.7"/>
<rect x="1016.78" y="676.78" width="9.91" height="5.46" fill="#f2a0a0" opacity="0.7"/>
<rect x="1036.20" y="673.05" width="9.91" height="9.20" fill="#f2a0a0" opacity="0.7"/>
<rect x="1055.62" y="669.18" width="9.91" height="13.07" fill="#f2a0a0" opacity="0.7"/>
<rect x="1075.05" y="667.16" width="9.91" height="15.08" fill="#f2a0a0" opacity="0.7"/>
<path d="M 70.00 661.50 L 89.42 672.75 L 108.85 674.82 L 128.27 678.76 L 147.69 684.86 L 167.12 688.31 L 186.54 690.05 L 205.96 685.00 L 225.38 678.08 L 244.81 667.41 L 264.23 660.56 L 283.65 650.15 L 303.08 644.78 L 322.50 647.97 L 341.92 648.82 L 361.35 646.69 L 380.77 648.37 L 400.19 648.77 L 419.62 647.83 L 439.04 650.30 L 458.46 652.73 L 477.88 657.13 L 497.31 656.33 L 516.73 658.35 L 536.15 661.08 L 555.58 670.26 L 575.00 676.10 L 594.42 681.42 L 613.85 690.34 L 633.27 693.82 L 652.69 691.82 L 672.12 688.73 L 691.54 682.48 L 710.96 686.87 L 730.38 689.80 L 749.81 700.13 L 769.23 704.08 L 788.65 701.07 L 808.08 699.04 L 827.50 703.96 L 846.92 701.02 L 866.35 702.73 L 885.77 705.88 L 905.19 719.89 L 924.62 724.98 L 944.04 725.82 L 963.46 723.87 L 982.88 719.62 L 1002.31 717.28 L 1021.73 708.72 L 1041.15 702.69 L 1060.58 695.55 L 1080.00 689.76" fill="none" stroke="#ef4444" stroke-width="2.2"/>
<path d="M 70.00 634.18 L 89.42 641.90 L 108.85 648.48 L 128.27 654.54 L 147.69 660.60 L 167.12 666.14 L 186.54 670.92 L 205.96 673.74 L 225.38 674.61 L 244.81 673.17 L 264.23 670.64 L 283.65 666.54 L 303.08 662.19 L 322.50 659.35 L 341.92 657.24 L 361.35 655.13 L 380.77 653.78 L 400.19 652.78 L 419.62 651.79 L 439.04 651.49 L 458.46 651.74 L 477.88 652.82 L 497.31 653.52 L 516.73 654.49 L 536.15 655.80 L 555.58 658.70 L 575.00 662.18 L 594.42 666.03 L 613.85 670.89 L 633.27 675.48 L 652.69 678.74 L 672.12 680.74 L 691.54 681.09 L 710.96 682.25 L 730.38 683.76 L 749.81 687.03 L 769.23 690.44 L 788.65 692.57 L 808.08 693.86 L 827.50 695.88 L 846.92 696.91 L 866.35 698.07 L 885.77 699.64 L 905.19 703.69 L 924.62 707.94 L 944.04 711.52 L 963.46 713.99 L 982.88 715.12 L 1002.31 715.55 L 1021.73 714.18 L 1041.15 711.88 L 1060.58 708.62 L 1080.00 704.85" fill="none" stroke="#3156d9" stroke-width="2.2"/>
<text x="77.0" y="768.0" class="label">RSI 14</text>
<text x="1088.0" y="762.0" class="axis">100.00</text>
<text x="1088.0" y="836.0" class="axis">0.00</text>
<line x1="70.0" y1="810.12" x2="1080.0" y2="810.12" stroke="#3156d9" stroke-dasharray="5 5"/>
<line x1="70.0" y1="795.00" x2="1080.0" y2="795.00" stroke="#aab1bd" stroke-dasharray="5 5"/>
<line x1="70.0" y1="779.88" x2="1080.0" y2="779.88" stroke="#ef4444" stroke-dasharray="5 5"/>
<path d="M 70.00 800.90 L 89.42 801.74 L 108.85 795.37 L 128.27 797.16 L 147.69 799.45 L 167.12 798.20 L 186.54 797.34 L 205.96 791.73 L 225.38 789.48 L 244.81 785.86 L 264.23 787.25 L 283.65 783.88 L 303.08 786.45 L 322.50 792.92 L 341.92 791.41 L 361.35 789.15 L 380.77 791.85 L 400.19 790.86 L 419.62 789.61 L 439.04 792.40 L 458.46 792.52 L 477.88 794.72 L 497.31 790.61 L 516.73 793.04 L 536.15 793.94 L 555.58 800.10 L 575.00 798.55 L 594.42 799.15 L 613.85 803.04 L 633.27 799.27 L 652.69 794.77 L 672.12 793.49 L 691.54 790.28 L 710.96 798.41 L 730.38 798.00 L 749.81 803.61 L 769.23 800.01 L 788.65 795.27 L 808.08 795.68 L 827.50 800.39 L 846.92 795.30 L 866.35 798.14 L 885.77 799.45 L 905.19 805.81 L 924.62 801.60 L 944.04 799.67 L 963.46 798.14 L 982.88 796.53 L 1002.31 797.47 L 1021.73 792.98 L 1041.15 793.70 L 1060.58 792.17 L 1080.00 792.14" fill="none" stroke="#e83e8c" stroke-width="2.2"/>
<text x="77.0" y="868.0" class="label">MFI 14</text>
<text x="1088.0" y="862.0" class="axis">100.00</text>
<text x="1088.0" y="936.0" class="axis">0.00</text>
<line x1="70.0" y1="910.12" x2="1080.0" y2="910.12" stroke="#3156d9" stroke-dasharray="5 5"/>
<line x1="70.0" y1="895.00" x2="1080.0" y2="895.00" stroke="#aab1bd" stroke-dasharray="5 5"/>
<line x1="70.0" y1="879.88" x2="1080.0" y2="879.88" stroke="#ef4444" stroke-dasharray="5 5"/>
<path d="M 70.00 897.88 L 89.42 896.19 L 108.85 895.38 L 128.27 894.46 L 147.69 894.28 L 167.12 898.94 L 186.54 897.34 L 205.96 896.42 L 225.38 896.50 L 244.81 895.72 L 264.23 890.69 L 283.65 883.78 L 303.08 875.33 L 322.50 875.43 L 341.92 875.70 L 361.35 875.70 L 380.77 875.66 L 400.19 881.90 L 419.62 877.45 L 439.04 876.83 L 458.46 877.14 L 477.88 881.69 L 497.31 882.10 L 516.73 882.60 L 536.15 887.87 L 555.58 894.33 L 575.00 899.30 L 594.42 894.18 L 613.85 893.66 L 633.27 894.22 L 652.69 894.41 L 672.12 887.57 L 691.54 887.74 L 710.96 889.66 L 730.38 895.38 L 749.81 896.21 L 769.23 902.65 L 788.65 901.84 L 808.08 902.59 L 827.50 902.20 L 846.92 897.20 L 866.35 901.95 L 885.77 902.62 L 905.19 908.48 L 924.62 913.77 L 944.04 913.96 L 963.46 913.75 L 982.88 908.89 L 1002.31 908.57 L 1021.73 902.34 L 1041.15 896.42 L 1060.58 897.05 L 1080.00 892.15" fill="none" stroke="#e83e8c" stroke-width="2.2"/>
<rect x="978.00" y="85.0" width="98" height="23" rx="5" fill="#1d5fd1"/>
<text x="1027.00" y="101.0" text-anchor="middle" style="font-size:11px;fill:#fff;font-weight:800">MMRM 기준봉</text>
<text x="70.00" y="962.0" text-anchor="middle" class="axis">2018-02</text>
<text x="322.50" y="962.0" text-anchor="middle" class="axis">2018-05</text>
<text x="575.00" y="962.0" text-anchor="middle" class="axis">2018-08</text>
<text x="827.50" y="962.0" text-anchor="middle" class="axis">2018-11</text>
<text x="1080.00" y="962.0" text-anchor="middle" class="axis">T0 2019-02-18</text>
<text x="1080.0" y="988" text-anchor="end" class="sub">이 그림은 패턴을 익히기 위한 실제 대표사례이며, 해당 사건의 기준봉 이후 결과를 포함하지 않는다.</text>
</svg>