<svg xmlns="http://www.w3.org/2000/svg" viewBox="0 0 1200 1000" role="img">
<title>급락 후 장기선 부근 초기 반등형 실제 대표사례 NVS 2016-05-23 기준봉 이전 차트</title>
<rect width="1200" height="1000" fill="#ffffff"/>
<style>text{font-family:system-ui,-apple-system,'Noto Sans KR',sans-serif;fill:#202735}.title{font-size:21px;font-weight:800}.sub{font-size:12px;fill:#667085}.label{font-size:13px;font-weight:750}.axis{font-size:10px;fill:#6b7280}.legend{font-size:11px;font-weight:750}</style>
<text x="70.0" y="28" class="title">실제 대표사례 · NVS 2016-05-23 · 급락 후 장기선 부근 초기 반등형</text>
<text x="70.0" y="50" class="sub">Investing 근사 주봉 · 기준봉 이전 52주와 기준봉만 표시 · 기준봉 이후 성과는 숨김</text>
<rect x="70.0" y="80.0" width="1010.0" height="310.0" fill="#fcfdff" stroke="#d9e1ec"/>
<line x1="70.00" y1="80.0" x2="70.00" y2="390.0" stroke="#e8edf4" stroke-width="1.0"/>
<line x1="322.50" y1="80.0" x2="322.50" y2="390.0" stroke="#e8edf4" stroke-width="1.0"/>
<line x1="575.00" y1="80.0" x2="575.00" y2="390.0" stroke="#e8edf4" stroke-width="1.0"/>
<line x1="827.50" y1="80.0" x2="827.50" y2="390.0" stroke="#e8edf4" stroke-width="1.0"/>
<line x1="1080.00" y1="80.0" x2="1080.00" y2="390.0" stroke="#1d5fd1" stroke-width="2.2"/>
<rect x="70.0" y="400.0" width="1010.0" height="110.0" fill="#fcfdff" stroke="#d9e1ec"/>
<line x1="70.00" y1="400.0" x2="70.00" y2="510.0" stroke="#e8edf4" stroke-width="1.0"/>
<line x1="322.50" y1="400.0" x2="322.50" y2="510.0" stroke="#e8edf4" stroke-width="1.0"/>
<line x1="575.00" y1="400.0" x2="575.00" y2="510.0" stroke="#e8edf4" stroke-width="1.0"/>
<line x1="827.50" y1="400.0" x2="827.50" y2="510.0" stroke="#e8edf4" stroke-width="1.0"/>
<line x1="1080.00" y1="400.0" x2="1080.00" y2="510.0" stroke="#1d5fd1" stroke-width="2.2"/>
<rect x="70.0" y="520.0" width="1010.0" height="90.0" fill="#fcfdff" stroke="#d9e1ec"/>
<line x1="70.00" y1="520.0" x2="70.00" y2="610.0" stroke="#e8edf4" stroke-width="1.0"/>
<line x1="322.50" y1="520.0" x2="322.50" y2="610.0" stroke="#e8edf4" stroke-width="1.0"/>
<line x1="575.00" y1="520.0" x2="575.00" y2="610.0" stroke="#e8edf4" stroke-width="1.0"/>
<line x1="827.50" y1="520.0" x2="827.50" y2="610.0" stroke="#e8edf4" stroke-width="1.0"/>
<line x1="1080.00" y1="520.0" x2="1080.00" y2="610.0" stroke="#1d5fd1" stroke-width="2.2"/>
<rect x="70.0" y="620.0" width="1010.0" height="120.0" fill="#fcfdff" stroke="#d9e1ec"/>
<line x1="70.00" y1="620.0" x2="70.00" y2="740.0" stroke="#e8edf4" stroke-width="1.0"/>
<line x1="322.50" y1="620.0" x2="322.50" y2="740.0" stroke="#e8edf4" stroke-width="1.0"/>
<line x1="575.00" y1="620.0" x2="575.00" y2="740.0" stroke="#e8edf4" stroke-width="1.0"/>
<line x1="827.50" y1="620.0" x2="827.50" y2="740.0" stroke="#e8edf4" stroke-width="1.0"/>
<line x1="1080.00" y1="620.0" x2="1080.00" y2="740.0" stroke="#1d5fd1" stroke-width="2.2"/>
<rect x="70.0" y="750.0" width="1010.0" height="90.0" fill="#fcfdff" stroke="#d9e1ec"/>
<line x1="70.00" y1="750.0" x2="70.00" y2="840.0" stroke="#e8edf4" stroke-width="1.0"/>
<line x1="322.50" y1="750.0" x2="322.50" y2="840.0" stroke="#e8edf4" stroke-width="1.0"/>
<line x1="575.00" y1="750.0" x2="575.00" y2="840.0" stroke="#e8edf4" stroke-width="1.0"/>
<line x1="827.50" y1="750.0" x2="827.50" y2="840.0" stroke="#e8edf4" stroke-width="1.0"/>
<line x1="1080.00" y1="750.0" x2="1080.00" y2="840.0" stroke="#1d5fd1" stroke-width="2.2"/>
<rect x="70.0" y="850.0" width="1010.0" height="90.0" fill="#fcfdff" stroke="#d9e1ec"/>
<line x1="70.00" y1="850.0" x2="70.00" y2="940.0" stroke="#e8edf4" stroke-width="1.0"/>
<line x1="322.50" y1="850.0" x2="322.50" y2="940.0" stroke="#e8edf4" stroke-width="1.0"/>
<line x1="575.00" y1="850.0" x2="575.00" y2="940.0" stroke="#e8edf4" stroke-width="1.0"/>
<line x1="827.50" y1="850.0" x2="827.50" y2="940.0" stroke="#e8edf4" stroke-width="1.0"/>
<line x1="1080.00" y1="850.0" x2="1080.00" y2="940.0" stroke="#1d5fd1" stroke-width="2.2"/>
<text x="77.0" y="98.0" class="label">주봉 가격 · MA 5 / 20 / 50 / 150 / 200</text>
<text x="1088.0" y="92.0" class="axis">97.39</text>
<text x="1088.0" y="386.0" class="axis">60.98</text>
<line x1="70.00" y1="131.25" x2="70.00" y2="149.13" stroke="#3156d9"/>
<rect x="64.76" y="140.60" width="10.48" height="2.37" fill="#ffffff" stroke="#3156d9"/>
<line x1="89.42" y1="132.40" x2="89.42" y2="156.30" stroke="#3156d9"/>
<rect x="84.18" y="135.93" width="10.48" height="15.19" fill="#ffffff" stroke="#3156d9"/>
<line x1="108.85" y1="141.37" x2="108.85" y2="159.19" stroke="#ef3b3b"/>
<rect x="103.61" y="148.81" width="10.48" height="3.27" fill="#ef3b3b" stroke="#ef3b3b"/>
<line x1="128.27" y1="147.59" x2="128.27" y2="166.62" stroke="#ef3b3b"/>
<rect x="123.03" y="159.25" width="10.48" height="6.22" fill="#ef3b3b" stroke="#ef3b3b"/>
<line x1="147.69" y1="140.60" x2="147.69" y2="162.65" stroke="#3156d9"/>
<rect x="142.45" y="148.74" width="10.48" height="12.24" fill="#ffffff" stroke="#3156d9"/>
<line x1="167.12" y1="160.66" x2="167.12" y2="174.25" stroke="#ef3b3b"/>
<rect x="161.87" y="161.75" width="10.48" height="1.20" fill="#ef3b3b" stroke="#ef3b3b"/>
<line x1="186.54" y1="135.16" x2="186.54" y2="177.20" stroke="#ef3b3b"/>
<rect x="181.30" y="139.83" width="10.48" height="36.46" fill="#ef3b3b" stroke="#ef3b3b"/>
<line x1="205.96" y1="121.38" x2="205.96" y2="136.44" stroke="#ef3b3b"/>
<rect x="200.72" y="123.24" width="10.48" height="7.88" fill="#ef3b3b" stroke="#ef3b3b"/>
<line x1="225.38" y1="116.64" x2="225.38" y2="154.06" stroke="#3156d9"/>
<rect x="220.14" y="117.34" width="10.48" height="31.59" fill="#ffffff" stroke="#3156d9"/>
<line x1="244.81" y1="130.03" x2="244.81" y2="152.14" stroke="#ef3b3b"/>
<rect x="239.57" y="136.44" width="10.48" height="8.14" fill="#ef3b3b" stroke="#ef3b3b"/>
<line x1="264.23" y1="131.57" x2="264.23" y2="152.07" stroke="#3156d9"/>
<rect x="258.99" y="131.82" width="10.48" height="14.48" fill="#ffffff" stroke="#3156d9"/>
<line x1="283.65" y1="139.71" x2="283.65" y2="155.86" stroke="#ef3b3b"/>
<rect x="278.41" y="144.58" width="10.48" height="1.86" fill="#ef3b3b" stroke="#ef3b3b"/>
<line x1="303.08" y1="137.53" x2="303.08" y2="176.30" stroke="#3156d9"/>
<rect x="297.84" y="144.26" width="10.48" height="31.85" fill="#ffffff" stroke="#3156d9"/>
<line x1="322.50" y1="167.07" x2="322.50" y2="211.67" stroke="#ef3b3b"/>
<rect x="317.26" y="171.04" width="10.48" height="22.62" fill="#ef3b3b" stroke="#ef3b3b"/>
<line x1="341.92" y1="171.56" x2="341.92" y2="200.14" stroke="#3156d9"/>
<rect x="336.68" y="173.35" width="10.48" height="22.04" fill="#ffffff" stroke="#3156d9"/>
<line x1="361.35" y1="172.58" x2="361.35" y2="191.68" stroke="#ef3b3b"/>
<rect x="356.11" y="182.58" width="10.48" height="3.65" fill="#ef3b3b" stroke="#ef3b3b"/>
<line x1="380.77" y1="167.20" x2="380.77" y2="191.81" stroke="#ef3b3b"/>
<rect x="375.53" y="181.94" width="10.48" height="5.96" fill="#ef3b3b" stroke="#ef3b3b"/>
<line x1="400.19" y1="175.66" x2="400.19" y2="219.11" stroke="#3156d9"/>
<rect x="394.95" y="176.81" width="10.48" height="39.35" fill="#ffffff" stroke="#3156d9"/>
<line x1="419.62" y1="203.60" x2="419.62" y2="231.67" stroke="#ef3b3b"/>
<rect x="414.37" y="203.60" width="10.48" height="4.17" fill="#ef3b3b" stroke="#ef3b3b"/>
<line x1="439.04" y1="195.72" x2="439.04" y2="216.93" stroke="#3156d9"/>
<rect x="433.80" y="200.46" width="10.48" height="11.92" fill="#ffffff" stroke="#3156d9"/>
<line x1="458.46" y1="191.81" x2="458.46" y2="218.47" stroke="#ef3b3b"/>
<rect x="453.22" y="192.32" width="10.48" height="21.79" fill="#ef3b3b" stroke="#ef3b3b"/>
<line x1="477.88" y1="194.88" x2="477.88" y2="220.00" stroke="#3156d9"/>
<rect x="472.64" y="195.40" width="10.48" height="10.06" fill="#ffffff" stroke="#3156d9"/>
<line x1="497.31" y1="205.33" x2="497.31" y2="225.07" stroke="#3156d9"/>
<rect x="492.07" y="209.37" width="10.48" height="12.43" fill="#ffffff" stroke="#3156d9"/>
<line x1="516.73" y1="217.18" x2="516.73" y2="229.49" stroke="#3156d9"/>
<rect x="511.49" y="220.20" width="10.48" height="6.73" fill="#ffffff" stroke="#3156d9"/>
<line x1="536.15" y1="230.83" x2="536.15" y2="251.60" stroke="#3156d9"/>
<rect x="530.91" y="233.21" width="10.48" height="15.19" fill="#ffffff" stroke="#3156d9"/>
<line x1="555.58" y1="230.00" x2="555.58" y2="246.79" stroke="#ef3b3b"/>
<rect x="550.34" y="235.13" width="10.48" height="11.15" fill="#ef3b3b" stroke="#ef3b3b"/>
<line x1="575.00" y1="240.00" x2="575.00" y2="252.05" stroke="#3156d9"/>
<rect x="569.76" y="241.79" width="10.48" height="9.42" fill="#ffffff" stroke="#3156d9"/>
<line x1="594.42" y1="248.07" x2="594.42" y2="261.21" stroke="#ef3b3b"/>
<rect x="589.18" y="248.78" width="10.48" height="3.01" fill="#ef3b3b" stroke="#ef3b3b"/>
<line x1="613.85" y1="248.20" x2="613.85" y2="265.18" stroke="#3156d9"/>
<rect x="608.61" y="248.91" width="10.48" height="10.77" fill="#ffffff" stroke="#3156d9"/>
<line x1="633.27" y1="245.83" x2="633.27" y2="264.54" stroke="#ef3b3b"/>
<rect x="628.03" y="258.07" width="10.48" height="1.20" fill="#ef3b3b" stroke="#ef3b3b"/>
<line x1="652.69" y1="244.68" x2="652.69" y2="261.66" stroke="#ef3b3b"/>
<rect x="647.45" y="247.18" width="10.48" height="7.43" fill="#ef3b3b" stroke="#ef3b3b"/>
<line x1="672.12" y1="234.23" x2="672.12" y2="250.06" stroke="#3156d9"/>
<rect x="666.87" y="242.11" width="10.48" height="7.82" fill="#ffffff" stroke="#3156d9"/>
<line x1="691.54" y1="248.52" x2="691.54" y2="279.79" stroke="#3156d9"/>
<rect x="686.30" y="252.82" width="10.48" height="25.83" fill="#ffffff" stroke="#3156d9"/>
<line x1="710.96" y1="269.09" x2="710.96" y2="291.27" stroke="#3156d9"/>
<rect x="705.72" y="275.63" width="10.48" height="11.54" fill="#ffffff" stroke="#3156d9"/>
<line x1="730.38" y1="273.07" x2="730.38" y2="296.91" stroke="#ef3b3b"/>
<rect x="725.14" y="274.28" width="10.48" height="3.91" fill="#ef3b3b" stroke="#ef3b3b"/>
<line x1="749.81" y1="270.95" x2="749.81" y2="316.58" stroke="#3156d9"/>
<rect x="744.57" y="278.64" width="10.48" height="23.01" fill="#ffffff" stroke="#3156d9"/>
<line x1="769.23" y1="304.08" x2="769.23" y2="327.28" stroke="#3156d9"/>
<rect x="763.99" y="305.81" width="10.48" height="19.16" fill="#ffffff" stroke="#3156d9"/>
<line x1="788.65" y1="326.32" x2="788.65" y2="342.79" stroke="#3156d9"/>
<rect x="783.41" y="333.88" width="10.48" height="1.54" fill="#ffffff" stroke="#3156d9"/>
<line x1="808.08" y1="324.21" x2="808.08" y2="336.89" stroke="#ef3b3b"/>
<rect x="802.84" y="328.95" width="10.48" height="6.73" fill="#ef3b3b" stroke="#ef3b3b"/>
<line x1="827.50" y1="324.14" x2="827.50" y2="348.62" stroke="#3156d9"/>
<rect x="822.26" y="327.35" width="10.48" height="12.37" fill="#ffffff" stroke="#3156d9"/>
<line x1="846.92" y1="330.23" x2="846.92" y2="345.93" stroke="#ef3b3b"/>
<rect x="841.68" y="338.62" width="10.48" height="4.74" fill="#ef3b3b" stroke="#ef3b3b"/>
<line x1="866.35" y1="324.08" x2="866.35" y2="342.60" stroke="#ef3b3b"/>
<rect x="861.11" y="324.27" width="10.48" height="17.43" fill="#ef3b3b" stroke="#ef3b3b"/>
<line x1="885.77" y1="325.81" x2="885.77" y2="339.78" stroke="#3156d9"/>
<rect x="880.53" y="326.26" width="10.48" height="9.29" fill="#ffffff" stroke="#3156d9"/>
<line x1="905.19" y1="321.51" x2="905.19" y2="334.20" stroke="#ef3b3b"/>
<rect x="899.95" y="331.57" width="10.48" height="1.60" fill="#ef3b3b" stroke="#ef3b3b"/>
<line x1="924.62" y1="329.59" x2="924.62" y2="353.36" stroke="#3156d9"/>
<rect x="919.37" y="330.29" width="10.48" height="13.46" fill="#ffffff" stroke="#3156d9"/>
<line x1="944.04" y1="316.58" x2="944.04" y2="340.10" stroke="#ef3b3b"/>
<rect x="938.80" y="319.27" width="10.48" height="17.11" fill="#ef3b3b" stroke="#ef3b3b"/>
<line x1="963.46" y1="312.86" x2="963.46" y2="326.38" stroke="#ef3b3b"/>
<rect x="958.22" y="316.52" width="10.48" height="1.20" fill="#ef3b3b" stroke="#ef3b3b"/>
<line x1="982.88" y1="305.43" x2="982.88" y2="315.62" stroke="#ef3b3b"/>
<rect x="977.64" y="311.20" width="10.48" height="4.17" fill="#ef3b3b" stroke="#ef3b3b"/>
<line x1="1002.31" y1="305.88" x2="1002.31" y2="316.58" stroke="#3156d9"/>
<rect x="997.07" y="307.42" width="10.48" height="7.05" fill="#ffffff" stroke="#3156d9"/>
<line x1="1021.73" y1="308.83" x2="1021.73" y2="336.89" stroke="#3156d9"/>
<rect x="1016.49" y="311.45" width="10.48" height="21.72" fill="#ffffff" stroke="#3156d9"/>
<line x1="1041.15" y1="316.77" x2="1041.15" y2="327.54" stroke="#ef3b3b"/>
<rect x="1035.91" y="322.41" width="10.48" height="4.68" fill="#ef3b3b" stroke="#ef3b3b"/>
<line x1="1060.58" y1="312.35" x2="1060.58" y2="324.91" stroke="#ef3b3b"/>
<rect x="1055.34" y="315.62" width="10.48" height="7.69" fill="#ef3b3b" stroke="#ef3b3b"/>
<line x1="1080.00" y1="286.20" x2="1080.00" y2="304.60" stroke="#ef3b3b"/>
<rect x="1074.76" y="287.93" width="10.48" height="14.68" fill="#ef3b3b" stroke="#ef3b3b"/>
<path d="M 70.00 139.19 L 89.42 141.62 L 108.85 143.03 L 128.27 147.59 L 147.69 152.63 L 167.12 156.38 L 186.54 154.13 L 205.96 149.01 L 225.38 146.95 L 244.81 142.04 L 264.23 138.95 L 283.65 139.90 L 303.08 150.47 L 322.50 154.89 L 341.92 166.69 L 361.35 173.94 L 380.77 181.41 L 400.19 189.42 L 419.62 195.93 L 439.04 199.33 L 458.46 201.28 L 477.88 205.98 L 497.31 207.11 L 516.73 211.78 L 536.15 218.98 L 555.58 227.54 L 575.00 236.69 L 594.42 242.09 L 613.85 248.64 L 633.27 250.57 L 652.69 252.98 L 672.12 252.73 L 691.54 258.70 L 710.96 264.20 L 730.38 267.44 L 749.81 278.33 L 769.23 293.34 L 788.65 304.70 L 808.08 313.05 L 827.50 326.14 L 846.92 333.54 L 866.35 333.39 L 885.77 333.42 L 905.19 333.95 L 924.62 334.75 L 944.04 330.88 L 963.46 329.33 L 982.88 324.46 L 1002.31 321.04 L 1021.73 318.92 L 1041.15 319.55 L 1060.58 319.37 L 1080.00 314.72" fill="none" stroke="#168b4b" stroke-width="2"/>
<path d="M 70.00 152.64 L 89.42 152.47 L 108.85 150.89 L 128.27 149.99 L 147.69 149.62 L 167.12 150.39 L 186.54 150.19 L 205.96 149.10 L 225.38 147.70 L 244.81 145.55 L 264.23 145.38 L 283.65 144.72 L 303.08 145.43 L 322.50 147.11 L 341.92 149.64 L 361.35 152.12 L 380.77 154.26 L 400.19 157.98 L 419.62 161.34 L 439.04 165.17 L 458.46 167.64 L 477.88 170.35 L 497.31 174.00 L 516.73 177.39 L 536.15 181.76 L 555.58 185.43 L 575.00 191.00 L 594.42 197.27 L 613.85 202.81 L 633.27 208.89 L 652.69 213.94 L 672.12 219.20 L 691.54 224.33 L 710.96 230.14 L 730.38 234.08 L 749.81 240.03 L 769.23 247.19 L 788.65 253.15 L 808.08 259.42 L 827.50 265.78 L 846.92 273.10 L 866.35 279.04 L 885.77 284.73 L 905.19 289.96 L 924.62 294.73 L 944.04 298.93 L 963.46 302.20 L 982.88 305.32 L 1002.31 308.06 L 1021.73 311.81 L 1041.15 315.58 L 1060.58 318.86 L 1080.00 319.33" fill="none" stroke="#13b8c8" stroke-width="2"/>
<path d="M 70.00 190.03 L 89.42 188.69 L 108.85 187.22 L 128.27 186.10 L 147.69 184.76 L 167.12 183.36 L 186.54 181.46 L 205.96 179.04 L 225.38 176.93 L 244.81 174.77 L 264.23 173.07 L 283.65 171.45 L 303.08 170.90 L 322.50 170.31 L 341.92 170.23 L 361.35 169.80 L 380.77 169.25 L 400.19 168.79 L 419.62 167.93 L 439.04 167.71 L 458.46 167.41 L 477.88 167.25 L 497.31 167.71 L 516.73 168.39 L 536.15 169.72 L 555.58 170.68 L 575.00 171.66 L 594.42 172.74 L 613.85 173.97 L 633.27 174.92 L 652.69 176.16 L 672.12 178.07 L 691.54 180.03 L 710.96 182.24 L 730.38 184.35 L 749.81 187.46 L 769.23 191.08 L 788.65 194.89 L 808.08 197.93 L 827.50 201.14 L 846.92 204.91 L 866.35 208.24 L 885.77 211.72 L 905.19 215.60 L 924.62 219.58 L 944.04 223.30 L 963.46 226.85 L 982.88 230.24 L 1002.31 233.80 L 1021.73 237.75 L 1041.15 241.34 L 1060.58 244.63 L 1080.00 247.41" fill="none" stroke="#3156d9" stroke-width="2"/>
<path d="M 70.00 286.69 L 89.42 284.79 L 108.85 282.95 L 128.27 281.19 L 147.69 279.42 L 167.12 277.74 L 186.54 275.89 L 205.96 273.89 L 225.38 272.10 L 244.81 270.23 L 264.23 268.48 L 283.65 266.72 L 303.08 265.23 L 322.50 263.66 L 341.92 262.32 L 361.35 260.79 L 380.77 259.25 L 400.19 257.93 L 419.62 256.46 L 439.04 255.13 L 458.46 253.72 L 477.88 252.41 L 497.31 251.24 L 516.73 250.11 L 536.15 249.12 L 555.58 248.09 L 575.00 247.21 L 594.42 246.33 L 613.85 245.59 L 633.27 244.87 L 652.69 244.09 L 672.12 243.37 L 691.54 242.85 L 710.96 242.33 L 730.38 241.75 L 749.81 241.41 L 769.23 241.26 L 788.65 241.19 L 808.08 241.06 L 827.50 241.11 L 846.92 241.12 L 866.35 241.06 L 885.77 241.10 L 905.19 241.17 L 924.62 241.28 L 944.04 241.25 L 963.46 241.08 L 982.88 240.89 L 1002.31 240.75 L 1021.73 240.60 L 1041.15 240.43 L 1060.58 240.21 L 1080.00 239.93" fill="none" stroke="#8b3f2b" stroke-width="3"/>
<path d="M 70.00 326.79 L 89.42 325.37 L 108.85 323.88 L 128.27 322.42 L 147.69 321.04 L 167.12 319.67 L 186.54 318.14 L 205.96 316.55 L 225.38 315.01 L 244.81 313.47 L 264.23 311.99 L 283.65 310.59 L 303.08 309.34 L 322.50 308.06 L 341.92 306.83 L 361.35 305.52 L 380.77 304.17 L 400.19 302.90 L 419.62 301.62 L 439.04 300.45 L 458.46 299.17 L 477.88 298.02 L 497.31 296.95 L 516.73 295.92 L 536.15 294.94 L 555.58 293.88 L 575.00 292.87 L 594.42 291.89 L 613.85 290.97 L 633.27 290.07 L 652.69 289.14 L 672.12 288.12 L 691.54 287.25 L 710.96 286.43 L 730.38 285.57 L 749.81 284.84 L 769.23 284.22 L 788.65 283.63 L 808.08 283.08 L 827.50 282.53 L 846.92 281.95 L 866.35 281.27 L 885.77 280.60 L 905.19 279.91 L 924.62 279.29 L 944.04 278.56 L 963.46 277.85 L 982.88 277.16 L 1002.31 276.52 L 1021.73 275.96 L 1041.15 275.35 L 1060.58 274.75 L 1080.00 274.06" fill="none" stroke="#e05252" stroke-width="3"/>
<line x1="470.0" y1="95.0" x2="489.0" y2="95.0" stroke="#168b4b" stroke-width="3"/>
<text x="494.0" y="99.0" class="legend">5</text>
<line x1="552.0" y1="95.0" x2="571.0" y2="95.0" stroke="#13b8c8" stroke-width="3"/>
<text x="576.0" y="99.0" class="legend">20</text>
<line x1="634.0" y1="95.0" x2="653.0" y2="95.0" stroke="#3156d9" stroke-width="3"/>
<text x="658.0" y="99.0" class="legend">50</text>
<line x1="716.0" y1="95.0" x2="735.0" y2="95.0" stroke="#8b3f2b" stroke-width="3"/>
<text x="740.0" y="99.0" class="legend">150</text>
<line x1="798.0" y1="95.0" x2="817.0" y2="95.0" stroke="#e05252" stroke-width="3"/>
<text x="822.0" y="99.0" class="legend">200</text>
<text x="77.0" y="418.0" class="label">거래량 · 50주 평균</text>
<text x="1088.0" y="412.0" class="axis">20,590,634.40</text>
<text x="1088.0" y="506.0" class="axis">0.00</text>
<rect x="64.09" y="477.39" width="11.82" height="23.81" fill="#94a3e8" opacity="0.78"/>
<rect x="83.52" y="476.95" width="11.82" height="24.25" fill="#94a3e8" opacity="0.78"/>
<rect x="102.94" y="477.25" width="11.82" height="23.95" fill="#ef9a9a" opacity="0.78"/>
<rect x="122.36" y="462.54" width="11.82" height="38.66" fill="#ef9a9a" opacity="0.78"/>
<rect x="141.78" y="472.81" width="11.82" height="28.39" fill="#94a3e8" opacity="0.78"/>
<rect x="161.21" y="413.20" width="11.82" height="88.00" fill="#ef9a9a" opacity="0.78"/>
<rect x="180.63" y="449.66" width="11.82" height="51.54" fill="#ef9a9a" opacity="0.78"/>
<rect x="200.05" y="455.30" width="11.82" height="45.90" fill="#ef9a9a" opacity="0.78"/>
<rect x="219.48" y="439.56" width="11.82" height="61.64" fill="#94a3e8" opacity="0.78"/>
<rect x="238.90" y="465.97" width="11.82" height="35.23" fill="#ef9a9a" opacity="0.78"/>
<rect x="258.32" y="458.57" width="11.82" height="42.63" fill="#94a3e8" opacity="0.78"/>
<rect x="277.75" y="474.89" width="11.82" height="26.31" fill="#ef9a9a" opacity="0.78"/>
<rect x="297.17" y="471.85" width="11.82" height="29.35" fill="#94a3e8" opacity="0.78"/>
<rect x="316.59" y="416.11" width="11.82" height="85.09" fill="#ef9a9a" opacity="0.78"/>
<rect x="336.02" y="441.52" width="11.82" height="59.68" fill="#94a3e8" opacity="0.78"/>
<rect x="355.44" y="473.74" width="11.82" height="27.46" fill="#ef9a9a" opacity="0.78"/>
<rect x="374.86" y="469.46" width="11.82" height="31.74" fill="#ef9a9a" opacity="0.78"/>
<rect x="394.28" y="442.12" width="11.82" height="59.08" fill="#94a3e8" opacity="0.78"/>
<rect x="413.71" y="455.29" width="11.82" height="45.91" fill="#ef9a9a" opacity="0.78"/>
<rect x="433.13" y="447.05" width="11.82" height="54.15" fill="#94a3e8" opacity="0.78"/>
<rect x="452.55" y="464.67" width="11.82" height="36.53" fill="#ef9a9a" opacity="0.78"/>
<rect x="471.98" y="458.45" width="11.82" height="42.75" fill="#94a3e8" opacity="0.78"/>
<rect x="491.40" y="454.01" width="11.82" height="47.19" fill="#94a3e8" opacity="0.78"/>
<rect x="510.82" y="462.20" width="11.82" height="39.00" fill="#94a3e8" opacity="0.78"/>
<rect x="530.25" y="459.95" width="11.82" height="41.25" fill="#94a3e8" opacity="0.78"/>
<rect x="549.67" y="453.53" width="11.82" height="47.67" fill="#ef9a9a" opacity="0.78"/>
<rect x="569.09" y="469.27" width="11.82" height="31.93" fill="#94a3e8" opacity="0.78"/>
<rect x="588.52" y="447.36" width="11.82" height="53.84" fill="#ef9a9a" opacity="0.78"/>
<rect x="607.94" y="438.22" width="11.82" height="62.98" fill="#94a3e8" opacity="0.78"/>
<rect x="627.36" y="452.67" width="11.82" height="48.53" fill="#ef9a9a" opacity="0.78"/>
<rect x="646.78" y="471.74" width="11.82" height="29.46" fill="#ef9a9a" opacity="0.78"/>
<rect x="666.21" y="470.25" width="11.82" height="30.95" fill="#94a3e8" opacity="0.78"/>
<rect x="685.63" y="440.50" width="11.82" height="60.70" fill="#94a3e8" opacity="0.78"/>
<rect x="705.05" y="438.74" width="11.82" height="62.46" fill="#94a3e8" opacity="0.78"/>
<rect x="724.48" y="452.78" width="11.82" height="48.42" fill="#ef9a9a" opacity="0.78"/>
<rect x="743.90" y="419.30" width="11.82" height="81.90" fill="#94a3e8" opacity="0.78"/>
<rect x="763.32" y="443.40" width="11.82" height="57.80" fill="#94a3e8" opacity="0.78"/>
<rect x="782.75" y="437.31" width="11.82" height="63.89" fill="#94a3e8" opacity="0.78"/>
<rect x="802.17" y="440.92" width="11.82" height="60.28" fill="#ef9a9a" opacity="0.78"/>
<rect x="821.59" y="437.52" width="11.82" height="63.68" fill="#94a3e8" opacity="0.78"/>
<rect x="841.02" y="440.72" width="11.82" height="60.48" fill="#ef9a9a" opacity="0.78"/>
<rect x="860.44" y="450.18" width="11.82" height="51.02" fill="#ef9a9a" opacity="0.78"/>
<rect x="879.86" y="440.46" width="11.82" height="60.74" fill="#94a3e8" opacity="0.78"/>
<rect x="899.28" y="462.55" width="11.82" height="38.65" fill="#ef9a9a" opacity="0.78"/>
<rect x="918.71" y="436.32" width="11.82" height="64.88" fill="#94a3e8" opacity="0.78"/>
<rect x="938.13" y="440.14" width="11.82" height="61.06" fill="#ef9a9a" opacity="0.78"/>
<rect x="957.55" y="457.79" width="11.82" height="43.41" fill="#ef9a9a" opacity="0.78"/>
<rect x="976.98" y="446.14" width="11.82" height="55.06" fill="#ef9a9a" opacity="0.78"/>
<rect x="996.40" y="429.92" width="11.82" height="71.28" fill="#94a3e8" opacity="0.78"/>
<rect x="1015.82" y="440.67" width="11.82" height="60.53" fill="#94a3e8" opacity="0.78"/>
<rect x="1035.25" y="457.40" width="11.82" height="43.80" fill="#ef9a9a" opacity="0.78"/>
<rect x="1054.67" y="456.25" width="11.82" height="44.95" fill="#ef9a9a" opacity="0.78"/>
<rect x="1074.09" y="441.56" width="11.82" height="59.64" fill="#ef9a9a" opacity="0.78"/>
<path d="M 70.00 466.67 L 89.42 466.63 L 108.85 466.63 L 128.27 466.17 L 147.69 466.17 L 167.12 465.04 L 186.54 464.45 L 205.96 464.08 L 225.38 463.37 L 244.81 463.10 L 264.23 462.71 L 283.65 462.70 L 303.08 463.13 L 322.50 461.95 L 341.92 461.33 L 361.35 461.68 L 380.77 461.86 L 400.19 461.43 L 419.62 461.56 L 439.04 461.10 L 458.46 460.92 L 477.88 460.53 L 497.31 460.09 L 516.73 459.86 L 536.15 459.42 L 555.58 459.19 L 575.00 459.17 L 594.42 458.84 L 613.85 457.99 L 633.27 457.37 L 652.69 457.57 L 672.12 459.44 L 691.54 459.62 L 710.96 459.69 L 730.38 459.76 L 749.81 459.33 L 769.23 458.65 L 788.65 457.95 L 808.08 457.38 L 827.50 457.17 L 846.92 456.70 L 866.35 456.33 L 885.77 455.65 L 905.19 455.55 L 924.62 454.87 L 944.04 454.32 L 963.46 454.12 L 982.88 453.61 L 1002.31 452.70 L 1021.73 451.98 L 1041.15 451.58 L 1060.58 451.16 L 1080.00 450.45" fill="none" stroke="#173ee6" stroke-width="2"/>
<text x="77.0" y="538.0" class="label">Momentum 14</text>
<text x="1088.0" y="532.0" class="axis">6.78</text>
<text x="1088.0" y="606.0" class="axis">-16.22</text>
<line x1="70.0" y1="549.49" x2="1080.0" y2="549.49" stroke="#8a94a5" stroke-dasharray="5 5"/>
<rect x="65.05" y="549.11" width="9.91" height="0.80" fill="#ef4444"/>
<rect x="84.47" y="549.49" width="9.91" height="2.77" fill="#8b929d"/>
<rect x="103.89" y="536.65" width="9.91" height="12.84" fill="#ef4444"/>
<rect x="123.31" y="540.21" width="9.91" height="9.28" fill="#ef4444"/>
<rect x="142.74" y="549.49" width="9.91" height="5.18" fill="#8b929d"/>
<rect x="162.16" y="549.49" width="9.91" height="1.77" fill="#8b929d"/>
<rect x="181.58" y="539.36" width="9.91" height="10.13" fill="#ef4444"/>
<rect x="201.01" y="542.92" width="9.91" height="6.57" fill="#ef4444"/>
<rect x="220.43" y="549.49" width="9.91" height="1.94" fill="#8b929d"/>
<rect x="239.85" y="549.49" width="9.91" height="1.56" fill="#8b929d"/>
<rect x="259.28" y="549.49" width="9.91" height="3.36" fill="#8b929d"/>
<rect x="278.70" y="549.49" width="9.91" height="1.30" fill="#8b929d"/>
<rect x="298.12" y="549.49" width="9.91" height="18.23" fill="#8b929d"/>
<rect x="317.55" y="549.49" width="9.91" height="16.20" fill="#8b929d"/>
<rect x="336.97" y="549.49" width="9.91" height="24.10" fill="#8b929d"/>
<rect x="356.39" y="549.49" width="9.91" height="14.46" fill="#8b929d"/>
<rect x="375.81" y="549.49" width="9.91" height="15.23" fill="#8b929d"/>
<rect x="395.24" y="549.49" width="9.91" height="26.16" fill="#8b929d"/>
<rect x="414.66" y="549.49" width="9.91" height="19.59" fill="#8b929d"/>
<rect x="434.08" y="549.49" width="9.91" height="23.27" fill="#8b929d"/>
<rect x="453.51" y="549.49" width="9.91" height="24.13" fill="#8b929d"/>
<rect x="472.93" y="549.49" width="9.91" height="37.80" fill="#8b929d"/>
<rect x="492.35" y="549.49" width="9.91" height="33.49" fill="#8b929d"/>
<rect x="511.78" y="549.49" width="9.91" height="41.60" fill="#8b929d"/>
<rect x="531.20" y="549.49" width="9.91" height="46.93" fill="#8b929d"/>
<rect x="550.62" y="549.49" width="9.91" height="41.63" fill="#8b929d"/>
<rect x="570.05" y="549.49" width="9.91" height="34.53" fill="#8b929d"/>
<rect x="589.47" y="549.49" width="9.91" height="35.73" fill="#8b929d"/>
<rect x="608.89" y="549.49" width="9.91" height="29.55" fill="#8b929d"/>
<rect x="628.31" y="549.49" width="9.91" height="34.70" fill="#8b929d"/>
<rect x="647.74" y="549.49" width="9.91" height="29.99" fill="#8b929d"/>
<rect x="667.16" y="549.49" width="9.91" height="15.52" fill="#8b929d"/>
<rect x="686.58" y="549.49" width="9.91" height="34.50" fill="#8b929d"/>
<rect x="706.01" y="549.49" width="9.91" height="34.38" fill="#8b929d"/>
<rect x="725.43" y="549.49" width="9.91" height="37.68" fill="#8b929d"/>
<rect x="744.85" y="549.49" width="9.91" height="44.22" fill="#8b929d"/>
<rect x="764.28" y="549.49" width="9.91" height="47.43" fill="#8b929d"/>
<rect x="783.70" y="549.49" width="9.91" height="49.87" fill="#8b929d"/>
<rect x="803.12" y="549.49" width="9.91" height="37.03" fill="#8b929d"/>
<rect x="822.55" y="549.49" width="9.91" height="48.08" fill="#8b929d"/>
<rect x="841.97" y="549.49" width="9.91" height="40.18" fill="#8b929d"/>
<rect x="861.39" y="549.49" width="9.91" height="34.70" fill="#8b929d"/>
<rect x="880.81" y="549.49" width="9.91" height="34.88" fill="#8b929d"/>
<rect x="900.24" y="549.49" width="9.91" height="33.79" fill="#8b929d"/>
<rect x="919.66" y="549.49" width="9.91" height="44.39" fill="#8b929d"/>
<rect x="939.08" y="549.49" width="9.91" height="31.87" fill="#8b929d"/>
<rect x="958.51" y="549.49" width="9.91" height="17.41" fill="#8b929d"/>
<rect x="977.93" y="549.49" width="9.91" height="11.05" fill="#8b929d"/>
<rect x="997.35" y="549.49" width="9.91" height="18.47" fill="#8b929d"/>
<rect x="1016.78" y="549.49" width="9.91" height="14.49" fill="#8b929d"/>
<rect x="1036.20" y="548.31" width="9.91" height="1.18" fill="#ef4444"/>
<rect x="1055.62" y="540.39" width="9.91" height="9.10" fill="#ef4444"/>
<rect x="1075.05" y="530.64" width="9.91" height="18.85" fill="#ef4444"/>
<text x="77.0" y="638.0" class="label">MACD 12·26 · Signal 9</text>
<text x="1088.0" y="632.0" class="axis">2.69</text>
<text x="1088.0" y="736.0" class="axis">-5.62</text>
<line x1="70.0" y1="662.23" x2="1080.0" y2="662.23" stroke="#8a94a5" stroke-dasharray="5 5"/>
<rect x="65.05" y="662.23" width="9.91" height="1.30" fill="#c8ccd3" opacity="0.7"/>
<rect x="84.47" y="662.23" width="9.91" height="3.16" fill="#c8ccd3" opacity="0.7"/>
<rect x="103.89" y="662.23" width="9.91" height="4.15" fill="#c8ccd3" opacity="0.7"/>
<rect x="123.31" y="662.23" width="9.91" height="5.93" fill="#c8ccd3" opacity="0.7"/>
<rect x="142.74" y="662.23" width="9.91" height="7.15" fill="#c8ccd3" opacity="0.7"/>
<rect x="162.16" y="662.23" width="9.91" height="7.83" fill="#c8ccd3" opacity="0.7"/>
<rect x="181.58" y="662.23" width="9.91" height="5.66" fill="#c8ccd3" opacity="0.7"/>
<rect x="201.01" y="662.23" width="9.91" height="2.39" fill="#c8ccd3" opacity="0.7"/>
<rect x="220.43" y="662.23" width="9.91" height="3.17" fill="#c8ccd3" opacity="0.7"/>
<rect x="239.85" y="662.23" width="9.91" height="2.30" fill="#c8ccd3" opacity="0.7"/>
<rect x="259.28" y="662.23" width="9.91" height="2.87" fill="#c8ccd3" opacity="0.7"/>
<rect x="278.70" y="662.23" width="9.91" height="3.04" fill="#c8ccd3" opacity="0.7"/>
<rect x="298.12" y="662.23" width="9.91" height="6.55" fill="#c8ccd3" opacity="0.7"/>
<rect x="317.55" y="662.23" width="9.91" height="7.99" fill="#c8ccd3" opacity="0.7"/>
<rect x="336.97" y="662.23" width="9.91" height="11.22" fill="#c8ccd3" opacity="0.7"/>
<rect x="356.39" y="662.23" width="9.91" height="11.36" fill="#c8ccd3" opacity="0.7"/>
<rect x="375.81" y="662.23" width="9.91" height="10.85" fill="#c8ccd3" opacity="0.7"/>
<rect x="395.24" y="662.23" width="9.91" height="13.70" fill="#c8ccd3" opacity="0.7"/>
<rect x="414.66" y="662.23" width="9.91" height="13.42" fill="#c8ccd3" opacity="0.7"/>
<rect x="434.08" y="662.23" width="9.91" height="13.46" fill="#c8ccd3" opacity="0.7"/>
<rect x="453.51" y="662.23" width="9.91" height="10.56" fill="#c8ccd3" opacity="0.7"/>
<rect x="472.93" y="662.23" width="9.91" height="9.53" fill="#c8ccd3" opacity="0.7"/>
<rect x="492.35" y="662.23" width="9.91" height="10.05" fill="#c8ccd3" opacity="0.7"/>
<rect x="511.78" y="662.23" width="9.91" height="10.28" fill="#c8ccd3" opacity="0.7"/>
<rect x="531.20" y="662.23" width="9.91" height="12.07" fill="#c8ccd3" opacity="0.7"/>
<rect x="550.62" y="662.23" width="9.91" height="10.94" fill="#c8ccd3" opacity="0.7"/>
<rect x="570.05" y="662.23" width="9.91" height="11.21" fill="#c8ccd3" opacity="0.7"/>
<rect x="589.47" y="662.23" width="9.91" height="10.30" fill="#c8ccd3" opacity="0.7"/>
<rect x="608.89" y="662.23" width="9.91" height="10.12" fill="#c8ccd3" opacity="0.7"/>
<rect x="628.31" y="662.23" width="9.91" height="9.03" fill="#c8ccd3" opacity="0.7"/>
<rect x="647.74" y="662.23" width="9.91" height="6.40" fill="#c8ccd3" opacity="0.7"/>
<rect x="667.16" y="662.23" width="9.91" height="4.41" fill="#c8ccd3" opacity="0.7"/>
<rect x="686.58" y="662.23" width="9.91" height="5.73" fill="#c8ccd3" opacity="0.7"/>
<rect x="706.01" y="662.23" width="9.91" height="6.84" fill="#c8ccd3" opacity="0.7"/>
<rect x="725.43" y="662.23" width="9.91" height="5.44" fill="#c8ccd3" opacity="0.7"/>
<rect x="744.85" y="662.23" width="9.91" height="6.89" fill="#c8ccd3" opacity="0.7"/>
<rect x="764.28" y="662.23" width="9.91" height="9.58" fill="#c8ccd3" opacity="0.7"/>
<rect x="783.70" y="662.23" width="9.91" height="11.51" fill="#c8ccd3" opacity="0.7"/>
<rect x="803.12" y="662.23" width="9.91" height="10.99" fill="#c8ccd3" opacity="0.7"/>
<rect x="822.55" y="662.23" width="9.91" height="10.80" fill="#c8ccd3" opacity="0.7"/>
<rect x="841.97" y="662.23" width="9.91" height="9.53" fill="#c8ccd3" opacity="0.7"/>
<rect x="861.39" y="662.23" width="9.91" height="6.19" fill="#c8ccd3" opacity="0.7"/>
<rect x="880.81" y="662.23" width="9.91" height="4.49" fill="#c8ccd3" opacity="0.7"/>
<rect x="900.24" y="662.23" width="9.91" height="2.23" fill="#c8ccd3" opacity="0.7"/>
<rect x="919.66" y="662.23" width="9.91" height="1.50" fill="#c8ccd3" opacity="0.7"/>
<rect x="939.08" y="660.02" width="9.91" height="2.21" fill="#f2a0a0" opacity="0.7"/>
<rect x="958.51" y="656.99" width="9.91" height="5.24" fill="#f2a0a0" opacity="0.7"/>
<rect x="977.93" y="654.28" width="9.91" height="7.95" fill="#f2a0a0" opacity="0.7"/>
<rect x="997.35" y="652.86" width="9.91" height="9.37" fill="#f2a0a0" opacity="0.7"/>
<rect x="1016.78" y="654.02" width="9.91" height="8.21" fill="#f2a0a0" opacity="0.7"/>
<rect x="1036.20" y="653.56" width="9.91" height="8.67" fill="#f2a0a0" opacity="0.7"/>
<rect x="1055.62" y="652.56" width="9.91" height="9.67" fill="#f2a0a0" opacity="0.7"/>
<rect x="1075.05" y="649.04" width="9.91" height="13.20" fill="#f2a0a0" opacity="0.7"/>
<path d="M 70.00 635.48 L 89.42 638.13 L 108.85 640.16 L 128.27 643.42 L 147.69 646.43 L 167.12 649.06 L 186.54 648.31 L 205.96 645.63 L 225.38 647.21 L 244.81 646.92 L 264.23 648.20 L 283.65 649.13 L 303.08 654.28 L 322.50 657.71 L 341.92 663.75 L 361.35 666.74 L 380.77 668.93 L 400.19 675.21 L 419.62 678.28 L 439.04 681.69 L 458.46 681.42 L 477.88 682.78 L 497.31 685.81 L 516.73 688.62 L 536.15 693.42 L 555.58 695.03 L 575.00 698.10 L 594.42 699.76 L 613.85 702.11 L 633.27 703.28 L 652.69 702.26 L 672.12 701.37 L 691.54 704.11 L 710.96 706.94 L 730.38 706.90 L 749.81 710.07 L 769.23 715.16 L 788.65 719.96 L 808.08 722.19 L 827.50 724.70 L 846.92 725.82 L 866.35 724.02 L 885.77 723.44 L 905.19 721.75 L 924.62 721.39 L 944.04 717.12 L 963.46 712.78 L 982.88 708.08 L 1002.31 704.32 L 1021.73 703.43 L 1041.15 700.80 L 1060.58 697.39 L 1080.00 690.56" fill="none" stroke="#ef4444" stroke-width="2.2"/>
<path d="M 70.00 634.18 L 89.42 634.97 L 108.85 636.01 L 128.27 637.49 L 147.69 639.28 L 167.12 641.24 L 186.54 642.65 L 205.96 643.25 L 225.38 644.04 L 244.81 644.61 L 264.23 645.33 L 283.65 646.09 L 303.08 647.73 L 322.50 649.73 L 341.92 652.53 L 361.35 655.37 L 380.77 658.08 L 400.19 661.51 L 419.62 664.86 L 439.04 668.23 L 458.46 670.87 L 477.88 673.25 L 497.31 675.76 L 516.73 678.33 L 536.15 681.35 L 555.58 684.09 L 575.00 686.89 L 594.42 689.46 L 613.85 691.99 L 633.27 694.25 L 652.69 695.85 L 672.12 696.96 L 691.54 698.39 L 710.96 700.10 L 730.38 701.46 L 749.81 703.18 L 769.23 705.58 L 788.65 708.45 L 808.08 711.20 L 827.50 713.90 L 846.92 716.28 L 866.35 717.83 L 885.77 718.95 L 905.19 719.51 L 924.62 719.89 L 944.04 719.33 L 963.46 718.02 L 982.88 716.04 L 1002.31 713.69 L 1021.73 711.64 L 1041.15 709.47 L 1060.58 707.06 L 1080.00 703.76" fill="none" stroke="#3156d9" stroke-width="2.2"/>
<text x="77.0" y="768.0" class="label">RSI 14</text>
<text x="1088.0" y="762.0" class="axis">100.00</text>
<text x="1088.0" y="836.0" class="axis">0.00</text>
<line x1="70.0" y1="810.12" x2="1080.0" y2="810.12" stroke="#3156d9" stroke-dasharray="5 5"/>
<line x1="70.0" y1="795.00" x2="1080.0" y2="795.00" stroke="#aab1bd" stroke-dasharray="5 5"/>
<line x1="70.0" y1="779.88" x2="1080.0" y2="779.88" stroke="#ef4444" stroke-dasharray="5 5"/>
<path d="M 70.00 789.20 L 89.42 791.75 L 108.85 791.14 L 128.27 794.42 L 147.69 794.95 L 167.12 795.20 L 186.54 788.81 L 205.96 785.00 L 225.38 793.00 L 244.81 790.12 L 264.23 792.86 L 283.65 792.43 L 303.08 800.11 L 322.50 798.74 L 341.92 803.56 L 361.35 800.12 L 380.77 799.95 L 400.19 806.07 L 419.62 802.72 L 439.04 804.20 L 458.46 799.13 L 477.88 801.51 L 497.31 804.21 L 516.73 805.03 L 536.15 808.18 L 555.58 804.60 L 575.00 806.97 L 594.42 806.30 L 613.85 807.92 L 633.27 807.43 L 652.69 804.13 L 672.12 804.64 L 691.54 809.27 L 710.96 810.45 L 730.38 806.44 L 749.81 810.31 L 769.23 812.98 L 788.65 814.06 L 808.08 812.07 L 827.50 813.29 L 846.92 812.94 L 866.35 808.32 L 885.77 809.92 L 905.19 808.64 L 924.62 810.43 L 944.04 803.07 L 963.46 802.31 L 982.88 800.82 L 1002.31 801.50 L 1021.73 805.16 L 1041.15 801.92 L 1060.58 799.96 L 1080.00 793.06" fill="none" stroke="#e83e8c" stroke-width="2.2"/>
<text x="77.0" y="868.0" class="label">MFI 14</text>
<text x="1088.0" y="862.0" class="axis">100.00</text>
<text x="1088.0" y="936.0" class="axis">0.00</text>
<line x1="70.0" y1="910.12" x2="1080.0" y2="910.12" stroke="#3156d9" stroke-dasharray="5 5"/>
<line x1="70.0" y1="895.00" x2="1080.0" y2="895.00" stroke="#aab1bd" stroke-dasharray="5 5"/>
<line x1="70.0" y1="879.88" x2="1080.0" y2="879.88" stroke="#ef4444" stroke-dasharray="5 5"/>
<path d="M 70.00 890.46 L 89.42 895.01 L 108.85 894.44 L 128.27 893.30 L 147.69 894.04 L 167.12 903.73 L 186.54 897.28 L 205.96 896.22 L 225.38 902.75 L 244.81 902.63 L 264.23 903.14 L 283.65 902.96 L 303.08 906.74 L 322.50 912.30 L 341.92 913.34 L 361.35 910.28 L 380.77 906.94 L 400.19 907.57 L 419.62 911.24 L 439.04 904.12 L 458.46 905.48 L 477.88 911.01 L 497.31 910.25 L 516.73 914.82 L 536.15 914.58 L 555.58 909.78 L 575.00 909.71 L 594.42 908.25 L 613.85 908.09 L 633.27 906.78 L 652.69 907.26 L 672.12 902.19 L 691.54 902.65 L 710.96 909.54 L 730.38 909.07 L 749.81 910.08 L 769.23 910.10 L 788.65 910.54 L 808.08 905.28 L 827.50 910.70 L 846.92 911.28 L 866.35 906.35 L 885.77 905.95 L 905.19 907.01 L 924.62 911.02 L 944.04 909.45 L 963.46 904.74 L 982.88 899.08 L 1002.31 904.69 L 1021.73 903.77 L 1041.15 899.05 L 1060.58 893.87 L 1080.00 893.68" fill="none" stroke="#e83e8c" stroke-width="2.2"/>
<rect x="978.00" y="85.0" width="98" height="23" rx="5" fill="#1d5fd1"/>
<text x="1027.00" y="101.0" text-anchor="middle" style="font-size:11px;fill:#fff;font-weight:800">MMRM 기준봉</text>
<text x="70.00" y="962.0" text-anchor="middle" class="axis">2015-05</text>
<text x="322.50" y="962.0" text-anchor="middle" class="axis">2015-08</text>
<text x="575.00" y="962.0" text-anchor="middle" class="axis">2015-11</text>
<text x="827.50" y="962.0" text-anchor="middle" class="axis">2016-02</text>
<text x="1080.00" y="962.0" text-anchor="middle" class="axis">T0 2016-05-23</text>
<text x="1080.0" y="988" text-anchor="end" class="sub">이 그림은 패턴을 익히기 위한 실제 대표사례이며, 해당 사건의 기준봉 이후 결과를 포함하지 않는다.</text>
</svg>