<svg xmlns="http://www.w3.org/2000/svg" viewBox="0 0 1200 1000" role="img">
<title>대폭락·장기선 크게 아래 급반등 준비형 실제 대표사례 MRVL 2016-02-29 기준봉 이전 차트</title>
<rect width="1200" height="1000" fill="#ffffff"/>
<style>text{font-family:system-ui,-apple-system,'Noto Sans KR',sans-serif;fill:#202735}.title{font-size:21px;font-weight:800}.sub{font-size:12px;fill:#667085}.label{font-size:13px;font-weight:750}.axis{font-size:10px;fill:#6b7280}.legend{font-size:11px;font-weight:750}</style>
<text x="70.0" y="28" class="title">실제 대표사례 · MRVL 2016-02-29 · 대폭락·장기선 크게 아래 급반등 준비형</text>
<text x="70.0" y="50" class="sub">Investing 근사 주봉 · 기준봉 이전 52주와 기준봉만 표시 · 기준봉 이후 성과는 숨김</text>
<rect x="70.0" y="80.0" width="1010.0" height="310.0" fill="#fcfdff" stroke="#d9e1ec"/>
<line x1="70.00" y1="80.0" x2="70.00" y2="390.0" stroke="#e8edf4" stroke-width="1.0"/>
<line x1="322.50" y1="80.0" x2="322.50" y2="390.0" stroke="#e8edf4" stroke-width="1.0"/>
<line x1="575.00" y1="80.0" x2="575.00" y2="390.0" stroke="#e8edf4" stroke-width="1.0"/>
<line x1="827.50" y1="80.0" x2="827.50" y2="390.0" stroke="#e8edf4" stroke-width="1.0"/>
<line x1="1080.00" y1="80.0" x2="1080.00" y2="390.0" stroke="#1d5fd1" stroke-width="2.2"/>
<rect x="70.0" y="400.0" width="1010.0" height="110.0" fill="#fcfdff" stroke="#d9e1ec"/>
<line x1="70.00" y1="400.0" x2="70.00" y2="510.0" stroke="#e8edf4" stroke-width="1.0"/>
<line x1="322.50" y1="400.0" x2="322.50" y2="510.0" stroke="#e8edf4" stroke-width="1.0"/>
<line x1="575.00" y1="400.0" x2="575.00" y2="510.0" stroke="#e8edf4" stroke-width="1.0"/>
<line x1="827.50" y1="400.0" x2="827.50" y2="510.0" stroke="#e8edf4" stroke-width="1.0"/>
<line x1="1080.00" y1="400.0" x2="1080.00" y2="510.0" stroke="#1d5fd1" stroke-width="2.2"/>
<rect x="70.0" y="520.0" width="1010.0" height="90.0" fill="#fcfdff" stroke="#d9e1ec"/>
<line x1="70.00" y1="520.0" x2="70.00" y2="610.0" stroke="#e8edf4" stroke-width="1.0"/>
<line x1="322.50" y1="520.0" x2="322.50" y2="610.0" stroke="#e8edf4" stroke-width="1.0"/>
<line x1="575.00" y1="520.0" x2="575.00" y2="610.0" stroke="#e8edf4" stroke-width="1.0"/>
<line x1="827.50" y1="520.0" x2="827.50" y2="610.0" stroke="#e8edf4" stroke-width="1.0"/>
<line x1="1080.00" y1="520.0" x2="1080.00" y2="610.0" stroke="#1d5fd1" stroke-width="2.2"/>
<rect x="70.0" y="620.0" width="1010.0" height="120.0" fill="#fcfdff" stroke="#d9e1ec"/>
<line x1="70.00" y1="620.0" x2="70.00" y2="740.0" stroke="#e8edf4" stroke-width="1.0"/>
<line x1="322.50" y1="620.0" x2="322.50" y2="740.0" stroke="#e8edf4" stroke-width="1.0"/>
<line x1="575.00" y1="620.0" x2="575.00" y2="740.0" stroke="#e8edf4" stroke-width="1.0"/>
<line x1="827.50" y1="620.0" x2="827.50" y2="740.0" stroke="#e8edf4" stroke-width="1.0"/>
<line x1="1080.00" y1="620.0" x2="1080.00" y2="740.0" stroke="#1d5fd1" stroke-width="2.2"/>
<rect x="70.0" y="750.0" width="1010.0" height="90.0" fill="#fcfdff" stroke="#d9e1ec"/>
<line x1="70.00" y1="750.0" x2="70.00" y2="840.0" stroke="#e8edf4" stroke-width="1.0"/>
<line x1="322.50" y1="750.0" x2="322.50" y2="840.0" stroke="#e8edf4" stroke-width="1.0"/>
<line x1="575.00" y1="750.0" x2="575.00" y2="840.0" stroke="#e8edf4" stroke-width="1.0"/>
<line x1="827.50" y1="750.0" x2="827.50" y2="840.0" stroke="#e8edf4" stroke-width="1.0"/>
<line x1="1080.00" y1="750.0" x2="1080.00" y2="840.0" stroke="#1d5fd1" stroke-width="2.2"/>
<rect x="70.0" y="850.0" width="1010.0" height="90.0" fill="#fcfdff" stroke="#d9e1ec"/>
<line x1="70.00" y1="850.0" x2="70.00" y2="940.0" stroke="#e8edf4" stroke-width="1.0"/>
<line x1="322.50" y1="850.0" x2="322.50" y2="940.0" stroke="#e8edf4" stroke-width="1.0"/>
<line x1="575.00" y1="850.0" x2="575.00" y2="940.0" stroke="#e8edf4" stroke-width="1.0"/>
<line x1="827.50" y1="850.0" x2="827.50" y2="940.0" stroke="#e8edf4" stroke-width="1.0"/>
<line x1="1080.00" y1="850.0" x2="1080.00" y2="940.0" stroke="#1d5fd1" stroke-width="2.2"/>
<text x="77.0" y="98.0" class="label">주봉 가격 · MA 5 / 20 / 50 / 150 / 200</text>
<text x="1088.0" y="92.0" class="axis">17.21</text>
<text x="1088.0" y="386.0" class="axis">6.93</text>
<line x1="70.00" y1="116.64" x2="70.00" y2="140.21" stroke="#ef3b3b"/>
<rect x="64.76" y="121.20" width="10.48" height="6.59" fill="#ef3b3b" stroke="#ef3b3b"/>
<line x1="89.42" y1="118.66" x2="89.42" y2="140.46" stroke="#3156d9"/>
<rect x="84.18" y="122.72" width="10.48" height="11.15" fill="#ffffff" stroke="#3156d9"/>
<line x1="108.85" y1="129.82" x2="108.85" y2="147.30" stroke="#3156d9"/>
<rect x="103.61" y="133.87" width="10.48" height="8.62" fill="#ffffff" stroke="#3156d9"/>
<line x1="128.27" y1="140.71" x2="128.27" y2="172.65" stroke="#3156d9"/>
<rect x="123.03" y="143.00" width="10.48" height="11.66" fill="#ffffff" stroke="#3156d9"/>
<line x1="147.69" y1="154.15" x2="147.69" y2="169.61" stroke="#3156d9"/>
<rect x="142.45" y="154.40" width="10.48" height="12.17" fill="#ffffff" stroke="#3156d9"/>
<line x1="167.12" y1="150.60" x2="167.12" y2="176.71" stroke="#ef3b3b"/>
<rect x="161.87" y="153.89" width="10.48" height="22.81" fill="#ef3b3b" stroke="#ef3b3b"/>
<line x1="186.54" y1="148.83" x2="186.54" y2="163.53" stroke="#3156d9"/>
<rect x="181.30" y="154.65" width="10.48" height="5.83" fill="#ffffff" stroke="#3156d9"/>
<line x1="205.96" y1="156.68" x2="205.96" y2="184.82" stroke="#3156d9"/>
<rect x="200.72" y="160.74" width="10.48" height="17.49" fill="#ffffff" stroke="#3156d9"/>
<line x1="225.38" y1="176.71" x2="225.38" y2="193.43" stroke="#ef3b3b"/>
<rect x="220.14" y="178.48" width="10.48" height="12.17" fill="#ef3b3b" stroke="#ef3b3b"/>
<line x1="244.81" y1="172.40" x2="244.81" y2="190.65" stroke="#3156d9"/>
<rect x="239.57" y="176.45" width="10.48" height="4.82" fill="#ffffff" stroke="#3156d9"/>
<line x1="264.23" y1="176.96" x2="264.23" y2="187.10" stroke="#ef3b3b"/>
<rect x="258.99" y="178.73" width="10.48" height="3.04" fill="#ef3b3b" stroke="#ef3b3b"/>
<line x1="283.65" y1="173.16" x2="283.65" y2="210.16" stroke="#3156d9"/>
<rect x="278.41" y="177.21" width="10.48" height="30.67" fill="#ffffff" stroke="#3156d9"/>
<line x1="303.08" y1="177.47" x2="303.08" y2="206.61" stroke="#ef3b3b"/>
<rect x="297.84" y="186.34" width="10.48" height="14.70" fill="#ef3b3b" stroke="#ef3b3b"/>
<line x1="322.50" y1="176.45" x2="322.50" y2="187.86" stroke="#ef3b3b"/>
<rect x="317.26" y="181.01" width="10.48" height="1.20" fill="#ef3b3b" stroke="#ef3b3b"/>
<line x1="341.92" y1="174.17" x2="341.92" y2="189.88" stroke="#ef3b3b"/>
<rect x="336.68" y="178.73" width="10.48" height="4.56" fill="#ef3b3b" stroke="#ef3b3b"/>
<line x1="361.35" y1="168.09" x2="361.35" y2="188.62" stroke="#ef3b3b"/>
<rect x="356.11" y="170.88" width="10.48" height="11.15" fill="#ef3b3b" stroke="#ef3b3b"/>
<line x1="380.77" y1="167.58" x2="380.77" y2="188.87" stroke="#3156d9"/>
<rect x="375.53" y="169.86" width="10.48" height="18.00" fill="#ffffff" stroke="#3156d9"/>
<line x1="400.19" y1="192.42" x2="400.19" y2="209.40" stroke="#3156d9"/>
<rect x="394.95" y="192.67" width="10.48" height="8.11" fill="#ffffff" stroke="#3156d9"/>
<line x1="419.62" y1="201.29" x2="419.62" y2="227.40" stroke="#3156d9"/>
<rect x="414.37" y="204.08" width="10.48" height="19.77" fill="#ffffff" stroke="#3156d9"/>
<line x1="439.04" y1="201.80" x2="439.04" y2="223.34" stroke="#ef3b3b"/>
<rect x="433.80" y="215.23" width="10.48" height="2.28" fill="#ef3b3b" stroke="#ef3b3b"/>
<line x1="458.46" y1="212.95" x2="458.46" y2="232.47" stroke="#3156d9"/>
<rect x="453.22" y="214.98" width="10.48" height="16.98" fill="#ffffff" stroke="#3156d9"/>
<line x1="477.88" y1="217.51" x2="477.88" y2="238.04" stroke="#ef3b3b"/>
<rect x="472.64" y="225.62" width="10.48" height="8.87" fill="#ef3b3b" stroke="#ef3b3b"/>
<line x1="497.31" y1="202.56" x2="497.31" y2="235.25" stroke="#ef3b3b"/>
<rect x="492.07" y="223.85" width="10.48" height="2.53" fill="#ef3b3b" stroke="#ef3b3b"/>
<line x1="516.73" y1="217.26" x2="516.73" y2="232.97" stroke="#3156d9"/>
<rect x="511.49" y="223.09" width="10.48" height="2.79" fill="#ffffff" stroke="#3156d9"/>
<line x1="536.15" y1="222.07" x2="536.15" y2="259.33" stroke="#3156d9"/>
<rect x="530.91" y="233.23" width="10.48" height="24.59" fill="#ffffff" stroke="#3156d9"/>
<line x1="555.58" y1="252.74" x2="555.58" y2="287.47" stroke="#ef3b3b"/>
<rect x="550.34" y="254.01" width="10.48" height="30.92" fill="#ef3b3b" stroke="#ef3b3b"/>
<line x1="575.00" y1="251.47" x2="575.00" y2="266.68" stroke="#3156d9"/>
<rect x="569.76" y="255.28" width="10.48" height="10.65" fill="#ffffff" stroke="#3156d9"/>
<line x1="594.42" y1="260.60" x2="594.42" y2="332.83" stroke="#3156d9"/>
<rect x="589.18" y="265.16" width="10.48" height="51.70" fill="#ffffff" stroke="#3156d9"/>
<line x1="613.85" y1="310.28" x2="613.85" y2="327.00" stroke="#ef3b3b"/>
<rect x="608.61" y="321.68" width="10.48" height="1.20" fill="#ef3b3b" stroke="#ef3b3b"/>
<line x1="633.27" y1="295.07" x2="633.27" y2="325.48" stroke="#ef3b3b"/>
<rect x="628.03" y="304.45" width="10.48" height="15.71" fill="#ef3b3b" stroke="#ef3b3b"/>
<line x1="652.69" y1="305.21" x2="652.69" y2="321.68" stroke="#3156d9"/>
<rect x="647.45" y="308.76" width="10.48" height="2.28" fill="#ffffff" stroke="#3156d9"/>
<line x1="672.12" y1="294.31" x2="672.12" y2="310.02" stroke="#ef3b3b"/>
<rect x="666.87" y="302.42" width="10.48" height="3.55" fill="#ef3b3b" stroke="#ef3b3b"/>
<line x1="691.54" y1="294.06" x2="691.54" y2="311.54" stroke="#ef3b3b"/>
<rect x="686.30" y="303.94" width="10.48" height="4.82" fill="#ef3b3b" stroke="#ef3b3b"/>
<line x1="710.96" y1="297.10" x2="710.96" y2="312.05" stroke="#ef3b3b"/>
<rect x="705.72" y="298.62" width="10.48" height="4.06" fill="#ef3b3b" stroke="#ef3b3b"/>
<line x1="730.38" y1="299.12" x2="730.38" y2="349.56" stroke="#3156d9"/>
<rect x="725.14" y="300.39" width="10.48" height="32.44" fill="#ffffff" stroke="#3156d9"/>
<line x1="749.81" y1="313.32" x2="749.81" y2="333.34" stroke="#ef3b3b"/>
<rect x="744.57" y="315.35" width="10.48" height="17.49" fill="#ef3b3b" stroke="#ef3b3b"/>
<line x1="769.23" y1="312.30" x2="769.23" y2="328.02" stroke="#3156d9"/>
<rect x="763.99" y="315.85" width="10.48" height="9.12" fill="#ffffff" stroke="#3156d9"/>
<line x1="788.65" y1="316.36" x2="788.65" y2="327.76" stroke="#ef3b3b"/>
<rect x="783.41" y="320.16" width="10.48" height="4.31" fill="#ef3b3b" stroke="#ef3b3b"/>
<line x1="808.08" y1="318.39" x2="808.08" y2="326.75" stroke="#ef3b3b"/>
<rect x="802.84" y="319.40" width="10.48" height="1.20" fill="#ef3b3b" stroke="#ef3b3b"/>
<line x1="827.50" y1="297.10" x2="827.50" y2="320.67" stroke="#ef3b3b"/>
<rect x="822.26" y="306.73" width="10.48" height="11.66" fill="#ef3b3b" stroke="#ef3b3b"/>
<line x1="846.92" y1="298.87" x2="846.92" y2="334.10" stroke="#3156d9"/>
<rect x="841.68" y="319.15" width="10.48" height="13.18" fill="#ffffff" stroke="#3156d9"/>
<line x1="866.35" y1="321.43" x2="866.35" y2="338.66" stroke="#ef3b3b"/>
<rect x="861.11" y="323.71" width="10.48" height="10.39" fill="#ef3b3b" stroke="#ef3b3b"/>
<line x1="885.77" y1="311.54" x2="885.77" y2="330.30" stroke="#ef3b3b"/>
<rect x="880.53" y="312.30" width="10.48" height="11.15" fill="#ef3b3b" stroke="#ef3b3b"/>
<line x1="905.19" y1="312.30" x2="905.19" y2="320.41" stroke="#3156d9"/>
<rect x="899.95" y="314.33" width="10.48" height="3.04" fill="#ffffff" stroke="#3156d9"/>
<line x1="924.62" y1="316.61" x2="924.62" y2="341.96" stroke="#3156d9"/>
<rect x="919.37" y="321.17" width="10.48" height="11.41" fill="#ffffff" stroke="#3156d9"/>
<line x1="944.04" y1="321.68" x2="944.04" y2="339.17" stroke="#3156d9"/>
<rect x="938.80" y="332.07" width="10.48" height="3.29" fill="#ffffff" stroke="#3156d9"/>
<line x1="963.46" y1="327.26" x2="963.46" y2="353.36" stroke="#3156d9"/>
<rect x="958.22" y="327.26" width="10.48" height="6.34" fill="#ffffff" stroke="#3156d9"/>
<line x1="982.88" y1="316.36" x2="982.88" y2="337.40" stroke="#ef3b3b"/>
<rect x="977.64" y="316.61" width="10.48" height="18.25" fill="#ef3b3b" stroke="#ef3b3b"/>
<line x1="1002.31" y1="300.14" x2="1002.31" y2="324.22" stroke="#ef3b3b"/>
<rect x="997.07" y="313.82" width="10.48" height="6.34" fill="#ef3b3b" stroke="#ef3b3b"/>
<line x1="1021.73" y1="313.82" x2="1021.73" y2="330.05" stroke="#3156d9"/>
<rect x="1016.49" y="314.84" width="10.48" height="7.86" fill="#ffffff" stroke="#3156d9"/>
<line x1="1041.15" y1="293.29" x2="1041.15" y2="321.43" stroke="#ef3b3b"/>
<rect x="1035.91" y="308.76" width="10.48" height="12.67" fill="#ef3b3b" stroke="#ef3b3b"/>
<line x1="1060.58" y1="296.59" x2="1060.58" y2="310.53" stroke="#ef3b3b"/>
<rect x="1055.34" y="299.12" width="10.48" height="10.14" fill="#ef3b3b" stroke="#ef3b3b"/>
<line x1="1080.00" y1="286.96" x2="1080.00" y2="299.88" stroke="#ef3b3b"/>
<rect x="1074.76" y="293.80" width="10.48" height="4.31" fill="#ef3b3b" stroke="#ef3b3b"/>
<path d="M 70.00 126.32 L 89.42 127.18 L 108.85 131.59 L 128.27 136.91 L 147.69 143.76 L 167.12 150.30 L 186.54 155.62 L 205.96 162.77 L 225.38 167.53 L 244.81 170.47 L 264.23 175.44 L 283.65 184.92 L 303.08 186.54 L 322.50 187.05 L 341.92 186.54 L 361.35 184.97 L 380.77 180.96 L 400.19 183.85 L 419.62 192.42 L 439.04 199.72 L 458.46 211.94 L 477.88 219.49 L 497.31 224.10 L 516.73 224.51 L 536.15 233.02 L 555.58 237.43 L 575.00 245.49 L 594.42 264.10 L 613.85 283.26 L 633.27 292.59 L 652.69 303.99 L 672.12 311.29 L 691.54 308.70 L 710.96 304.09 L 730.38 309.77 L 749.81 310.63 L 769.23 315.14 L 788.65 318.39 L 808.08 322.54 L 827.50 317.32 L 846.92 320.72 L 866.35 320.47 L 885.77 318.89 L 905.19 318.49 L 924.62 323.66 L 944.04 324.27 L 963.46 326.24 L 982.88 327.11 L 1002.31 326.40 L 1021.73 324.42 L 1041.15 319.10 L 1060.58 312.20 L 1080.00 307.64" fill="none" stroke="#168b4b" stroke-width="2"/>
<path d="M 70.00 163.23 L 89.42 159.39 L 108.85 156.50 L 128.27 154.15 L 147.69 152.08 L 167.12 150.46 L 186.54 149.59 L 205.96 150.59 L 225.38 150.45 L 244.81 150.43 L 264.23 150.54 L 283.65 152.28 L 303.08 154.87 L 322.50 156.57 L 341.92 158.13 L 361.35 159.25 L 380.77 162.17 L 400.19 166.19 L 419.62 170.98 L 439.04 175.12 L 458.46 180.66 L 477.88 185.25 L 497.31 189.31 L 516.73 192.88 L 536.15 197.44 L 555.58 202.44 L 575.00 207.72 L 594.42 214.65 L 613.85 221.81 L 633.27 227.97 L 652.69 234.58 L 672.12 239.31 L 691.54 245.19 L 710.96 251.07 L 730.38 258.77 L 749.81 266.00 L 769.23 272.85 L 788.65 278.82 L 808.08 283.60 L 827.50 288.17 L 846.92 293.19 L 866.35 298.10 L 885.77 302.52 L 905.19 307.10 L 924.62 310.83 L 944.04 314.90 L 963.46 318.29 L 982.88 318.27 L 1002.31 317.88 L 1021.73 318.79 L 1041.15 318.68 L 1060.58 318.51 L 1080.00 318.01" fill="none" stroke="#13b8c8" stroke-width="2"/>
<path d="M 70.00 170.92 L 89.42 170.60 L 108.85 170.71 L 128.27 170.56 L 147.69 170.99 L 167.12 171.30 L 186.54 171.71 L 205.96 172.31 L 225.38 172.83 L 244.81 173.69 L 264.23 174.34 L 283.65 175.39 L 303.08 175.84 L 322.50 176.16 L 341.92 176.11 L 361.35 176.12 L 380.77 176.21 L 400.19 176.62 L 419.62 177.07 L 439.04 177.34 L 458.46 177.71 L 477.88 178.17 L 497.31 178.85 L 516.73 179.60 L 536.15 181.11 L 555.58 182.39 L 575.00 183.96 L 594.42 186.39 L 613.85 188.69 L 633.27 190.14 L 652.69 191.70 L 672.12 193.53 L 691.54 195.61 L 710.96 197.54 L 730.38 200.04 L 749.81 202.62 L 769.23 205.56 L 788.65 208.80 L 808.08 211.57 L 827.50 214.07 L 846.92 217.18 L 866.35 220.20 L 885.77 223.75 L 905.19 227.16 L 924.62 230.86 L 944.04 234.60 L 963.46 238.68 L 982.88 242.60 L 1002.31 246.32 L 1021.73 250.13 L 1041.15 253.88 L 1060.58 257.18 L 1080.00 260.21" fill="none" stroke="#3156d9" stroke-width="2"/>
<path d="M 70.00 223.66 L 89.42 223.47 L 108.85 223.18 L 128.27 222.94 L 147.69 222.60 L 167.12 222.23 L 186.54 221.71 L 205.96 221.37 L 225.38 220.90 L 244.81 220.43 L 264.23 219.92 L 283.65 219.53 L 303.08 218.94 L 322.50 218.38 L 341.92 217.93 L 361.35 217.38 L 380.77 217.07 L 400.19 216.59 L 419.62 216.24 L 439.04 215.78 L 458.46 215.49 L 477.88 215.14 L 497.31 214.68 L 516.73 214.13 L 536.15 213.81 L 555.58 213.37 L 575.00 212.82 L 594.42 212.64 L 613.85 212.52 L 633.27 212.26 L 652.69 211.98 L 672.12 211.75 L 691.54 211.60 L 710.96 211.47 L 730.38 211.47 L 749.81 211.38 L 769.23 211.15 L 788.65 211.00 L 808.08 210.98 L 827.50 210.88 L 846.92 211.04 L 866.35 211.20 L 885.77 211.27 L 905.19 211.36 L 924.62 211.65 L 944.04 212.01 L 963.46 212.44 L 982.88 212.75 L 1002.31 212.96 L 1021.73 213.29 L 1041.15 213.48 L 1060.58 213.63 L 1080.00 213.63" fill="none" stroke="#8b3f2b" stroke-width="3"/>
<path d="M 70.00 210.09 L 89.42 209.90 L 108.85 209.73 L 128.27 209.84 L 147.69 209.89 L 167.12 209.78 L 186.54 209.55 L 205.96 209.52 L 225.38 209.63 L 244.81 209.78 L 264.23 209.85 L 283.65 210.13 L 303.08 210.24 L 322.50 210.09 L 341.92 209.87 L 361.35 209.63 L 380.77 209.49 L 400.19 209.43 L 419.62 209.58 L 439.04 209.87 L 458.46 210.27 L 477.88 210.53 L 497.31 210.89 L 516.73 211.21 L 536.15 211.46 L 555.58 211.81 L 575.00 212.24 L 594.42 213.01 L 613.85 213.77 L 633.27 214.26 L 652.69 214.85 L 672.12 215.47 L 691.54 216.00 L 710.96 216.58 L 730.38 217.30 L 749.81 218.16 L 769.23 218.95 L 788.65 219.82 L 808.08 220.71 L 827.50 221.65 L 846.92 222.64 L 866.35 223.63 L 885.77 224.44 L 905.19 225.24 L 924.62 226.08 L 944.04 227.00 L 963.46 227.97 L 982.88 228.84 L 1002.31 229.63 L 1021.73 230.45 L 1041.15 231.22 L 1060.58 231.90 L 1080.00 232.44" fill="none" stroke="#e05252" stroke-width="3"/>
<line x1="470.0" y1="95.0" x2="489.0" y2="95.0" stroke="#168b4b" stroke-width="3"/>
<text x="494.0" y="99.0" class="legend">5</text>
<line x1="552.0" y1="95.0" x2="571.0" y2="95.0" stroke="#13b8c8" stroke-width="3"/>
<text x="576.0" y="99.0" class="legend">20</text>
<line x1="634.0" y1="95.0" x2="653.0" y2="95.0" stroke="#3156d9" stroke-width="3"/>
<text x="658.0" y="99.0" class="legend">50</text>
<line x1="716.0" y1="95.0" x2="735.0" y2="95.0" stroke="#8b3f2b" stroke-width="3"/>
<text x="740.0" y="99.0" class="legend">150</text>
<line x1="798.0" y1="95.0" x2="817.0" y2="95.0" stroke="#e05252" stroke-width="3"/>
<text x="822.0" y="99.0" class="legend">200</text>
<text x="77.0" y="418.0" class="label">거래량 · 50주 평균</text>
<text x="1088.0" y="412.0" class="axis">87,094,770.00</text>
<text x="1088.0" y="506.0" class="axis">0.00</text>
<rect x="64.09" y="458.91" width="11.82" height="42.29" fill="#ef9a9a" opacity="0.78"/>
<rect x="83.52" y="473.10" width="11.82" height="28.10" fill="#94a3e8" opacity="0.78"/>
<rect x="102.94" y="471.34" width="11.82" height="29.86" fill="#94a3e8" opacity="0.78"/>
<rect x="122.36" y="460.65" width="11.82" height="40.55" fill="#94a3e8" opacity="0.78"/>
<rect x="141.78" y="473.66" width="11.82" height="27.54" fill="#94a3e8" opacity="0.78"/>
<rect x="161.21" y="473.01" width="11.82" height="28.19" fill="#ef9a9a" opacity="0.78"/>
<rect x="180.63" y="476.80" width="11.82" height="24.40" fill="#94a3e8" opacity="0.78"/>
<rect x="200.05" y="463.69" width="11.82" height="37.51" fill="#94a3e8" opacity="0.78"/>
<rect x="219.48" y="459.52" width="11.82" height="41.68" fill="#ef9a9a" opacity="0.78"/>
<rect x="238.90" y="476.05" width="11.82" height="25.15" fill="#94a3e8" opacity="0.78"/>
<rect x="258.32" y="484.82" width="11.82" height="16.38" fill="#ef9a9a" opacity="0.78"/>
<rect x="277.75" y="460.97" width="11.82" height="40.23" fill="#94a3e8" opacity="0.78"/>
<rect x="297.17" y="447.51" width="11.82" height="53.69" fill="#ef9a9a" opacity="0.78"/>
<rect x="316.59" y="458.16" width="11.82" height="43.04" fill="#ef9a9a" opacity="0.78"/>
<rect x="336.02" y="458.47" width="11.82" height="42.73" fill="#ef9a9a" opacity="0.78"/>
<rect x="355.44" y="461.16" width="11.82" height="40.04" fill="#ef9a9a" opacity="0.78"/>
<rect x="374.86" y="468.50" width="11.82" height="32.70" fill="#94a3e8" opacity="0.78"/>
<rect x="394.28" y="475.25" width="11.82" height="25.95" fill="#94a3e8" opacity="0.78"/>
<rect x="413.71" y="471.05" width="11.82" height="30.15" fill="#94a3e8" opacity="0.78"/>
<rect x="433.13" y="455.87" width="11.82" height="45.33" fill="#ef9a9a" opacity="0.78"/>
<rect x="452.55" y="474.46" width="11.82" height="26.74" fill="#94a3e8" opacity="0.78"/>
<rect x="471.98" y="480.94" width="11.82" height="20.26" fill="#ef9a9a" opacity="0.78"/>
<rect x="491.40" y="455.90" width="11.82" height="45.30" fill="#ef9a9a" opacity="0.78"/>
<rect x="510.82" y="476.49" width="11.82" height="24.71" fill="#94a3e8" opacity="0.78"/>
<rect x="530.25" y="468.01" width="11.82" height="33.19" fill="#94a3e8" opacity="0.78"/>
<rect x="549.67" y="457.39" width="11.82" height="43.81" fill="#ef9a9a" opacity="0.78"/>
<rect x="569.09" y="481.94" width="11.82" height="19.26" fill="#94a3e8" opacity="0.78"/>
<rect x="588.52" y="441.51" width="11.82" height="59.69" fill="#94a3e8" opacity="0.78"/>
<rect x="607.94" y="450.29" width="11.82" height="50.91" fill="#ef9a9a" opacity="0.78"/>
<rect x="627.36" y="428.06" width="11.82" height="73.14" fill="#ef9a9a" opacity="0.78"/>
<rect x="646.78" y="441.52" width="11.82" height="59.68" fill="#94a3e8" opacity="0.78"/>
<rect x="666.21" y="463.79" width="11.82" height="37.41" fill="#ef9a9a" opacity="0.78"/>
<rect x="685.63" y="466.07" width="11.82" height="35.13" fill="#ef9a9a" opacity="0.78"/>
<rect x="705.05" y="455.97" width="11.82" height="45.23" fill="#ef9a9a" opacity="0.78"/>
<rect x="724.48" y="413.20" width="11.82" height="88.00" fill="#94a3e8" opacity="0.78"/>
<rect x="743.90" y="471.24" width="11.82" height="29.96" fill="#ef9a9a" opacity="0.78"/>
<rect x="763.32" y="478.91" width="11.82" height="22.29" fill="#94a3e8" opacity="0.78"/>
<rect x="782.75" y="476.31" width="11.82" height="24.89" fill="#ef9a9a" opacity="0.78"/>
<rect x="802.17" y="486.65" width="11.82" height="14.55" fill="#ef9a9a" opacity="0.78"/>
<rect x="821.59" y="472.29" width="11.82" height="28.91" fill="#ef9a9a" opacity="0.78"/>
<rect x="841.02" y="473.01" width="11.82" height="28.19" fill="#94a3e8" opacity="0.78"/>
<rect x="860.44" y="471.97" width="11.82" height="29.23" fill="#ef9a9a" opacity="0.78"/>
<rect x="879.86" y="490.17" width="11.82" height="11.03" fill="#ef9a9a" opacity="0.78"/>
<rect x="899.28" y="491.35" width="11.82" height="9.85" fill="#94a3e8" opacity="0.78"/>
<rect x="918.71" y="467.90" width="11.82" height="33.30" fill="#94a3e8" opacity="0.78"/>
<rect x="938.13" y="471.54" width="11.82" height="29.66" fill="#94a3e8" opacity="0.78"/>
<rect x="957.55" y="475.62" width="11.82" height="25.58" fill="#94a3e8" opacity="0.78"/>
<rect x="976.98" y="474.74" width="11.82" height="26.46" fill="#ef9a9a" opacity="0.78"/>
<rect x="996.40" y="456.39" width="11.82" height="44.81" fill="#ef9a9a" opacity="0.78"/>
<rect x="1015.82" y="477.72" width="11.82" height="23.48" fill="#94a3e8" opacity="0.78"/>
<rect x="1035.25" y="482.86" width="11.82" height="18.34" fill="#ef9a9a" opacity="0.78"/>
<rect x="1054.67" y="476.89" width="11.82" height="24.31" fill="#ef9a9a" opacity="0.78"/>
<rect x="1074.09" y="472.21" width="11.82" height="28.99" fill="#ef9a9a" opacity="0.78"/>
<path d="M 70.00 470.52 L 89.42 470.35 L 108.85 470.51 L 128.27 470.17 L 147.69 469.92 L 167.12 469.72 L 186.54 469.77 L 205.96 469.32 L 225.38 468.91 L 244.81 468.90 L 264.23 468.86 L 283.65 468.80 L 303.08 468.55 L 322.50 468.60 L 341.92 468.45 L 361.35 468.06 L 380.77 468.06 L 400.19 468.21 L 419.62 468.11 L 439.04 468.03 L 458.46 468.03 L 477.88 468.07 L 497.31 467.85 L 516.73 467.97 L 536.15 467.74 L 555.58 467.22 L 575.00 467.43 L 594.42 467.07 L 613.85 466.53 L 633.27 465.92 L 652.69 465.59 L 672.12 465.26 L 691.54 464.95 L 710.96 464.36 L 730.38 463.05 L 749.81 463.15 L 769.23 463.12 L 788.65 463.45 L 808.08 464.14 L 827.50 464.07 L 846.92 463.66 L 866.35 463.33 L 885.77 464.51 L 905.19 465.56 L 924.62 465.32 L 944.04 465.41 L 963.46 465.75 L 982.88 465.93 L 1002.31 466.01 L 1021.73 466.40 L 1041.15 466.88 L 1060.58 466.95 L 1080.00 466.97" fill="none" stroke="#173ee6" stroke-width="2"/>
<text x="77.0" y="538.0" class="label">Momentum 14</text>
<text x="1088.0" y="532.0" class="axis">2.63</text>
<text x="1088.0" y="606.0" class="axis">-6.03</text>
<line x1="70.0" y1="550.17" x2="1080.0" y2="550.17" stroke="#8a94a5" stroke-dasharray="5 5"/>
<rect x="65.05" y="530.64" width="9.91" height="19.54" fill="#ef4444"/>
<rect x="84.47" y="541.80" width="9.91" height="8.37" fill="#ef4444"/>
<rect x="103.89" y="536.83" width="9.91" height="13.34" fill="#ef4444"/>
<rect x="123.31" y="540.93" width="9.91" height="9.25" fill="#ef4444"/>
<rect x="142.74" y="546.68" width="9.91" height="3.49" fill="#ef4444"/>
<rect x="162.16" y="543.63" width="9.91" height="6.54" fill="#ef4444"/>
<rect x="181.58" y="550.17" width="9.91" height="8.90" fill="#8b929d"/>
<rect x="201.01" y="550.17" width="9.91" height="10.73" fill="#8b929d"/>
<rect x="220.43" y="550.17" width="9.91" height="10.64" fill="#8b929d"/>
<rect x="239.85" y="550.17" width="9.91" height="11.34" fill="#8b929d"/>
<rect x="259.28" y="550.17" width="9.91" height="16.92" fill="#8b929d"/>
<rect x="278.70" y="550.17" width="9.91" height="30.09" fill="#8b929d"/>
<rect x="298.12" y="550.17" width="9.91" height="20.06" fill="#8b929d"/>
<rect x="317.55" y="550.17" width="9.91" height="16.75" fill="#8b929d"/>
<rect x="336.97" y="550.17" width="9.91" height="19.80" fill="#8b929d"/>
<rect x="356.39" y="550.17" width="9.91" height="12.73" fill="#8b929d"/>
<rect x="375.81" y="550.17" width="9.91" height="15.61" fill="#8b929d"/>
<rect x="395.24" y="550.17" width="9.91" height="15.87" fill="#8b929d"/>
<rect x="414.66" y="550.17" width="9.91" height="19.71" fill="#8b929d"/>
<rect x="434.08" y="550.17" width="9.91" height="21.11" fill="#8b929d"/>
<rect x="453.51" y="550.17" width="9.91" height="24.60" fill="#8b929d"/>
<rect x="472.93" y="550.17" width="9.91" height="16.31" fill="#8b929d"/>
<rect x="492.35" y="550.17" width="9.91" height="15.61" fill="#8b929d"/>
<rect x="511.78" y="550.17" width="9.91" height="15.35" fill="#8b929d"/>
<rect x="531.20" y="550.17" width="9.91" height="27.21" fill="#8b929d"/>
<rect x="550.62" y="550.17" width="9.91" height="15.87" fill="#8b929d"/>
<rect x="570.05" y="550.17" width="9.91" height="27.39" fill="#8b929d"/>
<rect x="589.47" y="550.17" width="9.91" height="46.75" fill="#8b929d"/>
<rect x="608.89" y="550.17" width="9.91" height="49.19" fill="#8b929d"/>
<rect x="628.31" y="550.17" width="9.91" height="45.96" fill="#8b929d"/>
<rect x="647.74" y="550.17" width="9.91" height="42.39" fill="#8b929d"/>
<rect x="667.16" y="550.17" width="9.91" height="34.97" fill="#8b929d"/>
<rect x="686.58" y="550.17" width="9.91" height="27.56" fill="#8b929d"/>
<rect x="706.01" y="550.17" width="9.91" height="28.69" fill="#8b929d"/>
<rect x="725.43" y="550.17" width="9.91" height="34.71" fill="#8b929d"/>
<rect x="744.85" y="550.17" width="9.91" height="30.87" fill="#8b929d"/>
<rect x="764.28" y="550.17" width="9.91" height="34.80" fill="#8b929d"/>
<rect x="783.70" y="550.17" width="9.91" height="32.44" fill="#8b929d"/>
<rect x="803.12" y="550.17" width="9.91" height="21.19" fill="#8b929d"/>
<rect x="822.55" y="550.17" width="9.91" height="18.14" fill="#8b929d"/>
<rect x="841.97" y="550.17" width="9.91" height="22.85" fill="#8b929d"/>
<rect x="861.39" y="550.17" width="9.91" height="2.35" fill="#8b929d"/>
<rect x="880.81" y="546.95" width="9.91" height="3.23" fill="#ef4444"/>
<rect x="900.24" y="550.17" width="9.91" height="4.45" fill="#8b929d"/>
<rect x="919.66" y="550.17" width="9.91" height="7.41" fill="#8b929d"/>
<rect x="939.08" y="550.17" width="9.91" height="11.34" fill="#8b929d"/>
<rect x="958.51" y="550.17" width="9.91" height="10.20" fill="#8b929d"/>
<rect x="977.93" y="550.17" width="9.91" height="6.19" fill="#8b929d"/>
<rect x="997.35" y="543.63" width="9.91" height="6.54" fill="#ef4444"/>
<rect x="1016.78" y="550.17" width="9.91" height="2.53" fill="#8b929d"/>
<rect x="1036.20" y="544.59" width="9.91" height="5.58" fill="#ef4444"/>
<rect x="1055.62" y="542.93" width="9.91" height="7.24" fill="#ef4444"/>
<rect x="1075.05" y="541.36" width="9.91" height="8.81" fill="#ef4444"/>
<text x="77.0" y="638.0" class="label">MACD 12·26 · Signal 9</text>
<text x="1088.0" y="632.0" class="axis">0.76</text>
<text x="1088.0" y="736.0" class="axis">-1.50</text>
<line x1="70.0" y1="663.43" x2="1080.0" y2="663.43" stroke="#8a94a5" stroke-dasharray="5 5"/>
<rect x="65.05" y="654.66" width="9.91" height="8.77" fill="#f2a0a0" opacity="0.7"/>
<rect x="84.47" y="657.10" width="9.91" height="6.33" fill="#f2a0a0" opacity="0.7"/>
<rect x="103.89" y="660.13" width="9.91" height="3.30" fill="#f2a0a0" opacity="0.7"/>
<rect x="123.31" y="663.43" width="9.91" height="0.70" fill="#c8ccd3" opacity="0.7"/>
<rect x="142.74" y="663.43" width="9.91" height="4.17" fill="#c8ccd3" opacity="0.7"/>
<rect x="162.16" y="663.43" width="9.91" height="5.11" fill="#c8ccd3" opacity="0.7"/>
<rect x="181.58" y="663.43" width="9.91" height="6.37" fill="#c8ccd3" opacity="0.7"/>
<rect x="201.01" y="663.43" width="9.91" height="8.98" fill="#c8ccd3" opacity="0.7"/>
<rect x="220.43" y="663.43" width="9.91" height="10.33" fill="#c8ccd3" opacity="0.7"/>
<rect x="239.85" y="663.43" width="9.91" height="11.08" fill="#c8ccd3" opacity="0.7"/>
<rect x="259.28" y="663.43" width="9.91" height="10.79" fill="#c8ccd3" opacity="0.7"/>
<rect x="278.70" y="663.43" width="9.91" height="13.39" fill="#c8ccd3" opacity="0.7"/>
<rect x="298.12" y="663.43" width="9.91" height="11.95" fill="#c8ccd3" opacity="0.7"/>
<rect x="317.55" y="663.43" width="9.91" height="9.84" fill="#c8ccd3" opacity="0.7"/>
<rect x="336.97" y="663.43" width="9.91" height="7.74" fill="#c8ccd3" opacity="0.7"/>
<rect x="356.39" y="663.43" width="9.91" height="5.12" fill="#c8ccd3" opacity="0.7"/>
<rect x="375.81" y="663.43" width="9.91" height="5.09" fill="#c8ccd3" opacity="0.7"/>
<rect x="395.24" y="663.43" width="9.91" height="6.21" fill="#c8ccd3" opacity="0.7"/>
<rect x="414.66" y="663.43" width="9.91" height="9.12" fill="#c8ccd3" opacity="0.7"/>
<rect x="434.08" y="663.43" width="9.91" height="9.42" fill="#c8ccd3" opacity="0.7"/>
<rect x="453.51" y="663.43" width="9.91" height="10.90" fill="#c8ccd3" opacity="0.7"/>
<rect x="472.93" y="663.43" width="9.91" height="10.42" fill="#c8ccd3" opacity="0.7"/>
<rect x="492.35" y="663.43" width="9.91" height="9.22" fill="#c8ccd3" opacity="0.7"/>
<rect x="511.78" y="663.43" width="9.91" height="8.05" fill="#c8ccd3" opacity="0.7"/>
<rect x="531.20" y="663.43" width="9.91" height="10.29" fill="#c8ccd3" opacity="0.7"/>
<rect x="550.62" y="663.43" width="9.91" height="10.52" fill="#c8ccd3" opacity="0.7"/>
<rect x="570.05" y="663.43" width="9.91" height="11.22" fill="#c8ccd3" opacity="0.7"/>
<rect x="589.47" y="663.43" width="9.91" height="16.53" fill="#c8ccd3" opacity="0.7"/>
<rect x="608.89" y="663.43" width="9.91" height="19.24" fill="#c8ccd3" opacity="0.7"/>
<rect x="628.31" y="663.43" width="9.91" height="17.65" fill="#c8ccd3" opacity="0.7"/>
<rect x="647.74" y="663.43" width="9.91" height="16.09" fill="#c8ccd3" opacity="0.7"/>
<rect x="667.16" y="663.43" width="9.91" height="12.88" fill="#c8ccd3" opacity="0.7"/>
<rect x="686.58" y="663.43" width="9.91" height="9.91" fill="#c8ccd3" opacity="0.7"/>
<rect x="706.01" y="663.43" width="9.91" height="6.47" fill="#c8ccd3" opacity="0.7"/>
<rect x="725.43" y="663.43" width="9.91" height="7.33" fill="#c8ccd3" opacity="0.7"/>
<rect x="744.85" y="663.43" width="9.91" height="5.02" fill="#c8ccd3" opacity="0.7"/>
<rect x="764.28" y="663.43" width="9.91" height="3.87" fill="#c8ccd3" opacity="0.7"/>
<rect x="783.70" y="663.43" width="9.91" height="1.89" fill="#c8ccd3" opacity="0.7"/>
<rect x="803.12" y="663.36" width="9.91" height="0.70" fill="#f2a0a0" opacity="0.7"/>
<rect x="822.55" y="660.19" width="9.91" height="3.24" fill="#f2a0a0" opacity="0.7"/>
<rect x="841.97" y="660.73" width="9.91" height="2.70" fill="#f2a0a0" opacity="0.7"/>
<rect x="861.39" y="659.73" width="9.91" height="3.70" fill="#f2a0a0" opacity="0.7"/>
<rect x="880.81" y="657.51" width="9.91" height="5.92" fill="#f2a0a0" opacity="0.7"/>
<rect x="900.24" y="656.51" width="9.91" height="6.92" fill="#f2a0a0" opacity="0.7"/>
<rect x="919.66" y="657.47" width="9.91" height="5.95" fill="#f2a0a0" opacity="0.7"/>
<rect x="939.08" y="658.25" width="9.91" height="5.18" fill="#f2a0a0" opacity="0.7"/>
<rect x="958.51" y="658.35" width="9.91" height="5.08" fill="#f2a0a0" opacity="0.7"/>
<rect x="977.93" y="656.34" width="9.91" height="7.09" fill="#f2a0a0" opacity="0.7"/>
<rect x="997.35" y="654.71" width="9.91" height="8.72" fill="#f2a0a0" opacity="0.7"/>
<rect x="1016.78" y="654.74" width="9.91" height="8.69" fill="#f2a0a0" opacity="0.7"/>
<rect x="1036.20" y="653.27" width="9.91" height="10.16" fill="#f2a0a0" opacity="0.7"/>
<rect x="1055.62" y="651.43" width="9.91" height="11.99" fill="#f2a0a0" opacity="0.7"/>
<rect x="1075.05" y="649.98" width="9.91" height="13.44" fill="#f2a0a0" opacity="0.7"/>
<path d="M 70.00 634.18 L 89.42 635.04 L 108.85 637.25 L 128.27 640.98 L 147.69 645.84 L 167.12 648.07 L 186.54 650.91 L 205.96 655.78 L 225.38 659.71 L 244.81 663.23 L 264.23 665.63 L 283.65 671.58 L 303.08 673.12 L 322.50 673.47 L 341.92 673.31 L 361.35 671.97 L 380.77 673.21 L 400.19 675.88 L 419.62 681.07 L 439.04 683.73 L 458.46 687.93 L 477.88 690.05 L 497.31 691.16 L 516.73 692.00 L 536.15 696.82 L 555.58 699.68 L 575.00 703.18 L 594.42 712.63 L 613.85 720.15 L 633.27 722.97 L 652.69 725.43 L 672.12 725.44 L 691.54 724.95 L 710.96 723.12 L 730.38 725.82 L 749.81 724.76 L 769.23 724.59 L 788.65 723.08 L 808.08 721.11 L 827.50 717.12 L 846.92 716.99 L 866.35 715.06 L 885.77 711.36 L 905.19 708.63 L 924.62 708.11 L 944.04 707.59 L 963.46 706.42 L 982.88 702.63 L 1002.31 698.83 L 1021.73 696.69 L 1041.15 692.68 L 1060.58 687.84 L 1080.00 683.03" fill="none" stroke="#ef4444" stroke-width="2.2"/>
<path d="M 70.00 642.95 L 89.42 641.37 L 108.85 640.55 L 128.27 640.63 L 147.69 641.67 L 167.12 642.95 L 186.54 644.54 L 205.96 646.79 L 225.38 649.37 L 244.81 652.14 L 264.23 654.84 L 283.65 658.19 L 303.08 661.17 L 322.50 663.63 L 341.92 665.57 L 361.35 666.85 L 380.77 668.12 L 400.19 669.67 L 419.62 671.95 L 439.04 674.31 L 458.46 677.03 L 477.88 679.64 L 497.31 681.94 L 516.73 683.95 L 536.15 686.53 L 555.58 689.16 L 575.00 691.96 L 594.42 696.10 L 613.85 700.91 L 633.27 705.32 L 652.69 709.34 L 672.12 712.56 L 691.54 715.04 L 710.96 716.66 L 730.38 718.49 L 749.81 719.74 L 769.23 720.71 L 788.65 721.18 L 808.08 721.17 L 827.50 720.36 L 846.92 719.69 L 866.35 718.76 L 885.77 717.28 L 905.19 715.55 L 924.62 714.06 L 944.04 712.77 L 963.46 711.50 L 982.88 709.73 L 1002.31 707.55 L 1021.73 705.38 L 1041.15 702.84 L 1060.58 699.84 L 1080.00 696.48" fill="none" stroke="#3156d9" stroke-width="2.2"/>
<text x="77.0" y="768.0" class="label">RSI 14</text>
<text x="1088.0" y="762.0" class="axis">100.00</text>
<text x="1088.0" y="836.0" class="axis">0.00</text>
<line x1="70.0" y1="810.12" x2="1080.0" y2="810.12" stroke="#3156d9" stroke-dasharray="5 5"/>
<line x1="70.0" y1="795.00" x2="1080.0" y2="795.00" stroke="#aab1bd" stroke-dasharray="5 5"/>
<line x1="70.0" y1="779.88" x2="1080.0" y2="779.88" stroke="#ef4444" stroke-dasharray="5 5"/>
<path d="M 70.00 783.89 L 89.42 788.13 L 108.85 790.79 L 128.27 794.28 L 147.69 797.39 L 167.12 793.99 L 186.54 795.74 L 205.96 800.04 L 225.38 800.09 L 244.81 800.77 L 264.23 799.91 L 283.65 806.39 L 303.08 799.72 L 322.50 798.24 L 341.92 797.59 L 361.35 795.35 L 380.77 799.63 L 400.19 802.47 L 419.62 806.75 L 439.04 804.09 L 458.46 806.99 L 477.88 805.02 L 497.31 804.46 L 516.73 804.86 L 536.15 810.32 L 555.58 809.02 L 575.00 810.83 L 594.42 816.54 L 613.85 816.96 L 633.27 811.56 L 652.69 812.32 L 672.12 809.67 L 691.54 809.88 L 710.96 808.14 L 730.38 812.73 L 749.81 807.57 L 769.23 808.89 L 788.65 807.48 L 808.08 807.24 L 827.50 803.41 L 846.92 807.61 L 866.35 805.12 L 885.77 801.98 L 905.19 802.92 L 924.62 805.60 L 944.04 806.07 L 963.46 805.49 L 982.88 800.27 L 1002.31 799.46 L 1021.73 801.47 L 1041.15 797.37 L 1060.58 794.77 L 1080.00 793.38" fill="none" stroke="#e83e8c" stroke-width="2.2"/>
<text x="77.0" y="868.0" class="label">MFI 14</text>
<text x="1088.0" y="862.0" class="axis">100.00</text>
<text x="1088.0" y="936.0" class="axis">0.00</text>
<line x1="70.0" y1="910.12" x2="1080.0" y2="910.12" stroke="#3156d9" stroke-dasharray="5 5"/>
<line x1="70.0" y1="895.00" x2="1080.0" y2="895.00" stroke="#aab1bd" stroke-dasharray="5 5"/>
<line x1="70.0" y1="879.88" x2="1080.0" y2="879.88" stroke="#ef4444" stroke-dasharray="5 5"/>
<path d="M 70.00 888.21 L 89.42 893.01 L 108.85 891.79 L 128.27 893.10 L 147.69 895.47 L 167.12 894.42 L 186.54 897.70 L 205.96 905.41 L 225.38 906.30 L 244.81 902.22 L 264.23 904.98 L 283.65 911.00 L 303.08 902.98 L 322.50 896.10 L 341.92 896.57 L 361.35 891.05 L 380.77 891.00 L 400.19 889.36 L 419.62 889.20 L 439.04 888.45 L 458.46 892.25 L 477.88 890.45 L 497.31 883.80 L 516.73 887.54 L 536.15 891.19 L 555.58 890.77 L 575.00 893.68 L 594.42 900.96 L 613.85 907.85 L 633.27 907.06 L 652.69 907.37 L 672.12 903.00 L 691.54 902.73 L 710.96 903.97 L 730.38 905.86 L 749.81 902.76 L 769.23 908.17 L 788.65 904.97 L 808.08 903.67 L 827.50 898.75 L 846.92 901.94 L 866.35 900.02 L 885.77 896.05 L 905.19 901.55 L 924.62 899.44 L 944.04 905.58 L 963.46 904.64 L 982.88 907.39 L 1002.31 894.73 L 1021.73 900.50 L 1041.15 896.00 L 1060.58 895.82 L 1080.00 890.92" fill="none" stroke="#e83e8c" stroke-width="2.2"/>
<rect x="978.00" y="85.0" width="98" height="23" rx="5" fill="#1d5fd1"/>
<text x="1027.00" y="101.0" text-anchor="middle" style="font-size:11px;fill:#fff;font-weight:800">MMRM 기준봉</text>
<text x="70.00" y="962.0" text-anchor="middle" class="axis">2015-03</text>
<text x="322.50" y="962.0" text-anchor="middle" class="axis">2015-06</text>
<text x="575.00" y="962.0" text-anchor="middle" class="axis">2015-08</text>
<text x="827.50" y="962.0" text-anchor="middle" class="axis">2015-11</text>
<text x="1080.00" y="962.0" text-anchor="middle" class="axis">T0 2016-02-29</text>
<text x="1080.0" y="988" text-anchor="end" class="sub">이 그림은 패턴을 익히기 위한 실제 대표사례이며, 해당 사건의 기준봉 이후 결과를 포함하지 않는다.</text>
</svg>