<svg xmlns="http://www.w3.org/2000/svg" width="1400" height="1120" viewBox="0 0 1400 1120">
<rect width="100%" height="100%" fill="#ffffff"/>
<style>text{font-family:Segoe UI,Arial,sans-serif;fill:#30343b}.small{font-size:12px}.label{font-size:14px;font-weight:600}.title{font-size:18px;font-weight:700}</style>
<text x="72" y="25" class="title">MRVL · MMRM 2016-02-29 · 시가총액 89위 · T-52 ~ T+52</text>
<rect x="72" y="42" width="1242" height="390" fill="#fcfcfc" stroke="#d7dce2"/>
<line x1="72.00" y1="42" x2="72.00" y2="432" stroke="#e2e5e9" stroke-width="1"/>
<line x1="382.50" y1="42" x2="382.50" y2="432" stroke="#e2e5e9" stroke-width="1"/>
<line x1="693.00" y1="42" x2="693.00" y2="432" stroke="#656d78" stroke-width="2.2"/>
<line x1="1003.50" y1="42" x2="1003.50" y2="432" stroke="#e2e5e9" stroke-width="1"/>
<line x1="1314.00" y1="42" x2="1314.00" y2="432" stroke="#e2e5e9" stroke-width="1"/>
<rect x="72" y="444" width="1242" height="150" fill="#fcfcfc" stroke="#d7dce2"/>
<line x1="72.00" y1="444" x2="72.00" y2="594" stroke="#e2e5e9" stroke-width="1"/>
<line x1="382.50" y1="444" x2="382.50" y2="594" stroke="#e2e5e9" stroke-width="1"/>
<line x1="693.00" y1="444" x2="693.00" y2="594" stroke="#656d78" stroke-width="2.2"/>
<line x1="1003.50" y1="444" x2="1003.50" y2="594" stroke="#e2e5e9" stroke-width="1"/>
<line x1="1314.00" y1="444" x2="1314.00" y2="594" stroke="#e2e5e9" stroke-width="1"/>
<rect x="72" y="606" width="1242" height="120" fill="#fcfcfc" stroke="#d7dce2"/>
<line x1="72.00" y1="606" x2="72.00" y2="726" stroke="#e2e5e9" stroke-width="1"/>
<line x1="382.50" y1="606" x2="382.50" y2="726" stroke="#e2e5e9" stroke-width="1"/>
<line x1="693.00" y1="606" x2="693.00" y2="726" stroke="#656d78" stroke-width="2.2"/>
<line x1="1003.50" y1="606" x2="1003.50" y2="726" stroke="#e2e5e9" stroke-width="1"/>
<line x1="1314.00" y1="606" x2="1314.00" y2="726" stroke="#e2e5e9" stroke-width="1"/>
<rect x="72" y="738" width="1242" height="150" fill="#fcfcfc" stroke="#d7dce2"/>
<line x1="72.00" y1="738" x2="72.00" y2="888" stroke="#e2e5e9" stroke-width="1"/>
<line x1="382.50" y1="738" x2="382.50" y2="888" stroke="#e2e5e9" stroke-width="1"/>
<line x1="693.00" y1="738" x2="693.00" y2="888" stroke="#656d78" stroke-width="2.2"/>
<line x1="1003.50" y1="738" x2="1003.50" y2="888" stroke="#e2e5e9" stroke-width="1"/>
<line x1="1314.00" y1="738" x2="1314.00" y2="888" stroke="#e2e5e9" stroke-width="1"/>
<rect x="72" y="900" width="1242" height="110" fill="#fcfcfc" stroke="#d7dce2"/>
<line x1="72.00" y1="900" x2="72.00" y2="1010" stroke="#e2e5e9" stroke-width="1"/>
<line x1="382.50" y1="900" x2="382.50" y2="1010" stroke="#e2e5e9" stroke-width="1"/>
<line x1="693.00" y1="900" x2="693.00" y2="1010" stroke="#656d78" stroke-width="2.2"/>
<line x1="1003.50" y1="900" x2="1003.50" y2="1010" stroke="#e2e5e9" stroke-width="1"/>
<line x1="1314.00" y1="900" x2="1314.00" y2="1010" stroke="#e2e5e9" stroke-width="1"/>
<rect x="72" y="1022" width="1242" height="110" fill="#fcfcfc" stroke="#d7dce2"/>
<line x1="72.00" y1="1022" x2="72.00" y2="1132" stroke="#e2e5e9" stroke-width="1"/>
<line x1="382.50" y1="1022" x2="382.50" y2="1132" stroke="#e2e5e9" stroke-width="1"/>
<line x1="693.00" y1="1022" x2="693.00" y2="1132" stroke="#656d78" stroke-width="2.2"/>
<line x1="1003.50" y1="1022" x2="1003.50" y2="1132" stroke="#e2e5e9" stroke-width="1"/>
<line x1="1314.00" y1="1022" x2="1314.00" y2="1132" stroke="#e2e5e9" stroke-width="1"/>
<text x="78" y="60" class="label">주봉 가격 · MA 5/20/50/150/200</text>
<text x="1321" y="54" class="small">17.21</text>
<text x="1321" y="428" class="small">6.93</text>
<line x1="72.00" y1="84.55" x2="72.00" y2="114.91" stroke="#ef3b3b"/>
<rect x="68.75" y="90.42" width="6.51" height="8.49" fill="#ef3b3b" stroke="#ef3b3b"/>
<line x1="83.94" y1="87.16" x2="83.94" y2="115.23" stroke="#3156d9"/>
<rect x="80.69" y="92.38" width="6.51" height="14.36" fill="#ffffff" stroke="#3156d9"/>
<line x1="95.88" y1="101.52" x2="95.88" y2="124.05" stroke="#3156d9"/>
<rect x="92.63" y="106.74" width="6.51" height="11.10" fill="#ffffff" stroke="#3156d9"/>
<line x1="107.83" y1="115.56" x2="107.83" y2="156.69" stroke="#3156d9"/>
<rect x="104.57" y="118.50" width="6.51" height="15.02" fill="#ffffff" stroke="#3156d9"/>
<line x1="119.77" y1="132.86" x2="119.77" y2="152.77" stroke="#3156d9"/>
<rect x="116.52" y="133.19" width="6.51" height="15.67" fill="#ffffff" stroke="#3156d9"/>
<line x1="131.71" y1="128.29" x2="131.71" y2="161.92" stroke="#ef3b3b"/>
<rect x="128.46" y="132.53" width="6.51" height="29.38" fill="#ef3b3b" stroke="#ef3b3b"/>
<line x1="143.65" y1="126.01" x2="143.65" y2="144.94" stroke="#3156d9"/>
<rect x="140.40" y="133.51" width="6.51" height="7.51" fill="#ffffff" stroke="#3156d9"/>
<line x1="155.60" y1="136.13" x2="155.60" y2="172.36" stroke="#3156d9"/>
<rect x="152.34" y="141.35" width="6.51" height="22.53" fill="#ffffff" stroke="#3156d9"/>
<line x1="167.54" y1="161.92" x2="167.54" y2="183.46" stroke="#ef3b3b"/>
<rect x="164.29" y="164.20" width="6.51" height="15.67" fill="#ef3b3b" stroke="#ef3b3b"/>
<line x1="179.48" y1="156.37" x2="179.48" y2="179.87" stroke="#3156d9"/>
<rect x="176.23" y="161.59" width="6.51" height="6.20" fill="#ffffff" stroke="#3156d9"/>
<line x1="191.42" y1="162.24" x2="191.42" y2="175.30" stroke="#ef3b3b"/>
<rect x="188.17" y="164.53" width="6.51" height="3.92" fill="#ef3b3b" stroke="#ef3b3b"/>
<line x1="203.37" y1="157.34" x2="203.37" y2="205.01" stroke="#3156d9"/>
<rect x="200.11" y="162.57" width="6.51" height="39.50" fill="#ffffff" stroke="#3156d9"/>
<line x1="215.31" y1="162.89" x2="215.31" y2="200.44" stroke="#ef3b3b"/>
<rect x="212.05" y="174.32" width="6.51" height="18.93" fill="#ef3b3b" stroke="#ef3b3b"/>
<line x1="227.25" y1="161.59" x2="227.25" y2="176.28" stroke="#ef3b3b"/>
<rect x="224.00" y="167.47" width="6.51" height="1.20" fill="#ef3b3b" stroke="#ef3b3b"/>
<line x1="239.19" y1="158.65" x2="239.19" y2="178.89" stroke="#ef3b3b"/>
<rect x="235.94" y="164.53" width="6.51" height="5.88" fill="#ef3b3b" stroke="#ef3b3b"/>
<line x1="251.13" y1="150.82" x2="251.13" y2="177.26" stroke="#ef3b3b"/>
<rect x="247.88" y="154.41" width="6.51" height="14.36" fill="#ef3b3b" stroke="#ef3b3b"/>
<line x1="263.08" y1="150.16" x2="263.08" y2="177.59" stroke="#3156d9"/>
<rect x="259.82" y="153.10" width="6.51" height="23.18" fill="#ffffff" stroke="#3156d9"/>
<line x1="275.02" y1="182.16" x2="275.02" y2="204.03" stroke="#3156d9"/>
<rect x="271.77" y="182.48" width="6.51" height="10.45" fill="#ffffff" stroke="#3156d9"/>
<line x1="286.96" y1="193.58" x2="286.96" y2="227.21" stroke="#3156d9"/>
<rect x="283.71" y="197.17" width="6.51" height="25.46" fill="#ffffff" stroke="#3156d9"/>
<line x1="298.90" y1="194.23" x2="298.90" y2="221.98" stroke="#ef3b3b"/>
<rect x="295.65" y="211.54" width="6.51" height="2.94" fill="#ef3b3b" stroke="#ef3b3b"/>
<line x1="310.85" y1="208.60" x2="310.85" y2="233.74" stroke="#3156d9"/>
<rect x="307.59" y="211.21" width="6.51" height="21.87" fill="#ffffff" stroke="#3156d9"/>
<line x1="322.79" y1="214.47" x2="322.79" y2="240.92" stroke="#ef3b3b"/>
<rect x="319.54" y="224.92" width="6.51" height="11.43" fill="#ef3b3b" stroke="#ef3b3b"/>
<line x1="334.73" y1="195.21" x2="334.73" y2="237.33" stroke="#ef3b3b"/>
<rect x="331.48" y="222.64" width="6.51" height="3.26" fill="#ef3b3b" stroke="#ef3b3b"/>
<line x1="346.67" y1="214.15" x2="346.67" y2="234.39" stroke="#3156d9"/>
<rect x="343.42" y="221.66" width="6.51" height="3.59" fill="#ffffff" stroke="#3156d9"/>
<line x1="358.62" y1="220.35" x2="358.62" y2="268.34" stroke="#3156d9"/>
<rect x="355.36" y="234.71" width="6.51" height="31.67" fill="#ffffff" stroke="#3156d9"/>
<line x1="370.56" y1="259.85" x2="370.56" y2="304.58" stroke="#ef3b3b"/>
<rect x="367.30" y="261.48" width="6.51" height="39.83" fill="#ef3b3b" stroke="#ef3b3b"/>
<line x1="382.50" y1="258.22" x2="382.50" y2="277.81" stroke="#3156d9"/>
<rect x="379.25" y="263.12" width="6.51" height="13.71" fill="#ffffff" stroke="#3156d9"/>
<line x1="394.44" y1="269.97" x2="394.44" y2="363.01" stroke="#3156d9"/>
<rect x="391.19" y="275.85" width="6.51" height="66.60" fill="#ffffff" stroke="#3156d9"/>
<line x1="406.38" y1="333.96" x2="406.38" y2="355.50" stroke="#ef3b3b"/>
<rect x="403.13" y="348.65" width="6.51" height="1.20" fill="#ef3b3b" stroke="#ef3b3b"/>
<line x1="418.33" y1="314.37" x2="418.33" y2="353.54" stroke="#ef3b3b"/>
<rect x="415.07" y="326.45" width="6.51" height="20.24" fill="#ef3b3b" stroke="#ef3b3b"/>
<line x1="430.27" y1="327.43" x2="430.27" y2="348.65" stroke="#3156d9"/>
<rect x="427.02" y="332.00" width="6.51" height="2.94" fill="#ffffff" stroke="#3156d9"/>
<line x1="442.21" y1="313.39" x2="442.21" y2="333.63" stroke="#ef3b3b"/>
<rect x="438.96" y="323.84" width="6.51" height="4.57" fill="#ef3b3b" stroke="#ef3b3b"/>
<line x1="454.15" y1="313.06" x2="454.15" y2="335.59" stroke="#ef3b3b"/>
<rect x="450.90" y="325.80" width="6.51" height="6.20" fill="#ef3b3b" stroke="#ef3b3b"/>
<line x1="466.10" y1="316.98" x2="466.10" y2="336.24" stroke="#ef3b3b"/>
<rect x="462.84" y="318.94" width="6.51" height="5.22" fill="#ef3b3b" stroke="#ef3b3b"/>
<line x1="478.04" y1="319.59" x2="478.04" y2="384.56" stroke="#3156d9"/>
<rect x="474.79" y="321.23" width="6.51" height="41.79" fill="#ffffff" stroke="#3156d9"/>
<line x1="489.98" y1="337.87" x2="489.98" y2="363.66" stroke="#ef3b3b"/>
<rect x="486.73" y="340.49" width="6.51" height="22.53" fill="#ef3b3b" stroke="#ef3b3b"/>
<line x1="501.92" y1="336.57" x2="501.92" y2="356.81" stroke="#3156d9"/>
<rect x="498.67" y="341.14" width="6.51" height="11.75" fill="#ffffff" stroke="#3156d9"/>
<line x1="513.87" y1="341.79" x2="513.87" y2="356.48" stroke="#ef3b3b"/>
<rect x="510.61" y="346.69" width="6.51" height="5.55" fill="#ef3b3b" stroke="#ef3b3b"/>
<line x1="525.81" y1="344.40" x2="525.81" y2="355.18" stroke="#ef3b3b"/>
<rect x="522.55" y="345.71" width="6.51" height="1.20" fill="#ef3b3b" stroke="#ef3b3b"/>
<line x1="537.75" y1="316.98" x2="537.75" y2="347.34" stroke="#ef3b3b"/>
<rect x="534.50" y="329.39" width="6.51" height="15.02" fill="#ef3b3b" stroke="#ef3b3b"/>
<line x1="549.69" y1="319.27" x2="549.69" y2="364.64" stroke="#3156d9"/>
<rect x="546.44" y="345.38" width="6.51" height="16.98" fill="#ffffff" stroke="#3156d9"/>
<line x1="561.63" y1="348.32" x2="561.63" y2="370.52" stroke="#ef3b3b"/>
<rect x="558.38" y="351.26" width="6.51" height="13.38" fill="#ef3b3b" stroke="#ef3b3b"/>
<line x1="573.58" y1="335.59" x2="573.58" y2="359.75" stroke="#ef3b3b"/>
<rect x="570.32" y="336.57" width="6.51" height="14.36" fill="#ef3b3b" stroke="#ef3b3b"/>
<line x1="585.52" y1="336.57" x2="585.52" y2="347.02" stroke="#3156d9"/>
<rect x="582.27" y="339.18" width="6.51" height="3.92" fill="#ffffff" stroke="#3156d9"/>
<line x1="597.46" y1="342.12" x2="597.46" y2="374.76" stroke="#3156d9"/>
<rect x="594.21" y="347.99" width="6.51" height="14.69" fill="#ffffff" stroke="#3156d9"/>
<line x1="609.40" y1="348.65" x2="609.40" y2="371.17" stroke="#3156d9"/>
<rect x="606.15" y="362.03" width="6.51" height="4.24" fill="#ffffff" stroke="#3156d9"/>
<line x1="621.35" y1="355.83" x2="621.35" y2="389.45" stroke="#3156d9"/>
<rect x="618.09" y="355.83" width="6.51" height="8.16" fill="#ffffff" stroke="#3156d9"/>
<line x1="633.29" y1="341.79" x2="633.29" y2="368.89" stroke="#ef3b3b"/>
<rect x="630.04" y="342.12" width="6.51" height="23.50" fill="#ef3b3b" stroke="#ef3b3b"/>
<line x1="645.23" y1="320.90" x2="645.23" y2="351.91" stroke="#ef3b3b"/>
<rect x="641.98" y="338.53" width="6.51" height="8.16" fill="#ef3b3b" stroke="#ef3b3b"/>
<line x1="657.17" y1="338.53" x2="657.17" y2="359.42" stroke="#3156d9"/>
<rect x="653.92" y="339.83" width="6.51" height="10.12" fill="#ffffff" stroke="#3156d9"/>
<line x1="669.12" y1="312.08" x2="669.12" y2="348.32" stroke="#ef3b3b"/>
<rect x="665.86" y="332.00" width="6.51" height="16.32" fill="#ef3b3b" stroke="#ef3b3b"/>
<line x1="681.06" y1="316.33" x2="681.06" y2="334.28" stroke="#ef3b3b"/>
<rect x="677.80" y="319.59" width="6.51" height="13.06" fill="#ef3b3b" stroke="#ef3b3b"/>
<line x1="693.00" y1="303.92" x2="693.00" y2="320.57" stroke="#ef3b3b"/>
<rect x="689.75" y="312.74" width="6.51" height="5.55" fill="#ef3b3b" stroke="#ef3b3b"/>
<line x1="704.94" y1="294.78" x2="704.94" y2="314.37" stroke="#ef3b3b"/>
<rect x="701.69" y="295.44" width="6.51" height="8.81" fill="#ef3b3b" stroke="#ef3b3b"/>
<line x1="716.88" y1="291.84" x2="716.88" y2="301.96" stroke="#ef3b3b"/>
<rect x="713.63" y="292.50" width="6.51" height="7.18" fill="#ef3b3b" stroke="#ef3b3b"/>
<line x1="728.83" y1="287.60" x2="728.83" y2="302.94" stroke="#3156d9"/>
<rect x="725.57" y="292.50" width="6.51" height="4.24" fill="#ffffff" stroke="#3156d9"/>
<line x1="740.77" y1="288.58" x2="740.77" y2="313.06" stroke="#3156d9"/>
<rect x="737.52" y="296.74" width="6.51" height="9.79" fill="#ffffff" stroke="#3156d9"/>
<line x1="752.71" y1="271.93" x2="752.71" y2="318.61" stroke="#ef3b3b"/>
<rect x="749.46" y="287.60" width="6.51" height="18.61" fill="#ef3b3b" stroke="#ef3b3b"/>
<line x1="764.65" y1="275.85" x2="764.65" y2="300.01" stroke="#3156d9"/>
<rect x="761.40" y="284.66" width="6.51" height="14.04" fill="#ffffff" stroke="#3156d9"/>
<line x1="776.60" y1="290.21" x2="776.60" y2="313.72" stroke="#ef3b3b"/>
<rect x="773.34" y="298.70" width="6.51" height="2.94" fill="#ef3b3b" stroke="#ef3b3b"/>
<line x1="788.54" y1="275.85" x2="788.54" y2="307.51" stroke="#3156d9"/>
<rect x="785.29" y="298.70" width="6.51" height="6.53" fill="#ffffff" stroke="#3156d9"/>
<line x1="800.48" y1="304.25" x2="800.48" y2="326.12" stroke="#3156d9"/>
<rect x="797.23" y="307.19" width="6.51" height="11.43" fill="#ffffff" stroke="#3156d9"/>
<line x1="812.42" y1="304.58" x2="812.42" y2="324.49" stroke="#3156d9"/>
<rect x="809.17" y="309.15" width="6.51" height="11.10" fill="#ffffff" stroke="#3156d9"/>
<line x1="824.37" y1="302.94" x2="824.37" y2="319.92" stroke="#ef3b3b"/>
<rect x="821.11" y="306.53" width="6.51" height="12.73" fill="#ef3b3b" stroke="#ef3b3b"/>
<line x1="836.31" y1="296.09" x2="836.31" y2="307.84" stroke="#ef3b3b"/>
<rect x="833.05" y="302.29" width="6.51" height="4.24" fill="#ef3b3b" stroke="#ef3b3b"/>
<line x1="848.25" y1="294.46" x2="848.25" y2="320.25" stroke="#ef3b3b"/>
<rect x="845.00" y="299.03" width="6.51" height="20.24" fill="#ef3b3b" stroke="#ef3b3b"/>
<line x1="860.19" y1="294.78" x2="860.19" y2="319.59" stroke="#3156d9"/>
<rect x="856.94" y="298.70" width="6.51" height="11.75" fill="#ffffff" stroke="#3156d9"/>
<line x1="872.13" y1="293.15" x2="872.13" y2="317.96" stroke="#ef3b3b"/>
<rect x="868.88" y="303.92" width="6.51" height="10.45" fill="#ef3b3b" stroke="#ef3b3b"/>
<line x1="884.08" y1="290.87" x2="884.08" y2="312.08" stroke="#3156d9"/>
<rect x="880.82" y="299.35" width="6.51" height="12.41" fill="#ffffff" stroke="#3156d9"/>
<line x1="896.02" y1="314.04" x2="896.02" y2="335.59" stroke="#3156d9"/>
<rect x="892.77" y="315.68" width="6.51" height="4.24" fill="#ffffff" stroke="#3156d9"/>
<line x1="907.96" y1="304.58" x2="907.96" y2="332.98" stroke="#ef3b3b"/>
<rect x="904.71" y="304.58" width="6.51" height="15.02" fill="#ef3b3b" stroke="#ef3b3b"/>
<line x1="919.90" y1="294.13" x2="919.90" y2="304.90" stroke="#3156d9"/>
<rect x="916.65" y="301.96" width="6.51" height="2.61" fill="#ffffff" stroke="#3156d9"/>
<line x1="931.85" y1="248.75" x2="931.85" y2="315.02" stroke="#ef3b3b"/>
<rect x="928.59" y="248.75" width="6.51" height="52.56" fill="#ef3b3b" stroke="#ef3b3b"/>
<line x1="943.79" y1="237.65" x2="943.79" y2="256.59" stroke="#ef3b3b"/>
<rect x="940.54" y="247.45" width="6.51" height="2.61" fill="#ef3b3b" stroke="#ef3b3b"/>
<line x1="955.73" y1="240.92" x2="955.73" y2="263.12" stroke="#3156d9"/>
<rect x="952.48" y="245.81" width="6.51" height="12.73" fill="#ffffff" stroke="#3156d9"/>
<line x1="967.67" y1="251.69" x2="967.67" y2="260.83" stroke="#3156d9"/>
<rect x="964.42" y="256.91" width="6.51" height="1.96" fill="#ffffff" stroke="#3156d9"/>
<line x1="979.62" y1="231.78" x2="979.62" y2="262.14" stroke="#ef3b3b"/>
<rect x="976.36" y="234.39" width="6.51" height="24.81" fill="#ef3b3b" stroke="#ef3b3b"/>
<line x1="991.56" y1="220.35" x2="991.56" y2="237.98" stroke="#ef3b3b"/>
<rect x="988.30" y="230.47" width="6.51" height="2.94" fill="#ef3b3b" stroke="#ef3b3b"/>
<line x1="1003.50" y1="204.68" x2="1003.50" y2="233.74" stroke="#ef3b3b"/>
<rect x="1000.25" y="206.31" width="6.51" height="19.91" fill="#ef3b3b" stroke="#ef3b3b"/>
<line x1="1015.44" y1="208.60" x2="1015.44" y2="236.35" stroke="#3156d9"/>
<rect x="1012.19" y="222.64" width="6.51" height="6.53" fill="#ffffff" stroke="#3156d9"/>
<line x1="1027.38" y1="206.97" x2="1027.38" y2="238.31" stroke="#ef3b3b"/>
<rect x="1024.13" y="215.13" width="6.51" height="21.87" fill="#ef3b3b" stroke="#ef3b3b"/>
<line x1="1039.33" y1="202.72" x2="1039.33" y2="221.33" stroke="#ef3b3b"/>
<rect x="1036.07" y="206.31" width="6.51" height="7.83" fill="#ef3b3b" stroke="#ef3b3b"/>
<line x1="1051.27" y1="188.36" x2="1051.27" y2="214.15" stroke="#ef3b3b"/>
<rect x="1048.02" y="197.83" width="6.51" height="12.08" fill="#ef3b3b" stroke="#ef3b3b"/>
<line x1="1063.21" y1="195.87" x2="1063.21" y2="208.27" stroke="#3156d9"/>
<rect x="1059.96" y="200.11" width="6.51" height="2.94" fill="#ffffff" stroke="#3156d9"/>
<line x1="1075.15" y1="198.15" x2="1075.15" y2="220.35" stroke="#3156d9"/>
<rect x="1071.90" y="201.42" width="6.51" height="5.22" fill="#ffffff" stroke="#3156d9"/>
<line x1="1087.10" y1="202.40" x2="1087.10" y2="214.47" stroke="#3156d9"/>
<rect x="1083.84" y="209.25" width="6.51" height="1.20" fill="#ffffff" stroke="#3156d9"/>
<line x1="1099.04" y1="186.73" x2="1099.04" y2="209.58" stroke="#ef3b3b"/>
<rect x="1095.79" y="203.38" width="6.51" height="4.90" fill="#ef3b3b" stroke="#ef3b3b"/>
<line x1="1110.98" y1="199.13" x2="1110.98" y2="225.90" stroke="#3156d9"/>
<rect x="1107.73" y="202.07" width="6.51" height="20.24" fill="#ffffff" stroke="#3156d9"/>
<line x1="1122.92" y1="206.97" x2="1122.92" y2="229.49" stroke="#ef3b3b"/>
<rect x="1119.67" y="207.29" width="6.51" height="9.47" fill="#ef3b3b" stroke="#ef3b3b"/>
<line x1="1134.87" y1="147.88" x2="1134.87" y2="210.56" stroke="#ef3b3b"/>
<rect x="1131.61" y="147.88" width="6.51" height="59.41" fill="#ef3b3b" stroke="#ef3b3b"/>
<line x1="1146.81" y1="141.35" x2="1146.81" y2="154.08" stroke="#3156d9"/>
<rect x="1143.55" y="150.16" width="6.51" height="2.29" fill="#ffffff" stroke="#3156d9"/>
<line x1="1158.75" y1="151.14" x2="1158.75" y2="180.52" stroke="#3156d9"/>
<rect x="1155.50" y="156.69" width="6.51" height="16.65" fill="#ffffff" stroke="#3156d9"/>
<line x1="1170.69" y1="159.30" x2="1170.69" y2="187.38" stroke="#ef3b3b"/>
<rect x="1167.44" y="162.57" width="6.51" height="24.81" fill="#ef3b3b" stroke="#ef3b3b"/>
<line x1="1182.63" y1="152.12" x2="1182.63" y2="173.67" stroke="#ef3b3b"/>
<rect x="1179.38" y="163.55" width="6.51" height="1.20" fill="#ef3b3b" stroke="#ef3b3b"/>
<line x1="1194.58" y1="157.67" x2="1194.58" y2="168.77" stroke="#ef3b3b"/>
<rect x="1191.32" y="163.55" width="6.51" height="3.59" fill="#ef3b3b" stroke="#ef3b3b"/>
<line x1="1206.52" y1="159.30" x2="1206.52" y2="179.22" stroke="#3156d9"/>
<rect x="1203.27" y="163.22" width="6.51" height="15.02" fill="#ffffff" stroke="#3156d9"/>
<line x1="1218.46" y1="160.61" x2="1218.46" y2="178.89" stroke="#ef3b3b"/>
<rect x="1215.21" y="168.12" width="6.51" height="8.16" fill="#ef3b3b" stroke="#ef3b3b"/>
<line x1="1230.40" y1="154.41" x2="1230.40" y2="171.71" stroke="#ef3b3b"/>
<rect x="1227.15" y="158.65" width="6.51" height="9.47" fill="#ef3b3b" stroke="#ef3b3b"/>
<line x1="1242.35" y1="157.34" x2="1242.35" y2="171.38" stroke="#3156d9"/>
<rect x="1239.09" y="161.26" width="6.51" height="9.14" fill="#ffffff" stroke="#3156d9"/>
<line x1="1254.29" y1="126.66" x2="1254.29" y2="179.54" stroke="#ef3b3b"/>
<rect x="1251.04" y="138.41" width="6.51" height="34.28" fill="#ef3b3b" stroke="#ef3b3b"/>
<line x1="1266.23" y1="116.54" x2="1266.23" y2="151.47" stroke="#ef3b3b"/>
<rect x="1262.98" y="117.84" width="6.51" height="24.48" fill="#ef3b3b" stroke="#ef3b3b"/>
<line x1="1278.17" y1="112.29" x2="1278.17" y2="126.33" stroke="#3156d9"/>
<rect x="1274.92" y="115.56" width="6.51" height="10.12" fill="#ffffff" stroke="#3156d9"/>
<line x1="1290.12" y1="112.62" x2="1290.12" y2="125.68" stroke="#ef3b3b"/>
<rect x="1286.86" y="114.91" width="6.51" height="6.86" fill="#ef3b3b" stroke="#ef3b3b"/>
<line x1="1302.06" y1="98.91" x2="1302.06" y2="123.39" stroke="#ef3b3b"/>
<rect x="1298.80" y="108.38" width="6.51" height="4.90" fill="#ef3b3b" stroke="#ef3b3b"/>
<line x1="1314.00" y1="96.62" x2="1314.00" y2="122.74" stroke="#ef3b3b"/>
<rect x="1310.75" y="105.77" width="6.51" height="2.29" fill="#ef3b3b" stroke="#ef3b3b"/>
<path d="M 72.00 97.02 L 83.94 98.13 L 95.88 103.81 L 107.83 110.66 L 119.77 119.48 L 131.71 127.90 L 143.65 134.75 L 155.60 143.96 L 167.54 150.10 L 179.48 153.88 L 191.42 160.28 L 203.37 172.49 L 215.31 174.58 L 227.25 175.23 L 239.19 174.58 L 251.13 172.56 L 263.08 167.40 L 275.02 171.12 L 286.96 182.16 L 298.90 191.56 L 310.85 207.29 L 322.79 217.02 L 334.73 222.96 L 346.67 223.48 L 358.62 234.45 L 370.56 240.13 L 382.50 250.52 L 394.44 274.48 L 406.38 299.16 L 418.33 311.17 L 430.27 325.86 L 442.21 335.26 L 454.15 331.93 L 466.10 325.99 L 478.04 333.30 L 489.98 334.41 L 501.92 340.23 L 513.87 344.40 L 525.81 349.76 L 537.75 343.03 L 549.69 347.41 L 561.63 347.08 L 573.58 345.06 L 585.52 344.53 L 597.46 351.19 L 609.40 351.98 L 621.35 354.52 L 633.29 355.63 L 645.23 354.72 L 657.17 352.17 L 669.12 345.32 L 681.06 336.44 L 693.00 330.56 L 704.94 321.94 L 716.88 310.45 L 728.83 303.40 L 740.77 300.79 L 752.71 295.76 L 764.65 296.41 L 776.60 297.66 L 788.54 299.35 L 800.48 301.77 L 812.42 308.30 L 824.37 309.86 L 836.31 310.58 L 848.25 309.34 L 860.19 307.71 L 872.13 304.45 L 884.08 305.49 L 896.02 309.02 L 907.96 310.13 L 919.90 308.95 L 931.85 297.92 L 943.79 285.05 L 955.73 272.78 L 967.67 263.64 L 979.62 249.60 L 991.56 245.94 L 1003.50 237.72 L 1015.44 231.84 L 1027.38 223.09 L 1039.33 217.48 L 1051.27 210.95 L 1063.21 210.30 L 1075.15 205.79 L 1087.10 204.75 L 1099.04 204.16 L 1110.98 209.06 L 1122.92 209.90 L 1134.87 198.15 L 1146.81 186.66 L 1158.75 180.65 L 1170.69 168.71 L 1182.63 159.96 L 1194.58 163.09 L 1206.52 168.25 L 1218.46 167.20 L 1230.40 166.42 L 1242.35 167.79 L 1254.29 162.76 L 1266.23 150.69 L 1278.17 142.20 L 1290.12 133.45 L 1302.06 121.04 L 1314.00 114.51" fill="none" stroke="#59a52c" stroke-width="2"/>
<path d="M 72.00 144.56 L 83.94 139.62 L 95.88 135.90 L 107.83 132.86 L 119.77 130.20 L 131.71 128.11 L 143.65 126.98 L 155.60 128.27 L 167.54 128.09 L 179.48 128.08 L 191.42 128.21 L 203.37 130.46 L 215.31 133.79 L 227.25 135.98 L 239.19 137.99 L 251.13 139.44 L 263.08 143.19 L 275.02 148.37 L 286.96 154.54 L 298.90 159.87 L 310.85 167.01 L 322.79 172.92 L 334.73 178.16 L 346.67 182.74 L 358.62 188.62 L 370.56 195.07 L 382.50 201.86 L 394.44 210.79 L 406.38 220.01 L 418.33 227.94 L 430.27 236.46 L 442.21 242.55 L 454.15 250.12 L 466.10 257.70 L 478.04 267.62 L 489.98 276.93 L 501.92 285.76 L 513.87 293.44 L 525.81 299.60 L 537.75 305.49 L 549.69 311.95 L 561.63 318.27 L 573.58 323.97 L 585.52 329.86 L 597.46 334.68 L 609.40 339.91 L 621.35 344.27 L 633.29 344.26 L 645.23 343.75 L 657.17 344.93 L 669.12 344.78 L 681.06 344.57 L 693.00 343.91 L 704.94 342.74 L 716.88 339.21 L 728.83 337.03 L 740.77 334.71 L 752.71 331.75 L 764.65 329.40 L 776.60 327.87 L 788.54 325.01 L 800.48 323.38 L 812.42 322.56 L 824.37 320.74 L 836.31 317.72 L 848.25 314.35 L 860.19 311.68 L 872.13 309.77 L 884.08 308.43 L 896.02 306.93 L 907.96 305.56 L 919.90 304.80 L 931.85 301.61 L 943.79 299.21 L 955.73 297.51 L 967.67 295.62 L 979.62 292.01 L 991.56 289.15 L 1003.50 284.53 L 1015.44 281.06 L 1027.38 276.55 L 1039.33 270.94 L 1051.27 264.81 L 1063.21 259.64 L 1075.15 254.86 L 1087.10 250.40 L 1099.04 245.05 L 1110.98 240.97 L 1122.92 235.74 L 1134.87 227.14 L 1146.81 219.53 L 1158.75 212.97 L 1170.69 208.66 L 1182.63 204.47 L 1194.58 199.72 L 1206.52 195.69 L 1218.46 192.37 L 1230.40 188.78 L 1242.35 186.99 L 1254.29 182.45 L 1266.23 177.59 L 1278.17 173.55 L 1290.12 169.41 L 1302.06 164.67 L 1314.00 159.63" fill="none" stroke="#13c8d4" stroke-width="2"/>
<path d="M 72.00 154.47 L 83.94 154.05 L 95.88 154.20 L 107.83 154.00 L 119.77 154.55 L 131.71 154.95 L 143.65 155.48 L 155.60 156.25 L 167.54 156.92 L 179.48 158.03 L 191.42 158.87 L 203.37 160.22 L 215.31 160.81 L 227.25 161.22 L 239.19 161.14 L 251.13 161.16 L 263.08 161.28 L 275.02 161.81 L 286.96 162.39 L 298.90 162.74 L 310.85 163.21 L 322.79 163.80 L 334.73 164.68 L 346.67 165.65 L 358.62 167.58 L 370.56 169.24 L 382.50 171.26 L 394.44 174.39 L 406.38 177.35 L 418.33 179.22 L 430.27 181.23 L 442.21 183.59 L 454.15 186.26 L 466.10 188.76 L 478.04 191.98 L 489.98 195.30 L 501.92 199.09 L 513.87 203.26 L 525.81 206.82 L 537.75 210.04 L 549.69 214.05 L 561.63 217.94 L 573.58 222.51 L 585.52 226.90 L 597.46 231.67 L 609.40 236.48 L 621.35 241.74 L 633.29 246.79 L 645.23 251.58 L 657.17 256.48 L 669.12 261.31 L 681.06 265.57 L 693.00 269.47 L 704.94 272.71 L 716.88 275.58 L 728.83 278.86 L 740.77 282.17 L 752.71 284.65 L 764.65 287.34 L 776.60 289.96 L 788.54 292.77 L 800.48 295.10 L 812.42 298.02 L 824.37 300.80 L 836.31 303.56 L 848.25 306.45 L 860.19 309.13 L 872.13 311.35 L 884.08 313.14 L 896.02 315.30 L 907.96 316.73 L 919.90 318.33 L 931.85 318.85 L 943.79 319.29 L 955.73 319.14 L 967.67 319.08 L 979.62 318.24 L 991.56 316.00 L 1003.50 313.15 L 1015.44 311.20 L 1027.38 308.81 L 1039.33 306.46 L 1051.27 303.90 L 1063.21 301.58 L 1075.15 298.45 L 1087.10 295.84 L 1099.04 292.85 L 1110.98 290.36 L 1122.92 287.59 L 1134.87 283.96 L 1146.81 279.77 L 1158.75 276.21 L 1170.69 272.73 L 1182.63 269.14 L 1194.58 265.15 L 1206.52 261.39 L 1218.46 257.48 L 1230.40 253.81 L 1242.35 250.44 L 1254.29 246.21 L 1266.23 241.93 L 1278.17 238.05 L 1290.12 234.09 L 1302.06 230.35 L 1314.00 226.62" fill="none" stroke="#173ee6" stroke-width="2"/>
<path d="M 72.00 222.40 L 83.94 222.14 L 95.88 221.77 L 107.83 221.46 L 119.77 221.03 L 131.71 220.55 L 143.65 219.89 L 155.60 219.44 L 167.54 218.84 L 179.48 218.24 L 191.42 217.58 L 203.37 217.07 L 215.31 216.32 L 227.25 215.59 L 239.19 215.01 L 251.13 214.30 L 263.08 213.91 L 275.02 213.28 L 286.96 212.83 L 298.90 212.25 L 310.85 211.88 L 322.79 211.42 L 334.73 210.83 L 346.67 210.12 L 358.62 209.70 L 370.56 209.14 L 382.50 208.43 L 394.44 208.20 L 406.38 208.05 L 418.33 207.71 L 430.27 207.35 L 442.21 207.06 L 454.15 206.86 L 466.10 206.70 L 478.04 206.70 L 489.98 206.58 L 501.92 206.28 L 513.87 206.09 L 525.81 206.06 L 537.75 205.94 L 549.69 206.14 L 561.63 206.35 L 573.58 206.44 L 585.52 206.56 L 597.46 206.92 L 609.40 207.39 L 621.35 207.94 L 633.29 208.34 L 645.23 208.61 L 657.17 209.04 L 669.12 209.28 L 681.06 209.48 L 693.00 209.48 L 704.94 209.53 L 716.88 209.61 L 728.83 209.76 L 740.77 210.08 L 752.71 210.26 L 764.65 210.41 L 776.60 210.64 L 788.54 210.86 L 800.48 211.21 L 812.42 211.69 L 824.37 212.15 L 836.31 212.57 L 848.25 212.97 L 860.19 213.42 L 872.13 214.10 L 884.08 214.73 L 896.02 215.49 L 907.96 215.97 L 919.90 216.42 L 931.85 216.50 L 943.79 216.69 L 955.73 216.92 L 967.67 216.98 L 979.62 216.77 L 991.56 216.55 L 1003.50 216.28 L 1015.44 216.20 L 1027.38 216.04 L 1039.33 216.12 L 1051.27 216.25 L 1063.21 216.57 L 1075.15 216.84 L 1087.10 216.99 L 1099.04 217.00 L 1110.98 217.18 L 1122.92 217.32 L 1134.87 217.18 L 1146.81 217.30 L 1158.75 217.44 L 1170.69 217.53 L 1182.63 217.67 L 1194.58 217.79 L 1206.52 218.11 L 1218.46 218.42 L 1230.40 218.59 L 1242.35 218.98 L 1254.29 219.13 L 1266.23 219.24 L 1278.17 219.23 L 1290.12 219.25 L 1302.06 219.02 L 1314.00 218.92" fill="none" stroke="#971f1f" stroke-width="3"/>
<path d="M 72.00 204.91 L 83.94 204.67 L 95.88 204.45 L 107.83 204.60 L 119.77 204.66 L 131.71 204.52 L 143.65 204.23 L 155.60 204.18 L 167.54 204.32 L 179.48 204.52 L 191.42 204.61 L 203.37 204.97 L 215.31 205.10 L 227.25 204.91 L 239.19 204.63 L 251.13 204.32 L 263.08 204.15 L 275.02 204.06 L 286.96 204.25 L 298.90 204.63 L 310.85 205.14 L 322.79 205.48 L 334.73 205.94 L 346.67 206.36 L 358.62 206.68 L 370.56 207.13 L 382.50 207.69 L 394.44 208.68 L 406.38 209.66 L 418.33 210.28 L 430.27 211.05 L 442.21 211.85 L 454.15 212.53 L 466.10 213.28 L 478.04 214.20 L 489.98 215.31 L 501.92 216.33 L 513.87 217.45 L 525.81 218.60 L 537.75 219.80 L 549.69 221.08 L 561.63 222.35 L 573.58 223.40 L 585.52 224.42 L 597.46 225.51 L 609.40 226.70 L 621.35 227.95 L 633.29 229.07 L 645.23 230.08 L 657.17 231.14 L 669.12 232.13 L 681.06 233.00 L 693.00 233.70 L 704.94 234.27 L 716.88 234.66 L 728.83 235.13 L 740.77 235.46 L 752.71 235.74 L 764.65 235.96 L 776.60 236.17 L 788.54 236.38 L 800.48 236.58 L 812.42 236.75 L 824.37 236.90 L 836.31 237.15 L 848.25 237.34 L 860.19 237.71 L 872.13 237.80 L 884.08 237.91 L 896.02 238.01 L 907.96 238.09 L 919.90 238.15 L 931.85 237.84 L 943.79 237.41 L 955.73 237.06 L 967.67 236.63 L 979.62 235.88 L 991.56 235.15 L 1003.50 234.32 L 1015.44 233.58 L 1027.38 232.71 L 1039.33 231.91 L 1051.27 231.12 L 1063.21 230.42 L 1075.15 229.64 L 1087.10 228.89 L 1099.04 227.92 L 1110.98 227.16 L 1122.92 226.44 L 1134.87 225.45 L 1146.81 224.55 L 1158.75 223.81 L 1170.69 223.01 L 1182.63 222.20 L 1194.58 221.48 L 1206.52 220.89 L 1218.46 220.32 L 1230.40 219.71 L 1242.35 219.07 L 1254.29 218.33 L 1266.23 217.45 L 1278.17 216.62 L 1290.12 215.63 L 1302.06 214.74 L 1314.00 213.86" fill="none" stroke="#d41968" stroke-width="3"/>
<text x="78" y="462" class="label">거래량 · MA50</text>
<text x="1321" y="456" class="small">87094770.00</text>
<text x="1321" y="590" class="small">0.00</text>
<rect x="68.33" y="524.45" width="7.33" height="59.05" fill="#e98b8b" opacity="0.72"/>
<rect x="80.28" y="544.27" width="7.33" height="39.23" fill="#8d9be5" opacity="0.72"/>
<rect x="92.22" y="541.81" width="7.33" height="41.69" fill="#8d9be5" opacity="0.72"/>
<rect x="104.16" y="526.89" width="7.33" height="56.61" fill="#8d9be5" opacity="0.72"/>
<rect x="116.10" y="545.06" width="7.33" height="38.44" fill="#8d9be5" opacity="0.72"/>
<rect x="128.04" y="544.14" width="7.33" height="39.36" fill="#e98b8b" opacity="0.72"/>
<rect x="139.99" y="549.43" width="7.33" height="34.07" fill="#8d9be5" opacity="0.72"/>
<rect x="151.93" y="531.13" width="7.33" height="52.37" fill="#8d9be5" opacity="0.72"/>
<rect x="163.87" y="525.31" width="7.33" height="58.19" fill="#e98b8b" opacity="0.72"/>
<rect x="175.81" y="548.39" width="7.33" height="35.11" fill="#8d9be5" opacity="0.72"/>
<rect x="187.76" y="560.63" width="7.33" height="22.87" fill="#e98b8b" opacity="0.72"/>
<rect x="199.70" y="527.33" width="7.33" height="56.17" fill="#8d9be5" opacity="0.72"/>
<rect x="211.64" y="508.54" width="7.33" height="74.96" fill="#e98b8b" opacity="0.72"/>
<rect x="223.58" y="523.42" width="7.33" height="60.08" fill="#e98b8b" opacity="0.72"/>
<rect x="235.53" y="523.85" width="7.33" height="59.65" fill="#e98b8b" opacity="0.72"/>
<rect x="247.47" y="527.59" width="7.33" height="55.91" fill="#e98b8b" opacity="0.72"/>
<rect x="259.41" y="537.85" width="7.33" height="45.65" fill="#8d9be5" opacity="0.72"/>
<rect x="271.35" y="547.28" width="7.33" height="36.22" fill="#8d9be5" opacity="0.72"/>
<rect x="283.29" y="541.40" width="7.33" height="42.10" fill="#8d9be5" opacity="0.72"/>
<rect x="295.24" y="520.22" width="7.33" height="63.28" fill="#e98b8b" opacity="0.72"/>
<rect x="307.18" y="546.17" width="7.33" height="37.33" fill="#8d9be5" opacity="0.72"/>
<rect x="319.12" y="555.22" width="7.33" height="28.28" fill="#e98b8b" opacity="0.72"/>
<rect x="331.06" y="520.25" width="7.33" height="63.25" fill="#e98b8b" opacity="0.72"/>
<rect x="343.01" y="549.00" width="7.33" height="34.50" fill="#8d9be5" opacity="0.72"/>
<rect x="354.95" y="537.16" width="7.33" height="46.34" fill="#8d9be5" opacity="0.72"/>
<rect x="366.89" y="522.33" width="7.33" height="61.17" fill="#e98b8b" opacity="0.72"/>
<rect x="378.83" y="556.61" width="7.33" height="26.89" fill="#8d9be5" opacity="0.72"/>
<rect x="390.78" y="500.16" width="7.33" height="83.34" fill="#8d9be5" opacity="0.72"/>
<rect x="402.72" y="512.42" width="7.33" height="71.08" fill="#e98b8b" opacity="0.72"/>
<rect x="414.66" y="481.39" width="7.33" height="102.11" fill="#e98b8b" opacity="0.72"/>
<rect x="426.60" y="500.19" width="7.33" height="83.31" fill="#8d9be5" opacity="0.72"/>
<rect x="438.54" y="531.27" width="7.33" height="52.23" fill="#e98b8b" opacity="0.72"/>
<rect x="450.49" y="534.46" width="7.33" height="49.04" fill="#e98b8b" opacity="0.72"/>
<rect x="462.43" y="520.35" width="7.33" height="63.15" fill="#e98b8b" opacity="0.72"/>
<rect x="474.37" y="460.64" width="7.33" height="122.86" fill="#8d9be5" opacity="0.72"/>
<rect x="486.31" y="541.68" width="7.33" height="41.82" fill="#e98b8b" opacity="0.72"/>
<rect x="498.26" y="552.38" width="7.33" height="31.12" fill="#8d9be5" opacity="0.72"/>
<rect x="510.20" y="548.75" width="7.33" height="34.75" fill="#e98b8b" opacity="0.72"/>
<rect x="522.14" y="563.18" width="7.33" height="20.32" fill="#e98b8b" opacity="0.72"/>
<rect x="534.08" y="543.14" width="7.33" height="40.36" fill="#e98b8b" opacity="0.72"/>
<rect x="546.03" y="544.14" width="7.33" height="39.36" fill="#8d9be5" opacity="0.72"/>
<rect x="557.97" y="542.69" width="7.33" height="40.81" fill="#e98b8b" opacity="0.72"/>
<rect x="569.91" y="568.10" width="7.33" height="15.40" fill="#e98b8b" opacity="0.72"/>
<rect x="581.85" y="569.75" width="7.33" height="13.75" fill="#8d9be5" opacity="0.72"/>
<rect x="593.79" y="537.02" width="7.33" height="46.48" fill="#8d9be5" opacity="0.72"/>
<rect x="605.74" y="542.09" width="7.33" height="41.41" fill="#8d9be5" opacity="0.72"/>
<rect x="617.68" y="547.79" width="7.33" height="35.71" fill="#8d9be5" opacity="0.72"/>
<rect x="629.62" y="546.56" width="7.33" height="36.94" fill="#e98b8b" opacity="0.72"/>
<rect x="641.56" y="520.94" width="7.33" height="62.56" fill="#e98b8b" opacity="0.72"/>
<rect x="653.51" y="550.72" width="7.33" height="32.78" fill="#8d9be5" opacity="0.72"/>
<rect x="665.45" y="557.89" width="7.33" height="25.61" fill="#e98b8b" opacity="0.72"/>
<rect x="677.39" y="549.56" width="7.33" height="33.94" fill="#e98b8b" opacity="0.72"/>
<rect x="689.33" y="543.02" width="7.33" height="40.48" fill="#e98b8b" opacity="0.72"/>
<rect x="701.28" y="553.08" width="7.33" height="30.42" fill="#e98b8b" opacity="0.72"/>
<rect x="713.22" y="556.23" width="7.33" height="27.27" fill="#e98b8b" opacity="0.72"/>
<rect x="725.16" y="566.90" width="7.33" height="16.60" fill="#8d9be5" opacity="0.72"/>
<rect x="737.10" y="552.05" width="7.33" height="31.45" fill="#8d9be5" opacity="0.72"/>
<rect x="749.04" y="521.71" width="7.33" height="61.79" fill="#e98b8b" opacity="0.72"/>
<rect x="760.99" y="551.77" width="7.33" height="31.73" fill="#8d9be5" opacity="0.72"/>
<rect x="772.93" y="541.51" width="7.33" height="41.99" fill="#e98b8b" opacity="0.72"/>
<rect x="784.87" y="534.60" width="7.33" height="48.90" fill="#8d9be5" opacity="0.72"/>
<rect x="796.81" y="550.46" width="7.33" height="33.04" fill="#8d9be5" opacity="0.72"/>
<rect x="808.76" y="563.17" width="7.33" height="20.33" fill="#8d9be5" opacity="0.72"/>
<rect x="820.70" y="555.14" width="7.33" height="28.36" fill="#e98b8b" opacity="0.72"/>
<rect x="832.64" y="547.19" width="7.33" height="36.31" fill="#e98b8b" opacity="0.72"/>
<rect x="844.58" y="565.94" width="7.33" height="17.56" fill="#e98b8b" opacity="0.72"/>
<rect x="856.53" y="533.04" width="7.33" height="50.46" fill="#8d9be5" opacity="0.72"/>
<rect x="868.47" y="537.46" width="7.33" height="46.04" fill="#e98b8b" opacity="0.72"/>
<rect x="880.41" y="534.78" width="7.33" height="48.72" fill="#8d9be5" opacity="0.72"/>
<rect x="892.35" y="544.39" width="7.33" height="39.11" fill="#8d9be5" opacity="0.72"/>
<rect x="904.29" y="564.45" width="7.33" height="19.05" fill="#e98b8b" opacity="0.72"/>
<rect x="916.24" y="562.80" width="7.33" height="20.70" fill="#8d9be5" opacity="0.72"/>
<rect x="928.18" y="487.07" width="7.33" height="96.43" fill="#e98b8b" opacity="0.72"/>
<rect x="940.12" y="496.89" width="7.33" height="86.61" fill="#e98b8b" opacity="0.72"/>
<rect x="952.06" y="545.56" width="7.33" height="37.94" fill="#8d9be5" opacity="0.72"/>
<rect x="964.01" y="559.89" width="7.33" height="23.61" fill="#8d9be5" opacity="0.72"/>
<rect x="975.95" y="547.31" width="7.33" height="36.19" fill="#e98b8b" opacity="0.72"/>
<rect x="987.89" y="551.39" width="7.33" height="32.11" fill="#e98b8b" opacity="0.72"/>
<rect x="999.83" y="544.28" width="7.33" height="39.22" fill="#e98b8b" opacity="0.72"/>
<rect x="1011.78" y="520.52" width="7.33" height="62.98" fill="#8d9be5" opacity="0.72"/>
<rect x="1023.72" y="542.67" width="7.33" height="40.83" fill="#e98b8b" opacity="0.72"/>
<rect x="1035.66" y="541.18" width="7.33" height="42.32" fill="#e98b8b" opacity="0.72"/>
<rect x="1047.60" y="534.67" width="7.33" height="48.83" fill="#e98b8b" opacity="0.72"/>
<rect x="1059.54" y="562.72" width="7.33" height="20.78" fill="#8d9be5" opacity="0.72"/>
<rect x="1071.49" y="555.05" width="7.33" height="28.45" fill="#8d9be5" opacity="0.72"/>
<rect x="1083.43" y="560.76" width="7.33" height="22.74" fill="#8d9be5" opacity="0.72"/>
<rect x="1095.37" y="549.90" width="7.33" height="33.60" fill="#e98b8b" opacity="0.72"/>
<rect x="1107.31" y="554.66" width="7.33" height="28.84" fill="#8d9be5" opacity="0.72"/>
<rect x="1119.26" y="549.63" width="7.33" height="33.87" fill="#e98b8b" opacity="0.72"/>
<rect x="1131.20" y="511.99" width="7.33" height="71.51" fill="#e98b8b" opacity="0.72"/>
<rect x="1143.14" y="553.22" width="7.33" height="30.28" fill="#8d9be5" opacity="0.72"/>
<rect x="1155.08" y="545.04" width="7.33" height="38.46" fill="#8d9be5" opacity="0.72"/>
<rect x="1167.03" y="541.88" width="7.33" height="41.62" fill="#e98b8b" opacity="0.72"/>
<rect x="1178.97" y="554.25" width="7.33" height="29.25" fill="#e98b8b" opacity="0.72"/>
<rect x="1190.91" y="562.18" width="7.33" height="21.32" fill="#e98b8b" opacity="0.72"/>
<rect x="1202.85" y="567.82" width="7.33" height="15.68" fill="#8d9be5" opacity="0.72"/>
<rect x="1214.79" y="560.83" width="7.33" height="22.67" fill="#e98b8b" opacity="0.72"/>
<rect x="1226.74" y="555.28" width="7.33" height="28.22" fill="#e98b8b" opacity="0.72"/>
<rect x="1238.68" y="569.39" width="7.33" height="14.11" fill="#8d9be5" opacity="0.72"/>
<rect x="1250.62" y="528.27" width="7.33" height="55.23" fill="#e98b8b" opacity="0.72"/>
<rect x="1262.56" y="540.45" width="7.33" height="43.05" fill="#e98b8b" opacity="0.72"/>
<rect x="1274.51" y="555.56" width="7.33" height="27.94" fill="#8d9be5" opacity="0.72"/>
<rect x="1286.45" y="559.17" width="7.33" height="24.33" fill="#e98b8b" opacity="0.72"/>
<rect x="1298.39" y="556.58" width="7.33" height="26.92" fill="#e98b8b" opacity="0.72"/>
<rect x="1310.33" y="513.65" width="7.33" height="69.85" fill="#e98b8b" opacity="0.72"/>
<path d="M 72.00 540.67 L 83.94 540.43 L 95.88 540.65 L 107.83 540.18 L 119.77 539.84 L 131.71 539.55 L 143.65 539.62 L 155.60 539.00 L 167.54 538.42 L 179.48 538.41 L 191.42 538.35 L 203.37 538.26 L 215.31 537.92 L 227.25 537.99 L 239.19 537.78 L 251.13 537.24 L 263.08 537.23 L 275.02 537.44 L 286.96 537.31 L 298.90 537.20 L 310.85 537.19 L 322.79 537.25 L 334.73 536.94 L 346.67 537.11 L 358.62 536.78 L 370.56 536.06 L 382.50 536.35 L 394.44 535.85 L 406.38 535.09 L 418.33 534.24 L 430.27 533.79 L 442.21 533.33 L 454.15 532.89 L 466.10 532.07 L 478.04 530.24 L 489.98 530.38 L 501.92 530.34 L 513.87 530.80 L 525.81 531.77 L 537.75 531.66 L 549.69 531.08 L 561.63 530.62 L 573.58 532.27 L 585.52 533.74 L 597.46 533.41 L 609.40 533.53 L 621.35 534.01 L 633.29 534.27 L 645.23 534.37 L 657.17 534.91 L 669.12 535.58 L 681.06 535.69 L 693.00 535.71 L 704.94 536.23 L 716.88 536.46 L 728.83 536.91 L 740.77 536.96 L 752.71 536.78 L 764.65 537.31 L 776.60 537.17 L 788.54 536.65 L 800.48 537.11 L 812.42 538.20 L 824.37 538.84 L 836.31 539.30 L 848.25 540.07 L 860.19 539.97 L 872.13 539.78 L 884.08 539.65 L 896.02 540.13 L 907.96 540.49 L 919.90 540.65 L 931.85 539.98 L 943.79 538.94 L 955.73 539.11 L 967.67 539.86 L 979.62 539.67 L 991.56 540.70 L 1003.50 541.34 L 1015.44 542.12 L 1027.38 542.97 L 1039.33 543.17 L 1051.27 543.17 L 1063.21 544.02 L 1075.15 545.91 L 1087.10 546.29 L 1099.04 546.24 L 1110.98 546.36 L 1122.92 546.08 L 1134.87 545.46 L 1146.81 545.64 L 1158.75 545.69 L 1170.69 545.17 L 1182.63 544.86 L 1194.58 545.36 L 1206.52 545.87 L 1218.46 546.13 L 1230.40 546.31 L 1242.35 547.28 L 1254.29 546.83 L 1266.23 546.48 L 1278.17 546.60 L 1290.12 546.92 L 1302.06 546.99 L 1314.00 546.14" fill="none" stroke="#173ee6" stroke-width="2"/>
<text x="78" y="624" class="label">Momentum 14</text>
<text x="1321" y="618" class="small">4.04</text>
<text x="1321" y="722" class="small">-6.10</text>
<line x1="72" y1="655.52" x2="1314" y2="655.52" stroke="#4775d1" stroke-dasharray="5 5"/>
<path d="M 72.00 632.73 L 83.94 645.75 L 95.88 639.95 L 107.83 644.73 L 119.77 651.45 L 131.71 647.89 L 143.65 665.90 L 155.60 668.04 L 167.54 667.93 L 179.48 668.75 L 191.42 675.26 L 203.37 690.62 L 215.31 678.92 L 227.25 675.06 L 239.19 678.62 L 251.13 670.38 L 263.08 673.73 L 275.02 674.04 L 286.96 678.52 L 298.90 680.14 L 310.85 684.21 L 322.79 674.55 L 334.73 673.73 L 346.67 673.43 L 358.62 687.27 L 370.56 674.04 L 382.50 687.47 L 394.44 710.06 L 406.38 712.91 L 418.33 709.14 L 430.27 704.97 L 442.21 696.32 L 454.15 687.67 L 466.10 689.00 L 478.04 696.02 L 489.98 691.54 L 501.92 696.12 L 513.87 693.37 L 525.81 680.25 L 537.75 676.68 L 549.69 682.18 L 561.63 658.27 L 573.58 651.75 L 585.52 660.71 L 597.46 664.17 L 609.40 668.75 L 621.35 667.42 L 633.29 662.74 L 645.23 647.89 L 657.17 658.47 L 669.12 649.01 L 681.06 647.07 L 693.00 645.24 L 704.94 644.94 L 716.88 633.74 L 728.83 638.53 L 740.77 646.16 L 752.71 638.22 L 764.65 635.58 L 776.60 634.46 L 788.54 637.20 L 800.48 648.19 L 812.42 649.82 L 824.37 641.99 L 836.31 646.26 L 848.25 649.11 L 860.19 654.81 L 872.13 658.16 L 884.08 661.52 L 896.02 662.74 L 907.96 654.91 L 919.90 660.81 L 931.85 639.95 L 943.79 639.54 L 955.73 640.97 L 967.67 636.90 L 979.62 628.76 L 991.56 631.81 L 1003.50 625.60 L 1015.44 633.74 L 1027.38 625.81 L 1039.33 625.09 L 1051.27 620.01 L 1063.21 619.09 L 1075.15 624.99 L 1087.10 626.01 L 1099.04 641.38 L 1110.98 647.68 L 1122.92 639.54 L 1134.87 620.92 L 1146.81 629.98 L 1158.75 637.71 L 1170.69 641.88 L 1182.63 635.07 L 1194.58 639.44 L 1206.52 646.77 L 1218.46 646.26 L 1230.40 641.68 L 1242.35 644.22 L 1254.29 633.23 L 1266.23 628.86 L 1278.17 625.40 L 1290.12 626.72 L 1302.06 643.21 L 1314.00 640.97" fill="none" stroke="#e24b55" stroke-width="2"/>
<text x="78" y="756" class="label">MACD 12·26·9</text>
<text x="1321" y="750" class="small">1.10</text>
<text x="1321" y="884" class="small">-1.52</text>
<line x1="72" y1="802.78" x2="1314" y2="802.78" stroke="#a5abb3" stroke-dasharray="5 5"/>
<rect x="69.34" y="793.10" width="5.32" height="9.68" fill="#ef9999" opacity="0.55"/>
<rect x="81.28" y="795.79" width="5.32" height="6.99" fill="#ef9999" opacity="0.55"/>
<rect x="93.22" y="799.14" width="5.32" height="3.64" fill="#ef9999" opacity="0.55"/>
<rect x="105.17" y="802.78" width="5.32" height="0.70" fill="#ef9999" opacity="0.55"/>
<rect x="117.11" y="802.78" width="5.32" height="4.60" fill="#ef9999" opacity="0.55"/>
<rect x="129.05" y="802.78" width="5.32" height="5.64" fill="#ef9999" opacity="0.55"/>
<rect x="140.99" y="802.78" width="5.32" height="7.03" fill="#ef9999" opacity="0.55"/>
<rect x="152.93" y="802.78" width="5.32" height="9.92" fill="#ef9999" opacity="0.55"/>
<rect x="164.88" y="802.78" width="5.32" height="11.41" fill="#ef9999" opacity="0.55"/>
<rect x="176.82" y="802.78" width="5.32" height="12.23" fill="#ef9999" opacity="0.55"/>
<rect x="188.76" y="802.78" width="5.32" height="11.90" fill="#ef9999" opacity="0.55"/>
<rect x="200.70" y="802.78" width="5.32" height="14.78" fill="#ef9999" opacity="0.55"/>
<rect x="212.65" y="802.78" width="5.32" height="13.18" fill="#ef9999" opacity="0.55"/>
<rect x="224.59" y="802.78" width="5.32" height="10.86" fill="#ef9999" opacity="0.55"/>
<rect x="236.53" y="802.78" width="5.32" height="8.54" fill="#ef9999" opacity="0.55"/>
<rect x="248.47" y="802.78" width="5.32" height="5.65" fill="#ef9999" opacity="0.55"/>
<rect x="260.42" y="802.78" width="5.32" height="5.61" fill="#ef9999" opacity="0.55"/>
<rect x="272.36" y="802.78" width="5.32" height="6.85" fill="#ef9999" opacity="0.55"/>
<rect x="284.30" y="802.78" width="5.32" height="10.07" fill="#ef9999" opacity="0.55"/>
<rect x="296.24" y="802.78" width="5.32" height="10.40" fill="#ef9999" opacity="0.55"/>
<rect x="308.18" y="802.78" width="5.32" height="12.03" fill="#ef9999" opacity="0.55"/>
<rect x="320.13" y="802.78" width="5.32" height="11.50" fill="#ef9999" opacity="0.55"/>
<rect x="332.07" y="802.78" width="5.32" height="10.18" fill="#ef9999" opacity="0.55"/>
<rect x="344.01" y="802.78" width="5.32" height="8.88" fill="#ef9999" opacity="0.55"/>
<rect x="355.95" y="802.78" width="5.32" height="11.36" fill="#ef9999" opacity="0.55"/>
<rect x="367.90" y="802.78" width="5.32" height="11.61" fill="#ef9999" opacity="0.55"/>
<rect x="379.84" y="802.78" width="5.32" height="12.38" fill="#ef9999" opacity="0.55"/>
<rect x="391.78" y="802.78" width="5.32" height="18.25" fill="#ef9999" opacity="0.55"/>
<rect x="403.72" y="802.78" width="5.32" height="21.24" fill="#ef9999" opacity="0.55"/>
<rect x="415.67" y="802.78" width="5.32" height="19.48" fill="#ef9999" opacity="0.55"/>
<rect x="427.61" y="802.78" width="5.32" height="17.76" fill="#ef9999" opacity="0.55"/>
<rect x="439.55" y="802.78" width="5.32" height="14.21" fill="#ef9999" opacity="0.55"/>
<rect x="451.49" y="802.78" width="5.32" height="10.94" fill="#ef9999" opacity="0.55"/>
<rect x="463.43" y="802.78" width="5.32" height="7.14" fill="#ef9999" opacity="0.55"/>
<rect x="475.38" y="802.78" width="5.32" height="8.09" fill="#ef9999" opacity="0.55"/>
<rect x="487.32" y="802.78" width="5.32" height="5.54" fill="#ef9999" opacity="0.55"/>
<rect x="499.26" y="802.78" width="5.32" height="4.28" fill="#ef9999" opacity="0.55"/>
<rect x="511.20" y="802.78" width="5.32" height="2.09" fill="#ef9999" opacity="0.55"/>
<rect x="523.15" y="802.71" width="5.32" height="0.70" fill="#ef9999" opacity="0.55"/>
<rect x="535.09" y="799.21" width="5.32" height="3.57" fill="#ef9999" opacity="0.55"/>
<rect x="547.03" y="799.81" width="5.32" height="2.98" fill="#ef9999" opacity="0.55"/>
<rect x="558.97" y="798.70" width="5.32" height="4.08" fill="#ef9999" opacity="0.55"/>
<rect x="570.92" y="796.25" width="5.32" height="6.53" fill="#ef9999" opacity="0.55"/>
<rect x="582.86" y="795.14" width="5.32" height="7.64" fill="#ef9999" opacity="0.55"/>
<rect x="594.80" y="796.21" width="5.32" height="6.57" fill="#ef9999" opacity="0.55"/>
<rect x="606.74" y="797.06" width="5.32" height="5.72" fill="#ef9999" opacity="0.55"/>
<rect x="618.68" y="797.18" width="5.32" height="5.60" fill="#ef9999" opacity="0.55"/>
<rect x="630.63" y="794.95" width="5.32" height="7.83" fill="#ef9999" opacity="0.55"/>
<rect x="642.57" y="793.16" width="5.32" height="9.62" fill="#ef9999" opacity="0.55"/>
<rect x="654.51" y="793.19" width="5.32" height="9.59" fill="#ef9999" opacity="0.55"/>
<rect x="666.45" y="791.57" width="5.32" height="11.21" fill="#ef9999" opacity="0.55"/>
<rect x="678.40" y="789.55" width="5.32" height="13.24" fill="#ef9999" opacity="0.55"/>
<rect x="690.34" y="787.94" width="5.32" height="14.84" fill="#ef9999" opacity="0.55"/>
<rect x="702.28" y="785.72" width="5.32" height="17.06" fill="#ef9999" opacity="0.55"/>
<rect x="714.22" y="784.64" width="5.32" height="18.14" fill="#ef9999" opacity="0.55"/>
<rect x="726.17" y="785.08" width="5.32" height="17.70" fill="#ef9999" opacity="0.55"/>
<rect x="738.11" y="787.01" width="5.32" height="15.77" fill="#ef9999" opacity="0.55"/>
<rect x="750.05" y="787.04" width="5.32" height="15.74" fill="#ef9999" opacity="0.55"/>
<rect x="761.99" y="788.82" width="5.32" height="13.96" fill="#ef9999" opacity="0.55"/>
<rect x="773.93" y="790.56" width="5.32" height="12.22" fill="#ef9999" opacity="0.55"/>
<rect x="785.88" y="792.84" width="5.32" height="9.94" fill="#ef9999" opacity="0.55"/>
<rect x="797.82" y="796.02" width="5.32" height="6.76" fill="#ef9999" opacity="0.55"/>
<rect x="809.76" y="798.48" width="5.32" height="4.30" fill="#ef9999" opacity="0.55"/>
<rect x="821.70" y="798.90" width="5.32" height="3.88" fill="#ef9999" opacity="0.55"/>
<rect x="833.65" y="798.93" width="5.32" height="3.85" fill="#ef9999" opacity="0.55"/>
<rect x="845.59" y="798.82" width="5.32" height="3.96" fill="#ef9999" opacity="0.55"/>
<rect x="857.53" y="800.05" width="5.32" height="2.73" fill="#ef9999" opacity="0.55"/>
<rect x="869.47" y="800.34" width="5.32" height="2.44" fill="#ef9999" opacity="0.55"/>
<rect x="881.42" y="801.41" width="5.32" height="1.37" fill="#ef9999" opacity="0.55"/>
<rect x="893.36" y="802.78" width="5.32" height="0.70" fill="#ef9999" opacity="0.55"/>
<rect x="905.30" y="802.43" width="5.32" height="0.70" fill="#ef9999" opacity="0.55"/>
<rect x="917.24" y="802.14" width="5.32" height="0.70" fill="#ef9999" opacity="0.55"/>
<rect x="929.18" y="796.62" width="5.32" height="6.16" fill="#ef9999" opacity="0.55"/>
<rect x="941.13" y="793.39" width="5.32" height="9.39" fill="#ef9999" opacity="0.55"/>
<rect x="953.07" y="792.96" width="5.32" height="9.82" fill="#ef9999" opacity="0.55"/>
<rect x="965.01" y="793.32" width="5.32" height="9.46" fill="#ef9999" opacity="0.55"/>
<rect x="976.95" y="791.76" width="5.32" height="11.02" fill="#ef9999" opacity="0.55"/>
<rect x="988.90" y="791.11" width="5.32" height="11.67" fill="#ef9999" opacity="0.55"/>
<rect x="1000.84" y="789.12" width="5.32" height="13.66" fill="#ef9999" opacity="0.55"/>
<rect x="1012.78" y="790.97" width="5.32" height="11.81" fill="#ef9999" opacity="0.55"/>
<rect x="1024.72" y="791.59" width="5.32" height="11.19" fill="#ef9999" opacity="0.55"/>
<rect x="1036.67" y="791.95" width="5.32" height="10.83" fill="#ef9999" opacity="0.55"/>
<rect x="1048.61" y="792.17" width="5.32" height="10.61" fill="#ef9999" opacity="0.55"/>
<rect x="1060.55" y="793.64" width="5.32" height="9.14" fill="#ef9999" opacity="0.55"/>
<rect x="1072.49" y="795.69" width="5.32" height="7.09" fill="#ef9999" opacity="0.55"/>
<rect x="1084.43" y="797.96" width="5.32" height="4.82" fill="#ef9999" opacity="0.55"/>
<rect x="1096.38" y="799.34" width="5.32" height="3.44" fill="#ef9999" opacity="0.55"/>
<rect x="1108.32" y="802.53" width="5.32" height="0.70" fill="#ef9999" opacity="0.55"/>
<rect x="1120.26" y="802.78" width="5.32" height="0.70" fill="#ef9999" opacity="0.55"/>
<rect x="1132.20" y="798.57" width="5.32" height="4.21" fill="#ef9999" opacity="0.55"/>
<rect x="1144.15" y="796.52" width="5.32" height="6.26" fill="#ef9999" opacity="0.55"/>
<rect x="1156.09" y="797.93" width="5.32" height="4.85" fill="#ef9999" opacity="0.55"/>
<rect x="1168.03" y="798.40" width="5.32" height="4.38" fill="#ef9999" opacity="0.55"/>
<rect x="1179.97" y="799.39" width="5.32" height="3.40" fill="#ef9999" opacity="0.55"/>
<rect x="1191.92" y="800.57" width="5.32" height="2.22" fill="#ef9999" opacity="0.55"/>
<rect x="1203.86" y="802.78" width="5.32" height="0.70" fill="#ef9999" opacity="0.55"/>
<rect x="1215.80" y="802.78" width="5.32" height="1.50" fill="#ef9999" opacity="0.55"/>
<rect x="1227.74" y="802.78" width="5.32" height="1.55" fill="#ef9999" opacity="0.55"/>
<rect x="1239.68" y="802.78" width="5.32" height="3.01" fill="#ef9999" opacity="0.55"/>
<rect x="1251.63" y="802.78" width="5.32" height="1.06" fill="#ef9999" opacity="0.55"/>
<rect x="1263.57" y="800.95" width="5.32" height="1.83" fill="#ef9999" opacity="0.55"/>
<rect x="1275.51" y="800.37" width="5.32" height="2.41" fill="#ef9999" opacity="0.55"/>
<rect x="1287.45" y="799.47" width="5.32" height="3.31" fill="#ef9999" opacity="0.55"/>
<rect x="1299.40" y="798.83" width="5.32" height="3.95" fill="#ef9999" opacity="0.55"/>
<rect x="1311.34" y="798.79" width="5.32" height="3.99" fill="#ef9999" opacity="0.55"/>
<path d="M 72.00 770.50 L 83.94 771.45 L 95.88 773.89 L 107.83 778.01 L 119.77 783.37 L 131.71 785.83 L 143.65 788.97 L 155.60 794.34 L 167.54 798.68 L 179.48 802.56 L 191.42 805.21 L 203.37 811.78 L 215.31 813.48 L 227.25 813.86 L 239.19 813.69 L 251.13 812.21 L 263.08 813.57 L 275.02 816.52 L 286.96 822.26 L 298.90 825.19 L 310.85 829.82 L 322.79 832.17 L 334.73 833.39 L 346.67 834.32 L 358.62 839.63 L 370.56 842.79 L 382.50 846.65 L 394.44 857.08 L 406.38 865.38 L 418.33 868.50 L 430.27 871.21 L 442.21 871.22 L 454.15 870.68 L 466.10 868.66 L 478.04 871.64 L 489.98 870.47 L 501.92 870.28 L 513.87 868.61 L 525.81 866.44 L 537.75 862.04 L 549.69 861.89 L 561.63 859.77 L 573.58 855.68 L 585.52 852.67 L 597.46 852.09 L 609.40 851.52 L 621.35 850.23 L 633.29 846.05 L 645.23 841.85 L 657.17 839.49 L 669.12 835.06 L 681.06 829.73 L 693.00 824.42 L 704.94 817.93 L 716.88 812.32 L 728.83 808.32 L 740.77 806.31 L 752.71 802.41 L 764.65 800.70 L 776.60 799.38 L 788.54 799.17 L 800.48 800.66 L 812.42 802.05 L 824.37 801.50 L 836.31 800.57 L 848.25 799.47 L 860.19 800.02 L 872.13 799.70 L 884.08 800.43 L 896.02 802.01 L 907.96 801.40 L 919.90 800.95 L 931.85 793.89 L 943.79 788.31 L 955.73 785.43 L 967.67 783.42 L 979.62 779.11 L 991.56 775.54 L 1003.50 770.14 L 1015.44 769.03 L 1027.38 766.86 L 1039.33 764.50 L 1051.27 762.07 L 1063.21 761.26 L 1075.15 761.53 L 1087.10 762.61 L 1099.04 763.12 L 1110.98 766.26 L 1122.92 767.32 L 1134.87 761.40 L 1146.81 757.79 L 1158.75 757.99 L 1170.69 757.36 L 1182.63 757.50 L 1194.58 758.12 L 1206.52 760.89 L 1218.46 762.32 L 1230.40 762.76 L 1242.35 764.97 L 1254.29 763.29 L 1266.23 759.94 L 1278.17 758.75 L 1290.12 757.02 L 1302.06 755.41 L 1314.00 754.36" fill="none" stroke="#ef4444" stroke-width="2"/>
<path d="M 72.00 780.18 L 83.94 778.44 L 95.88 777.53 L 107.83 777.62 L 119.77 778.77 L 131.71 780.18 L 143.65 781.94 L 155.60 784.42 L 167.54 787.27 L 179.48 790.33 L 191.42 793.30 L 203.37 797.00 L 215.31 800.29 L 227.25 803.01 L 239.19 805.14 L 251.13 806.56 L 263.08 807.96 L 275.02 809.67 L 286.96 812.19 L 298.90 814.79 L 310.85 817.80 L 322.79 820.67 L 334.73 823.21 L 346.67 825.43 L 358.62 828.27 L 370.56 831.18 L 382.50 834.27 L 394.44 838.83 L 406.38 844.14 L 418.33 849.01 L 430.27 853.45 L 442.21 857.01 L 454.15 859.74 L 466.10 861.53 L 478.04 863.55 L 489.98 864.93 L 501.92 866.00 L 513.87 866.52 L 525.81 866.51 L 537.75 865.61 L 549.69 864.87 L 561.63 863.85 L 573.58 862.22 L 585.52 860.31 L 597.46 858.66 L 609.40 857.23 L 621.35 855.83 L 633.29 853.88 L 645.23 851.47 L 657.17 849.08 L 669.12 846.27 L 681.06 842.96 L 693.00 839.25 L 704.94 834.99 L 716.88 830.45 L 728.83 826.03 L 740.77 822.09 L 752.71 818.15 L 764.65 814.66 L 776.60 811.61 L 788.54 809.12 L 800.48 807.43 L 812.42 806.35 L 824.37 805.38 L 836.31 804.42 L 848.25 803.43 L 860.19 802.75 L 872.13 802.14 L 884.08 801.80 L 896.02 801.84 L 907.96 801.75 L 919.90 801.59 L 931.85 800.05 L 943.79 797.70 L 955.73 795.25 L 967.67 792.88 L 979.62 790.13 L 991.56 787.21 L 1003.50 783.80 L 1015.44 780.84 L 1027.38 778.05 L 1039.33 775.34 L 1051.27 772.68 L 1063.21 770.40 L 1075.15 768.63 L 1087.10 767.42 L 1099.04 766.56 L 1110.98 766.50 L 1122.92 766.66 L 1134.87 765.61 L 1146.81 764.05 L 1158.75 762.84 L 1170.69 761.74 L 1182.63 760.89 L 1194.58 760.34 L 1206.52 760.45 L 1218.46 760.82 L 1230.40 761.21 L 1242.35 761.96 L 1254.29 762.23 L 1266.23 761.77 L 1278.17 761.17 L 1290.12 760.34 L 1302.06 759.35 L 1314.00 758.35" fill="none" stroke="#3f5bff" stroke-width="2"/>
<text x="78" y="918" class="label">RSI 14</text>
<text x="1321" y="912" class="small">100.00</text>
<text x="1321" y="1006" class="small">0.00</text>
<line x1="72" y1="973.92" x2="1314" y2="973.92" stroke="#4775d1" stroke-dasharray="5 5"/>
<line x1="72" y1="955.00" x2="1314" y2="955.00" stroke="#e05a5a" stroke-dasharray="5 5"/>
<line x1="72" y1="936.08" x2="1314" y2="936.08" stroke="#e05a5a" stroke-dasharray="5 5"/>
<path d="M 72.00 941.10 L 83.94 946.40 L 95.88 949.73 L 107.83 954.10 L 119.77 957.98 L 131.71 953.73 L 143.65 955.93 L 155.60 961.30 L 167.54 961.37 L 179.48 962.22 L 191.42 961.14 L 203.37 969.25 L 215.31 960.90 L 227.25 959.05 L 239.19 958.24 L 251.13 955.44 L 263.08 960.79 L 275.02 964.35 L 286.96 969.71 L 298.90 966.37 L 310.85 970.00 L 322.79 967.54 L 334.73 966.83 L 346.67 967.34 L 358.62 974.17 L 370.56 972.55 L 382.50 974.81 L 394.44 981.95 L 406.38 982.47 L 418.33 975.72 L 430.27 976.67 L 442.21 973.36 L 454.15 973.62 L 466.10 971.45 L 478.04 977.18 L 489.98 970.73 L 501.92 972.38 L 513.87 970.61 L 525.81 970.32 L 537.75 965.52 L 549.69 970.78 L 561.63 967.67 L 573.58 963.73 L 585.52 964.91 L 597.46 968.26 L 609.40 968.85 L 621.35 968.13 L 633.29 961.59 L 645.23 960.58 L 657.17 963.10 L 669.12 957.96 L 681.06 954.72 L 693.00 952.98 L 704.94 948.84 L 716.88 948.16 L 728.83 949.51 L 740.77 952.59 L 752.71 947.73 L 764.65 951.22 L 776.60 951.22 L 788.54 953.36 L 800.48 957.50 L 812.42 957.99 L 824.37 953.45 L 836.31 952.11 L 848.25 951.06 L 860.19 955.25 L 872.13 952.97 L 884.08 955.85 L 896.02 958.70 L 907.96 953.06 L 919.90 953.06 L 931.85 938.62 L 943.79 938.38 L 955.73 942.72 L 967.67 942.84 L 979.62 937.65 L 991.56 936.91 L 1003.50 932.78 L 1015.44 941.54 L 1027.38 938.93 L 1039.33 937.39 L 1051.27 935.94 L 1063.21 938.02 L 1075.15 939.48 L 1087.10 940.84 L 1099.04 939.36 L 1110.98 947.06 L 1122.92 943.34 L 1134.87 933.10 L 1146.81 934.71 L 1158.75 941.65 L 1170.69 939.82 L 1182.63 940.14 L 1194.58 940.14 L 1206.52 945.35 L 1218.46 943.15 L 1230.40 941.17 L 1242.35 945.41 L 1254.29 939.04 L 1266.23 935.77 L 1278.17 938.50 L 1290.12 936.73 L 1302.06 935.68 L 1314.00 935.26" fill="none" stroke="#ef4444" stroke-width="2"/>
<text x="78" y="1040" class="label">MFI 14</text>
<text x="1321" y="1034" class="small">100.00</text>
<text x="1321" y="1128" class="small">0.00</text>
<line x1="72" y1="1095.92" x2="1314" y2="1095.92" stroke="#4775d1" stroke-dasharray="5 5"/>
<line x1="72" y1="1077.00" x2="1314" y2="1077.00" stroke="#e05a5a" stroke-dasharray="5 5"/>
<line x1="72" y1="1058.08" x2="1314" y2="1058.08" stroke="#e05a5a" stroke-dasharray="5 5"/>
<path d="M 72.00 1068.50 L 83.94 1074.51 L 95.88 1072.98 L 107.83 1074.62 L 119.77 1077.59 L 131.71 1076.28 L 143.65 1080.38 L 155.60 1090.03 L 167.54 1091.14 L 179.48 1086.03 L 191.42 1089.49 L 203.37 1097.02 L 215.31 1086.98 L 227.25 1078.37 L 239.19 1078.97 L 251.13 1072.06 L 263.08 1071.99 L 275.02 1069.94 L 286.96 1069.74 L 298.90 1068.80 L 310.85 1073.56 L 322.79 1071.31 L 334.73 1062.98 L 346.67 1067.67 L 358.62 1072.24 L 370.56 1071.70 L 382.50 1075.35 L 394.44 1084.45 L 406.38 1093.08 L 418.33 1092.09 L 430.27 1092.48 L 442.21 1087.01 L 454.15 1086.67 L 466.10 1088.23 L 478.04 1090.59 L 489.98 1086.72 L 501.92 1093.48 L 513.87 1089.48 L 525.81 1087.85 L 537.75 1081.69 L 549.69 1085.69 L 561.63 1083.29 L 573.58 1078.31 L 585.52 1085.20 L 597.46 1082.55 L 609.40 1090.24 L 621.35 1089.07 L 633.29 1092.50 L 645.23 1076.66 L 657.17 1083.88 L 669.12 1078.25 L 681.06 1078.03 L 693.00 1071.89 L 704.94 1072.51 L 716.88 1065.64 L 728.83 1063.20 L 740.77 1068.72 L 752.71 1064.54 L 764.65 1057.31 L 776.60 1058.46 L 788.54 1051.92 L 800.48 1057.84 L 812.42 1063.96 L 824.37 1058.31 L 836.31 1057.54 L 848.25 1061.93 L 860.19 1071.06 L 872.13 1069.78 L 884.08 1068.18 L 896.02 1070.26 L 907.96 1065.55 L 919.90 1068.77 L 931.85 1063.59 L 943.79 1053.75 L 955.73 1060.83 L 967.67 1060.33 L 979.62 1056.21 L 991.56 1055.73 L 1003.50 1055.19 L 1015.44 1061.11 L 1027.38 1054.42 L 1039.33 1054.12 L 1051.27 1053.60 L 1063.21 1052.67 L 1075.15 1056.78 L 1087.10 1060.16 L 1099.04 1062.89 L 1110.98 1071.88 L 1122.92 1065.30 L 1134.87 1057.88 L 1146.81 1057.81 L 1158.75 1064.41 L 1170.69 1071.66 L 1182.63 1063.12 L 1194.58 1068.48 L 1206.52 1073.74 L 1218.46 1076.11 L 1230.40 1070.92 L 1242.35 1069.43 L 1254.29 1061.99 L 1266.23 1060.94 L 1278.17 1055.53 L 1290.12 1055.72 L 1302.06 1058.17 L 1314.00 1055.38" fill="none" stroke="#f05252" stroke-width="2"/>
<rect x="638.00" y="48" width="110" height="22" rx="4" fill="#30343b"/>
<text x="693.00" y="64" text-anchor="middle" style="font-size:12px;fill:#fff;font-weight:700">MMRM 기준봉</text>
<text x="72.00" y="1152" text-anchor="middle" class="small">이전 52주</text>
<text x="382.50" y="1152" text-anchor="middle" class="small">-26</text>
<text x="693.00" y="1152" text-anchor="middle" class="small">T0</text>
<text x="1003.50" y="1152" text-anchor="middle" class="small">+26</text>
<text x="1314.00" y="1152" text-anchor="middle" class="small">이후 52주</text>
</svg>