<svg xmlns="http://www.w3.org/2000/svg" width="1400" height="1120" viewBox="0 0 1400 1120">
<rect width="100%" height="100%" fill="#ffffff"/>
<style>text{font-family:Segoe UI,Arial,sans-serif;fill:#30343b}.small{font-size:12px}.label{font-size:14px;font-weight:600}.title{font-size:18px;font-weight:700}</style>
<text x="72" y="25" class="title">GILD · MMRM 2017-06-26 · 시가총액 93위 · T-52 ~ T+52</text>
<rect x="72" y="42" width="1242" height="390" fill="#fcfcfc" stroke="#d7dce2"/>
<line x1="72.00" y1="42" x2="72.00" y2="432" stroke="#e2e5e9" stroke-width="1"/>
<line x1="382.50" y1="42" x2="382.50" y2="432" stroke="#e2e5e9" stroke-width="1"/>
<line x1="693.00" y1="42" x2="693.00" y2="432" stroke="#656d78" stroke-width="2.2"/>
<line x1="1003.50" y1="42" x2="1003.50" y2="432" stroke="#e2e5e9" stroke-width="1"/>
<line x1="1314.00" y1="42" x2="1314.00" y2="432" stroke="#e2e5e9" stroke-width="1"/>
<rect x="72" y="444" width="1242" height="150" fill="#fcfcfc" stroke="#d7dce2"/>
<line x1="72.00" y1="444" x2="72.00" y2="594" stroke="#e2e5e9" stroke-width="1"/>
<line x1="382.50" y1="444" x2="382.50" y2="594" stroke="#e2e5e9" stroke-width="1"/>
<line x1="693.00" y1="444" x2="693.00" y2="594" stroke="#656d78" stroke-width="2.2"/>
<line x1="1003.50" y1="444" x2="1003.50" y2="594" stroke="#e2e5e9" stroke-width="1"/>
<line x1="1314.00" y1="444" x2="1314.00" y2="594" stroke="#e2e5e9" stroke-width="1"/>
<rect x="72" y="606" width="1242" height="120" fill="#fcfcfc" stroke="#d7dce2"/>
<line x1="72.00" y1="606" x2="72.00" y2="726" stroke="#e2e5e9" stroke-width="1"/>
<line x1="382.50" y1="606" x2="382.50" y2="726" stroke="#e2e5e9" stroke-width="1"/>
<line x1="693.00" y1="606" x2="693.00" y2="726" stroke="#656d78" stroke-width="2.2"/>
<line x1="1003.50" y1="606" x2="1003.50" y2="726" stroke="#e2e5e9" stroke-width="1"/>
<line x1="1314.00" y1="606" x2="1314.00" y2="726" stroke="#e2e5e9" stroke-width="1"/>
<rect x="72" y="738" width="1242" height="150" fill="#fcfcfc" stroke="#d7dce2"/>
<line x1="72.00" y1="738" x2="72.00" y2="888" stroke="#e2e5e9" stroke-width="1"/>
<line x1="382.50" y1="738" x2="382.50" y2="888" stroke="#e2e5e9" stroke-width="1"/>
<line x1="693.00" y1="738" x2="693.00" y2="888" stroke="#656d78" stroke-width="2.2"/>
<line x1="1003.50" y1="738" x2="1003.50" y2="888" stroke="#e2e5e9" stroke-width="1"/>
<line x1="1314.00" y1="738" x2="1314.00" y2="888" stroke="#e2e5e9" stroke-width="1"/>
<rect x="72" y="900" width="1242" height="110" fill="#fcfcfc" stroke="#d7dce2"/>
<line x1="72.00" y1="900" x2="72.00" y2="1010" stroke="#e2e5e9" stroke-width="1"/>
<line x1="382.50" y1="900" x2="382.50" y2="1010" stroke="#e2e5e9" stroke-width="1"/>
<line x1="693.00" y1="900" x2="693.00" y2="1010" stroke="#656d78" stroke-width="2.2"/>
<line x1="1003.50" y1="900" x2="1003.50" y2="1010" stroke="#e2e5e9" stroke-width="1"/>
<line x1="1314.00" y1="900" x2="1314.00" y2="1010" stroke="#e2e5e9" stroke-width="1"/>
<rect x="72" y="1022" width="1242" height="110" fill="#fcfcfc" stroke="#d7dce2"/>
<line x1="72.00" y1="1022" x2="72.00" y2="1132" stroke="#e2e5e9" stroke-width="1"/>
<line x1="382.50" y1="1022" x2="382.50" y2="1132" stroke="#e2e5e9" stroke-width="1"/>
<line x1="693.00" y1="1022" x2="693.00" y2="1132" stroke="#656d78" stroke-width="2.2"/>
<line x1="1003.50" y1="1022" x2="1003.50" y2="1132" stroke="#e2e5e9" stroke-width="1"/>
<line x1="1314.00" y1="1022" x2="1314.00" y2="1132" stroke="#e2e5e9" stroke-width="1"/>
<text x="78" y="60" class="label">주봉 가격 · MA 5/20/50/150/200</text>
<text x="1321" y="54" class="small">98.72</text>
<text x="1321" y="428" class="small">62.10</text>
<line x1="72.00" y1="192.18" x2="72.00" y2="259.77" stroke="#ef3b3b"/>
<rect x="68.75" y="196.21" width="6.51" height="45.43" fill="#ef3b3b" stroke="#ef3b3b"/>
<line x1="83.94" y1="177.17" x2="83.94" y2="210.23" stroke="#ef3b3b"/>
<rect x="80.69" y="180.74" width="6.51" height="17.13" fill="#ef3b3b" stroke="#ef3b3b"/>
<line x1="95.88" y1="167.82" x2="95.88" y2="192.46" stroke="#ef3b3b"/>
<rect x="92.63" y="179.64" width="6.51" height="1.20" fill="#ef3b3b" stroke="#ef3b3b"/>
<line x1="107.83" y1="169.01" x2="107.83" y2="194.02" stroke="#3156d9"/>
<rect x="104.57" y="177.17" width="6.51" height="3.57" fill="#ffffff" stroke="#3156d9"/>
<line x1="119.77" y1="159.67" x2="119.77" y2="246.49" stroke="#3156d9"/>
<rect x="116.52" y="180.55" width="6.51" height="65.02" fill="#ffffff" stroke="#3156d9"/>
<line x1="131.71" y1="229.64" x2="131.71" y2="248.87" stroke="#ef3b3b"/>
<rect x="128.46" y="236.97" width="6.51" height="5.50" fill="#ef3b3b" stroke="#ef3b3b"/>
<line x1="143.65" y1="233.49" x2="143.65" y2="254.92" stroke="#3156d9"/>
<rect x="140.40" y="236.51" width="6.51" height="7.33" fill="#ffffff" stroke="#3156d9"/>
<line x1="155.60" y1="229.09" x2="155.60" y2="247.68" stroke="#ef3b3b"/>
<rect x="152.34" y="231.57" width="6.51" height="10.26" fill="#ef3b3b" stroke="#ef3b3b"/>
<line x1="167.54" y1="221.49" x2="167.54" y2="247.41" stroke="#3156d9"/>
<rect x="164.29" y="232.57" width="6.51" height="10.26" fill="#ffffff" stroke="#3156d9"/>
<line x1="179.48" y1="243.47" x2="179.48" y2="271.22" stroke="#3156d9"/>
<rect x="176.23" y="243.93" width="6.51" height="25.28" fill="#ffffff" stroke="#3156d9"/>
<line x1="191.42" y1="248.60" x2="191.42" y2="265.91" stroke="#ef3b3b"/>
<rect x="188.17" y="258.58" width="6.51" height="2.47" fill="#ef3b3b" stroke="#ef3b3b"/>
<line x1="203.37" y1="248.05" x2="203.37" y2="265.73" stroke="#ef3b3b"/>
<rect x="200.11" y="251.71" width="6.51" height="10.17" fill="#ef3b3b" stroke="#ef3b3b"/>
<line x1="215.31" y1="221.77" x2="215.31" y2="251.62" stroke="#ef3b3b"/>
<rect x="212.05" y="228.18" width="6.51" height="22.44" fill="#ef3b3b" stroke="#ef3b3b"/>
<line x1="227.25" y1="230.37" x2="227.25" y2="261.33" stroke="#3156d9"/>
<rect x="224.00" y="231.57" width="6.51" height="17.22" fill="#ffffff" stroke="#3156d9"/>
<line x1="239.19" y1="250.16" x2="239.19" y2="287.25" stroke="#3156d9"/>
<rect x="235.94" y="253.27" width="6.51" height="31.05" fill="#ffffff" stroke="#3156d9"/>
<line x1="251.13" y1="277.63" x2="251.13" y2="312.07" stroke="#3156d9"/>
<rect x="247.88" y="281.94" width="6.51" height="25.19" fill="#ffffff" stroke="#3156d9"/>
<line x1="263.08" y1="287.06" x2="263.08" y2="311.15" stroke="#ef3b3b"/>
<rect x="259.82" y="293.02" width="6.51" height="16.03" fill="#ef3b3b" stroke="#ef3b3b"/>
<line x1="275.02" y1="274.06" x2="275.02" y2="302.73" stroke="#3156d9"/>
<rect x="271.77" y="291.00" width="6.51" height="5.77" fill="#ffffff" stroke="#3156d9"/>
<line x1="286.96" y1="291.64" x2="286.96" y2="319.58" stroke="#3156d9"/>
<rect x="283.71" y="294.85" width="6.51" height="15.20" fill="#ffffff" stroke="#3156d9"/>
<line x1="298.90" y1="240.72" x2="298.90" y2="304.37" stroke="#ef3b3b"/>
<rect x="295.65" y="273.51" width="6.51" height="26.93" fill="#ef3b3b" stroke="#ef3b3b"/>
<line x1="310.85" y1="267.01" x2="310.85" y2="293.38" stroke="#3156d9"/>
<rect x="307.59" y="267.83" width="6.51" height="22.16" fill="#ffffff" stroke="#3156d9"/>
<line x1="322.79" y1="281.48" x2="322.79" y2="297.87" stroke="#ef3b3b"/>
<rect x="319.54" y="282.49" width="6.51" height="7.14" fill="#ef3b3b" stroke="#ef3b3b"/>
<line x1="334.73" y1="282.49" x2="334.73" y2="312.52" stroke="#3156d9"/>
<rect x="331.48" y="283.77" width="6.51" height="26.38" fill="#ffffff" stroke="#3156d9"/>
<line x1="346.67" y1="303.64" x2="346.67" y2="324.71" stroke="#3156d9"/>
<rect x="343.42" y="306.76" width="6.51" height="1.20" fill="#ffffff" stroke="#3156d9"/>
<line x1="358.62" y1="274.43" x2="358.62" y2="312.80" stroke="#ef3b3b"/>
<rect x="355.36" y="294.76" width="6.51" height="14.10" fill="#ef3b3b" stroke="#ef3b3b"/>
<line x1="370.56" y1="283.77" x2="370.56" y2="305.56" stroke="#ef3b3b"/>
<rect x="367.30" y="298.97" width="6.51" height="1.20" fill="#ef3b3b" stroke="#ef3b3b"/>
<line x1="382.50" y1="288.35" x2="382.50" y2="320.40" stroke="#3156d9"/>
<rect x="379.25" y="300.07" width="6.51" height="17.49" fill="#ffffff" stroke="#3156d9"/>
<line x1="394.44" y1="268.38" x2="394.44" y2="312.34" stroke="#ef3b3b"/>
<rect x="391.19" y="282.03" width="6.51" height="28.85" fill="#ef3b3b" stroke="#ef3b3b"/>
<line x1="406.38" y1="272.78" x2="406.38" y2="305.47" stroke="#3156d9"/>
<rect x="403.13" y="278.00" width="6.51" height="26.19" fill="#ffffff" stroke="#3156d9"/>
<line x1="418.33" y1="305.56" x2="418.33" y2="326.99" stroke="#3156d9"/>
<rect x="415.07" y="305.56" width="6.51" height="17.49" fill="#ffffff" stroke="#3156d9"/>
<line x1="430.27" y1="310.88" x2="430.27" y2="334.32" stroke="#ef3b3b"/>
<rect x="427.02" y="320.77" width="6.51" height="3.57" fill="#ef3b3b" stroke="#ef3b3b"/>
<line x1="442.21" y1="305.93" x2="442.21" y2="325.44" stroke="#ef3b3b"/>
<rect x="438.96" y="310.88" width="6.51" height="12.27" fill="#ef3b3b" stroke="#ef3b3b"/>
<line x1="454.15" y1="302.08" x2="454.15" y2="374.62" stroke="#3156d9"/>
<rect x="450.90" y="313.81" width="6.51" height="51.84" fill="#ffffff" stroke="#3156d9"/>
<line x1="466.10" y1="325.07" x2="466.10" y2="364.36" stroke="#ef3b3b"/>
<rect x="462.84" y="333.68" width="6.51" height="27.84" fill="#ef3b3b" stroke="#ef3b3b"/>
<line x1="478.04" y1="331.67" x2="478.04" y2="346.69" stroke="#3156d9"/>
<rect x="474.79" y="332.31" width="6.51" height="1.20" fill="#ffffff" stroke="#3156d9"/>
<line x1="489.98" y1="323.24" x2="489.98" y2="334.14" stroke="#ef3b3b"/>
<rect x="486.73" y="325.53" width="6.51" height="8.43" fill="#ef3b3b" stroke="#ef3b3b"/>
<line x1="501.92" y1="326.81" x2="501.92" y2="355.66" stroke="#3156d9"/>
<rect x="498.67" y="327.18" width="6.51" height="21.71" fill="#ffffff" stroke="#3156d9"/>
<line x1="513.87" y1="333.41" x2="513.87" y2="356.12" stroke="#ef3b3b"/>
<rect x="510.61" y="340.92" width="6.51" height="6.78" fill="#ef3b3b" stroke="#ef3b3b"/>
<line x1="525.81" y1="339.54" x2="525.81" y2="357.95" stroke="#3156d9"/>
<rect x="522.55" y="342.01" width="6.51" height="13.10" fill="#ffffff" stroke="#3156d9"/>
<line x1="537.75" y1="347.60" x2="537.75" y2="361.61" stroke="#ef3b3b"/>
<rect x="534.50" y="351.36" width="6.51" height="7.42" fill="#ef3b3b" stroke="#ef3b3b"/>
<line x1="549.69" y1="350.44" x2="549.69" y2="366.83" stroke="#3156d9"/>
<rect x="546.44" y="352.00" width="6.51" height="11.63" fill="#ffffff" stroke="#3156d9"/>
<line x1="561.63" y1="357.58" x2="561.63" y2="370.86" stroke="#3156d9"/>
<rect x="558.38" y="363.81" width="6.51" height="1.20" fill="#ffffff" stroke="#3156d9"/>
<line x1="573.58" y1="358.41" x2="573.58" y2="371.69" stroke="#3156d9"/>
<rect x="570.32" y="361.52" width="6.51" height="8.06" fill="#ffffff" stroke="#3156d9"/>
<line x1="585.52" y1="341.83" x2="585.52" y2="371.60" stroke="#ef3b3b"/>
<rect x="582.27" y="345.59" width="6.51" height="18.87" fill="#ef3b3b" stroke="#ef3b3b"/>
<line x1="597.46" y1="340.00" x2="597.46" y2="366.47" stroke="#3156d9"/>
<rect x="594.21" y="345.68" width="6.51" height="6.78" fill="#ffffff" stroke="#3156d9"/>
<line x1="609.40" y1="352.27" x2="609.40" y2="371.32" stroke="#3156d9"/>
<rect x="606.15" y="352.64" width="6.51" height="15.75" fill="#ffffff" stroke="#3156d9"/>
<line x1="621.35" y1="367.38" x2="621.35" y2="388.36" stroke="#3156d9"/>
<rect x="618.09" y="368.21" width="6.51" height="16.94" fill="#ffffff" stroke="#3156d9"/>
<line x1="633.29" y1="379.66" x2="633.29" y2="386.16" stroke="#ef3b3b"/>
<rect x="630.04" y="382.68" width="6.51" height="2.38" fill="#ef3b3b" stroke="#ef3b3b"/>
<line x1="645.23" y1="371.60" x2="645.23" y2="385.61" stroke="#ef3b3b"/>
<rect x="641.98" y="374.43" width="6.51" height="8.52" fill="#ef3b3b" stroke="#ef3b3b"/>
<line x1="657.17" y1="370.86" x2="657.17" y2="387.71" stroke="#3156d9"/>
<rect x="653.92" y="372.69" width="6.51" height="8.15" fill="#ffffff" stroke="#3156d9"/>
<line x1="669.12" y1="362.53" x2="669.12" y2="389.45" stroke="#3156d9"/>
<rect x="665.86" y="381.76" width="6.51" height="4.40" fill="#ffffff" stroke="#3156d9"/>
<line x1="681.06" y1="319.12" x2="681.06" y2="387.07" stroke="#ef3b3b"/>
<rect x="677.80" y="327.54" width="6.51" height="57.97" fill="#ef3b3b" stroke="#ef3b3b"/>
<line x1="693.00" y1="312.43" x2="693.00" y2="332.12" stroke="#3156d9"/>
<rect x="689.75" y="320.86" width="6.51" height="4.30" fill="#ffffff" stroke="#3156d9"/>
<line x1="704.94" y1="317.65" x2="704.94" y2="345.68" stroke="#3156d9"/>
<rect x="701.69" y="322.14" width="6.51" height="17.03" fill="#ffffff" stroke="#3156d9"/>
<line x1="716.88" y1="322.87" x2="716.88" y2="345.04" stroke="#ef3b3b"/>
<rect x="713.63" y="327.09" width="6.51" height="12.18" fill="#ef3b3b" stroke="#ef3b3b"/>
<line x1="728.83" y1="291.92" x2="728.83" y2="328.64" stroke="#ef3b3b"/>
<rect x="725.57" y="297.87" width="6.51" height="29.12" fill="#ef3b3b" stroke="#ef3b3b"/>
<line x1="740.77" y1="277.08" x2="740.77" y2="303.09" stroke="#ef3b3b"/>
<rect x="737.52" y="277.91" width="6.51" height="20.51" fill="#ef3b3b" stroke="#ef3b3b"/>
<line x1="752.71" y1="272.87" x2="752.71" y2="308.68" stroke="#3156d9"/>
<rect x="749.46" y="277.36" width="6.51" height="26.01" fill="#ffffff" stroke="#3156d9"/>
<line x1="764.65" y1="289.45" x2="764.65" y2="315.64" stroke="#3156d9"/>
<rect x="761.40" y="306.66" width="6.51" height="3.66" fill="#ffffff" stroke="#3156d9"/>
<line x1="776.60" y1="297.78" x2="776.60" y2="315.55" stroke="#3156d9"/>
<rect x="773.34" y="306.02" width="6.51" height="6.96" fill="#ffffff" stroke="#3156d9"/>
<line x1="788.54" y1="291.74" x2="788.54" y2="313.26" stroke="#ef3b3b"/>
<rect x="785.29" y="297.60" width="6.51" height="15.66" fill="#ef3b3b" stroke="#ef3b3b"/>
<line x1="800.48" y1="202.90" x2="800.48" y2="293.84" stroke="#ef3b3b"/>
<rect x="797.23" y="206.38" width="6.51" height="81.05" fill="#ef3b3b" stroke="#ef3b3b"/>
<line x1="812.42" y1="183.30" x2="812.42" y2="228.36" stroke="#ef3b3b"/>
<rect x="809.17" y="194.02" width="6.51" height="17.03" fill="#ef3b3b" stroke="#ef3b3b"/>
<line x1="824.37" y1="185.77" x2="824.37" y2="226.35" stroke="#3156d9"/>
<rect x="821.11" y="188.70" width="6.51" height="30.41" fill="#ffffff" stroke="#3156d9"/>
<line x1="836.31" y1="208.67" x2="836.31" y2="226.62" stroke="#ef3b3b"/>
<rect x="833.05" y="210.78" width="6.51" height="6.78" fill="#ef3b3b" stroke="#ef3b3b"/>
<line x1="848.25" y1="197.40" x2="848.25" y2="247.96" stroke="#3156d9"/>
<rect x="845.00" y="209.49" width="6.51" height="21.89" fill="#ffffff" stroke="#3156d9"/>
<line x1="860.19" y1="201.98" x2="860.19" y2="229.92" stroke="#ef3b3b"/>
<rect x="856.94" y="221.13" width="6.51" height="8.52" fill="#ef3b3b" stroke="#ef3b3b"/>
<line x1="872.13" y1="210.59" x2="872.13" y2="234.77" stroke="#3156d9"/>
<rect x="868.88" y="219.11" width="6.51" height="10.90" fill="#ffffff" stroke="#3156d9"/>
<line x1="884.08" y1="218.10" x2="884.08" y2="244.84" stroke="#ef3b3b"/>
<rect x="880.82" y="229.64" width="6.51" height="1.20" fill="#ef3b3b" stroke="#ef3b3b"/>
<line x1="896.02" y1="228.63" x2="896.02" y2="307.03" stroke="#3156d9"/>
<rect x="892.77" y="229.28" width="6.51" height="38.28" fill="#ffffff" stroke="#3156d9"/>
<line x1="907.96" y1="268.84" x2="907.96" y2="306.39" stroke="#3156d9"/>
<rect x="904.71" y="276.44" width="6.51" height="24.18" fill="#ffffff" stroke="#3156d9"/>
<line x1="919.90" y1="294.94" x2="919.90" y2="312.98" stroke="#ef3b3b"/>
<rect x="916.65" y="297.78" width="6.51" height="4.40" fill="#ef3b3b" stroke="#ef3b3b"/>
<line x1="931.85" y1="301.26" x2="931.85" y2="331.85" stroke="#3156d9"/>
<rect x="928.59" y="302.54" width="6.51" height="7.42" fill="#ffffff" stroke="#3156d9"/>
<line x1="943.79" y1="304.01" x2="943.79" y2="318.11" stroke="#ef3b3b"/>
<rect x="940.54" y="309.78" width="6.51" height="1.20" fill="#ef3b3b" stroke="#ef3b3b"/>
<line x1="955.73" y1="280.93" x2="955.73" y2="319.49" stroke="#ef3b3b"/>
<rect x="952.48" y="283.40" width="6.51" height="25.92" fill="#ef3b3b" stroke="#ef3b3b"/>
<line x1="967.67" y1="281.20" x2="967.67" y2="312.07" stroke="#3156d9"/>
<rect x="964.42" y="282.30" width="6.51" height="11.36" fill="#ffffff" stroke="#3156d9"/>
<line x1="979.62" y1="266.82" x2="979.62" y2="295.03" stroke="#ef3b3b"/>
<rect x="976.36" y="281.30" width="6.51" height="8.88" fill="#ef3b3b" stroke="#ef3b3b"/>
<line x1="991.56" y1="272.96" x2="991.56" y2="310.60" stroke="#3156d9"/>
<rect x="988.30" y="277.08" width="6.51" height="30.41" fill="#ffffff" stroke="#3156d9"/>
<line x1="1003.50" y1="300.89" x2="1003.50" y2="317.56" stroke="#3156d9"/>
<rect x="1000.25" y="308.68" width="6.51" height="8.61" fill="#ffffff" stroke="#3156d9"/>
<line x1="1015.44" y1="285.87" x2="1015.44" y2="316.55" stroke="#ef3b3b"/>
<rect x="1012.19" y="290.91" width="6.51" height="21.34" fill="#ef3b3b" stroke="#ef3b3b"/>
<line x1="1027.38" y1="243.65" x2="1027.38" y2="300.80" stroke="#ef3b3b"/>
<rect x="1024.13" y="249.70" width="6.51" height="42.86" fill="#ef3b3b" stroke="#ef3b3b"/>
<line x1="1039.33" y1="221.77" x2="1039.33" y2="245.12" stroke="#ef3b3b"/>
<rect x="1036.07" y="231.75" width="6.51" height="11.26" fill="#ef3b3b" stroke="#ef3b3b"/>
<line x1="1051.27" y1="190.44" x2="1051.27" y2="235.41" stroke="#ef3b3b"/>
<rect x="1048.02" y="190.72" width="6.51" height="38.01" fill="#ef3b3b" stroke="#ef3b3b"/>
<line x1="1063.21" y1="153.35" x2="1063.21" y2="229.92" stroke="#3156d9"/>
<rect x="1059.96" y="193.83" width="6.51" height="31.05" fill="#ffffff" stroke="#3156d9"/>
<line x1="1075.15" y1="198.78" x2="1075.15" y2="277.17" stroke="#3156d9"/>
<rect x="1071.90" y="227.90" width="6.51" height="19.05" fill="#ffffff" stroke="#3156d9"/>
<line x1="1087.10" y1="219.38" x2="1087.10" y2="253.09" stroke="#ef3b3b"/>
<rect x="1083.84" y="234.31" width="6.51" height="8.52" fill="#ef3b3b" stroke="#ef3b3b"/>
<line x1="1099.04" y1="223.05" x2="1099.04" y2="248.23" stroke="#ef3b3b"/>
<rect x="1095.79" y="232.39" width="6.51" height="6.41" fill="#ef3b3b" stroke="#ef3b3b"/>
<line x1="1110.98" y1="222.04" x2="1110.98" y2="273.69" stroke="#3156d9"/>
<rect x="1107.73" y="229.18" width="6.51" height="23.54" fill="#ffffff" stroke="#3156d9"/>
<line x1="1122.92" y1="231.11" x2="1122.92" y2="266.92" stroke="#ef3b3b"/>
<rect x="1119.67" y="234.13" width="6.51" height="22.90" fill="#ef3b3b" stroke="#ef3b3b"/>
<line x1="1134.87" y1="215.81" x2="1134.87" y2="247.41" stroke="#3156d9"/>
<rect x="1131.61" y="232.21" width="6.51" height="10.90" fill="#ffffff" stroke="#3156d9"/>
<line x1="1146.81" y1="245.30" x2="1146.81" y2="307.30" stroke="#3156d9"/>
<rect x="1143.55" y="247.04" width="6.51" height="59.25" fill="#ffffff" stroke="#3156d9"/>
<line x1="1158.75" y1="275.62" x2="1158.75" y2="299.79" stroke="#ef3b3b"/>
<rect x="1155.50" y="282.94" width="6.51" height="11.17" fill="#ef3b3b" stroke="#ef3b3b"/>
<line x1="1170.69" y1="277.54" x2="1170.69" y2="315.18" stroke="#3156d9"/>
<rect x="1167.44" y="287.16" width="6.51" height="13.92" fill="#ffffff" stroke="#3156d9"/>
<line x1="1182.63" y1="275.07" x2="1182.63" y2="303.46" stroke="#ef3b3b"/>
<rect x="1179.38" y="284.50" width="6.51" height="12.27" fill="#ef3b3b" stroke="#ef3b3b"/>
<line x1="1194.58" y1="276.72" x2="1194.58" y2="303.18" stroke="#3156d9"/>
<rect x="1191.32" y="278.55" width="6.51" height="19.87" fill="#ffffff" stroke="#3156d9"/>
<line x1="1206.52" y1="292.74" x2="1206.52" y2="313.17" stroke="#3156d9"/>
<rect x="1203.27" y="294.94" width="6.51" height="2.01" fill="#ffffff" stroke="#3156d9"/>
<line x1="1218.46" y1="293.66" x2="1218.46" y2="384.78" stroke="#3156d9"/>
<rect x="1215.21" y="295.12" width="6.51" height="79.13" fill="#ffffff" stroke="#3156d9"/>
<line x1="1230.40" y1="362.07" x2="1230.40" y2="383.32" stroke="#ef3b3b"/>
<rect x="1227.15" y="367.47" width="6.51" height="4.12" fill="#ef3b3b" stroke="#ef3b3b"/>
<line x1="1242.35" y1="346.14" x2="1242.35" y2="367.20" stroke="#ef3b3b"/>
<rect x="1239.09" y="350.44" width="6.51" height="15.20" fill="#ef3b3b" stroke="#ef3b3b"/>
<line x1="1254.29" y1="344.30" x2="1254.29" y2="359.78" stroke="#3156d9"/>
<rect x="1251.04" y="349.25" width="6.51" height="7.05" fill="#ffffff" stroke="#3156d9"/>
<line x1="1266.23" y1="346.69" x2="1266.23" y2="362.44" stroke="#ef3b3b"/>
<rect x="1262.98" y="347.88" width="6.51" height="11.91" fill="#ef3b3b" stroke="#ef3b3b"/>
<line x1="1278.17" y1="311.43" x2="1278.17" y2="351.08" stroke="#ef3b3b"/>
<rect x="1274.92" y="314.81" width="6.51" height="34.07" fill="#ef3b3b" stroke="#ef3b3b"/>
<line x1="1290.12" y1="313.99" x2="1290.12" y2="333.13" stroke="#3156d9"/>
<rect x="1286.86" y="315.91" width="6.51" height="14.29" fill="#ffffff" stroke="#3156d9"/>
<line x1="1302.06" y1="316.19" x2="1302.06" y2="349.16" stroke="#ef3b3b"/>
<rect x="1298.80" y="322.51" width="6.51" height="11.91" fill="#ef3b3b" stroke="#ef3b3b"/>
<line x1="1314.00" y1="313.35" x2="1314.00" y2="345.13" stroke="#ef3b3b"/>
<rect x="1310.75" y="324.61" width="6.51" height="1.20" fill="#ef3b3b" stroke="#ef3b3b"/>
<path d="M 72.00 206.69 L 83.94 205.96 L 95.88 201.89 L 107.83 194.75 L 119.77 196.58 L 131.71 204.73 L 143.65 217.35 L 155.60 227.74 L 167.54 240.16 L 179.48 244.88 L 191.42 249.20 L 203.37 250.78 L 215.31 250.10 L 227.25 251.29 L 239.19 254.31 L 251.13 264.02 L 263.08 272.28 L 275.02 286.00 L 286.96 298.26 L 298.90 296.09 L 310.85 292.67 L 322.79 290.56 L 334.73 293.24 L 346.67 292.74 L 358.62 296.99 L 370.56 298.79 L 382.50 305.80 L 394.44 300.18 L 406.38 299.50 L 418.33 305.16 L 430.27 309.52 L 442.21 308.18 L 454.15 324.91 L 466.10 330.80 L 478.04 332.76 L 489.98 333.72 L 501.92 341.32 L 513.87 336.37 L 525.81 340.66 L 537.75 344.36 L 549.69 351.98 L 561.63 355.06 L 573.58 360.79 L 585.52 358.88 L 597.46 359.10 L 609.40 360.06 L 621.35 364.23 L 633.29 366.85 L 645.23 372.62 L 657.17 378.30 L 669.12 381.85 L 681.06 370.33 L 693.00 358.83 L 704.94 351.78 L 716.88 341.03 L 728.83 323.37 L 740.77 313.44 L 752.71 309.08 L 764.65 303.31 L 776.60 300.49 L 788.54 300.44 L 800.48 286.13 L 812.42 264.26 L 824.37 246.02 L 836.31 225.58 L 848.25 212.33 L 860.19 215.28 L 872.13 222.48 L 884.08 224.59 L 896.02 235.94 L 907.96 249.79 L 919.90 265.12 L 931.85 281.11 L 943.79 297.14 L 955.73 300.31 L 967.67 298.92 L 979.62 295.62 L 991.56 295.12 L 1003.50 296.63 L 1015.44 298.13 L 1027.38 289.34 L 1039.33 279.43 L 1051.27 256.07 L 1063.21 237.59 L 1075.15 228.80 L 1087.10 225.72 L 1099.04 225.85 L 1110.98 238.25 L 1122.92 240.10 L 1134.87 239.33 L 1146.81 253.73 L 1158.75 263.84 L 1170.69 273.51 L 1182.63 283.58 L 1194.58 294.65 L 1206.52 292.78 L 1218.46 311.04 L 1230.40 324.32 L 1242.35 337.51 L 1254.29 349.08 L 1266.23 359.27 L 1278.17 347.38 L 1290.12 339.93 L 1302.06 334.34 L 1314.00 328.00" fill="none" stroke="#59a52c" stroke-width="2"/>
<path d="M 72.00 164.23 L 83.94 164.64 L 95.88 165.29 L 107.83 165.59 L 119.77 170.26 L 131.71 174.77 L 143.65 180.11 L 155.60 186.12 L 167.54 193.59 L 179.48 203.39 L 191.42 214.32 L 203.37 218.63 L 215.31 220.15 L 227.25 221.79 L 239.19 225.18 L 251.13 231.16 L 263.08 236.59 L 275.02 241.43 L 286.96 246.11 L 298.90 247.97 L 310.85 252.66 L 322.79 257.74 L 334.73 264.27 L 346.67 270.61 L 358.62 273.07 L 370.56 276.17 L 382.50 279.86 L 394.44 282.38 L 406.38 285.45 L 418.33 288.14 L 430.27 291.25 L 442.21 294.21 L 454.15 301.08 L 466.10 305.33 L 478.04 307.75 L 489.98 308.67 L 501.92 311.47 L 513.87 313.67 L 525.81 315.93 L 537.75 319.82 L 549.69 323.50 L 561.63 327.59 L 573.58 330.56 L 585.52 332.46 L 597.46 335.35 L 609.40 338.82 L 621.35 342.20 L 633.29 347.23 L 645.23 350.74 L 657.17 353.63 L 669.12 356.90 L 681.06 357.73 L 693.00 355.71 L 704.94 355.99 L 716.88 355.70 L 728.83 354.31 L 740.77 350.77 L 752.71 348.89 L 764.65 346.65 L 776.60 344.73 L 788.54 341.43 L 800.48 333.53 L 812.42 324.76 L 824.37 318.43 L 836.31 311.35 L 848.25 304.50 L 860.19 296.30 L 872.13 288.66 L 884.08 281.42 L 896.02 275.76 L 907.96 271.48 L 919.90 269.99 L 931.85 269.23 L 943.79 267.76 L 955.73 265.58 L 967.67 265.37 L 979.62 265.54 L 991.56 265.74 L 1003.50 266.09 L 1015.44 264.99 L 1027.38 262.59 L 1039.33 263.86 L 1051.27 263.70 L 1063.21 263.99 L 1075.15 265.79 L 1087.10 265.94 L 1099.04 266.50 L 1110.98 267.64 L 1122.92 267.86 L 1134.87 266.64 L 1146.81 266.93 L 1158.75 266.18 L 1170.69 265.74 L 1182.63 264.48 L 1194.58 265.23 L 1206.52 265.39 L 1218.46 270.04 L 1230.40 273.04 L 1242.35 274.70 L 1254.29 277.97 L 1266.23 282.87 L 1278.17 287.03 L 1290.12 294.00 L 1302.06 298.88 L 1314.00 302.77" fill="none" stroke="#13c8d4" stroke-width="2"/>
<path d="M 72.00 84.55 L 83.94 89.36 L 95.88 95.07 L 107.83 100.18 L 119.77 106.80 L 131.71 111.36 L 143.65 116.51 L 155.60 120.37 L 167.54 125.84 L 179.48 131.62 L 191.42 135.67 L 203.37 139.23 L 215.31 142.76 L 227.25 147.11 L 239.19 153.11 L 251.13 159.59 L 263.08 165.82 L 275.02 171.08 L 286.96 177.33 L 298.90 183.11 L 310.85 188.50 L 322.79 193.01 L 334.73 198.35 L 346.67 204.01 L 358.62 208.97 L 370.56 213.15 L 382.50 216.86 L 394.44 219.85 L 406.38 221.67 L 418.33 224.26 L 430.27 227.59 L 442.21 230.35 L 454.15 234.33 L 466.10 237.51 L 478.04 241.12 L 489.98 244.70 L 501.92 248.94 L 513.87 253.53 L 525.81 258.76 L 537.75 264.32 L 549.69 270.80 L 561.63 274.77 L 573.58 278.21 L 585.52 280.80 L 597.46 283.52 L 609.40 287.14 L 621.35 291.15 L 633.29 294.81 L 645.23 297.97 L 657.17 300.86 L 669.12 304.65 L 681.06 307.59 L 693.00 310.50 L 704.94 313.67 L 716.88 315.30 L 728.83 316.52 L 740.77 317.20 L 752.71 318.64 L 764.65 319.99 L 776.60 320.86 L 788.54 321.64 L 800.48 320.73 L 812.42 320.05 L 824.37 319.46 L 836.31 317.99 L 848.25 316.47 L 860.19 315.03 L 872.13 313.70 L 884.08 312.09 L 896.02 311.97 L 907.96 312.18 L 919.90 312.49 L 931.85 312.49 L 943.79 312.53 L 955.73 312.30 L 967.67 312.20 L 979.62 311.47 L 991.56 311.98 L 1003.50 312.24 L 1015.44 311.60 L 1027.38 310.18 L 1039.33 308.60 L 1051.27 305.10 L 1063.21 302.92 L 1075.15 301.20 L 1087.10 299.38 L 1099.04 297.05 L 1110.98 295.29 L 1122.92 292.87 L 1134.87 290.70 L 1146.81 289.55 L 1158.75 287.93 L 1170.69 286.56 L 1182.63 285.34 L 1194.58 284.25 L 1206.52 282.83 L 1218.46 282.61 L 1230.40 282.30 L 1242.35 281.82 L 1254.29 281.33 L 1266.23 280.57 L 1278.17 280.31 L 1290.12 280.41 L 1302.06 280.08 L 1314.00 280.03" fill="none" stroke="#173ee6" stroke-width="2"/>
<path d="M 72.00 126.48 L 83.94 124.84 L 95.88 123.22 L 107.83 121.67 L 119.77 120.70 L 131.71 119.69 L 143.65 118.70 L 155.60 117.61 L 167.54 116.56 L 179.48 116.03 L 191.42 115.52 L 203.37 115.05 L 215.31 114.19 L 227.25 113.63 L 239.19 113.57 L 251.13 113.69 L 263.08 113.67 L 275.02 113.52 L 286.96 113.66 L 298.90 113.54 L 310.85 113.52 L 322.79 113.49 L 334.73 113.85 L 346.67 114.33 L 358.62 114.73 L 370.56 115.05 L 382.50 115.63 L 394.44 116.07 L 406.38 116.66 L 418.33 117.18 L 430.27 117.41 L 442.21 117.40 L 454.15 117.53 L 466.10 117.68 L 478.04 117.44 L 489.98 117.39 L 501.92 117.74 L 513.87 118.27 L 525.81 119.02 L 537.75 119.80 L 549.69 120.68 L 561.63 121.58 L 573.58 122.58 L 585.52 123.32 L 597.46 124.14 L 609.40 125.17 L 621.35 126.62 L 633.29 128.10 L 645.23 129.55 L 657.17 131.09 L 669.12 132.76 L 681.06 134.10 L 693.00 135.85 L 704.94 137.97 L 716.88 140.23 L 728.83 142.16 L 740.77 143.85 L 752.71 145.85 L 764.65 148.05 L 776.60 150.15 L 788.54 151.98 L 800.48 153.01 L 812.42 154.58 L 824.37 156.39 L 836.31 157.80 L 848.25 159.09 L 860.19 160.21 L 872.13 161.38 L 884.08 162.81 L 896.02 164.46 L 907.96 166.60 L 919.90 167.82 L 931.85 169.19 L 943.79 171.01 L 955.73 172.56 L 967.67 174.47 L 979.62 176.26 L 991.56 177.77 L 1003.50 179.62 L 1015.44 181.33 L 1027.38 182.83 L 1039.33 184.10 L 1051.27 184.96 L 1063.21 186.22 L 1075.15 187.54 L 1087.10 188.63 L 1099.04 189.90 L 1110.98 191.28 L 1122.92 192.69 L 1134.87 194.23 L 1146.81 196.12 L 1158.75 198.19 L 1170.69 200.53 L 1182.63 202.79 L 1194.58 205.25 L 1206.52 207.93 L 1218.46 211.25 L 1230.40 214.50 L 1242.35 217.37 L 1254.29 220.21 L 1266.23 223.26 L 1278.17 225.75 L 1290.12 228.66 L 1302.06 231.31 L 1314.00 234.04" fill="none" stroke="#971f1f" stroke-width="3"/>
<path d="M 72.00 235.94 L 83.94 233.34 L 95.88 230.79 L 107.83 228.38 L 119.77 226.25 L 131.71 224.16 L 143.65 222.07 L 155.60 219.89 L 167.54 217.77 L 179.48 215.78 L 191.42 213.70 L 203.37 211.79 L 215.31 209.81 L 227.25 207.90 L 239.19 206.15 L 251.13 204.52 L 263.08 202.78 L 275.02 201.06 L 286.96 199.47 L 298.90 197.76 L 310.85 196.14 L 322.79 194.50 L 334.73 193.04 L 346.67 191.58 L 358.62 190.10 L 370.56 188.67 L 382.50 187.38 L 394.44 186.00 L 406.38 184.72 L 418.33 183.56 L 430.27 182.53 L 442.21 181.39 L 454.15 180.73 L 466.10 179.97 L 478.04 179.12 L 489.98 178.40 L 501.92 177.70 L 513.87 177.12 L 525.81 176.58 L 537.75 175.97 L 549.69 175.34 L 561.63 174.69 L 573.58 173.90 L 585.52 173.11 L 597.46 172.45 L 609.40 172.05 L 621.35 171.86 L 633.29 171.77 L 645.23 171.60 L 657.17 171.35 L 669.12 171.02 L 681.06 170.52 L 693.00 170.04 L 704.94 169.67 L 716.88 169.35 L 728.83 168.90 L 740.77 168.33 L 752.71 167.86 L 764.65 167.42 L 776.60 167.24 L 788.54 167.05 L 800.48 166.47 L 812.42 165.66 L 824.37 165.08 L 836.31 164.67 L 848.25 164.39 L 860.19 164.01 L 872.13 163.57 L 884.08 163.27 L 896.02 163.15 L 907.96 163.19 L 919.90 163.24 L 931.85 163.51 L 943.79 163.88 L 955.73 164.13 L 967.67 164.33 L 979.62 164.59 L 991.56 165.05 L 1003.50 165.56 L 1015.44 165.79 L 1027.38 165.61 L 1039.33 165.20 L 1051.27 164.42 L 1063.21 163.99 L 1075.15 163.38 L 1087.10 162.89 L 1099.04 162.57 L 1110.98 162.52 L 1122.92 162.48 L 1134.87 162.53 L 1146.81 162.90 L 1158.75 163.16 L 1170.69 163.58 L 1182.63 163.83 L 1194.58 164.17 L 1206.52 164.59 L 1218.46 165.62 L 1230.40 166.65 L 1242.35 167.62 L 1254.29 168.65 L 1266.23 169.71 L 1278.17 170.65 L 1290.12 171.99 L 1302.06 173.50 L 1314.00 175.18" fill="none" stroke="#d41968" stroke-width="3"/>
<text x="78" y="462" class="label">거래량 · MA50</text>
<text x="1321" y="456" class="small">117376140.00</text>
<text x="1321" y="590" class="small">0.00</text>
<rect x="68.33" y="523.09" width="7.33" height="60.41" fill="#e98b8b" opacity="0.72"/>
<rect x="80.28" y="548.66" width="7.33" height="34.84" fill="#e98b8b" opacity="0.72"/>
<rect x="92.22" y="535.98" width="7.33" height="47.52" fill="#e98b8b" opacity="0.72"/>
<rect x="104.16" y="536.79" width="7.33" height="46.71" fill="#8d9be5" opacity="0.72"/>
<rect x="116.10" y="462.97" width="7.33" height="120.53" fill="#8d9be5" opacity="0.72"/>
<rect x="128.04" y="518.15" width="7.33" height="65.35" fill="#e98b8b" opacity="0.72"/>
<rect x="139.99" y="530.75" width="7.33" height="52.75" fill="#8d9be5" opacity="0.72"/>
<rect x="151.93" y="535.98" width="7.33" height="47.52" fill="#e98b8b" opacity="0.72"/>
<rect x="163.87" y="535.53" width="7.33" height="47.97" fill="#8d9be5" opacity="0.72"/>
<rect x="175.81" y="523.41" width="7.33" height="60.09" fill="#8d9be5" opacity="0.72"/>
<rect x="187.76" y="540.81" width="7.33" height="42.69" fill="#e98b8b" opacity="0.72"/>
<rect x="199.70" y="531.83" width="7.33" height="51.67" fill="#e98b8b" opacity="0.72"/>
<rect x="211.64" y="523.96" width="7.33" height="59.54" fill="#e98b8b" opacity="0.72"/>
<rect x="223.58" y="531.02" width="7.33" height="52.48" fill="#8d9be5" opacity="0.72"/>
<rect x="235.53" y="530.67" width="7.33" height="52.83" fill="#8d9be5" opacity="0.72"/>
<rect x="247.47" y="531.81" width="7.33" height="51.69" fill="#8d9be5" opacity="0.72"/>
<rect x="259.41" y="540.12" width="7.33" height="43.38" fill="#e98b8b" opacity="0.72"/>
<rect x="271.35" y="534.45" width="7.33" height="49.05" fill="#8d9be5" opacity="0.72"/>
<rect x="283.29" y="523.18" width="7.33" height="60.32" fill="#8d9be5" opacity="0.72"/>
<rect x="295.24" y="502.99" width="7.33" height="80.51" fill="#e98b8b" opacity="0.72"/>
<rect x="307.18" y="535.78" width="7.33" height="47.72" fill="#8d9be5" opacity="0.72"/>
<rect x="319.12" y="558.50" width="7.33" height="25.00" fill="#e98b8b" opacity="0.72"/>
<rect x="331.06" y="534.46" width="7.33" height="49.04" fill="#8d9be5" opacity="0.72"/>
<rect x="343.01" y="524.11" width="7.33" height="59.39" fill="#8d9be5" opacity="0.72"/>
<rect x="354.95" y="519.89" width="7.33" height="63.61" fill="#e98b8b" opacity="0.72"/>
<rect x="366.89" y="542.39" width="7.33" height="41.11" fill="#e98b8b" opacity="0.72"/>
<rect x="378.83" y="550.78" width="7.33" height="32.72" fill="#8d9be5" opacity="0.72"/>
<rect x="390.78" y="534.86" width="7.33" height="48.64" fill="#e98b8b" opacity="0.72"/>
<rect x="402.72" y="530.17" width="7.33" height="53.33" fill="#8d9be5" opacity="0.72"/>
<rect x="414.66" y="537.67" width="7.33" height="45.83" fill="#8d9be5" opacity="0.72"/>
<rect x="426.60" y="528.45" width="7.33" height="55.05" fill="#e98b8b" opacity="0.72"/>
<rect x="438.54" y="537.45" width="7.33" height="46.05" fill="#e98b8b" opacity="0.72"/>
<rect x="450.49" y="460.64" width="7.33" height="122.86" fill="#8d9be5" opacity="0.72"/>
<rect x="462.43" y="506.93" width="7.33" height="76.57" fill="#e98b8b" opacity="0.72"/>
<rect x="474.37" y="543.74" width="7.33" height="39.76" fill="#8d9be5" opacity="0.72"/>
<rect x="486.31" y="539.42" width="7.33" height="44.08" fill="#e98b8b" opacity="0.72"/>
<rect x="498.26" y="526.53" width="7.33" height="56.97" fill="#8d9be5" opacity="0.72"/>
<rect x="510.20" y="530.73" width="7.33" height="52.77" fill="#e98b8b" opacity="0.72"/>
<rect x="522.14" y="547.68" width="7.33" height="35.82" fill="#8d9be5" opacity="0.72"/>
<rect x="534.08" y="544.74" width="7.33" height="38.76" fill="#e98b8b" opacity="0.72"/>
<rect x="546.03" y="541.97" width="7.33" height="41.53" fill="#8d9be5" opacity="0.72"/>
<rect x="557.97" y="552.95" width="7.33" height="30.55" fill="#8d9be5" opacity="0.72"/>
<rect x="569.91" y="548.32" width="7.33" height="35.18" fill="#8d9be5" opacity="0.72"/>
<rect x="581.85" y="532.64" width="7.33" height="50.86" fill="#e98b8b" opacity="0.72"/>
<rect x="593.79" y="532.46" width="7.33" height="51.04" fill="#8d9be5" opacity="0.72"/>
<rect x="605.74" y="543.91" width="7.33" height="39.59" fill="#8d9be5" opacity="0.72"/>
<rect x="617.68" y="542.29" width="7.33" height="41.21" fill="#8d9be5" opacity="0.72"/>
<rect x="629.62" y="552.88" width="7.33" height="30.62" fill="#e98b8b" opacity="0.72"/>
<rect x="641.56" y="548.39" width="7.33" height="35.11" fill="#e98b8b" opacity="0.72"/>
<rect x="653.51" y="540.26" width="7.33" height="43.24" fill="#8d9be5" opacity="0.72"/>
<rect x="665.45" y="536.74" width="7.33" height="46.76" fill="#8d9be5" opacity="0.72"/>
<rect x="677.39" y="488.03" width="7.33" height="95.47" fill="#e98b8b" opacity="0.72"/>
<rect x="689.33" y="524.52" width="7.33" height="58.98" fill="#8d9be5" opacity="0.72"/>
<rect x="701.28" y="555.81" width="7.33" height="27.69" fill="#8d9be5" opacity="0.72"/>
<rect x="713.22" y="549.12" width="7.33" height="34.38" fill="#e98b8b" opacity="0.72"/>
<rect x="725.16" y="539.36" width="7.33" height="44.14" fill="#e98b8b" opacity="0.72"/>
<rect x="737.10" y="526.87" width="7.33" height="56.63" fill="#e98b8b" opacity="0.72"/>
<rect x="749.04" y="530.20" width="7.33" height="53.30" fill="#8d9be5" opacity="0.72"/>
<rect x="760.99" y="535.80" width="7.33" height="47.70" fill="#8d9be5" opacity="0.72"/>
<rect x="772.93" y="549.96" width="7.33" height="33.54" fill="#8d9be5" opacity="0.72"/>
<rect x="784.87" y="555.56" width="7.33" height="27.94" fill="#e98b8b" opacity="0.72"/>
<rect x="796.81" y="461.92" width="7.33" height="121.58" fill="#e98b8b" opacity="0.72"/>
<rect x="808.76" y="529.71" width="7.33" height="53.79" fill="#e98b8b" opacity="0.72"/>
<rect x="820.70" y="530.05" width="7.33" height="53.45" fill="#8d9be5" opacity="0.72"/>
<rect x="832.64" y="547.89" width="7.33" height="35.61" fill="#e98b8b" opacity="0.72"/>
<rect x="844.58" y="523.90" width="7.33" height="59.60" fill="#8d9be5" opacity="0.72"/>
<rect x="856.53" y="544.44" width="7.33" height="39.06" fill="#e98b8b" opacity="0.72"/>
<rect x="868.47" y="551.71" width="7.33" height="31.79" fill="#8d9be5" opacity="0.72"/>
<rect x="880.41" y="532.55" width="7.33" height="50.95" fill="#e98b8b" opacity="0.72"/>
<rect x="892.35" y="518.78" width="7.33" height="64.72" fill="#8d9be5" opacity="0.72"/>
<rect x="904.29" y="535.18" width="7.33" height="48.32" fill="#8d9be5" opacity="0.72"/>
<rect x="916.24" y="542.06" width="7.33" height="41.44" fill="#e98b8b" opacity="0.72"/>
<rect x="928.18" y="537.94" width="7.33" height="45.56" fill="#8d9be5" opacity="0.72"/>
<rect x="940.12" y="561.93" width="7.33" height="21.57" fill="#e98b8b" opacity="0.72"/>
<rect x="952.06" y="538.46" width="7.33" height="45.04" fill="#e98b8b" opacity="0.72"/>
<rect x="964.01" y="542.63" width="7.33" height="40.87" fill="#8d9be5" opacity="0.72"/>
<rect x="975.95" y="525.41" width="7.33" height="58.09" fill="#e98b8b" opacity="0.72"/>
<rect x="987.89" y="541.92" width="7.33" height="41.58" fill="#8d9be5" opacity="0.72"/>
<rect x="999.83" y="561.08" width="7.33" height="22.42" fill="#8d9be5" opacity="0.72"/>
<rect x="1011.78" y="553.25" width="7.33" height="30.25" fill="#e98b8b" opacity="0.72"/>
<rect x="1023.72" y="533.96" width="7.33" height="49.54" fill="#e98b8b" opacity="0.72"/>
<rect x="1035.66" y="540.24" width="7.33" height="43.26" fill="#e98b8b" opacity="0.72"/>
<rect x="1047.60" y="541.17" width="7.33" height="42.33" fill="#e98b8b" opacity="0.72"/>
<rect x="1059.54" y="514.41" width="7.33" height="69.09" fill="#8d9be5" opacity="0.72"/>
<rect x="1071.49" y="504.35" width="7.33" height="79.15" fill="#8d9be5" opacity="0.72"/>
<rect x="1083.43" y="541.30" width="7.33" height="42.20" fill="#e98b8b" opacity="0.72"/>
<rect x="1095.37" y="552.51" width="7.33" height="30.99" fill="#e98b8b" opacity="0.72"/>
<rect x="1107.31" y="544.38" width="7.33" height="39.12" fill="#8d9be5" opacity="0.72"/>
<rect x="1119.26" y="541.90" width="7.33" height="41.60" fill="#e98b8b" opacity="0.72"/>
<rect x="1131.20" y="542.66" width="7.33" height="40.84" fill="#8d9be5" opacity="0.72"/>
<rect x="1143.14" y="542.10" width="7.33" height="41.40" fill="#8d9be5" opacity="0.72"/>
<rect x="1155.08" y="555.01" width="7.33" height="28.49" fill="#e98b8b" opacity="0.72"/>
<rect x="1167.03" y="545.37" width="7.33" height="38.13" fill="#8d9be5" opacity="0.72"/>
<rect x="1178.97" y="551.34" width="7.33" height="32.16" fill="#e98b8b" opacity="0.72"/>
<rect x="1190.91" y="560.12" width="7.33" height="23.38" fill="#8d9be5" opacity="0.72"/>
<rect x="1202.85" y="552.41" width="7.33" height="31.09" fill="#8d9be5" opacity="0.72"/>
<rect x="1214.79" y="512.63" width="7.33" height="70.87" fill="#8d9be5" opacity="0.72"/>
<rect x="1226.74" y="532.22" width="7.33" height="51.28" fill="#e98b8b" opacity="0.72"/>
<rect x="1238.68" y="547.73" width="7.33" height="35.77" fill="#e98b8b" opacity="0.72"/>
<rect x="1250.62" y="553.75" width="7.33" height="29.75" fill="#8d9be5" opacity="0.72"/>
<rect x="1262.56" y="549.07" width="7.33" height="34.43" fill="#e98b8b" opacity="0.72"/>
<rect x="1274.51" y="533.63" width="7.33" height="49.87" fill="#e98b8b" opacity="0.72"/>
<rect x="1286.45" y="545.89" width="7.33" height="37.61" fill="#8d9be5" opacity="0.72"/>
<rect x="1298.39" y="546.27" width="7.33" height="37.23" fill="#e98b8b" opacity="0.72"/>
<rect x="1310.33" y="547.71" width="7.33" height="35.79" fill="#e98b8b" opacity="0.72"/>
<path d="M 72.00 525.17 L 83.94 525.39 L 95.88 526.10 L 107.83 526.23 L 119.77 524.54 L 131.71 524.39 L 143.65 525.21 L 155.60 525.51 L 167.54 525.38 L 179.48 525.20 L 191.42 525.83 L 203.37 526.79 L 215.31 526.97 L 227.25 526.96 L 239.19 527.38 L 251.13 527.75 L 263.08 527.82 L 275.02 527.76 L 286.96 527.36 L 298.90 526.20 L 310.85 526.38 L 322.79 526.70 L 334.73 526.96 L 346.67 526.33 L 358.62 525.59 L 370.56 526.12 L 382.50 526.97 L 394.44 527.22 L 406.38 527.93 L 418.33 528.98 L 430.27 529.45 L 442.21 529.83 L 454.15 528.45 L 466.10 528.43 L 478.04 528.86 L 489.98 529.25 L 501.92 529.16 L 513.87 529.24 L 525.81 529.72 L 537.75 529.94 L 549.69 530.12 L 561.63 531.17 L 573.58 531.63 L 585.52 531.58 L 597.46 531.43 L 609.40 531.67 L 621.35 531.61 L 633.29 531.87 L 645.23 532.17 L 657.17 532.26 L 669.12 532.54 L 681.06 531.32 L 693.00 531.09 L 704.94 531.47 L 716.88 533.20 L 728.83 533.62 L 740.77 533.54 L 752.71 533.43 L 764.65 533.43 L 776.60 533.96 L 788.54 534.26 L 800.48 532.86 L 812.42 532.98 L 824.37 532.96 L 836.31 533.30 L 848.25 533.14 L 860.19 533.23 L 872.13 533.57 L 884.08 533.76 L 896.02 534.08 L 907.96 534.07 L 919.90 533.74 L 931.85 533.81 L 943.79 534.56 L 955.73 534.93 L 967.67 534.94 L 979.62 534.43 L 991.56 534.57 L 1003.50 535.19 L 1015.44 535.50 L 1027.38 535.61 L 1039.33 535.67 L 1051.27 537.28 L 1063.21 537.43 L 1075.15 536.64 L 1087.10 536.68 L 1099.04 537.20 L 1110.98 537.47 L 1122.92 537.36 L 1134.87 537.31 L 1146.81 537.32 L 1158.75 537.36 L 1170.69 537.30 L 1182.63 537.67 L 1194.58 538.23 L 1206.52 538.40 L 1218.46 537.80 L 1230.40 537.39 L 1242.35 537.38 L 1254.29 537.65 L 1266.23 537.89 L 1278.17 538.81 L 1290.12 539.23 L 1302.06 539.04 L 1314.00 539.01" fill="none" stroke="#173ee6" stroke-width="2"/>
<text x="78" y="624" class="label">Momentum 14</text>
<text x="1321" y="618" class="small">21.81</text>
<text x="1321" y="722" class="small">-24.57</text>
<line x1="72" y1="662.93" x2="1314" y2="662.93" stroke="#4775d1" stroke-dasharray="5 5"/>
<path d="M 72.00 677.30 L 83.94 679.77 L 95.88 683.89 L 107.83 689.05 L 119.77 712.91 L 131.71 680.29 L 143.65 674.10 L 155.60 666.71 L 167.54 669.32 L 179.48 682.80 L 191.42 680.95 L 203.37 675.50 L 215.31 665.78 L 227.25 665.93 L 239.19 684.34 L 251.13 693.64 L 263.08 690.48 L 275.02 691.12 L 286.96 678.60 L 298.90 671.81 L 310.85 674.14 L 322.79 675.30 L 334.73 679.28 L 346.67 672.25 L 358.62 671.72 L 370.56 674.41 L 382.50 684.65 L 394.44 671.01 L 406.38 667.76 L 418.33 666.80 L 430.27 669.67 L 442.21 666.36 L 454.15 676.44 L 466.10 677.55 L 478.04 673.34 L 489.98 673.39 L 501.92 672.34 L 513.87 671.03 L 525.81 677.59 L 537.75 675.66 L 549.69 674.12 L 561.63 682.91 L 573.58 678.82 L 585.52 668.40 L 597.46 670.63 L 609.40 676.90 L 621.35 667.67 L 633.29 674.83 L 645.23 673.03 L 657.17 676.37 L 669.12 671.99 L 681.06 659.68 L 693.00 655.65 L 704.94 659.97 L 716.88 654.05 L 728.83 646.80 L 740.77 640.65 L 752.71 652.67 L 764.65 652.69 L 776.60 649.47 L 788.54 641.66 L 800.48 620.09 L 812.42 619.09 L 824.37 623.63 L 836.31 620.31 L 848.25 639.56 L 860.19 637.65 L 872.13 636.40 L 884.08 639.25 L 896.02 655.56 L 907.96 668.45 L 919.90 661.57 L 931.85 662.84 L 943.79 662.15 L 955.73 659.48 L 967.67 684.14 L 979.62 684.14 L 991.56 684.40 L 1003.50 688.81 L 1015.44 677.39 L 1027.38 669.87 L 1039.33 663.35 L 1051.27 653.47 L 1063.21 652.56 L 1075.15 649.89 L 1087.10 647.51 L 1099.04 644.08 L 1110.98 649.07 L 1122.92 650.96 L 1134.87 650.65 L 1146.81 669.00 L 1158.75 656.97 L 1170.69 658.99 L 1182.63 661.37 L 1194.58 674.77 L 1206.52 678.77 L 1218.46 707.52 L 1230.40 697.58 L 1242.35 688.07 L 1254.29 692.57 L 1266.23 690.99 L 1278.17 678.02 L 1290.12 686.27 L 1302.06 682.22 L 1314.00 667.38" fill="none" stroke="#e24b55" stroke-width="2"/>
<text x="78" y="756" class="label">MACD 12·26·9</text>
<text x="1321" y="750" class="small">3.76</text>
<text x="1321" y="884" class="small">-4.33</text>
<line x1="72" y1="808.43" x2="1314" y2="808.43" stroke="#a5abb3" stroke-dasharray="5 5"/>
<rect x="69.34" y="808.43" width="5.32" height="3.30" fill="#ef9999" opacity="0.55"/>
<rect x="81.28" y="806.79" width="5.32" height="1.64" fill="#ef9999" opacity="0.55"/>
<rect x="93.22" y="803.14" width="5.32" height="5.30" fill="#ef9999" opacity="0.55"/>
<rect x="105.17" y="800.74" width="5.32" height="7.70" fill="#ef9999" opacity="0.55"/>
<rect x="117.11" y="806.35" width="5.32" height="2.09" fill="#ef9999" opacity="0.55"/>
<rect x="129.05" y="808.43" width="5.32" height="0.70" fill="#ef9999" opacity="0.55"/>
<rect x="140.99" y="808.43" width="5.32" height="1.74" fill="#ef9999" opacity="0.55"/>
<rect x="152.93" y="808.43" width="5.32" height="0.82" fill="#ef9999" opacity="0.55"/>
<rect x="164.88" y="808.43" width="5.32" height="0.96" fill="#ef9999" opacity="0.55"/>
<rect x="176.82" y="808.43" width="5.32" height="3.44" fill="#ef9999" opacity="0.55"/>
<rect x="188.76" y="808.43" width="5.32" height="3.12" fill="#ef9999" opacity="0.55"/>
<rect x="200.70" y="808.43" width="5.32" height="1.49" fill="#ef9999" opacity="0.55"/>
<rect x="212.65" y="805.70" width="5.32" height="2.74" fill="#ef9999" opacity="0.55"/>
<rect x="224.59" y="804.97" width="5.32" height="3.46" fill="#ef9999" opacity="0.55"/>
<rect x="236.53" y="808.15" width="5.32" height="0.70" fill="#ef9999" opacity="0.55"/>
<rect x="248.47" y="808.43" width="5.32" height="3.75" fill="#ef9999" opacity="0.55"/>
<rect x="260.42" y="808.43" width="5.32" height="4.02" fill="#ef9999" opacity="0.55"/>
<rect x="272.36" y="808.43" width="5.32" height="3.87" fill="#ef9999" opacity="0.55"/>
<rect x="284.30" y="808.43" width="5.32" height="4.53" fill="#ef9999" opacity="0.55"/>
<rect x="296.24" y="808.43" width="5.32" height="0.70" fill="#ef9999" opacity="0.55"/>
<rect x="308.18" y="807.06" width="5.32" height="1.37" fill="#ef9999" opacity="0.55"/>
<rect x="320.13" y="804.84" width="5.32" height="3.59" fill="#ef9999" opacity="0.55"/>
<rect x="332.07" y="806.19" width="5.32" height="2.25" fill="#ef9999" opacity="0.55"/>
<rect x="344.01" y="806.34" width="5.32" height="2.09" fill="#ef9999" opacity="0.55"/>
<rect x="355.95" y="804.61" width="5.32" height="3.82" fill="#ef9999" opacity="0.55"/>
<rect x="367.90" y="803.69" width="5.32" height="4.74" fill="#ef9999" opacity="0.55"/>
<rect x="379.84" y="804.93" width="5.32" height="3.50" fill="#ef9999" opacity="0.55"/>
<rect x="391.78" y="801.46" width="5.32" height="6.97" fill="#ef9999" opacity="0.55"/>
<rect x="403.72" y="801.64" width="5.32" height="6.79" fill="#ef9999" opacity="0.55"/>
<rect x="415.67" y="803.75" width="5.32" height="4.68" fill="#ef9999" opacity="0.55"/>
<rect x="427.61" y="804.62" width="5.32" height="3.81" fill="#ef9999" opacity="0.55"/>
<rect x="439.55" y="803.83" width="5.32" height="4.60" fill="#ef9999" opacity="0.55"/>
<rect x="451.49" y="808.43" width="5.32" height="0.80" fill="#ef9999" opacity="0.55"/>
<rect x="463.43" y="808.43" width="5.32" height="0.70" fill="#ef9999" opacity="0.55"/>
<rect x="475.38" y="807.68" width="5.32" height="0.75" fill="#ef9999" opacity="0.55"/>
<rect x="487.32" y="805.90" width="5.32" height="2.53" fill="#ef9999" opacity="0.55"/>
<rect x="499.26" y="807.09" width="5.32" height="1.34" fill="#ef9999" opacity="0.55"/>
<rect x="511.20" y="806.61" width="5.32" height="1.83" fill="#ef9999" opacity="0.55"/>
<rect x="523.15" y="807.56" width="5.32" height="0.87" fill="#ef9999" opacity="0.55"/>
<rect x="535.09" y="807.38" width="5.32" height="1.05" fill="#ef9999" opacity="0.55"/>
<rect x="547.03" y="808.28" width="5.32" height="0.70" fill="#ef9999" opacity="0.55"/>
<rect x="558.97" y="808.43" width="5.32" height="0.70" fill="#ef9999" opacity="0.55"/>
<rect x="570.92" y="808.43" width="5.32" height="0.70" fill="#ef9999" opacity="0.55"/>
<rect x="582.86" y="805.94" width="5.32" height="2.49" fill="#ef9999" opacity="0.55"/>
<rect x="594.80" y="804.62" width="5.32" height="3.82" fill="#ef9999" opacity="0.55"/>
<rect x="606.74" y="805.36" width="5.32" height="3.07" fill="#ef9999" opacity="0.55"/>
<rect x="618.68" y="807.47" width="5.32" height="0.97" fill="#ef9999" opacity="0.55"/>
<rect x="630.63" y="808.18" width="5.32" height="0.70" fill="#ef9999" opacity="0.55"/>
<rect x="642.57" y="807.33" width="5.32" height="1.10" fill="#ef9999" opacity="0.55"/>
<rect x="654.51" y="807.19" width="5.32" height="1.24" fill="#ef9999" opacity="0.55"/>
<rect x="666.45" y="807.38" width="5.32" height="1.05" fill="#ef9999" opacity="0.55"/>
<rect x="678.40" y="800.66" width="5.32" height="7.77" fill="#ef9999" opacity="0.55"/>
<rect x="690.34" y="796.24" width="5.32" height="12.19" fill="#ef9999" opacity="0.55"/>
<rect x="702.28" y="795.33" width="5.32" height="13.10" fill="#ef9999" opacity="0.55"/>
<rect x="714.22" y="793.80" width="5.32" height="14.63" fill="#ef9999" opacity="0.55"/>
<rect x="726.17" y="790.10" width="5.32" height="18.34" fill="#ef9999" opacity="0.55"/>
<rect x="738.11" y="786.29" width="5.32" height="22.14" fill="#ef9999" opacity="0.55"/>
<rect x="750.05" y="787.72" width="5.32" height="20.71" fill="#ef9999" opacity="0.55"/>
<rect x="761.99" y="790.35" width="5.32" height="18.09" fill="#ef9999" opacity="0.55"/>
<rect x="773.93" y="793.15" width="5.32" height="15.29" fill="#ef9999" opacity="0.55"/>
<rect x="785.88" y="793.94" width="5.32" height="14.49" fill="#ef9999" opacity="0.55"/>
<rect x="797.82" y="785.05" width="5.32" height="23.39" fill="#ef9999" opacity="0.55"/>
<rect x="809.76" y="779.36" width="5.32" height="29.07" fill="#ef9999" opacity="0.55"/>
<rect x="821.70" y="780.21" width="5.32" height="28.23" fill="#ef9999" opacity="0.55"/>
<rect x="833.65" y="781.45" width="5.32" height="26.98" fill="#ef9999" opacity="0.55"/>
<rect x="845.59" y="786.17" width="5.32" height="22.27" fill="#ef9999" opacity="0.55"/>
<rect x="857.53" y="789.42" width="5.32" height="19.01" fill="#ef9999" opacity="0.55"/>
<rect x="869.47" y="793.77" width="5.32" height="14.67" fill="#ef9999" opacity="0.55"/>
<rect x="881.42" y="797.57" width="5.32" height="10.86" fill="#ef9999" opacity="0.55"/>
<rect x="893.36" y="805.11" width="5.32" height="3.32" fill="#ef9999" opacity="0.55"/>
<rect x="905.30" y="808.43" width="5.32" height="5.64" fill="#ef9999" opacity="0.55"/>
<rect x="917.24" y="808.43" width="5.32" height="11.02" fill="#ef9999" opacity="0.55"/>
<rect x="929.18" y="808.43" width="5.32" height="15.51" fill="#ef9999" opacity="0.55"/>
<rect x="941.13" y="808.43" width="5.32" height="17.80" fill="#ef9999" opacity="0.55"/>
<rect x="953.07" y="808.43" width="5.32" height="15.65" fill="#ef9999" opacity="0.55"/>
<rect x="965.01" y="808.43" width="5.32" height="14.86" fill="#ef9999" opacity="0.55"/>
<rect x="976.95" y="808.43" width="5.32" height="12.41" fill="#ef9999" opacity="0.55"/>
<rect x="988.90" y="808.43" width="5.32" height="13.31" fill="#ef9999" opacity="0.55"/>
<rect x="1000.84" y="808.43" width="5.32" height="14.40" fill="#ef9999" opacity="0.55"/>
<rect x="1012.78" y="808.43" width="5.32" height="11.52" fill="#ef9999" opacity="0.55"/>
<rect x="1024.72" y="808.43" width="5.32" height="4.61" fill="#ef9999" opacity="0.55"/>
<rect x="1036.67" y="806.55" width="5.32" height="1.88" fill="#ef9999" opacity="0.55"/>
<rect x="1048.61" y="798.11" width="5.32" height="10.33" fill="#ef9999" opacity="0.55"/>
<rect x="1060.55" y="797.25" width="5.32" height="11.19" fill="#ef9999" opacity="0.55"/>
<rect x="1072.49" y="799.87" width="5.32" height="8.56" fill="#ef9999" opacity="0.55"/>
<rect x="1084.43" y="800.71" width="5.32" height="7.72" fill="#ef9999" opacity="0.55"/>
<rect x="1096.38" y="801.59" width="5.32" height="6.84" fill="#ef9999" opacity="0.55"/>
<rect x="1108.32" y="804.94" width="5.32" height="3.49" fill="#ef9999" opacity="0.55"/>
<rect x="1120.26" y="805.35" width="5.32" height="3.09" fill="#ef9999" opacity="0.55"/>
<rect x="1132.20" y="806.95" width="5.32" height="1.48" fill="#ef9999" opacity="0.55"/>
<rect x="1144.15" y="808.43" width="5.32" height="6.82" fill="#ef9999" opacity="0.55"/>
<rect x="1156.09" y="808.43" width="5.32" height="9.26" fill="#ef9999" opacity="0.55"/>
<rect x="1168.03" y="808.43" width="5.32" height="12.47" fill="#ef9999" opacity="0.55"/>
<rect x="1179.97" y="808.43" width="5.32" height="12.13" fill="#ef9999" opacity="0.55"/>
<rect x="1191.92" y="808.43" width="5.32" height="12.93" fill="#ef9999" opacity="0.55"/>
<rect x="1203.86" y="808.43" width="5.32" height="12.66" fill="#ef9999" opacity="0.55"/>
<rect x="1215.80" y="808.43" width="5.32" height="20.47" fill="#ef9999" opacity="0.55"/>
<rect x="1227.74" y="808.43" width="5.32" height="23.53" fill="#ef9999" opacity="0.55"/>
<rect x="1239.68" y="808.43" width="5.32" height="22.27" fill="#ef9999" opacity="0.55"/>
<rect x="1251.63" y="808.43" width="5.32" height="20.87" fill="#ef9999" opacity="0.55"/>
<rect x="1263.57" y="808.43" width="5.32" height="17.80" fill="#ef9999" opacity="0.55"/>
<rect x="1275.51" y="808.43" width="5.32" height="11.08" fill="#ef9999" opacity="0.55"/>
<rect x="1287.45" y="808.43" width="5.32" height="7.78" fill="#ef9999" opacity="0.55"/>
<rect x="1299.40" y="808.43" width="5.32" height="4.22" fill="#ef9999" opacity="0.55"/>
<rect x="1311.34" y="808.43" width="5.32" height="1.75" fill="#ef9999" opacity="0.55"/>
<path d="M 72.00 869.25 L 83.94 863.90 L 95.88 858.92 L 107.83 854.59 L 119.77 859.68 L 131.71 861.89 L 143.65 863.96 L 155.60 863.25 L 167.54 863.64 L 179.48 866.97 L 191.42 867.44 L 203.37 866.18 L 215.31 861.26 L 227.25 859.68 L 239.19 862.78 L 251.13 867.76 L 263.08 869.02 L 275.02 869.85 L 286.96 871.64 L 298.90 867.24 L 310.85 865.42 L 322.79 862.30 L 334.73 863.08 L 346.67 862.72 L 358.62 860.03 L 370.56 857.92 L 382.50 858.29 L 394.44 853.07 L 406.38 851.56 L 418.33 852.50 L 430.27 852.41 L 442.21 850.47 L 454.15 856.08 L 466.10 855.49 L 478.04 854.37 L 489.98 851.96 L 501.92 852.82 L 513.87 851.88 L 525.81 852.62 L 537.75 852.17 L 549.69 853.02 L 561.63 853.28 L 573.58 853.70 L 585.52 850.18 L 597.46 847.91 L 609.40 847.89 L 621.35 849.75 L 633.29 850.39 L 645.23 849.27 L 657.17 848.82 L 669.12 848.75 L 681.06 840.09 L 693.00 832.61 L 704.94 828.43 L 716.88 823.24 L 728.83 814.96 L 740.77 805.62 L 752.71 801.87 L 764.65 799.97 L 776.60 798.95 L 788.54 796.12 L 800.48 781.38 L 812.42 768.42 L 824.37 762.21 L 836.31 756.72 L 848.25 755.86 L 860.19 754.36 L 872.13 755.04 L 884.08 756.13 L 896.02 762.84 L 907.96 773.21 L 919.90 781.34 L 931.85 789.71 L 943.79 796.46 L 955.73 798.22 L 967.67 801.14 L 979.62 801.79 L 991.56 806.02 L 1003.50 810.72 L 1015.44 810.71 L 1027.38 804.95 L 1039.33 797.99 L 1051.27 786.96 L 1063.21 783.31 L 1075.15 783.80 L 1087.10 782.70 L 1099.04 781.87 L 1110.98 784.35 L 1122.92 783.98 L 1134.87 785.22 L 1146.81 795.23 L 1158.75 799.98 L 1170.69 806.31 L 1182.63 809.00 L 1194.58 813.03 L 1206.52 815.93 L 1218.46 828.85 L 1230.40 837.80 L 1242.35 842.11 L 1254.29 845.92 L 1266.23 847.30 L 1278.17 843.36 L 1290.12 842.00 L 1302.06 839.49 L 1314.00 837.46" fill="none" stroke="#ef4444" stroke-width="2"/>
<path d="M 72.00 865.95 L 83.94 865.54 L 95.88 864.21 L 107.83 862.29 L 119.77 861.77 L 131.71 861.79 L 143.65 862.23 L 155.60 862.43 L 167.54 862.67 L 179.48 863.53 L 191.42 864.31 L 203.37 864.69 L 215.31 864.00 L 227.25 863.14 L 239.19 863.06 L 251.13 864.00 L 263.08 865.01 L 275.02 865.98 L 286.96 867.11 L 298.90 867.14 L 310.85 866.79 L 322.79 865.89 L 334.73 865.33 L 346.67 864.81 L 358.62 863.85 L 370.56 862.67 L 382.50 861.79 L 394.44 860.05 L 406.38 858.35 L 418.33 857.18 L 430.27 856.23 L 442.21 855.08 L 454.15 855.28 L 466.10 855.32 L 478.04 855.13 L 489.98 854.50 L 501.92 854.16 L 513.87 853.70 L 525.81 853.49 L 537.75 853.22 L 549.69 853.18 L 561.63 853.20 L 573.58 853.30 L 585.52 852.68 L 597.46 851.72 L 609.40 850.96 L 621.35 850.71 L 633.29 850.65 L 645.23 850.37 L 657.17 850.06 L 669.12 849.80 L 681.06 847.86 L 693.00 844.81 L 704.94 841.53 L 716.88 837.88 L 728.83 833.29 L 740.77 827.76 L 752.71 822.58 L 764.65 818.06 L 776.60 814.23 L 788.54 810.61 L 800.48 804.77 L 812.42 797.50 L 824.37 790.44 L 836.31 783.69 L 848.25 778.13 L 860.19 773.37 L 872.13 769.71 L 884.08 766.99 L 896.02 766.16 L 907.96 767.57 L 919.90 770.33 L 931.85 774.20 L 943.79 778.66 L 955.73 782.57 L 967.67 786.28 L 979.62 789.38 L 991.56 792.71 L 1003.50 796.31 L 1015.44 799.19 L 1027.38 800.34 L 1039.33 799.87 L 1051.27 797.29 L 1063.21 794.49 L 1075.15 792.36 L 1087.10 790.42 L 1099.04 788.71 L 1110.98 787.84 L 1122.92 787.07 L 1134.87 786.70 L 1146.81 788.41 L 1158.75 790.72 L 1170.69 793.84 L 1182.63 796.87 L 1194.58 800.10 L 1206.52 803.27 L 1218.46 808.38 L 1230.40 814.27 L 1242.35 819.83 L 1254.29 825.05 L 1266.23 829.50 L 1278.17 832.27 L 1290.12 834.22 L 1302.06 835.27 L 1314.00 835.71" fill="none" stroke="#3f5bff" stroke-width="2"/>
<text x="78" y="918" class="label">RSI 14</text>
<text x="1321" y="912" class="small">100.00</text>
<text x="1321" y="1006" class="small">0.00</text>
<line x1="72" y1="973.92" x2="1314" y2="973.92" stroke="#4775d1" stroke-dasharray="5 5"/>
<line x1="72" y1="955.00" x2="1314" y2="955.00" stroke="#e05a5a" stroke-dasharray="5 5"/>
<line x1="72" y1="936.08" x2="1314" y2="936.08" stroke="#e05a5a" stroke-dasharray="5 5"/>
<path d="M 72.00 961.50 L 83.94 959.15 L 95.88 958.97 L 107.83 959.13 L 119.77 967.12 L 131.71 965.59 L 143.65 966.38 L 155.60 964.03 L 167.54 965.49 L 179.48 968.71 L 191.42 966.48 L 203.37 965.02 L 215.31 960.21 L 227.25 963.29 L 239.19 967.97 L 251.13 970.60 L 263.08 967.55 L 275.02 968.03 L 286.96 969.73 L 298.90 961.77 L 310.85 964.15 L 322.79 962.57 L 334.73 966.54 L 346.67 965.96 L 358.62 963.02 L 370.56 963.71 L 382.50 966.68 L 394.44 958.61 L 406.38 962.29 L 418.33 965.15 L 430.27 964.62 L 442.21 962.26 L 454.15 970.18 L 466.10 963.27 L 478.04 963.10 L 489.98 961.53 L 501.92 965.16 L 513.87 963.34 L 525.81 965.57 L 537.75 964.64 L 549.69 966.66 L 561.63 966.76 L 573.58 967.69 L 585.52 960.94 L 597.46 962.32 L 609.40 965.41 L 621.35 968.38 L 633.29 967.62 L 645.23 965.02 L 657.17 966.33 L 669.12 967.42 L 681.06 951.59 L 693.00 951.09 L 704.94 954.56 L 716.88 951.78 L 728.83 945.90 L 740.77 942.48 L 752.71 949.03 L 764.65 950.69 L 776.60 951.34 L 788.54 948.15 L 800.48 935.27 L 812.42 934.04 L 824.37 940.08 L 836.31 939.09 L 848.25 943.86 L 860.19 942.46 L 872.13 944.55 L 884.08 944.49 L 896.02 953.02 L 907.96 959.02 L 919.90 958.45 L 931.85 960.59 L 943.79 960.55 L 955.73 954.78 L 967.67 956.86 L 979.62 954.21 L 991.56 959.47 L 1003.50 961.27 L 1015.44 955.44 L 1027.38 948.04 L 1039.33 945.31 L 1051.27 939.94 L 1063.21 947.02 L 1075.15 951.07 L 1087.10 949.19 L 1099.04 948.90 L 1110.98 952.86 L 1122.92 949.79 L 1134.87 951.58 L 1146.81 962.02 L 1158.75 957.91 L 1170.69 960.55 L 1182.63 957.62 L 1194.58 959.75 L 1206.52 959.47 L 1218.46 969.49 L 1230.40 968.16 L 1242.35 964.81 L 1254.29 965.57 L 1266.23 963.82 L 1278.17 957.48 L 1290.12 959.89 L 1302.06 958.42 L 1314.00 958.78" fill="none" stroke="#ef4444" stroke-width="2"/>
<text x="78" y="1040" class="label">MFI 14</text>
<text x="1321" y="1034" class="small">100.00</text>
<text x="1321" y="1128" class="small">0.00</text>
<line x1="72" y1="1095.92" x2="1314" y2="1095.92" stroke="#4775d1" stroke-dasharray="5 5"/>
<line x1="72" y1="1077.00" x2="1314" y2="1077.00" stroke="#e05a5a" stroke-dasharray="5 5"/>
<line x1="72" y1="1058.08" x2="1314" y2="1058.08" stroke="#e05a5a" stroke-dasharray="5 5"/>
<path d="M 72.00 1075.98 L 83.94 1077.64 L 95.88 1078.92 L 107.83 1085.80 L 119.77 1095.95 L 131.71 1094.85 L 143.65 1094.47 L 155.60 1088.56 L 167.54 1088.71 L 179.48 1095.45 L 191.42 1095.40 L 203.37 1089.48 L 215.31 1082.74 L 227.25 1082.90 L 239.19 1089.74 L 251.13 1094.58 L 263.08 1095.52 L 275.02 1089.84 L 286.96 1086.49 L 298.90 1077.07 L 310.85 1076.57 L 322.79 1081.40 L 334.73 1081.20 L 346.67 1080.90 L 358.62 1079.65 L 370.56 1085.76 L 382.50 1092.58 L 394.44 1085.69 L 406.38 1085.63 L 418.33 1085.23 L 430.27 1091.54 L 442.21 1091.94 L 454.15 1094.25 L 466.10 1095.27 L 478.04 1090.03 L 489.98 1085.51 L 501.92 1085.73 L 513.87 1079.06 L 525.81 1085.53 L 537.75 1085.22 L 549.69 1085.52 L 561.63 1091.01 L 573.58 1089.92 L 585.52 1083.52 L 597.46 1076.53 L 609.40 1082.29 L 621.35 1076.71 L 633.29 1085.31 L 645.23 1085.99 L 657.17 1093.22 L 669.12 1084.98 L 681.06 1081.04 L 693.00 1073.56 L 704.94 1072.72 L 716.88 1066.81 L 728.83 1061.31 L 740.77 1055.04 L 752.71 1062.99 L 764.65 1070.23 L 776.60 1069.99 L 788.54 1064.88 L 800.48 1056.06 L 812.42 1054.97 L 824.37 1057.01 L 836.31 1062.01 L 848.25 1071.45 L 860.19 1072.20 L 872.13 1072.84 L 884.08 1078.50 L 896.02 1085.18 L 907.96 1091.78 L 919.90 1091.25 L 931.85 1091.13 L 943.79 1087.92 L 955.73 1086.59 L 967.67 1100.15 L 979.62 1100.35 L 991.56 1099.66 L 1003.50 1098.96 L 1015.44 1092.66 L 1027.38 1091.80 L 1039.33 1085.18 L 1051.27 1077.22 L 1063.21 1066.07 L 1075.15 1069.35 L 1087.10 1063.18 L 1099.04 1057.29 L 1110.98 1062.32 L 1122.92 1062.34 L 1134.87 1056.44 L 1146.81 1063.18 L 1158.75 1057.75 L 1170.69 1059.37 L 1182.63 1059.27 L 1194.58 1064.08 L 1206.52 1069.71 L 1218.46 1078.32 L 1230.40 1088.14 L 1242.35 1079.04 L 1254.29 1080.78 L 1266.23 1081.00 L 1278.17 1073.04 L 1290.12 1073.77 L 1302.06 1081.02 L 1314.00 1074.01" fill="none" stroke="#f05252" stroke-width="2"/>
<rect x="638.00" y="48" width="110" height="22" rx="4" fill="#30343b"/>
<text x="693.00" y="64" text-anchor="middle" style="font-size:12px;fill:#fff;font-weight:700">MMRM 기준봉</text>
<text x="72.00" y="1152" text-anchor="middle" class="small">이전 52주</text>
<text x="382.50" y="1152" text-anchor="middle" class="small">-26</text>
<text x="693.00" y="1152" text-anchor="middle" class="small">T0</text>
<text x="1003.50" y="1152" text-anchor="middle" class="small">+26</text>
<text x="1314.00" y="1152" text-anchor="middle" class="small">이후 52주</text>
</svg>