<svg xmlns="http://www.w3.org/2000/svg" viewBox="0 0 1200 710" role="img">
<title>장기선 밀집 저항·회복 시도형 고정 패턴 중심 프로토타입</title>
<rect width="1200" height="710" fill="#ffffff"/>
<style>text{font-family:system-ui,-apple-system,'Noto Sans KR',sans-serif;fill:#172033}.title{font-size:22px;font-weight:800}.sub{font-size:13px;fill:#647085}.axis{font-size:11px;fill:#6b7280}.metric{font-size:12px;fill:#647085}.value{font-size:17px;font-weight:800;fill:#1d5fd1}.legend{font-size:11px;font-weight:700}</style>
<text x="40" y="30" class="title">장기선 밀집 저항·회복 시도형</text>
<text x="40" y="53" class="sub">고정 모델 CS03 중심 · 기준봉 이전 T-52~T0만 사용 · 기준봉 종가=100 · 다섯 이미지 동일 축</text>
<line x1="570" y1="69" x2="594" y2="69" stroke="#111827" stroke-width="4"/>
<text x="600" y="73" class="legend">종가</text>
<line x1="662" y1="69" x2="686" y2="69" stroke="#168b4b" stroke-width="2"/>
<text x="692" y="73" class="legend">MA5</text>
<line x1="754" y1="69" x2="778" y2="69" stroke="#13b8c8" stroke-width="2"/>
<text x="784" y="73" class="legend">MA20</text>
<line x1="846" y1="69" x2="870" y2="69" stroke="#3156d9" stroke-width="2"/>
<text x="876" y="73" class="legend">MA50</text>
<line x1="938" y1="69" x2="962" y2="69" stroke="#8b3f2b" stroke-width="2"/>
<text x="968" y="73" class="legend">MA150</text>
<line x1="1030" y1="69" x2="1054" y2="69" stroke="#e05252" stroke-width="2"/>
<text x="1060" y="73" class="legend">MA200</text>
<line x1="80.0" y1="410.0" x2="1140.0" y2="410.0" stroke="#e6ebf2"/>
<text x="70.0" y="414.0" text-anchor="end" class="axis">40</text>
<line x1="80.0" y1="358.3" x2="1140.0" y2="358.3" stroke="#e6ebf2"/>
<text x="70.0" y="362.3" text-anchor="end" class="axis">65</text>
<line x1="80.0" y1="306.7" x2="1140.0" y2="306.7" stroke="#e6ebf2"/>
<text x="70.0" y="310.7" text-anchor="end" class="axis">90</text>
<line x1="80.0" y1="255.0" x2="1140.0" y2="255.0" stroke="#e6ebf2"/>
<text x="70.0" y="259.0" text-anchor="end" class="axis">115</text>
<line x1="80.0" y1="203.3" x2="1140.0" y2="203.3" stroke="#e6ebf2"/>
<text x="70.0" y="207.3" text-anchor="end" class="axis">140</text>
<line x1="80.0" y1="151.7" x2="1140.0" y2="151.7" stroke="#e6ebf2"/>
<text x="70.0" y="155.7" text-anchor="end" class="axis">165</text>
<line x1="80.0" y1="100.0" x2="1140.0" y2="100.0" stroke="#e6ebf2"/>
<text x="70.0" y="104.0" text-anchor="end" class="axis">190</text>
<line x1="80.0" y1="100.0" x2="80.0" y2="410.0" stroke="#eef2f7"/>
<text x="80.0" y="429.0" text-anchor="middle" class="axis">T-52</text>
<line x1="324.6" y1="100.0" x2="324.6" y2="410.0" stroke="#eef2f7"/>
<text x="324.6" y="429.0" text-anchor="middle" class="axis">T-40</text>
<line x1="569.2" y1="100.0" x2="569.2" y2="410.0" stroke="#eef2f7"/>
<text x="569.2" y="429.0" text-anchor="middle" class="axis">T-28</text>
<line x1="813.8" y1="100.0" x2="813.8" y2="410.0" stroke="#eef2f7"/>
<text x="813.8" y="429.0" text-anchor="middle" class="axis">T-16</text>
<line x1="1140.0" y1="100.0" x2="1140.0" y2="410.0" stroke="#eef2f7"/>
<text x="1140.0" y="429.0" text-anchor="middle" class="axis">T0 기준봉</text>
<polygon points="80.0,261.0 161.5,261.8 243.1,262.1 324.6,263.6 406.2,264.3 487.7,264.2 569.2,264.5 650.8,264.3 732.3,263.6 813.8,263.9 895.4,264.8 976.9,266.0 1058.5,266.5 1140.0,260.3 1140.0,264.5 1058.5,271.2 976.9,271.2 895.4,270.4 813.8,270.0 732.3,269.8 650.8,270.9 569.2,272.1 487.7,271.9 406.2,272.2 324.6,272.0 243.1,270.6 161.5,270.1 80.0,269.7" fill="#e05252" opacity="0.08"/>
<polyline points="80.0,261.0 161.5,261.8 243.1,262.1 324.6,263.6 406.2,264.3 487.7,264.2 569.2,264.5 650.8,264.3 732.3,263.6 813.8,263.9 895.4,264.8 976.9,266.0 1058.5,266.5 1140.0,260.3" fill="none" stroke="#8b3f2b" stroke-width="2" stroke-linejoin="round" stroke-linecap="round"/>
<polyline points="80.0,269.7 161.5,270.1 243.1,270.6 324.6,272.0 406.2,272.2 487.7,271.9 569.2,272.1 650.8,270.9 732.3,269.8 813.8,270.0 895.4,270.4 976.9,271.2 1058.5,271.2 1140.0,264.5" fill="none" stroke="#e05252" stroke-width="2" stroke-linejoin="round" stroke-linecap="round"/>
<polyline points="80.0,238.9 161.5,241.6 243.1,243.5 324.6,247.8 406.2,252.6 487.7,257.3 569.2,261.9 650.8,267.0 732.3,271.2 813.8,276.0 895.4,280.9 976.9,285.7 1058.5,290.4 1140.0,288.6" fill="none" stroke="#3156d9" stroke-width="2" stroke-linejoin="round" stroke-linecap="round"/>
<polyline points="80.0,242.2 161.5,248.4 243.1,257.4 324.6,265.9 406.2,274.5 487.7,282.8 569.2,287.8 650.8,290.9 732.3,292.0 813.8,292.5 895.4,294.3 976.9,297.0 1058.5,300.7 1140.0,298.3" fill="none" stroke="#13b8c8" stroke-width="2" stroke-linejoin="round" stroke-linecap="round"/>
<polyline points="80.0,254.6 161.5,263.9 243.1,274.7 324.6,282.3 406.2,290.7 487.7,293.0 569.2,292.9 650.8,290.8 732.3,289.0 813.8,292.4 895.4,301.4 976.9,308.4 1058.5,310.2 1140.0,297.9" fill="none" stroke="#168b4b" stroke-width="2" stroke-linejoin="round" stroke-linecap="round"/>
<polyline points="80.0,259.6 161.5,270.4 243.1,277.6 324.6,287.6 406.2,292.3 487.7,293.3 569.2,292.1 650.8,289.3 732.3,289.3 813.8,295.0 895.4,306.3 976.9,310.9 1058.5,307.9 1140.0,286.0" fill="none" stroke="#111827" stroke-width="4" stroke-linejoin="round" stroke-linecap="round"/>
<line x1="1140.0" y1="92.0" x2="1140.0" y2="410.0" stroke="#1d5fd1" stroke-width="3" stroke-dasharray="7 5"/>
<text x="80.0" y="458.0" class="sub">기준봉 이전 누적고점 대비 낙폭 경로</text>
<line x1="80.0" y1="555.0" x2="1140.0" y2="555.0" stroke="#edf1f6"/>
<text x="70.0" y="559.0" text-anchor="end" class="axis">-60%</text>
<line x1="80.0" y1="526.7" x2="1140.0" y2="526.7" stroke="#edf1f6"/>
<text x="70.0" y="530.7" text-anchor="end" class="axis">-40%</text>
<line x1="80.0" y1="498.3" x2="1140.0" y2="498.3" stroke="#edf1f6"/>
<text x="70.0" y="502.3" text-anchor="end" class="axis">-20%</text>
<line x1="80.0" y1="470.0" x2="1140.0" y2="470.0" stroke="#edf1f6"/>
<text x="70.0" y="474.0" text-anchor="end" class="axis">0%</text>
<polygon points="80.0,470.0 80.0,471.8 161.5,481.7 243.1,487.5 324.6,493.8 406.2,496.7 487.7,497.7 569.2,497.7 650.8,497.1 732.3,497.7 813.8,500.9 895.4,507.2 976.9,509.8 1058.5,508.1 1140.0,498.6 1140.0,470.0" fill="#e05252" opacity="0.16"/>
<polyline points="80.0,471.8 161.5,481.7 243.1,487.5 324.6,493.8 406.2,496.7 487.7,497.7 569.2,497.7 650.8,497.1 732.3,497.7 813.8,500.9 895.4,507.2 976.9,509.8 1058.5,508.1 1140.0,498.6" fill="none" stroke="#c63f4a" stroke-width="3" stroke-linejoin="round"/>
<rect x="80.0" y="590.0" width="168.3" height="83.0" rx="12" fill="#f4f7fb" stroke="#e0e7f0"/>
<text x="164.2" y="617.0" text-anchor="middle" class="metric">이전 52주 수익</text>
<text x="164.2" y="647.0" text-anchor="middle" class="value">-9.4%</text>
<rect x="258.3" y="590.0" width="168.3" height="83.0" rx="12" fill="#f4f7fb" stroke="#e0e7f0"/>
<text x="342.5" y="617.0" text-anchor="middle" class="metric">최대낙폭</text>
<text x="342.5" y="647.0" text-anchor="middle" class="value">-35.9%</text>
<rect x="436.7" y="590.0" width="168.3" height="83.0" rx="12" fill="#f4f7fb" stroke="#e0e7f0"/>
<text x="520.8" y="617.0" text-anchor="middle" class="metric">연환산 변동성</text>
<text x="520.8" y="647.0" text-anchor="middle" class="value">+40.5%</text>
<rect x="615.0" y="590.0" width="168.3" height="83.0" rx="12" fill="#f4f7fb" stroke="#e0e7f0"/>
<text x="699.2" y="617.0" text-anchor="middle" class="metric">MA150 / MA200 이격</text>
<text x="699.2" y="647.0" text-anchor="middle" class="value">-11.1% / -9.4%</text>
<rect x="793.3" y="590.0" width="168.3" height="83.0" rx="12" fill="#f4f7fb" stroke="#e0e7f0"/>
<text x="877.5" y="617.0" text-anchor="middle" class="metric">150·200주선 간격</text>
<text x="877.5" y="647.0" text-anchor="middle" class="value">+7.1%</text>
<rect x="971.7" y="590.0" width="168.3" height="83.0" rx="12" fill="#f4f7fb" stroke="#e0e7f0"/>
<text x="1055.8" y="617.0" text-anchor="middle" class="metric">ATH 안전마진</text>
<text x="1055.8" y="647.0" text-anchor="middle" class="value">+46.2%</text>
<text x="1140" y="698" text-anchor="end" class="axis">실제 종목 차트가 아니라 학습구간 고정 중심점의 역변환 프로토타입</text>
</svg>