<svg xmlns="http://www.w3.org/2000/svg" width="1400" height="1120" viewBox="0 0 1400 1120">
<rect width="100%" height="100%" fill="#ffffff"/>
<style>text{font-family:Segoe UI,Arial,sans-serif;fill:#30343b}.small{font-size:12px}.label{font-size:14px;font-weight:600}.title{font-size:18px;font-weight:700}</style>
<text x="72" y="25" class="title">NVS · MMRM 2016-05-23 · 시가총액 48위 · T-52 ~ T+52</text>
<rect x="72" y="42" width="1242" height="390" fill="#fcfcfc" stroke="#d7dce2"/>
<line x1="72.00" y1="42" x2="72.00" y2="432" stroke="#e2e5e9" stroke-width="1"/>
<line x1="382.50" y1="42" x2="382.50" y2="432" stroke="#e2e5e9" stroke-width="1"/>
<line x1="693.00" y1="42" x2="693.00" y2="432" stroke="#656d78" stroke-width="2.2"/>
<line x1="1003.50" y1="42" x2="1003.50" y2="432" stroke="#e2e5e9" stroke-width="1"/>
<line x1="1314.00" y1="42" x2="1314.00" y2="432" stroke="#e2e5e9" stroke-width="1"/>
<rect x="72" y="444" width="1242" height="150" fill="#fcfcfc" stroke="#d7dce2"/>
<line x1="72.00" y1="444" x2="72.00" y2="594" stroke="#e2e5e9" stroke-width="1"/>
<line x1="382.50" y1="444" x2="382.50" y2="594" stroke="#e2e5e9" stroke-width="1"/>
<line x1="693.00" y1="444" x2="693.00" y2="594" stroke="#656d78" stroke-width="2.2"/>
<line x1="1003.50" y1="444" x2="1003.50" y2="594" stroke="#e2e5e9" stroke-width="1"/>
<line x1="1314.00" y1="444" x2="1314.00" y2="594" stroke="#e2e5e9" stroke-width="1"/>
<rect x="72" y="606" width="1242" height="120" fill="#fcfcfc" stroke="#d7dce2"/>
<line x1="72.00" y1="606" x2="72.00" y2="726" stroke="#e2e5e9" stroke-width="1"/>
<line x1="382.50" y1="606" x2="382.50" y2="726" stroke="#e2e5e9" stroke-width="1"/>
<line x1="693.00" y1="606" x2="693.00" y2="726" stroke="#656d78" stroke-width="2.2"/>
<line x1="1003.50" y1="606" x2="1003.50" y2="726" stroke="#e2e5e9" stroke-width="1"/>
<line x1="1314.00" y1="606" x2="1314.00" y2="726" stroke="#e2e5e9" stroke-width="1"/>
<rect x="72" y="738" width="1242" height="150" fill="#fcfcfc" stroke="#d7dce2"/>
<line x1="72.00" y1="738" x2="72.00" y2="888" stroke="#e2e5e9" stroke-width="1"/>
<line x1="382.50" y1="738" x2="382.50" y2="888" stroke="#e2e5e9" stroke-width="1"/>
<line x1="693.00" y1="738" x2="693.00" y2="888" stroke="#656d78" stroke-width="2.2"/>
<line x1="1003.50" y1="738" x2="1003.50" y2="888" stroke="#e2e5e9" stroke-width="1"/>
<line x1="1314.00" y1="738" x2="1314.00" y2="888" stroke="#e2e5e9" stroke-width="1"/>
<rect x="72" y="900" width="1242" height="110" fill="#fcfcfc" stroke="#d7dce2"/>
<line x1="72.00" y1="900" x2="72.00" y2="1010" stroke="#e2e5e9" stroke-width="1"/>
<line x1="382.50" y1="900" x2="382.50" y2="1010" stroke="#e2e5e9" stroke-width="1"/>
<line x1="693.00" y1="900" x2="693.00" y2="1010" stroke="#656d78" stroke-width="2.2"/>
<line x1="1003.50" y1="900" x2="1003.50" y2="1010" stroke="#e2e5e9" stroke-width="1"/>
<line x1="1314.00" y1="900" x2="1314.00" y2="1010" stroke="#e2e5e9" stroke-width="1"/>
<rect x="72" y="1022" width="1242" height="110" fill="#fcfcfc" stroke="#d7dce2"/>
<line x1="72.00" y1="1022" x2="72.00" y2="1132" stroke="#e2e5e9" stroke-width="1"/>
<line x1="382.50" y1="1022" x2="382.50" y2="1132" stroke="#e2e5e9" stroke-width="1"/>
<line x1="693.00" y1="1022" x2="693.00" y2="1132" stroke="#656d78" stroke-width="2.2"/>
<line x1="1003.50" y1="1022" x2="1003.50" y2="1132" stroke="#e2e5e9" stroke-width="1"/>
<line x1="1314.00" y1="1022" x2="1314.00" y2="1132" stroke="#e2e5e9" stroke-width="1"/>
<text x="78" y="60" class="label">주봉 가격 · MA 5/20/50/150/200</text>
<text x="1321" y="54" class="small">97.52</text>
<text x="1321" y="428" class="small">58.19</text>
<line x1="72.00" y1="101.96" x2="72.00" y2="123.28" stroke="#3156d9"/>
<rect x="68.75" y="113.12" width="6.51" height="2.83" fill="#ffffff" stroke="#3156d9"/>
<line x1="83.94" y1="103.34" x2="83.94" y2="131.84" stroke="#3156d9"/>
<rect x="80.69" y="107.54" width="6.51" height="18.11" fill="#ffffff" stroke="#3156d9"/>
<line x1="95.88" y1="114.04" x2="95.88" y2="135.27" stroke="#ef3b3b"/>
<rect x="92.63" y="122.90" width="6.51" height="3.90" fill="#ef3b3b" stroke="#ef3b3b"/>
<line x1="107.83" y1="121.45" x2="107.83" y2="144.14" stroke="#ef3b3b"/>
<rect x="104.57" y="135.35" width="6.51" height="7.41" fill="#ef3b3b" stroke="#ef3b3b"/>
<line x1="119.77" y1="113.12" x2="119.77" y2="139.40" stroke="#3156d9"/>
<rect x="116.52" y="122.82" width="6.51" height="14.59" fill="#ffffff" stroke="#3156d9"/>
<line x1="131.71" y1="137.03" x2="131.71" y2="153.23" stroke="#ef3b3b"/>
<rect x="128.46" y="138.33" width="6.51" height="1.20" fill="#ef3b3b" stroke="#ef3b3b"/>
<line x1="143.65" y1="106.62" x2="143.65" y2="156.74" stroke="#ef3b3b"/>
<rect x="140.40" y="112.20" width="6.51" height="43.47" fill="#ef3b3b" stroke="#ef3b3b"/>
<line x1="155.60" y1="90.20" x2="155.60" y2="108.15" stroke="#ef3b3b"/>
<rect x="152.34" y="92.41" width="6.51" height="9.40" fill="#ef3b3b" stroke="#ef3b3b"/>
<line x1="167.54" y1="84.55" x2="167.54" y2="129.16" stroke="#3156d9"/>
<rect x="164.29" y="85.39" width="6.51" height="37.66" fill="#ffffff" stroke="#3156d9"/>
<line x1="179.48" y1="100.51" x2="179.48" y2="126.87" stroke="#ef3b3b"/>
<rect x="176.23" y="108.15" width="6.51" height="9.70" fill="#ef3b3b" stroke="#ef3b3b"/>
<line x1="191.42" y1="102.35" x2="191.42" y2="126.79" stroke="#3156d9"/>
<rect x="188.17" y="102.65" width="6.51" height="17.27" fill="#ffffff" stroke="#3156d9"/>
<line x1="203.37" y1="112.05" x2="203.37" y2="131.30" stroke="#ef3b3b"/>
<rect x="200.11" y="117.86" width="6.51" height="2.22" fill="#ef3b3b" stroke="#ef3b3b"/>
<line x1="215.31" y1="109.45" x2="215.31" y2="155.67" stroke="#3156d9"/>
<rect x="212.05" y="117.47" width="6.51" height="37.97" fill="#ffffff" stroke="#3156d9"/>
<line x1="227.25" y1="144.67" x2="227.25" y2="197.85" stroke="#ef3b3b"/>
<rect x="224.00" y="149.41" width="6.51" height="26.97" fill="#ef3b3b" stroke="#ef3b3b"/>
<line x1="239.19" y1="150.02" x2="239.19" y2="184.09" stroke="#3156d9"/>
<rect x="235.94" y="152.16" width="6.51" height="26.28" fill="#ffffff" stroke="#3156d9"/>
<line x1="251.13" y1="151.24" x2="251.13" y2="174.01" stroke="#ef3b3b"/>
<rect x="247.88" y="163.16" width="6.51" height="4.35" fill="#ef3b3b" stroke="#ef3b3b"/>
<line x1="263.08" y1="144.82" x2="263.08" y2="174.16" stroke="#ef3b3b"/>
<rect x="259.82" y="162.40" width="6.51" height="7.11" fill="#ef3b3b" stroke="#ef3b3b"/>
<line x1="275.02" y1="154.91" x2="275.02" y2="206.71" stroke="#3156d9"/>
<rect x="271.77" y="156.28" width="6.51" height="46.91" fill="#ffffff" stroke="#3156d9"/>
<line x1="286.96" y1="188.22" x2="286.96" y2="221.68" stroke="#ef3b3b"/>
<rect x="283.71" y="188.22" width="6.51" height="4.97" fill="#ef3b3b" stroke="#ef3b3b"/>
<line x1="298.90" y1="178.82" x2="298.90" y2="204.11" stroke="#3156d9"/>
<rect x="295.65" y="184.48" width="6.51" height="14.21" fill="#ffffff" stroke="#3156d9"/>
<line x1="310.85" y1="174.16" x2="310.85" y2="205.94" stroke="#ef3b3b"/>
<rect x="307.59" y="174.77" width="6.51" height="25.98" fill="#ef3b3b" stroke="#ef3b3b"/>
<line x1="322.79" y1="177.83" x2="322.79" y2="207.78" stroke="#3156d9"/>
<rect x="319.54" y="178.44" width="6.51" height="11.99" fill="#ffffff" stroke="#3156d9"/>
<line x1="334.73" y1="190.28" x2="334.73" y2="213.81" stroke="#3156d9"/>
<rect x="331.48" y="195.10" width="6.51" height="14.82" fill="#ffffff" stroke="#3156d9"/>
<line x1="346.67" y1="204.42" x2="346.67" y2="219.08" stroke="#3156d9"/>
<rect x="343.42" y="208.01" width="6.51" height="8.02" fill="#ffffff" stroke="#3156d9"/>
<line x1="358.62" y1="220.69" x2="358.62" y2="245.44" stroke="#3156d9"/>
<rect x="355.36" y="223.52" width="6.51" height="18.11" fill="#ffffff" stroke="#3156d9"/>
<line x1="370.56" y1="219.70" x2="370.56" y2="239.71" stroke="#ef3b3b"/>
<rect x="367.30" y="225.81" width="6.51" height="13.29" fill="#ef3b3b" stroke="#ef3b3b"/>
<line x1="382.50" y1="231.61" x2="382.50" y2="245.98" stroke="#3156d9"/>
<rect x="379.25" y="233.75" width="6.51" height="11.23" fill="#ffffff" stroke="#3156d9"/>
<line x1="394.44" y1="241.24" x2="394.44" y2="256.90" stroke="#ef3b3b"/>
<rect x="391.19" y="242.08" width="6.51" height="3.59" fill="#ef3b3b" stroke="#ef3b3b"/>
<line x1="406.38" y1="241.39" x2="406.38" y2="261.64" stroke="#3156d9"/>
<rect x="403.13" y="242.23" width="6.51" height="12.84" fill="#ffffff" stroke="#3156d9"/>
<line x1="418.33" y1="238.57" x2="418.33" y2="260.87" stroke="#ef3b3b"/>
<rect x="415.07" y="253.16" width="6.51" height="1.20" fill="#ef3b3b" stroke="#ef3b3b"/>
<line x1="430.27" y1="237.19" x2="430.27" y2="257.44" stroke="#ef3b3b"/>
<rect x="427.02" y="240.17" width="6.51" height="8.86" fill="#ef3b3b" stroke="#ef3b3b"/>
<line x1="442.21" y1="224.74" x2="442.21" y2="243.61" stroke="#3156d9"/>
<rect x="438.96" y="234.14" width="6.51" height="9.32" fill="#ffffff" stroke="#3156d9"/>
<line x1="454.15" y1="241.77" x2="454.15" y2="279.06" stroke="#3156d9"/>
<rect x="450.90" y="246.89" width="6.51" height="30.79" fill="#ffffff" stroke="#3156d9"/>
<line x1="466.10" y1="266.30" x2="466.10" y2="292.73" stroke="#3156d9"/>
<rect x="462.84" y="274.09" width="6.51" height="13.75" fill="#ffffff" stroke="#3156d9"/>
<line x1="478.04" y1="271.04" x2="478.04" y2="299.46" stroke="#ef3b3b"/>
<rect x="474.79" y="272.49" width="6.51" height="4.66" fill="#ef3b3b" stroke="#ef3b3b"/>
<line x1="489.98" y1="268.51" x2="489.98" y2="322.91" stroke="#3156d9"/>
<rect x="486.73" y="277.68" width="6.51" height="27.43" fill="#ffffff" stroke="#3156d9"/>
<line x1="501.92" y1="308.01" x2="501.92" y2="335.67" stroke="#3156d9"/>
<rect x="498.67" y="310.08" width="6.51" height="22.84" fill="#ffffff" stroke="#3156d9"/>
<line x1="513.87" y1="334.52" x2="513.87" y2="354.16" stroke="#3156d9"/>
<rect x="510.61" y="343.54" width="6.51" height="1.83" fill="#ffffff" stroke="#3156d9"/>
<line x1="525.81" y1="332.00" x2="525.81" y2="347.13" stroke="#ef3b3b"/>
<rect x="522.55" y="337.66" width="6.51" height="8.02" fill="#ef3b3b" stroke="#ef3b3b"/>
<line x1="537.75" y1="331.93" x2="537.75" y2="361.11" stroke="#3156d9"/>
<rect x="534.50" y="335.75" width="6.51" height="14.74" fill="#ffffff" stroke="#3156d9"/>
<line x1="549.69" y1="339.18" x2="549.69" y2="357.90" stroke="#ef3b3b"/>
<rect x="546.44" y="349.19" width="6.51" height="5.65" fill="#ef3b3b" stroke="#ef3b3b"/>
<line x1="561.63" y1="331.85" x2="561.63" y2="353.93" stroke="#ef3b3b"/>
<rect x="558.38" y="332.08" width="6.51" height="20.78" fill="#ef3b3b" stroke="#ef3b3b"/>
<line x1="573.58" y1="333.91" x2="573.58" y2="350.57" stroke="#3156d9"/>
<rect x="570.32" y="334.45" width="6.51" height="11.08" fill="#ffffff" stroke="#3156d9"/>
<line x1="585.52" y1="328.79" x2="585.52" y2="343.92" stroke="#ef3b3b"/>
<rect x="582.27" y="340.79" width="6.51" height="1.91" fill="#ef3b3b" stroke="#ef3b3b"/>
<line x1="597.46" y1="338.42" x2="597.46" y2="366.76" stroke="#3156d9"/>
<rect x="594.21" y="339.26" width="6.51" height="16.04" fill="#ffffff" stroke="#3156d9"/>
<line x1="609.40" y1="322.91" x2="609.40" y2="350.95" stroke="#ef3b3b"/>
<rect x="606.15" y="326.12" width="6.51" height="20.40" fill="#ef3b3b" stroke="#ef3b3b"/>
<line x1="621.35" y1="318.48" x2="621.35" y2="334.60" stroke="#ef3b3b"/>
<rect x="618.09" y="322.83" width="6.51" height="1.20" fill="#ef3b3b" stroke="#ef3b3b"/>
<line x1="633.29" y1="309.62" x2="633.29" y2="321.76" stroke="#ef3b3b"/>
<rect x="630.04" y="316.49" width="6.51" height="4.97" fill="#ef3b3b" stroke="#ef3b3b"/>
<line x1="645.23" y1="310.15" x2="645.23" y2="322.91" stroke="#3156d9"/>
<rect x="641.98" y="311.99" width="6.51" height="8.40" fill="#ffffff" stroke="#3156d9"/>
<line x1="657.17" y1="313.67" x2="657.17" y2="347.13" stroke="#3156d9"/>
<rect x="653.92" y="316.80" width="6.51" height="25.90" fill="#ffffff" stroke="#3156d9"/>
<line x1="669.12" y1="323.14" x2="669.12" y2="335.98" stroke="#ef3b3b"/>
<rect x="665.86" y="329.86" width="6.51" height="5.58" fill="#ef3b3b" stroke="#ef3b3b"/>
<line x1="681.06" y1="317.87" x2="681.06" y2="332.84" stroke="#ef3b3b"/>
<rect x="677.80" y="321.76" width="6.51" height="9.17" fill="#ef3b3b" stroke="#ef3b3b"/>
<line x1="693.00" y1="286.70" x2="693.00" y2="308.62" stroke="#ef3b3b"/>
<rect x="689.75" y="288.76" width="6.51" height="17.50" fill="#ef3b3b" stroke="#ef3b3b"/>
<line x1="704.94" y1="280.89" x2="704.94" y2="296.32" stroke="#ef3b3b"/>
<rect x="701.69" y="282.34" width="6.51" height="6.42" fill="#ef3b3b" stroke="#ef3b3b"/>
<line x1="716.88" y1="274.55" x2="716.88" y2="300.14" stroke="#3156d9"/>
<rect x="713.63" y="281.58" width="6.51" height="16.12" fill="#ffffff" stroke="#3156d9"/>
<line x1="728.83" y1="302.74" x2="728.83" y2="325.66" stroke="#ef3b3b"/>
<rect x="725.57" y="305.57" width="6.51" height="1.30" fill="#ef3b3b" stroke="#ef3b3b"/>
<line x1="740.77" y1="284.10" x2="740.77" y2="311.91" stroke="#3156d9"/>
<rect x="737.52" y="291.36" width="6.51" height="20.40" fill="#ffffff" stroke="#3156d9"/>
<line x1="752.71" y1="267.98" x2="752.71" y2="315.88" stroke="#ef3b3b"/>
<rect x="749.46" y="268.90" width="6.51" height="36.98" fill="#ef3b3b" stroke="#ef3b3b"/>
<line x1="764.65" y1="271.88" x2="764.65" y2="283.11" stroke="#ef3b3b"/>
<rect x="761.40" y="273.33" width="6.51" height="2.67" fill="#ef3b3b" stroke="#ef3b3b"/>
<line x1="776.60" y1="269.36" x2="776.60" y2="278.45" stroke="#3156d9"/>
<rect x="773.34" y="270.20" width="6.51" height="7.11" fill="#ffffff" stroke="#3156d9"/>
<line x1="788.54" y1="262.25" x2="788.54" y2="280.13" stroke="#ef3b3b"/>
<rect x="785.29" y="262.78" width="6.51" height="12.15" fill="#ef3b3b" stroke="#ef3b3b"/>
<line x1="800.48" y1="262.71" x2="800.48" y2="277.61" stroke="#3156d9"/>
<rect x="797.23" y="264.01" width="6.51" height="1.20" fill="#ffffff" stroke="#3156d9"/>
<line x1="812.42" y1="263.17" x2="812.42" y2="276.00" stroke="#ef3b3b"/>
<rect x="809.17" y="265.76" width="6.51" height="4.66" fill="#ef3b3b" stroke="#ef3b3b"/>
<line x1="824.37" y1="266.83" x2="824.37" y2="275.08" stroke="#3156d9"/>
<rect x="821.11" y="271.80" width="6.51" height="1.91" fill="#ffffff" stroke="#3156d9"/>
<line x1="836.31" y1="269.05" x2="836.31" y2="281.43" stroke="#3156d9"/>
<rect x="833.05" y="273.86" width="6.51" height="5.50" fill="#ffffff" stroke="#3156d9"/>
<line x1="848.25" y1="273.10" x2="848.25" y2="307.48" stroke="#3156d9"/>
<rect x="845.00" y="284.02" width="6.51" height="10.85" fill="#ffffff" stroke="#3156d9"/>
<line x1="860.19" y1="291.21" x2="860.19" y2="307.02" stroke="#3156d9"/>
<rect x="856.94" y="293.80" width="6.51" height="1.20" fill="#ffffff" stroke="#3156d9"/>
<line x1="872.13" y1="284.10" x2="872.13" y2="299.99" stroke="#3156d9"/>
<rect x="868.88" y="291.13" width="6.51" height="8.79" fill="#ffffff" stroke="#3156d9"/>
<line x1="884.08" y1="286.93" x2="884.08" y2="298.77" stroke="#ef3b3b"/>
<rect x="880.82" y="294.64" width="6.51" height="3.06" fill="#ef3b3b" stroke="#ef3b3b"/>
<line x1="896.02" y1="272.49" x2="896.02" y2="291.36" stroke="#ef3b3b"/>
<rect x="892.77" y="278.29" width="6.51" height="12.68" fill="#ef3b3b" stroke="#ef3b3b"/>
<line x1="907.96" y1="278.98" x2="907.96" y2="302.74" stroke="#3156d9"/>
<rect x="904.71" y="281.66" width="6.51" height="15.89" fill="#ffffff" stroke="#3156d9"/>
<line x1="919.90" y1="295.03" x2="919.90" y2="306.71" stroke="#3156d9"/>
<rect x="916.65" y="297.70" width="6.51" height="4.97" fill="#ffffff" stroke="#3156d9"/>
<line x1="931.85" y1="306.10" x2="931.85" y2="330.78" stroke="#3156d9"/>
<rect x="928.59" y="311.76" width="6.51" height="7.72" fill="#ffffff" stroke="#3156d9"/>
<line x1="943.79" y1="317.18" x2="943.79" y2="327.42" stroke="#3156d9"/>
<rect x="940.54" y="322.91" width="6.51" height="1.20" fill="#ffffff" stroke="#3156d9"/>
<line x1="955.73" y1="321.00" x2="955.73" y2="358.67" stroke="#3156d9"/>
<rect x="952.48" y="329.02" width="6.51" height="28.80" fill="#ffffff" stroke="#3156d9"/>
<line x1="967.67" y1="350.72" x2="967.67" y2="367.22" stroke="#3156d9"/>
<rect x="964.42" y="352.86" width="6.51" height="11.23" fill="#ffffff" stroke="#3156d9"/>
<line x1="979.62" y1="331.54" x2="979.62" y2="360.58" stroke="#ef3b3b"/>
<rect x="976.36" y="339.34" width="6.51" height="20.32" fill="#ef3b3b" stroke="#ef3b3b"/>
<line x1="991.56" y1="345.14" x2="991.56" y2="361.80" stroke="#3156d9"/>
<rect x="988.30" y="352.94" width="6.51" height="8.17" fill="#ffffff" stroke="#3156d9"/>
<line x1="1003.50" y1="364.17" x2="1003.50" y2="386.78" stroke="#3156d9"/>
<rect x="1000.25" y="366.46" width="6.51" height="2.75" fill="#ffffff" stroke="#3156d9"/>
<line x1="1015.44" y1="368.14" x2="1015.44" y2="384.79" stroke="#3156d9"/>
<rect x="1012.19" y="369.59" width="6.51" height="10.39" fill="#ffffff" stroke="#3156d9"/>
<line x1="1027.38" y1="366.46" x2="1027.38" y2="389.45" stroke="#ef3b3b"/>
<rect x="1024.13" y="367.99" width="6.51" height="8.25" fill="#ef3b3b" stroke="#ef3b3b"/>
<line x1="1039.33" y1="351.94" x2="1039.33" y2="373.56" stroke="#ef3b3b"/>
<rect x="1036.07" y="352.40" width="6.51" height="20.25" fill="#ef3b3b" stroke="#ef3b3b"/>
<line x1="1051.27" y1="349.27" x2="1051.27" y2="354.54" stroke="#3156d9"/>
<rect x="1048.02" y="351.71" width="6.51" height="1.20" fill="#ffffff" stroke="#3156d9"/>
<line x1="1063.21" y1="340.33" x2="1063.21" y2="353.70" stroke="#ef3b3b"/>
<rect x="1059.96" y="344.30" width="6.51" height="2.22" fill="#ef3b3b" stroke="#ef3b3b"/>
<line x1="1075.15" y1="332.46" x2="1075.15" y2="351.25" stroke="#ef3b3b"/>
<rect x="1071.90" y="339.34" width="6.51" height="4.58" fill="#ef3b3b" stroke="#ef3b3b"/>
<line x1="1087.10" y1="332.08" x2="1087.10" y2="353.09" stroke="#3156d9"/>
<rect x="1083.84" y="337.89" width="6.51" height="9.78" fill="#ffffff" stroke="#3156d9"/>
<line x1="1099.04" y1="350.11" x2="1099.04" y2="364.24" stroke="#3156d9"/>
<rect x="1095.79" y="354.39" width="6.51" height="6.65" fill="#ffffff" stroke="#3156d9"/>
<line x1="1110.98" y1="348.20" x2="1110.98" y2="369.59" stroke="#ef3b3b"/>
<rect x="1107.73" y="349.12" width="6.51" height="15.43" fill="#ef3b3b" stroke="#ef3b3b"/>
<line x1="1122.92" y1="335.67" x2="1122.92" y2="352.17" stroke="#ef3b3b"/>
<rect x="1119.67" y="336.28" width="6.51" height="14.82" fill="#ef3b3b" stroke="#ef3b3b"/>
<line x1="1134.87" y1="324.74" x2="1134.87" y2="338.11" stroke="#ef3b3b"/>
<rect x="1131.61" y="326.20" width="6.51" height="11.92" fill="#ef3b3b" stroke="#ef3b3b"/>
<line x1="1146.81" y1="310.92" x2="1146.81" y2="331.39" stroke="#ef3b3b"/>
<rect x="1143.55" y="310.99" width="6.51" height="13.52" fill="#ef3b3b" stroke="#ef3b3b"/>
<line x1="1158.75" y1="307.48" x2="1158.75" y2="316.49" stroke="#ef3b3b"/>
<rect x="1155.50" y="310.38" width="6.51" height="5.73" fill="#ef3b3b" stroke="#ef3b3b"/>
<line x1="1170.69" y1="300.83" x2="1170.69" y2="332.31" stroke="#3156d9"/>
<rect x="1167.44" y="309.85" width="6.51" height="10.93" fill="#ffffff" stroke="#3156d9"/>
<line x1="1182.63" y1="321.61" x2="1182.63" y2="338.42" stroke="#3156d9"/>
<rect x="1179.38" y="322.38" width="6.51" height="1.20" fill="#ffffff" stroke="#3156d9"/>
<line x1="1194.58" y1="320.31" x2="1194.58" y2="330.93" stroke="#3156d9"/>
<rect x="1191.32" y="322.83" width="6.51" height="1.20" fill="#ffffff" stroke="#3156d9"/>
<line x1="1206.52" y1="318.86" x2="1206.52" y2="335.82" stroke="#3156d9"/>
<rect x="1203.27" y="320.24" width="6.51" height="12.38" fill="#ffffff" stroke="#3156d9"/>
<line x1="1218.46" y1="325.36" x2="1218.46" y2="333.53" stroke="#3156d9"/>
<rect x="1215.21" y="329.25" width="6.51" height="4.13" fill="#ffffff" stroke="#3156d9"/>
<line x1="1230.40" y1="328.26" x2="1230.40" y2="338.57" stroke="#3156d9"/>
<rect x="1227.15" y="332.00" width="6.51" height="5.58" fill="#ffffff" stroke="#3156d9"/>
<line x1="1242.35" y1="333.99" x2="1242.35" y2="342.16" stroke="#3156d9"/>
<rect x="1239.09" y="336.82" width="6.51" height="5.12" fill="#ffffff" stroke="#3156d9"/>
<line x1="1254.29" y1="336.13" x2="1254.29" y2="345.60" stroke="#ef3b3b"/>
<rect x="1251.04" y="340.02" width="6.51" height="2.44" fill="#ef3b3b" stroke="#ef3b3b"/>
<line x1="1266.23" y1="308.62" x2="1266.23" y2="334.98" stroke="#ef3b3b"/>
<rect x="1262.98" y="312.29" width="6.51" height="19.94" fill="#ef3b3b" stroke="#ef3b3b"/>
<line x1="1278.17" y1="305.26" x2="1278.17" y2="313.28" stroke="#ef3b3b"/>
<rect x="1274.92" y="306.26" width="6.51" height="6.34" fill="#ef3b3b" stroke="#ef3b3b"/>
<line x1="1290.12" y1="284.02" x2="1290.12" y2="306.41" stroke="#ef3b3b"/>
<rect x="1286.86" y="285.93" width="6.51" height="17.19" fill="#ef3b3b" stroke="#ef3b3b"/>
<line x1="1302.06" y1="274.78" x2="1302.06" y2="292.96" stroke="#ef3b3b"/>
<rect x="1298.80" y="286.39" width="6.51" height="1.20" fill="#ef3b3b" stroke="#ef3b3b"/>
<line x1="1314.00" y1="275.93" x2="1314.00" y2="285.25" stroke="#3156d9"/>
<rect x="1310.75" y="278.52" width="6.51" height="6.26" fill="#ffffff" stroke="#3156d9"/>
<path d="M 72.00 111.44 L 83.94 114.33 L 95.88 116.01 L 107.83 121.45 L 119.77 127.45 L 131.71 131.93 L 143.65 129.24 L 155.60 123.14 L 167.54 120.68 L 179.48 114.83 L 191.42 111.15 L 203.37 112.28 L 215.31 124.88 L 227.25 130.16 L 239.19 144.21 L 251.13 152.86 L 263.08 161.77 L 275.02 171.32 L 286.96 179.08 L 298.90 183.13 L 310.85 185.45 L 322.79 191.06 L 334.73 192.41 L 346.67 197.97 L 358.62 206.55 L 370.56 216.76 L 382.50 227.67 L 394.44 234.10 L 406.38 241.91 L 418.33 244.22 L 430.27 247.09 L 442.21 246.79 L 454.15 253.91 L 466.10 260.46 L 478.04 264.33 L 489.98 277.32 L 501.92 295.21 L 513.87 308.75 L 525.81 318.71 L 537.75 334.31 L 549.69 343.13 L 561.63 342.96 L 573.58 342.99 L 585.52 343.62 L 597.46 344.58 L 609.40 339.96 L 621.35 338.11 L 633.29 332.31 L 645.23 328.23 L 657.17 325.71 L 669.12 326.46 L 681.06 326.24 L 693.00 320.70 L 704.94 313.09 L 716.88 304.09 L 728.83 299.23 L 740.77 297.23 L 752.71 293.25 L 764.65 291.45 L 776.60 287.37 L 788.54 278.81 L 800.48 269.40 L 812.42 268.77 L 824.37 268.85 L 836.31 269.26 L 848.25 275.68 L 860.19 281.61 L 872.13 288.44 L 884.08 292.63 L 896.02 292.41 L 907.96 292.95 L 919.90 294.61 L 931.85 298.52 L 943.79 304.33 L 955.73 320.24 L 967.67 333.55 L 979.62 340.88 L 991.56 349.21 L 1003.50 358.31 L 1015.44 362.75 L 1027.38 363.52 L 1039.33 366.14 L 1051.27 364.29 L 1063.21 359.31 L 1075.15 351.18 L 1087.10 347.11 L 1099.04 348.84 L 1110.98 348.29 L 1122.92 346.69 L 1134.87 344.06 L 1146.81 336.72 L 1158.75 326.59 L 1170.69 320.92 L 1182.63 318.31 L 1194.58 317.79 L 1206.52 322.12 L 1218.46 326.72 L 1230.40 330.08 L 1242.35 333.82 L 1254.29 337.11 L 1266.23 333.04 L 1278.17 327.62 L 1290.12 317.29 L 1302.06 306.18 L 1314.00 295.13" fill="none" stroke="#59a52c" stroke-width="2"/>
<path d="M 72.00 127.46 L 83.94 127.27 L 95.88 125.38 L 107.83 124.31 L 119.77 123.86 L 131.71 124.78 L 143.65 124.54 L 155.60 123.24 L 167.54 121.58 L 179.48 119.02 L 191.42 118.82 L 203.37 118.02 L 215.31 118.87 L 227.25 120.87 L 239.19 123.89 L 251.13 126.84 L 263.08 129.40 L 275.02 133.84 L 286.96 137.84 L 298.90 142.41 L 310.85 145.35 L 322.79 148.59 L 334.73 152.94 L 346.67 156.97 L 358.62 162.18 L 370.56 166.56 L 382.50 173.20 L 394.44 180.68 L 406.38 187.28 L 418.33 194.53 L 430.27 200.54 L 442.21 206.82 L 454.15 212.93 L 466.10 219.86 L 478.04 224.56 L 489.98 231.66 L 501.92 240.18 L 513.87 247.29 L 525.81 254.76 L 537.75 262.35 L 549.69 271.07 L 561.63 278.16 L 573.58 284.94 L 585.52 291.17 L 597.46 296.86 L 609.40 301.87 L 621.35 305.77 L 633.29 309.49 L 645.23 312.75 L 657.17 317.23 L 669.12 321.72 L 681.06 325.63 L 693.00 326.18 L 704.94 325.91 L 716.88 327.17 L 728.83 327.19 L 740.77 326.13 L 752.71 322.31 L 764.65 319.09 L 776.60 315.44 L 788.54 311.11 L 800.48 307.75 L 812.42 303.76 L 824.37 300.40 L 836.31 296.61 L 848.25 295.04 L 860.19 293.62 L 872.13 292.79 L 884.08 291.50 L 896.02 288.28 L 907.96 286.67 L 919.90 285.71 L 931.85 287.25 L 943.79 289.31 L 955.73 292.32 L 967.67 295.25 L 979.62 296.63 L 991.56 301.24 L 1003.50 306.03 L 1015.44 311.16 L 1027.38 316.42 L 1039.33 320.81 L 1051.27 325.11 L 1063.21 328.64 L 1075.15 331.64 L 1087.10 334.28 L 1099.04 337.62 L 1110.98 340.08 L 1122.92 342.16 L 1134.87 344.55 L 1146.81 345.23 L 1158.75 345.61 L 1170.69 345.68 L 1182.63 345.65 L 1194.58 343.94 L 1206.52 342.37 L 1218.46 342.07 L 1230.40 340.90 L 1242.35 339.53 L 1254.29 337.53 L 1266.23 334.75 L 1278.17 332.44 L 1290.12 329.15 L 1302.06 326.25 L 1314.00 323.52" fill="none" stroke="#13c8d4" stroke-width="2"/>
<path d="M 72.00 172.04 L 83.94 170.44 L 95.88 168.69 L 107.83 167.35 L 119.77 165.77 L 131.71 164.09 L 143.65 161.82 L 155.60 158.94 L 167.54 156.42 L 179.48 153.85 L 191.42 151.83 L 203.37 149.89 L 215.31 149.24 L 227.25 148.54 L 239.19 148.44 L 251.13 147.92 L 263.08 147.27 L 275.02 146.72 L 286.96 145.70 L 298.90 145.43 L 310.85 145.08 L 322.79 144.89 L 334.73 145.43 L 346.67 146.25 L 358.62 147.83 L 370.56 148.97 L 382.50 150.15 L 394.44 151.43 L 406.38 152.89 L 418.33 154.04 L 430.27 155.51 L 442.21 157.79 L 454.15 160.13 L 466.10 162.75 L 478.04 165.27 L 489.98 168.98 L 501.92 173.30 L 513.87 177.83 L 525.81 181.46 L 537.75 185.28 L 549.69 189.79 L 561.63 193.75 L 573.58 197.90 L 585.52 202.52 L 597.46 207.27 L 609.40 211.71 L 621.35 215.94 L 633.29 219.98 L 645.23 224.23 L 657.17 228.93 L 669.12 233.21 L 681.06 237.13 L 693.00 240.45 L 704.94 243.39 L 716.88 246.60 L 728.83 249.94 L 740.77 253.93 L 752.71 257.46 L 764.65 260.47 L 776.60 263.85 L 788.54 266.71 L 800.48 269.64 L 812.42 271.85 L 824.37 274.34 L 836.31 276.35 L 848.25 278.99 L 860.19 281.63 L 872.13 283.56 L 884.08 285.69 L 896.02 287.28 L 907.96 289.74 L 919.90 291.98 L 931.85 294.17 L 943.79 296.33 L 955.73 298.65 L 967.67 301.42 L 979.62 303.30 L 991.56 305.68 L 1003.50 307.97 L 1015.44 310.50 L 1027.38 313.06 L 1039.33 315.24 L 1051.27 316.72 L 1063.21 317.85 L 1075.15 319.19 L 1087.10 320.04 L 1099.04 320.60 L 1110.98 320.68 L 1122.92 320.65 L 1134.87 320.16 L 1146.81 319.40 L 1158.75 318.97 L 1170.69 318.47 L 1182.63 318.12 L 1194.58 317.48 L 1206.52 317.61 L 1218.46 317.83 L 1230.40 318.25 L 1242.35 318.68 L 1254.29 318.62 L 1266.23 318.27 L 1278.17 317.96 L 1290.12 317.91 L 1302.06 317.99 L 1314.00 317.73" fill="none" stroke="#173ee6" stroke-width="2"/>
<path d="M 72.00 287.27 L 83.94 285.01 L 95.88 282.81 L 107.83 280.72 L 119.77 278.61 L 131.71 276.61 L 143.65 274.41 L 155.60 272.02 L 167.54 269.89 L 179.48 267.65 L 191.42 265.57 L 203.37 263.47 L 215.31 261.69 L 227.25 259.82 L 239.19 258.22 L 251.13 256.40 L 263.08 254.57 L 275.02 252.99 L 286.96 251.24 L 298.90 249.65 L 310.85 247.97 L 322.79 246.41 L 334.73 245.02 L 346.67 243.67 L 358.62 242.48 L 370.56 241.26 L 382.50 240.22 L 394.44 239.17 L 406.38 238.28 L 418.33 237.42 L 430.27 236.50 L 442.21 235.64 L 454.15 235.01 L 466.10 234.39 L 478.04 233.70 L 489.98 233.29 L 501.92 233.11 L 513.87 233.04 L 525.81 232.88 L 537.75 232.94 L 549.69 232.95 L 561.63 232.88 L 573.58 232.92 L 585.52 233.00 L 597.46 233.14 L 609.40 233.10 L 621.35 232.90 L 633.29 232.67 L 645.23 232.50 L 657.17 232.33 L 669.12 232.12 L 681.06 231.87 L 693.00 231.54 L 704.94 231.11 L 716.88 230.75 L 728.83 230.48 L 740.77 230.29 L 752.71 229.79 L 764.65 229.45 L 776.60 229.01 L 788.54 228.62 L 800.48 228.26 L 812.42 227.92 L 824.37 227.67 L 836.31 227.38 L 848.25 227.16 L 860.19 226.94 L 872.13 226.95 L 884.08 226.85 L 896.02 226.63 L 907.96 226.64 L 919.90 226.71 L 931.85 226.87 L 943.79 227.03 L 955.73 227.33 L 967.67 227.74 L 979.62 228.09 L 991.56 228.52 L 1003.50 229.12 L 1015.44 229.78 L 1027.38 230.30 L 1039.33 230.67 L 1051.27 231.13 L 1063.21 231.64 L 1075.15 232.11 L 1087.10 232.66 L 1099.04 233.30 L 1110.98 233.77 L 1122.92 234.17 L 1134.87 234.50 L 1146.81 234.77 L 1158.75 235.04 L 1170.69 235.49 L 1182.63 235.94 L 1194.58 236.54 L 1206.52 237.26 L 1218.46 238.05 L 1230.40 238.89 L 1242.35 239.75 L 1254.29 240.55 L 1266.23 241.18 L 1278.17 241.85 L 1290.12 242.35 L 1302.06 242.91 L 1314.00 243.36" fill="none" stroke="#971f1f" stroke-width="3"/>
<path d="M 72.00 335.08 L 83.94 333.40 L 95.88 331.62 L 107.83 329.88 L 119.77 328.22 L 131.71 326.60 L 143.65 324.77 L 155.60 322.87 L 167.54 321.04 L 179.48 319.21 L 191.42 317.44 L 203.37 315.77 L 215.31 314.29 L 227.25 312.75 L 239.19 311.28 L 251.13 309.72 L 263.08 308.12 L 275.02 306.60 L 286.96 305.08 L 298.90 303.68 L 310.85 302.16 L 322.79 300.78 L 334.73 299.51 L 346.67 298.28 L 358.62 297.11 L 370.56 295.84 L 382.50 294.64 L 394.44 293.48 L 406.38 292.38 L 418.33 291.31 L 430.27 290.20 L 442.21 288.98 L 454.15 287.94 L 466.10 286.97 L 478.04 285.94 L 489.98 285.08 L 501.92 284.33 L 513.87 283.63 L 525.81 282.97 L 537.75 282.32 L 549.69 281.63 L 561.63 280.81 L 573.58 280.01 L 585.52 279.20 L 597.46 278.45 L 609.40 277.58 L 621.35 276.74 L 633.29 275.92 L 645.23 275.15 L 657.17 274.48 L 669.12 273.76 L 681.06 273.04 L 693.00 272.22 L 704.94 271.38 L 716.88 270.61 L 728.83 269.94 L 740.77 269.29 L 752.71 268.38 L 764.65 267.53 L 776.60 266.70 L 788.54 265.85 L 800.48 265.01 L 812.42 264.23 L 824.37 263.45 L 836.31 262.75 L 848.25 262.05 L 860.19 261.33 L 872.13 260.63 L 884.08 259.85 L 896.02 259.06 L 907.96 258.41 L 919.90 257.80 L 931.85 257.31 L 943.79 256.84 L 955.73 256.53 L 967.67 256.30 L 979.62 255.99 L 991.56 255.80 L 1003.50 255.70 L 1015.44 255.69 L 1027.38 255.64 L 1039.33 255.54 L 1051.27 255.44 L 1063.21 255.26 L 1075.15 255.07 L 1087.10 254.98 L 1099.04 254.99 L 1110.98 254.95 L 1122.92 254.82 L 1134.87 254.75 L 1146.81 254.56 L 1158.75 254.40 L 1170.69 254.31 L 1182.63 254.28 L 1194.58 254.23 L 1206.52 254.23 L 1218.46 254.13 L 1230.40 254.07 L 1242.35 254.05 L 1254.29 253.90 L 1266.23 253.66 L 1278.17 253.39 L 1290.12 253.13 L 1302.06 252.83 L 1314.00 252.49" fill="none" stroke="#d41968" stroke-width="3"/>
<text x="78" y="462" class="label">거래량 · MA50</text>
<text x="1321" y="456" class="small">28923892.20</text>
<text x="1321" y="590" class="small">0.00</text>
<rect x="68.33" y="559.83" width="7.33" height="23.67" fill="#8d9be5" opacity="0.72"/>
<rect x="80.28" y="559.40" width="7.33" height="24.10" fill="#8d9be5" opacity="0.72"/>
<rect x="92.22" y="559.70" width="7.33" height="23.80" fill="#e98b8b" opacity="0.72"/>
<rect x="104.16" y="545.08" width="7.33" height="38.42" fill="#e98b8b" opacity="0.72"/>
<rect x="116.10" y="555.28" width="7.33" height="28.22" fill="#8d9be5" opacity="0.72"/>
<rect x="128.04" y="496.04" width="7.33" height="87.46" fill="#e98b8b" opacity="0.72"/>
<rect x="139.99" y="532.28" width="7.33" height="51.22" fill="#e98b8b" opacity="0.72"/>
<rect x="151.93" y="537.89" width="7.33" height="45.61" fill="#e98b8b" opacity="0.72"/>
<rect x="163.87" y="522.23" width="7.33" height="61.27" fill="#8d9be5" opacity="0.72"/>
<rect x="175.81" y="548.48" width="7.33" height="35.02" fill="#e98b8b" opacity="0.72"/>
<rect x="187.76" y="541.14" width="7.33" height="42.36" fill="#8d9be5" opacity="0.72"/>
<rect x="199.70" y="557.35" width="7.33" height="26.15" fill="#e98b8b" opacity="0.72"/>
<rect x="211.64" y="554.33" width="7.33" height="29.17" fill="#8d9be5" opacity="0.72"/>
<rect x="223.58" y="498.93" width="7.33" height="84.57" fill="#e98b8b" opacity="0.72"/>
<rect x="235.53" y="524.18" width="7.33" height="59.32" fill="#8d9be5" opacity="0.72"/>
<rect x="247.47" y="556.21" width="7.33" height="27.29" fill="#e98b8b" opacity="0.72"/>
<rect x="259.41" y="551.95" width="7.33" height="31.55" fill="#e98b8b" opacity="0.72"/>
<rect x="271.35" y="524.78" width="7.33" height="58.72" fill="#8d9be5" opacity="0.72"/>
<rect x="283.29" y="537.88" width="7.33" height="45.62" fill="#e98b8b" opacity="0.72"/>
<rect x="295.24" y="529.68" width="7.33" height="53.82" fill="#8d9be5" opacity="0.72"/>
<rect x="307.18" y="547.20" width="7.33" height="36.30" fill="#e98b8b" opacity="0.72"/>
<rect x="319.12" y="541.01" width="7.33" height="42.49" fill="#8d9be5" opacity="0.72"/>
<rect x="331.06" y="536.60" width="7.33" height="46.90" fill="#8d9be5" opacity="0.72"/>
<rect x="343.01" y="544.74" width="7.33" height="38.76" fill="#8d9be5" opacity="0.72"/>
<rect x="354.95" y="542.50" width="7.33" height="41.00" fill="#8d9be5" opacity="0.72"/>
<rect x="366.89" y="536.12" width="7.33" height="47.38" fill="#e98b8b" opacity="0.72"/>
<rect x="378.83" y="551.76" width="7.33" height="31.74" fill="#8d9be5" opacity="0.72"/>
<rect x="390.78" y="529.99" width="7.33" height="53.51" fill="#e98b8b" opacity="0.72"/>
<rect x="402.72" y="520.90" width="7.33" height="62.60" fill="#8d9be5" opacity="0.72"/>
<rect x="414.66" y="535.27" width="7.33" height="48.23" fill="#e98b8b" opacity="0.72"/>
<rect x="426.60" y="554.22" width="7.33" height="29.28" fill="#e98b8b" opacity="0.72"/>
<rect x="438.54" y="552.74" width="7.33" height="30.76" fill="#8d9be5" opacity="0.72"/>
<rect x="450.49" y="523.17" width="7.33" height="60.33" fill="#8d9be5" opacity="0.72"/>
<rect x="462.43" y="521.42" width="7.33" height="62.08" fill="#8d9be5" opacity="0.72"/>
<rect x="474.37" y="535.38" width="7.33" height="48.12" fill="#e98b8b" opacity="0.72"/>
<rect x="486.31" y="502.11" width="7.33" height="81.39" fill="#8d9be5" opacity="0.72"/>
<rect x="498.26" y="526.06" width="7.33" height="57.44" fill="#8d9be5" opacity="0.72"/>
<rect x="510.20" y="520.00" width="7.33" height="63.50" fill="#8d9be5" opacity="0.72"/>
<rect x="522.14" y="523.59" width="7.33" height="59.91" fill="#e98b8b" opacity="0.72"/>
<rect x="534.08" y="520.21" width="7.33" height="63.29" fill="#8d9be5" opacity="0.72"/>
<rect x="546.03" y="523.39" width="7.33" height="60.11" fill="#e98b8b" opacity="0.72"/>
<rect x="557.97" y="532.80" width="7.33" height="50.70" fill="#e98b8b" opacity="0.72"/>
<rect x="569.91" y="523.13" width="7.33" height="60.37" fill="#8d9be5" opacity="0.72"/>
<rect x="581.85" y="545.09" width="7.33" height="38.41" fill="#e98b8b" opacity="0.72"/>
<rect x="593.79" y="519.01" width="7.33" height="64.49" fill="#8d9be5" opacity="0.72"/>
<rect x="605.74" y="522.81" width="7.33" height="60.69" fill="#e98b8b" opacity="0.72"/>
<rect x="617.68" y="540.35" width="7.33" height="43.15" fill="#e98b8b" opacity="0.72"/>
<rect x="629.62" y="528.78" width="7.33" height="54.72" fill="#e98b8b" opacity="0.72"/>
<rect x="641.56" y="512.66" width="7.33" height="70.84" fill="#8d9be5" opacity="0.72"/>
<rect x="653.51" y="523.34" width="7.33" height="60.16" fill="#8d9be5" opacity="0.72"/>
<rect x="665.45" y="539.97" width="7.33" height="43.53" fill="#e98b8b" opacity="0.72"/>
<rect x="677.39" y="538.82" width="7.33" height="44.68" fill="#e98b8b" opacity="0.72"/>
<rect x="689.33" y="524.22" width="7.33" height="59.28" fill="#e98b8b" opacity="0.72"/>
<rect x="701.28" y="546.71" width="7.33" height="36.79" fill="#e98b8b" opacity="0.72"/>
<rect x="713.22" y="551.09" width="7.33" height="32.41" fill="#8d9be5" opacity="0.72"/>
<rect x="725.16" y="532.33" width="7.33" height="51.17" fill="#e98b8b" opacity="0.72"/>
<rect x="737.10" y="522.06" width="7.33" height="61.44" fill="#8d9be5" opacity="0.72"/>
<rect x="749.04" y="535.72" width="7.33" height="47.78" fill="#e98b8b" opacity="0.72"/>
<rect x="760.99" y="556.85" width="7.33" height="26.65" fill="#e98b8b" opacity="0.72"/>
<rect x="772.93" y="553.49" width="7.33" height="30.01" fill="#8d9be5" opacity="0.72"/>
<rect x="784.87" y="550.05" width="7.33" height="33.45" fill="#e98b8b" opacity="0.72"/>
<rect x="796.81" y="550.23" width="7.33" height="33.27" fill="#8d9be5" opacity="0.72"/>
<rect x="808.76" y="555.14" width="7.33" height="28.36" fill="#e98b8b" opacity="0.72"/>
<rect x="820.70" y="558.12" width="7.33" height="25.38" fill="#8d9be5" opacity="0.72"/>
<rect x="832.64" y="559.86" width="7.33" height="23.64" fill="#8d9be5" opacity="0.72"/>
<rect x="844.58" y="549.73" width="7.33" height="33.77" fill="#8d9be5" opacity="0.72"/>
<rect x="856.53" y="543.34" width="7.33" height="40.16" fill="#8d9be5" opacity="0.72"/>
<rect x="868.47" y="552.74" width="7.33" height="30.76" fill="#8d9be5" opacity="0.72"/>
<rect x="880.41" y="552.40" width="7.33" height="31.10" fill="#e98b8b" opacity="0.72"/>
<rect x="892.35" y="550.39" width="7.33" height="33.11" fill="#e98b8b" opacity="0.72"/>
<rect x="904.29" y="534.76" width="7.33" height="48.74" fill="#8d9be5" opacity="0.72"/>
<rect x="916.24" y="554.32" width="7.33" height="29.18" fill="#8d9be5" opacity="0.72"/>
<rect x="928.18" y="473.46" width="7.33" height="110.04" fill="#8d9be5" opacity="0.72"/>
<rect x="940.12" y="528.68" width="7.33" height="54.82" fill="#8d9be5" opacity="0.72"/>
<rect x="952.06" y="479.62" width="7.33" height="103.88" fill="#8d9be5" opacity="0.72"/>
<rect x="964.01" y="501.88" width="7.33" height="81.62" fill="#8d9be5" opacity="0.72"/>
<rect x="975.95" y="482.37" width="7.33" height="101.13" fill="#e98b8b" opacity="0.72"/>
<rect x="987.89" y="482.81" width="7.33" height="100.69" fill="#8d9be5" opacity="0.72"/>
<rect x="999.83" y="509.52" width="7.33" height="73.98" fill="#8d9be5" opacity="0.72"/>
<rect x="1011.78" y="527.94" width="7.33" height="55.56" fill="#8d9be5" opacity="0.72"/>
<rect x="1023.72" y="499.16" width="7.33" height="84.34" fill="#e98b8b" opacity="0.72"/>
<rect x="1035.66" y="496.46" width="7.33" height="87.04" fill="#e98b8b" opacity="0.72"/>
<rect x="1047.60" y="527.29" width="7.33" height="56.21" fill="#8d9be5" opacity="0.72"/>
<rect x="1059.54" y="537.00" width="7.33" height="46.50" fill="#e98b8b" opacity="0.72"/>
<rect x="1071.49" y="513.25" width="7.33" height="70.25" fill="#e98b8b" opacity="0.72"/>
<rect x="1083.43" y="481.96" width="7.33" height="101.54" fill="#8d9be5" opacity="0.72"/>
<rect x="1095.37" y="490.33" width="7.33" height="93.17" fill="#8d9be5" opacity="0.72"/>
<rect x="1107.31" y="460.64" width="7.33" height="122.86" fill="#e98b8b" opacity="0.72"/>
<rect x="1119.26" y="483.18" width="7.33" height="100.32" fill="#e98b8b" opacity="0.72"/>
<rect x="1131.20" y="527.30" width="7.33" height="56.20" fill="#e98b8b" opacity="0.72"/>
<rect x="1143.14" y="508.11" width="7.33" height="75.39" fill="#e98b8b" opacity="0.72"/>
<rect x="1155.08" y="513.02" width="7.33" height="70.48" fill="#e98b8b" opacity="0.72"/>
<rect x="1167.03" y="501.09" width="7.33" height="82.41" fill="#8d9be5" opacity="0.72"/>
<rect x="1178.97" y="504.98" width="7.33" height="78.52" fill="#8d9be5" opacity="0.72"/>
<rect x="1190.91" y="516.48" width="7.33" height="67.02" fill="#8d9be5" opacity="0.72"/>
<rect x="1202.85" y="522.66" width="7.33" height="60.84" fill="#8d9be5" opacity="0.72"/>
<rect x="1214.79" y="538.76" width="7.33" height="44.74" fill="#8d9be5" opacity="0.72"/>
<rect x="1226.74" y="540.78" width="7.33" height="42.72" fill="#8d9be5" opacity="0.72"/>
<rect x="1238.68" y="545.39" width="7.33" height="38.11" fill="#8d9be5" opacity="0.72"/>
<rect x="1250.62" y="526.95" width="7.33" height="56.55" fill="#e98b8b" opacity="0.72"/>
<rect x="1262.56" y="514.19" width="7.33" height="69.31" fill="#e98b8b" opacity="0.72"/>
<rect x="1274.51" y="542.95" width="7.33" height="40.55" fill="#e98b8b" opacity="0.72"/>
<rect x="1286.45" y="523.09" width="7.33" height="60.41" fill="#e98b8b" opacity="0.72"/>
<rect x="1298.39" y="471.25" width="7.33" height="112.25" fill="#e98b8b" opacity="0.72"/>
<rect x="1310.33" y="517.41" width="7.33" height="66.09" fill="#8d9be5" opacity="0.72"/>
<path d="M 72.00 549.18 L 83.94 549.14 L 95.88 549.14 L 107.83 548.68 L 119.77 548.68 L 131.71 547.56 L 143.65 546.98 L 155.60 546.61 L 167.54 545.90 L 179.48 545.63 L 191.42 545.25 L 203.37 545.23 L 215.31 545.66 L 227.25 544.49 L 239.19 543.88 L 251.13 544.22 L 263.08 544.40 L 275.02 543.98 L 286.96 544.11 L 298.90 543.65 L 310.85 543.46 L 322.79 543.08 L 334.73 542.64 L 346.67 542.41 L 358.62 541.97 L 370.56 541.74 L 382.50 541.72 L 394.44 541.40 L 406.38 540.55 L 418.33 539.94 L 430.27 540.14 L 442.21 542.00 L 454.15 542.18 L 466.10 542.25 L 478.04 542.32 L 489.98 541.89 L 501.92 541.21 L 513.87 540.52 L 525.81 539.94 L 537.75 539.74 L 549.69 539.27 L 561.63 538.90 L 573.58 538.23 L 585.52 538.13 L 597.46 537.45 L 609.40 536.91 L 621.35 536.71 L 633.29 536.20 L 645.23 535.30 L 657.17 534.58 L 669.12 534.18 L 681.06 533.77 L 693.00 533.06 L 704.94 533.09 L 716.88 533.01 L 728.83 533.74 L 740.77 533.53 L 752.71 533.49 L 764.65 534.18 L 776.60 534.28 L 788.54 534.46 L 800.48 534.32 L 812.42 534.33 L 824.37 535.52 L 836.31 536.23 L 848.25 536.10 L 860.19 535.93 L 872.13 536.49 L 884.08 536.78 L 896.02 537.19 L 907.96 536.94 L 919.90 537.21 L 931.85 535.95 L 943.79 535.63 L 955.73 534.37 L 967.67 533.68 L 979.62 532.29 L 991.56 531.35 L 1003.50 531.12 L 1015.44 530.98 L 1027.38 529.88 L 1039.33 528.75 L 1051.27 528.83 L 1063.21 529.14 L 1075.15 528.70 L 1087.10 528.30 L 1099.04 527.58 L 1110.98 526.40 L 1122.92 525.59 L 1134.87 525.73 L 1146.81 525.42 L 1158.75 525.03 L 1170.69 524.59 L 1182.63 523.79 L 1194.58 523.74 L 1206.52 523.73 L 1218.46 523.70 L 1230.40 523.94 L 1242.35 524.60 L 1254.29 524.67 L 1266.23 524.15 L 1278.17 524.23 L 1290.12 524.21 L 1302.06 522.70 L 1314.00 522.03" fill="none" stroke="#173ee6" stroke-width="2"/>
<text x="78" y="624" class="label">Momentum 14</text>
<text x="1321" y="618" class="small">10.85</text>
<text x="1321" y="722" class="small">-16.41</text>
<line x1="72" y1="655.49" x2="1314" y2="655.49" stroke="#4775d1" stroke-dasharray="5 5"/>
<path d="M 72.00 655.04 L 83.94 658.67 L 95.88 640.70 L 107.83 644.80 L 119.77 661.45 L 131.71 657.52 L 143.65 643.82 L 155.60 647.92 L 167.54 657.72 L 179.48 657.28 L 191.42 659.35 L 203.37 656.98 L 215.31 676.48 L 227.25 674.14 L 239.19 683.23 L 251.13 672.14 L 263.08 673.02 L 275.02 685.60 L 286.96 678.04 L 298.90 682.28 L 310.85 683.26 L 322.79 699.00 L 334.73 694.05 L 346.67 703.38 L 358.62 709.52 L 370.56 703.41 L 382.50 695.24 L 394.44 696.63 L 406.38 689.51 L 418.33 695.44 L 430.27 690.01 L 442.21 673.36 L 454.15 695.20 L 466.10 695.07 L 478.04 698.87 L 489.98 706.40 L 501.92 710.09 L 513.87 712.91 L 525.81 698.12 L 537.75 710.84 L 549.69 701.75 L 561.63 695.44 L 573.58 695.64 L 585.52 694.39 L 597.46 706.60 L 609.40 692.18 L 621.35 675.53 L 633.29 668.20 L 645.23 676.75 L 657.17 672.17 L 669.12 654.13 L 681.06 645.00 L 693.00 633.78 L 704.94 625.23 L 716.88 632.62 L 728.83 643.72 L 740.77 640.49 L 752.71 623.57 L 764.65 619.09 L 776.60 633.81 L 788.54 628.83 L 800.48 632.49 L 812.42 631.23 L 824.37 624.86 L 836.31 633.07 L 848.25 643.55 L 860.19 657.96 L 872.13 663.29 L 884.08 654.13 L 896.02 643.38 L 907.96 649.18 L 919.90 670.48 L 931.85 675.97 L 943.79 676.07 L 955.73 697.68 L 967.67 699.61 L 979.62 688.15 L 991.56 694.29 L 1003.50 695.37 L 1015.44 693.27 L 1027.38 688.18 L 1039.33 678.79 L 1051.27 680.89 L 1063.21 684.79 L 1075.15 674.04 L 1087.10 675.46 L 1099.04 673.94 L 1110.98 666.78 L 1122.92 645.92 L 1134.87 638.66 L 1146.81 642.90 L 1158.75 632.96 L 1170.69 633.98 L 1182.63 630.28 L 1194.58 635.78 L 1206.52 646.70 L 1218.46 647.28 L 1230.40 652.50 L 1242.35 656.64 L 1254.29 652.09 L 1266.23 633.85 L 1278.17 636.46 L 1290.12 633.13 L 1302.06 637.81 L 1314.00 643.85" fill="none" stroke="#e24b55" stroke-width="2"/>
<text x="78" y="756" class="label">MACD 12·26·9</text>
<text x="1321" y="750" class="small">2.69</text>
<text x="1321" y="884" class="small">-5.62</text>
<line x1="72" y1="790.26" x2="1314" y2="790.26" stroke="#a5abb3" stroke-dasharray="5 5"/>
<rect x="69.34" y="790.26" width="5.32" height="1.67" fill="#ef9999" opacity="0.55"/>
<rect x="81.28" y="790.26" width="5.32" height="4.04" fill="#ef9999" opacity="0.55"/>
<rect x="93.22" y="790.26" width="5.32" height="5.32" fill="#ef9999" opacity="0.55"/>
<rect x="105.17" y="790.26" width="5.32" height="7.59" fill="#ef9999" opacity="0.55"/>
<rect x="117.11" y="790.26" width="5.32" height="9.15" fill="#ef9999" opacity="0.55"/>
<rect x="129.05" y="790.26" width="5.32" height="10.02" fill="#ef9999" opacity="0.55"/>
<rect x="140.99" y="790.26" width="5.32" height="7.24" fill="#ef9999" opacity="0.55"/>
<rect x="152.93" y="790.26" width="5.32" height="3.06" fill="#ef9999" opacity="0.55"/>
<rect x="164.88" y="790.26" width="5.32" height="4.05" fill="#ef9999" opacity="0.55"/>
<rect x="176.82" y="790.26" width="5.32" height="2.95" fill="#ef9999" opacity="0.55"/>
<rect x="188.76" y="790.26" width="5.32" height="3.67" fill="#ef9999" opacity="0.55"/>
<rect x="200.70" y="790.26" width="5.32" height="3.89" fill="#ef9999" opacity="0.55"/>
<rect x="212.65" y="790.26" width="5.32" height="8.38" fill="#ef9999" opacity="0.55"/>
<rect x="224.59" y="790.26" width="5.32" height="10.22" fill="#ef9999" opacity="0.55"/>
<rect x="236.53" y="790.26" width="5.32" height="14.36" fill="#ef9999" opacity="0.55"/>
<rect x="248.47" y="790.26" width="5.32" height="14.54" fill="#ef9999" opacity="0.55"/>
<rect x="260.42" y="790.26" width="5.32" height="13.88" fill="#ef9999" opacity="0.55"/>
<rect x="272.36" y="790.26" width="5.32" height="17.53" fill="#ef9999" opacity="0.55"/>
<rect x="284.30" y="790.26" width="5.32" height="17.17" fill="#ef9999" opacity="0.55"/>
<rect x="296.24" y="790.26" width="5.32" height="17.23" fill="#ef9999" opacity="0.55"/>
<rect x="308.18" y="790.26" width="5.32" height="13.51" fill="#ef9999" opacity="0.55"/>
<rect x="320.13" y="790.26" width="5.32" height="12.19" fill="#ef9999" opacity="0.55"/>
<rect x="332.07" y="790.26" width="5.32" height="12.86" fill="#ef9999" opacity="0.55"/>
<rect x="344.01" y="790.26" width="5.32" height="13.16" fill="#ef9999" opacity="0.55"/>
<rect x="355.95" y="790.26" width="5.32" height="15.45" fill="#ef9999" opacity="0.55"/>
<rect x="367.90" y="790.26" width="5.32" height="14.01" fill="#ef9999" opacity="0.55"/>
<rect x="379.84" y="790.26" width="5.32" height="14.34" fill="#ef9999" opacity="0.55"/>
<rect x="391.78" y="790.26" width="5.32" height="13.18" fill="#ef9999" opacity="0.55"/>
<rect x="403.72" y="790.26" width="5.32" height="12.95" fill="#ef9999" opacity="0.55"/>
<rect x="415.67" y="790.26" width="5.32" height="11.56" fill="#ef9999" opacity="0.55"/>
<rect x="427.61" y="790.26" width="5.32" height="8.20" fill="#ef9999" opacity="0.55"/>
<rect x="439.55" y="790.26" width="5.32" height="5.65" fill="#ef9999" opacity="0.55"/>
<rect x="451.49" y="790.26" width="5.32" height="7.33" fill="#ef9999" opacity="0.55"/>
<rect x="463.43" y="790.26" width="5.32" height="8.76" fill="#ef9999" opacity="0.55"/>
<rect x="475.38" y="790.26" width="5.32" height="6.97" fill="#ef9999" opacity="0.55"/>
<rect x="487.32" y="790.26" width="5.32" height="8.81" fill="#ef9999" opacity="0.55"/>
<rect x="499.26" y="790.26" width="5.32" height="12.26" fill="#ef9999" opacity="0.55"/>
<rect x="511.20" y="790.26" width="5.32" height="14.73" fill="#ef9999" opacity="0.55"/>
<rect x="523.15" y="790.26" width="5.32" height="14.06" fill="#ef9999" opacity="0.55"/>
<rect x="535.09" y="790.26" width="5.32" height="13.83" fill="#ef9999" opacity="0.55"/>
<rect x="547.03" y="790.26" width="5.32" height="12.20" fill="#ef9999" opacity="0.55"/>
<rect x="558.97" y="790.26" width="5.32" height="7.92" fill="#ef9999" opacity="0.55"/>
<rect x="570.92" y="790.26" width="5.32" height="5.74" fill="#ef9999" opacity="0.55"/>
<rect x="582.86" y="790.26" width="5.32" height="2.86" fill="#ef9999" opacity="0.55"/>
<rect x="594.80" y="790.26" width="5.32" height="1.92" fill="#ef9999" opacity="0.55"/>
<rect x="606.74" y="787.43" width="5.32" height="2.83" fill="#ef9999" opacity="0.55"/>
<rect x="618.68" y="783.55" width="5.32" height="6.71" fill="#ef9999" opacity="0.55"/>
<rect x="630.63" y="780.08" width="5.32" height="10.18" fill="#ef9999" opacity="0.55"/>
<rect x="642.57" y="778.27" width="5.32" height="11.99" fill="#ef9999" opacity="0.55"/>
<rect x="654.51" y="779.75" width="5.32" height="10.51" fill="#ef9999" opacity="0.55"/>
<rect x="666.45" y="779.16" width="5.32" height="11.10" fill="#ef9999" opacity="0.55"/>
<rect x="678.40" y="777.89" width="5.32" height="12.37" fill="#ef9999" opacity="0.55"/>
<rect x="690.34" y="773.37" width="5.32" height="16.89" fill="#ef9999" opacity="0.55"/>
<rect x="702.28" y="770.20" width="5.32" height="20.06" fill="#ef9999" opacity="0.55"/>
<rect x="714.22" y="770.61" width="5.32" height="19.65" fill="#ef9999" opacity="0.55"/>
<rect x="726.17" y="772.42" width="5.32" height="17.84" fill="#ef9999" opacity="0.55"/>
<rect x="738.11" y="774.85" width="5.32" height="15.41" fill="#ef9999" opacity="0.55"/>
<rect x="750.05" y="771.88" width="5.32" height="18.38" fill="#ef9999" opacity="0.55"/>
<rect x="761.99" y="771.23" width="5.32" height="19.03" fill="#ef9999" opacity="0.55"/>
<rect x="773.93" y="772.04" width="5.32" height="18.22" fill="#ef9999" opacity="0.55"/>
<rect x="785.88" y="771.63" width="5.32" height="18.63" fill="#ef9999" opacity="0.55"/>
<rect x="797.82" y="772.42" width="5.32" height="17.84" fill="#ef9999" opacity="0.55"/>
<rect x="809.76" y="773.87" width="5.32" height="16.39" fill="#ef9999" opacity="0.55"/>
<rect x="821.70" y="776.48" width="5.32" height="13.78" fill="#ef9999" opacity="0.55"/>
<rect x="833.65" y="779.47" width="5.32" height="10.79" fill="#ef9999" opacity="0.55"/>
<rect x="845.59" y="783.69" width="5.32" height="6.57" fill="#ef9999" opacity="0.55"/>
<rect x="857.53" y="786.62" width="5.32" height="3.64" fill="#ef9999" opacity="0.55"/>
<rect x="869.47" y="789.30" width="5.32" height="0.96" fill="#ef9999" opacity="0.55"/>
<rect x="881.42" y="790.26" width="5.32" height="0.70" fill="#ef9999" opacity="0.55"/>
<rect x="893.36" y="789.24" width="5.32" height="1.02" fill="#ef9999" opacity="0.55"/>
<rect x="905.30" y="790.26" width="5.32" height="0.70" fill="#ef9999" opacity="0.55"/>
<rect x="917.24" y="790.26" width="5.32" height="2.09" fill="#ef9999" opacity="0.55"/>
<rect x="929.18" y="790.26" width="5.32" height="4.92" fill="#ef9999" opacity="0.55"/>
<rect x="941.13" y="790.26" width="5.32" height="6.91" fill="#ef9999" opacity="0.55"/>
<rect x="953.07" y="790.26" width="5.32" height="11.75" fill="#ef9999" opacity="0.55"/>
<rect x="965.01" y="790.26" width="5.32" height="14.85" fill="#ef9999" opacity="0.55"/>
<rect x="976.95" y="790.26" width="5.32" height="13.05" fill="#ef9999" opacity="0.55"/>
<rect x="988.90" y="790.26" width="5.32" height="13.66" fill="#ef9999" opacity="0.55"/>
<rect x="1000.84" y="790.26" width="5.32" height="14.13" fill="#ef9999" opacity="0.55"/>
<rect x="1012.78" y="790.26" width="5.32" height="14.76" fill="#ef9999" opacity="0.55"/>
<rect x="1024.72" y="790.26" width="5.32" height="12.78" fill="#ef9999" opacity="0.55"/>
<rect x="1036.67" y="790.26" width="5.32" height="8.82" fill="#ef9999" opacity="0.55"/>
<rect x="1048.61" y="790.26" width="5.32" height="5.55" fill="#ef9999" opacity="0.55"/>
<rect x="1060.55" y="790.26" width="5.32" height="2.07" fill="#ef9999" opacity="0.55"/>
<rect x="1072.49" y="789.18" width="5.32" height="1.08" fill="#ef9999" opacity="0.55"/>
<rect x="1084.43" y="787.96" width="5.32" height="2.30" fill="#ef9999" opacity="0.55"/>
<rect x="1096.38" y="788.61" width="5.32" height="1.65" fill="#ef9999" opacity="0.55"/>
<rect x="1108.32" y="787.45" width="5.32" height="2.81" fill="#ef9999" opacity="0.55"/>
<rect x="1120.26" y="785.12" width="5.32" height="5.14" fill="#ef9999" opacity="0.55"/>
<rect x="1132.20" y="782.52" width="5.32" height="7.74" fill="#ef9999" opacity="0.55"/>
<rect x="1144.15" y="779.30" width="5.32" height="10.96" fill="#ef9999" opacity="0.55"/>
<rect x="1156.09" y="777.58" width="5.32" height="12.68" fill="#ef9999" opacity="0.55"/>
<rect x="1168.03" y="778.20" width="5.32" height="12.06" fill="#ef9999" opacity="0.55"/>
<rect x="1179.97" y="779.36" width="5.32" height="10.90" fill="#ef9999" opacity="0.55"/>
<rect x="1191.92" y="780.58" width="5.32" height="9.68" fill="#ef9999" opacity="0.55"/>
<rect x="1203.86" y="782.81" width="5.32" height="7.45" fill="#ef9999" opacity="0.55"/>
<rect x="1215.80" y="784.60" width="5.32" height="5.66" fill="#ef9999" opacity="0.55"/>
<rect x="1227.74" y="786.43" width="5.32" height="3.83" fill="#ef9999" opacity="0.55"/>
<rect x="1239.68" y="788.23" width="5.32" height="2.03" fill="#ef9999" opacity="0.55"/>
<rect x="1251.63" y="789.19" width="5.32" height="1.07" fill="#ef9999" opacity="0.55"/>
<rect x="1263.57" y="786.57" width="5.32" height="3.69" fill="#ef9999" opacity="0.55"/>
<rect x="1275.51" y="784.37" width="5.32" height="5.89" fill="#ef9999" opacity="0.55"/>
<rect x="1287.45" y="780.91" width="5.32" height="9.35" fill="#ef9999" opacity="0.55"/>
<rect x="1299.40" y="779.28" width="5.32" height="10.98" fill="#ef9999" opacity="0.55"/>
<rect x="1311.34" y="778.65" width="5.32" height="11.61" fill="#ef9999" opacity="0.55"/>
<path d="M 72.00 756.03 L 83.94 759.42 L 95.88 762.02 L 107.83 766.19 L 119.77 770.03 L 131.71 773.41 L 143.65 772.45 L 155.60 769.02 L 167.54 771.03 L 179.48 770.66 L 191.42 772.30 L 203.37 773.49 L 215.31 780.08 L 227.25 784.48 L 239.19 792.21 L 251.13 796.02 L 263.08 798.84 L 275.02 806.87 L 286.96 810.80 L 298.90 815.16 L 310.85 814.82 L 322.79 816.55 L 334.73 820.44 L 346.67 824.03 L 358.62 830.18 L 370.56 832.24 L 382.50 836.16 L 394.44 838.29 L 406.38 841.30 L 418.33 842.80 L 430.27 841.48 L 442.21 840.35 L 454.15 843.86 L 466.10 847.48 L 478.04 847.43 L 489.98 851.48 L 501.92 858.00 L 513.87 864.14 L 525.81 866.99 L 537.75 870.21 L 549.69 871.64 L 561.63 869.34 L 573.58 868.59 L 585.52 866.43 L 597.46 865.97 L 609.40 860.51 L 621.35 854.95 L 633.29 848.94 L 645.23 844.13 L 657.17 842.99 L 669.12 839.62 L 681.06 835.25 L 693.00 826.52 L 704.94 818.33 L 716.88 813.82 L 728.83 811.17 L 740.77 809.75 L 752.71 802.19 L 764.65 796.78 L 776.60 793.04 L 788.54 787.96 L 800.48 784.29 L 812.42 781.64 L 824.37 780.82 L 836.31 781.10 L 848.25 783.68 L 860.19 785.70 L 872.13 788.14 L 884.08 789.31 L 896.02 787.87 L 907.96 789.56 L 919.90 791.64 L 931.85 795.69 L 943.79 799.42 L 955.73 807.19 L 967.67 814.00 L 979.62 815.47 L 991.56 819.49 L 1003.50 823.49 L 1015.44 827.81 L 1027.38 829.02 L 1039.33 827.27 L 1051.27 825.39 L 1063.21 822.42 L 1075.15 819.01 L 1087.10 817.22 L 1099.04 817.45 L 1110.98 815.59 L 1122.92 811.98 L 1134.87 807.44 L 1146.81 801.47 L 1158.75 796.58 L 1170.69 794.19 L 1182.63 792.63 L 1194.58 791.43 L 1206.52 791.79 L 1218.46 792.16 L 1230.40 793.05 L 1242.35 794.34 L 1254.29 795.03 L 1266.23 791.48 L 1278.17 787.82 L 1290.12 782.02 L 1302.06 777.63 L 1314.00 774.11" fill="none" stroke="#ef4444" stroke-width="2"/>
<path d="M 72.00 754.36 L 83.94 755.37 L 95.88 756.70 L 107.83 758.60 L 119.77 760.89 L 131.71 763.39 L 143.65 765.20 L 155.60 765.97 L 167.54 766.98 L 179.48 767.71 L 191.42 768.63 L 203.37 769.60 L 215.31 771.70 L 227.25 774.26 L 239.19 777.85 L 251.13 781.48 L 263.08 784.95 L 275.02 789.34 L 286.96 793.63 L 298.90 797.94 L 310.85 801.31 L 322.79 804.36 L 334.73 807.58 L 346.67 810.87 L 358.62 814.73 L 370.56 818.23 L 382.50 821.82 L 394.44 825.11 L 406.38 828.35 L 418.33 831.24 L 430.27 833.29 L 442.21 834.70 L 454.15 836.53 L 466.10 838.72 L 478.04 840.46 L 489.98 842.67 L 501.92 845.73 L 513.87 849.41 L 525.81 852.93 L 537.75 856.39 L 549.69 859.44 L 561.63 861.42 L 573.58 862.85 L 585.52 863.57 L 597.46 864.05 L 609.40 863.34 L 621.35 861.66 L 633.29 859.12 L 645.23 856.12 L 657.17 853.49 L 669.12 850.72 L 681.06 847.63 L 693.00 843.40 L 704.94 838.39 L 716.88 833.48 L 728.83 829.02 L 740.77 825.16 L 752.71 820.57 L 764.65 815.81 L 776.60 811.25 L 788.54 806.60 L 800.48 802.14 L 812.42 798.04 L 824.37 794.59 L 836.31 791.90 L 848.25 790.25 L 860.19 789.34 L 872.13 789.10 L 884.08 789.14 L 896.02 788.89 L 907.96 789.02 L 919.90 789.55 L 931.85 790.78 L 943.79 792.50 L 955.73 795.44 L 967.67 799.15 L 979.62 802.42 L 991.56 805.83 L 1003.50 809.36 L 1015.44 813.05 L 1027.38 816.25 L 1039.33 818.45 L 1051.27 819.84 L 1063.21 820.36 L 1075.15 820.09 L 1087.10 819.51 L 1099.04 819.10 L 1110.98 818.40 L 1122.92 817.11 L 1134.87 815.18 L 1146.81 812.44 L 1158.75 809.27 L 1170.69 806.25 L 1182.63 803.53 L 1194.58 801.11 L 1206.52 799.24 L 1218.46 797.83 L 1230.40 796.87 L 1242.35 796.37 L 1254.29 796.10 L 1266.23 795.17 L 1278.17 793.70 L 1290.12 791.37 L 1302.06 788.62 L 1314.00 785.72" fill="none" stroke="#3f5bff" stroke-width="2"/>
<text x="78" y="918" class="label">RSI 14</text>
<text x="1321" y="912" class="small">100.00</text>
<text x="1321" y="1006" class="small">0.00</text>
<line x1="72" y1="973.92" x2="1314" y2="973.92" stroke="#4775d1" stroke-dasharray="5 5"/>
<line x1="72" y1="955.00" x2="1314" y2="955.00" stroke="#e05a5a" stroke-dasharray="5 5"/>
<line x1="72" y1="936.08" x2="1314" y2="936.08" stroke="#e05a5a" stroke-dasharray="5 5"/>
<path d="M 72.00 947.74 L 83.94 950.93 L 95.88 950.17 L 107.83 954.28 L 119.77 954.94 L 131.71 955.25 L 143.65 947.26 L 155.60 942.49 L 167.54 952.50 L 179.48 948.89 L 191.42 952.32 L 203.37 951.78 L 215.31 961.39 L 227.25 959.68 L 239.19 965.72 L 251.13 961.41 L 263.08 961.19 L 275.02 968.86 L 286.96 964.66 L 298.90 966.51 L 310.85 960.17 L 322.79 963.14 L 334.73 966.53 L 346.67 967.55 L 358.62 971.49 L 370.56 967.01 L 382.50 969.98 L 394.44 969.13 L 406.38 971.16 L 418.33 970.55 L 430.27 966.43 L 442.21 967.06 L 454.15 972.86 L 466.10 974.33 L 478.04 969.32 L 489.98 974.16 L 501.92 977.50 L 513.87 978.85 L 525.81 976.36 L 537.75 977.89 L 549.69 977.44 L 561.63 971.66 L 573.58 973.67 L 585.52 972.07 L 597.46 974.31 L 609.40 965.10 L 621.35 964.15 L 633.29 962.28 L 645.23 963.14 L 657.17 967.71 L 669.12 963.66 L 681.06 961.21 L 693.00 952.57 L 704.94 951.10 L 716.88 955.08 L 728.83 957.02 L 740.77 958.55 L 752.71 948.34 L 764.65 949.52 L 776.60 950.61 L 788.54 947.39 L 800.48 947.97 L 812.42 948.31 L 824.37 950.91 L 836.31 952.73 L 848.25 957.45 L 860.19 957.27 L 872.13 958.98 L 884.08 957.07 L 896.02 951.61 L 907.96 957.85 L 919.90 959.36 L 931.85 963.97 L 943.79 965.05 L 955.73 972.40 L 967.67 973.53 L 979.62 964.46 L 991.56 968.83 L 1003.50 970.31 L 1015.44 972.21 L 1027.38 967.91 L 1039.33 962.78 L 1051.27 962.60 L 1063.21 960.10 L 1075.15 958.46 L 1087.10 960.80 L 1099.04 964.31 L 1110.98 960.06 L 1122.92 955.86 L 1134.87 952.80 L 1146.81 948.59 L 1158.75 948.42 L 1170.69 952.13 L 1182.63 952.98 L 1194.58 953.13 L 1206.52 956.47 L 1218.46 956.75 L 1230.40 958.36 L 1242.35 960.02 L 1254.29 959.10 L 1266.23 948.03 L 1278.17 946.09 L 1290.12 940.39 L 1302.06 940.61 L 1314.00 940.17" fill="none" stroke="#ef4444" stroke-width="2"/>
<text x="78" y="1040" class="label">MFI 14</text>
<text x="1321" y="1034" class="small">100.00</text>
<text x="1321" y="1128" class="small">0.00</text>
<line x1="72" y1="1095.92" x2="1314" y2="1095.92" stroke="#4775d1" stroke-dasharray="5 5"/>
<line x1="72" y1="1077.00" x2="1314" y2="1077.00" stroke="#e05a5a" stroke-dasharray="5 5"/>
<line x1="72" y1="1058.08" x2="1314" y2="1058.08" stroke="#e05a5a" stroke-dasharray="5 5"/>
<path d="M 72.00 1071.32 L 83.94 1077.01 L 95.88 1076.30 L 107.83 1074.87 L 119.77 1075.80 L 131.71 1087.92 L 143.65 1079.86 L 155.60 1078.53 L 167.54 1086.70 L 179.48 1086.55 L 191.42 1087.19 L 203.37 1086.96 L 215.31 1091.69 L 227.25 1098.65 L 239.19 1099.95 L 251.13 1096.12 L 263.08 1091.94 L 275.02 1092.73 L 286.96 1097.33 L 298.90 1088.41 L 310.85 1090.11 L 322.79 1097.03 L 334.73 1096.09 L 346.67 1101.81 L 358.62 1101.51 L 370.56 1095.49 L 382.50 1095.41 L 394.44 1093.57 L 406.38 1093.38 L 418.33 1091.75 L 430.27 1092.34 L 442.21 1085.99 L 454.15 1086.57 L 466.10 1095.20 L 478.04 1094.60 L 489.98 1095.87 L 501.92 1095.90 L 513.87 1096.44 L 525.81 1089.86 L 537.75 1096.65 L 549.69 1097.37 L 561.63 1091.21 L 573.58 1090.71 L 585.52 1092.03 L 597.46 1097.05 L 609.40 1095.08 L 621.35 1089.19 L 633.29 1082.11 L 645.23 1089.13 L 657.17 1087.98 L 669.12 1082.06 L 681.06 1075.58 L 693.00 1075.34 L 704.94 1068.93 L 716.88 1067.14 L 728.83 1073.84 L 740.77 1065.92 L 752.71 1065.26 L 764.65 1058.71 L 776.60 1059.87 L 788.54 1060.15 L 800.48 1061.03 L 812.42 1052.09 L 824.37 1048.21 L 836.31 1053.05 L 848.25 1059.48 L 860.19 1068.00 L 872.13 1068.50 L 884.08 1062.48 L 896.02 1053.89 L 907.96 1064.21 L 919.90 1071.69 L 931.85 1084.26 L 943.79 1091.08 L 955.73 1099.69 L 967.67 1106.15 L 979.62 1099.39 L 991.56 1101.44 L 1003.50 1102.55 L 1015.44 1102.92 L 1027.38 1095.76 L 1039.33 1092.37 L 1051.27 1091.05 L 1063.21 1090.48 L 1075.15 1084.65 L 1087.10 1087.14 L 1099.04 1086.32 L 1110.98 1078.54 L 1122.92 1070.15 L 1134.87 1064.29 L 1146.81 1064.98 L 1158.75 1057.16 L 1170.69 1058.15 L 1182.63 1059.83 L 1194.58 1060.11 L 1206.52 1066.11 L 1218.46 1070.43 L 1230.40 1074.33 L 1242.35 1079.15 L 1254.29 1077.15 L 1266.23 1069.34 L 1278.17 1072.70 L 1290.12 1074.40 L 1302.06 1071.25 L 1314.00 1071.49" fill="none" stroke="#f05252" stroke-width="2"/>
<rect x="638.00" y="48" width="110" height="22" rx="4" fill="#30343b"/>
<text x="693.00" y="64" text-anchor="middle" style="font-size:12px;fill:#fff;font-weight:700">MMRM 기준봉</text>
<text x="72.00" y="1152" text-anchor="middle" class="small">이전 52주</text>
<text x="382.50" y="1152" text-anchor="middle" class="small">-26</text>
<text x="693.00" y="1152" text-anchor="middle" class="small">T0</text>
<text x="1003.50" y="1152" text-anchor="middle" class="small">+26</text>
<text x="1314.00" y="1152" text-anchor="middle" class="small">이후 52주</text>
</svg>