<svg xmlns="http://www.w3.org/2000/svg" viewBox="0 0 1200 710" role="img">
<title>급락 후 장기선 부근 초기 반등형 고정 패턴 중심 프로토타입</title>
<rect width="1200" height="710" fill="#ffffff"/>
<style>text{font-family:system-ui,-apple-system,'Noto Sans KR',sans-serif;fill:#172033}.title{font-size:22px;font-weight:800}.sub{font-size:13px;fill:#647085}.axis{font-size:11px;fill:#6b7280}.metric{font-size:12px;fill:#647085}.value{font-size:17px;font-weight:800;fill:#1d5fd1}.legend{font-size:11px;font-weight:700}</style>
<text x="40" y="30" class="title">급락 후 장기선 부근 초기 반등형</text>
<text x="40" y="53" class="sub">고정 모델 CS02 중심 · 기준봉 이전 T-52~T0만 사용 · 기준봉 종가=100 · 다섯 이미지 동일 축</text>
<line x1="570" y1="69" x2="594" y2="69" stroke="#111827" stroke-width="4"/>
<text x="600" y="73" class="legend">종가</text>
<line x1="662" y1="69" x2="686" y2="69" stroke="#168b4b" stroke-width="2"/>
<text x="692" y="73" class="legend">MA5</text>
<line x1="754" y1="69" x2="778" y2="69" stroke="#13b8c8" stroke-width="2"/>
<text x="784" y="73" class="legend">MA20</text>
<line x1="846" y1="69" x2="870" y2="69" stroke="#3156d9" stroke-width="2"/>
<text x="876" y="73" class="legend">MA50</text>
<line x1="938" y1="69" x2="962" y2="69" stroke="#8b3f2b" stroke-width="2"/>
<text x="968" y="73" class="legend">MA150</text>
<line x1="1030" y1="69" x2="1054" y2="69" stroke="#e05252" stroke-width="2"/>
<text x="1060" y="73" class="legend">MA200</text>
<line x1="80.0" y1="410.0" x2="1140.0" y2="410.0" stroke="#e6ebf2"/>
<text x="70.0" y="414.0" text-anchor="end" class="axis">40</text>
<line x1="80.0" y1="358.3" x2="1140.0" y2="358.3" stroke="#e6ebf2"/>
<text x="70.0" y="362.3" text-anchor="end" class="axis">65</text>
<line x1="80.0" y1="306.7" x2="1140.0" y2="306.7" stroke="#e6ebf2"/>
<text x="70.0" y="310.7" text-anchor="end" class="axis">90</text>
<line x1="80.0" y1="255.0" x2="1140.0" y2="255.0" stroke="#e6ebf2"/>
<text x="70.0" y="259.0" text-anchor="end" class="axis">115</text>
<line x1="80.0" y1="203.3" x2="1140.0" y2="203.3" stroke="#e6ebf2"/>
<text x="70.0" y="207.3" text-anchor="end" class="axis">140</text>
<line x1="80.0" y1="151.7" x2="1140.0" y2="151.7" stroke="#e6ebf2"/>
<text x="70.0" y="155.7" text-anchor="end" class="axis">165</text>
<line x1="80.0" y1="100.0" x2="1140.0" y2="100.0" stroke="#e6ebf2"/>
<text x="70.0" y="104.0" text-anchor="end" class="axis">190</text>
<line x1="80.0" y1="100.0" x2="80.0" y2="410.0" stroke="#eef2f7"/>
<text x="80.0" y="429.0" text-anchor="middle" class="axis">T-52</text>
<line x1="324.6" y1="100.0" x2="324.6" y2="410.0" stroke="#eef2f7"/>
<text x="324.6" y="429.0" text-anchor="middle" class="axis">T-40</text>
<line x1="569.2" y1="100.0" x2="569.2" y2="410.0" stroke="#eef2f7"/>
<text x="569.2" y="429.0" text-anchor="middle" class="axis">T-28</text>
<line x1="813.8" y1="100.0" x2="813.8" y2="410.0" stroke="#eef2f7"/>
<text x="813.8" y="429.0" text-anchor="middle" class="axis">T-16</text>
<line x1="1140.0" y1="100.0" x2="1140.0" y2="410.0" stroke="#eef2f7"/>
<text x="1140.0" y="429.0" text-anchor="middle" class="axis">T0 기준봉</text>
<polygon points="80.0,267.1 161.5,265.6 243.1,264.1 324.6,262.1 406.2,260.1 487.7,259.0 569.2,259.4 650.8,260.0 732.3,260.6 813.8,263.2 895.4,264.8 976.9,265.7 1058.5,265.9 1140.0,257.3 1140.0,262.8 1058.5,271.8 976.9,272.1 895.4,271.8 813.8,270.7 732.3,268.2 650.8,267.1 569.2,266.3 487.7,266.3 406.2,266.0 324.6,268.3 243.1,270.2 161.5,272.0 80.0,273.3" fill="#e05252" opacity="0.08"/>
<polyline points="80.0,267.1 161.5,265.6 243.1,264.1 324.6,262.1 406.2,260.1 487.7,259.0 569.2,259.4 650.8,260.0 732.3,260.6 813.8,263.2 895.4,264.8 976.9,265.7 1058.5,265.9 1140.0,257.3" fill="none" stroke="#8b3f2b" stroke-width="2" stroke-linejoin="round" stroke-linecap="round"/>
<polyline points="80.0,273.3 161.5,272.0 243.1,270.2 324.6,268.3 406.2,266.0 487.7,266.3 569.2,266.3 650.8,267.1 732.3,268.2 813.8,270.7 895.4,271.8 976.9,272.1 1058.5,271.8 1140.0,262.8" fill="none" stroke="#e05252" stroke-width="2" stroke-linejoin="round" stroke-linecap="round"/>
<polyline points="80.0,253.7 161.5,252.0 243.1,249.3 324.6,246.1 406.2,242.9 487.7,240.2 569.2,239.2 650.8,240.2 732.3,242.6 813.8,247.2 895.4,252.4 976.9,257.6 1058.5,262.9 1140.0,259.3" fill="none" stroke="#3156d9" stroke-width="2" stroke-linejoin="round" stroke-linecap="round"/>
<polyline points="80.0,245.8 161.5,244.0 243.1,240.8 324.6,236.9 406.2,233.2 487.7,230.7 569.2,231.5 650.8,236.5 732.3,246.4 813.8,260.3 895.4,276.1 976.9,290.4 1058.5,301.7 1140.0,300.7" fill="none" stroke="#13b8c8" stroke-width="2" stroke-linejoin="round" stroke-linecap="round"/>
<polyline points="80.0,240.4 161.5,236.2 243.1,230.9 324.6,229.0 406.2,227.5 487.7,229.8 569.2,237.6 650.8,253.1 732.3,272.3 813.8,292.5 895.4,309.1 976.9,314.0 1058.5,314.0 1140.0,299.3" fill="none" stroke="#168b4b" stroke-width="2" stroke-linejoin="round" stroke-linecap="round"/>
<polyline points="80.0,237.7 161.5,233.3 243.1,229.3 324.6,227.9 406.2,227.8 487.7,232.2 569.2,243.5 650.8,262.6 732.3,281.2 813.8,302.7 895.4,312.5 976.9,315.0 1058.5,311.8 1140.0,286.0" fill="none" stroke="#111827" stroke-width="4" stroke-linejoin="round" stroke-linecap="round"/>
<line x1="1140.0" y1="92.0" x2="1140.0" y2="410.0" stroke="#1d5fd1" stroke-width="3" stroke-dasharray="7 5"/>
<text x="80.0" y="458.0" class="sub">기준봉 이전 누적고점 대비 낙폭 경로</text>
<line x1="80.0" y1="555.0" x2="1140.0" y2="555.0" stroke="#edf1f6"/>
<text x="70.0" y="559.0" text-anchor="end" class="axis">-60%</text>
<line x1="80.0" y1="526.7" x2="1140.0" y2="526.7" stroke="#edf1f6"/>
<text x="70.0" y="530.7" text-anchor="end" class="axis">-40%</text>
<line x1="80.0" y1="498.3" x2="1140.0" y2="498.3" stroke="#edf1f6"/>
<text x="70.0" y="502.3" text-anchor="end" class="axis">-20%</text>
<line x1="80.0" y1="470.0" x2="1140.0" y2="470.0" stroke="#edf1f6"/>
<text x="70.0" y="474.0" text-anchor="end" class="axis">0%</text>
<polygon points="80.0,470.0 80.0,471.0 161.5,475.2 243.1,478.3 324.6,480.6 406.2,483.3 487.7,486.8 569.2,492.9 650.8,502.1 732.3,510.6 813.8,520.5 895.4,525.1 976.9,526.1 1058.5,524.7 1140.0,515.8 1140.0,470.0" fill="#e05252" opacity="0.16"/>
<polyline points="80.0,471.0 161.5,475.2 243.1,478.3 324.6,480.6 406.2,483.3 487.7,486.8 569.2,492.9 650.8,502.1 732.3,510.6 813.8,520.5 895.4,525.1 976.9,526.1 1058.5,524.7 1140.0,515.8" fill="none" stroke="#c63f4a" stroke-width="3" stroke-linejoin="round"/>
<rect x="80.0" y="590.0" width="168.3" height="83.0" rx="12" fill="#f4f7fb" stroke="#e0e7f0"/>
<text x="164.2" y="617.0" text-anchor="middle" class="metric">이전 52주 수익</text>
<text x="164.2" y="647.0" text-anchor="middle" class="value">-16.8%</text>
<rect x="258.3" y="590.0" width="168.3" height="83.0" rx="12" fill="#f4f7fb" stroke="#e0e7f0"/>
<text x="342.5" y="617.0" text-anchor="middle" class="metric">최대낙폭</text>
<text x="342.5" y="647.0" text-anchor="middle" class="value">-46.3%</text>
<rect x="436.7" y="590.0" width="168.3" height="83.0" rx="12" fill="#f4f7fb" stroke="#e0e7f0"/>
<text x="520.8" y="617.0" text-anchor="middle" class="metric">연환산 변동성</text>
<text x="520.8" y="647.0" text-anchor="middle" class="value">+44.0%</text>
<rect x="615.0" y="590.0" width="168.3" height="83.0" rx="12" fill="#f4f7fb" stroke="#e0e7f0"/>
<text x="699.2" y="617.0" text-anchor="middle" class="metric">MA150 / MA200 이격</text>
<text x="699.2" y="647.0" text-anchor="middle" class="value">-12.2% / -10.1%</text>
<rect x="793.3" y="590.0" width="168.3" height="83.0" rx="12" fill="#f4f7fb" stroke="#e0e7f0"/>
<text x="877.5" y="617.0" text-anchor="middle" class="metric">150·200주선 간격</text>
<text x="877.5" y="647.0" text-anchor="middle" class="value">+7.0%</text>
<rect x="971.7" y="590.0" width="168.3" height="83.0" rx="12" fill="#f4f7fb" stroke="#e0e7f0"/>
<text x="1055.8" y="617.0" text-anchor="middle" class="metric">ATH 안전마진</text>
<text x="1055.8" y="647.0" text-anchor="middle" class="value">+49.0%</text>
<text x="1140" y="698" text-anchor="end" class="axis">실제 종목 차트가 아니라 학습구간 고정 중심점의 역변환 프로토타입</text>
</svg>