<svg xmlns="http://www.w3.org/2000/svg" viewBox="0 0 1200 710" role="img">
<title>완만한 조정·정상 회복형 고정 패턴 중심 프로토타입</title>
<rect width="1200" height="710" fill="#ffffff"/>
<style>text{font-family:system-ui,-apple-system,'Noto Sans KR',sans-serif;fill:#172033}.title{font-size:22px;font-weight:800}.sub{font-size:13px;fill:#647085}.axis{font-size:11px;fill:#6b7280}.metric{font-size:12px;fill:#647085}.value{font-size:17px;font-weight:800;fill:#1d5fd1}.legend{font-size:11px;font-weight:700}</style>
<text x="40" y="30" class="title">완만한 조정·정상 회복형</text>
<text x="40" y="53" class="sub">고정 모델 CS01 중심 · 기준봉 이전 T-52~T0만 사용 · 기준봉 종가=100 · 다섯 이미지 동일 축</text>
<line x1="570" y1="69" x2="594" y2="69" stroke="#111827" stroke-width="4"/>
<text x="600" y="73" class="legend">종가</text>
<line x1="662" y1="69" x2="686" y2="69" stroke="#168b4b" stroke-width="2"/>
<text x="692" y="73" class="legend">MA5</text>
<line x1="754" y1="69" x2="778" y2="69" stroke="#13b8c8" stroke-width="2"/>
<text x="784" y="73" class="legend">MA20</text>
<line x1="846" y1="69" x2="870" y2="69" stroke="#3156d9" stroke-width="2"/>
<text x="876" y="73" class="legend">MA50</text>
<line x1="938" y1="69" x2="962" y2="69" stroke="#8b3f2b" stroke-width="2"/>
<text x="968" y="73" class="legend">MA150</text>
<line x1="1030" y1="69" x2="1054" y2="69" stroke="#e05252" stroke-width="2"/>
<text x="1060" y="73" class="legend">MA200</text>
<line x1="80.0" y1="410.0" x2="1140.0" y2="410.0" stroke="#e6ebf2"/>
<text x="70.0" y="414.0" text-anchor="end" class="axis">40</text>
<line x1="80.0" y1="358.3" x2="1140.0" y2="358.3" stroke="#e6ebf2"/>
<text x="70.0" y="362.3" text-anchor="end" class="axis">65</text>
<line x1="80.0" y1="306.7" x2="1140.0" y2="306.7" stroke="#e6ebf2"/>
<text x="70.0" y="310.7" text-anchor="end" class="axis">90</text>
<line x1="80.0" y1="255.0" x2="1140.0" y2="255.0" stroke="#e6ebf2"/>
<text x="70.0" y="259.0" text-anchor="end" class="axis">115</text>
<line x1="80.0" y1="203.3" x2="1140.0" y2="203.3" stroke="#e6ebf2"/>
<text x="70.0" y="207.3" text-anchor="end" class="axis">140</text>
<line x1="80.0" y1="151.7" x2="1140.0" y2="151.7" stroke="#e6ebf2"/>
<text x="70.0" y="155.7" text-anchor="end" class="axis">165</text>
<line x1="80.0" y1="100.0" x2="1140.0" y2="100.0" stroke="#e6ebf2"/>
<text x="70.0" y="104.0" text-anchor="end" class="axis">190</text>
<line x1="80.0" y1="100.0" x2="80.0" y2="410.0" stroke="#eef2f7"/>
<text x="80.0" y="429.0" text-anchor="middle" class="axis">T-52</text>
<line x1="324.6" y1="100.0" x2="324.6" y2="410.0" stroke="#eef2f7"/>
<text x="324.6" y="429.0" text-anchor="middle" class="axis">T-40</text>
<line x1="569.2" y1="100.0" x2="569.2" y2="410.0" stroke="#eef2f7"/>
<text x="569.2" y="429.0" text-anchor="middle" class="axis">T-28</text>
<line x1="813.8" y1="100.0" x2="813.8" y2="410.0" stroke="#eef2f7"/>
<text x="813.8" y="429.0" text-anchor="middle" class="axis">T-16</text>
<line x1="1140.0" y1="100.0" x2="1140.0" y2="410.0" stroke="#eef2f7"/>
<text x="1140.0" y="429.0" text-anchor="middle" class="axis">T0 기준봉</text>
<polygon points="80.0,318.8 161.5,317.5 243.1,315.9 324.6,314.5 406.2,313.0 487.7,311.7 569.2,310.4 650.8,309.3 732.3,308.0 813.8,307.0 895.4,306.1 976.9,305.3 1058.5,304.6 1140.0,301.1 1140.0,307.4 1058.5,310.9 976.9,311.6 895.4,312.1 813.8,313.0 732.3,313.9 650.8,315.1 569.2,316.1 487.7,317.3 406.2,318.5 324.6,320.3 243.1,321.7 161.5,323.3 80.0,324.6" fill="#e05252" opacity="0.08"/>
<polyline points="80.0,318.8 161.5,317.5 243.1,315.9 324.6,314.5 406.2,313.0 487.7,311.7 569.2,310.4 650.8,309.3 732.3,308.0 813.8,307.0 895.4,306.1 976.9,305.3 1058.5,304.6 1140.0,301.1" fill="none" stroke="#8b3f2b" stroke-width="2" stroke-linejoin="round" stroke-linecap="round"/>
<polyline points="80.0,324.6 161.5,323.3 243.1,321.7 324.6,320.3 406.2,318.5 487.7,317.3 569.2,316.1 650.8,315.1 732.3,313.9 813.8,313.0 895.4,312.1 976.9,311.6 1058.5,310.9 1140.0,307.4" fill="none" stroke="#e05252" stroke-width="2" stroke-linejoin="round" stroke-linecap="round"/>
<polyline points="80.0,303.3 161.5,302.0 243.1,300.2 324.6,298.6 406.2,297.0 487.7,295.4 569.2,294.0 650.8,292.8 732.3,291.6 813.8,290.9 895.4,290.7 976.9,290.7 1058.5,291.1 1140.0,288.1" fill="none" stroke="#3156d9" stroke-width="2" stroke-linejoin="round" stroke-linecap="round"/>
<polyline points="80.0,298.2 161.5,296.9 243.1,295.5 324.6,293.4 406.2,291.3 487.7,289.3 569.2,287.5 650.8,286.3 732.3,285.8 813.8,286.5 895.4,288.8 976.9,291.7 1058.5,294.8 1140.0,293.3" fill="none" stroke="#13b8c8" stroke-width="2" stroke-linejoin="round" stroke-linecap="round"/>
<polyline points="80.0,295.6 161.5,294.0 243.1,291.5 324.6,288.5 406.2,286.5 487.7,285.3 569.2,285.0 650.8,285.0 732.3,286.1 813.8,289.2 895.4,296.2 976.9,300.1 1058.5,300.5 1140.0,292.8" fill="none" stroke="#168b4b" stroke-width="2" stroke-linejoin="round" stroke-linecap="round"/>
<polyline points="80.0,294.8 161.5,292.6 243.1,289.7 324.6,287.4 406.2,285.5 487.7,284.9 569.2,284.6 650.8,285.4 732.3,286.7 813.8,291.9 895.4,298.9 976.9,300.8 1058.5,299.3 1140.0,286.0" fill="none" stroke="#111827" stroke-width="4" stroke-linejoin="round" stroke-linecap="round"/>
<line x1="1140.0" y1="92.0" x2="1140.0" y2="410.0" stroke="#1d5fd1" stroke-width="3" stroke-dasharray="7 5"/>
<text x="80.0" y="458.0" class="sub">기준봉 이전 누적고점 대비 낙폭 경로</text>
<line x1="80.0" y1="555.0" x2="1140.0" y2="555.0" stroke="#edf1f6"/>
<text x="70.0" y="559.0" text-anchor="end" class="axis">-60%</text>
<line x1="80.0" y1="526.7" x2="1140.0" y2="526.7" stroke="#edf1f6"/>
<text x="70.0" y="530.7" text-anchor="end" class="axis">-40%</text>
<line x1="80.0" y1="498.3" x2="1140.0" y2="498.3" stroke="#edf1f6"/>
<text x="70.0" y="502.3" text-anchor="end" class="axis">-20%</text>
<line x1="80.0" y1="470.0" x2="1140.0" y2="470.0" stroke="#edf1f6"/>
<text x="70.0" y="474.0" text-anchor="end" class="axis">0%</text>
<polygon points="80.0,470.0 80.0,470.8 161.5,473.7 243.1,475.3 324.6,476.6 406.2,477.4 487.7,478.8 569.2,479.9 650.8,481.5 732.3,482.9 813.8,486.3 895.4,490.7 976.9,491.9 1058.5,490.9 1140.0,484.7 1140.0,470.0" fill="#e05252" opacity="0.16"/>
<polyline points="80.0,470.8 161.5,473.7 243.1,475.3 324.6,476.6 406.2,477.4 487.7,478.8 569.2,479.9 650.8,481.5 732.3,482.9 813.8,486.3 895.4,490.7 976.9,491.9 1058.5,490.9 1140.0,484.7" fill="none" stroke="#c63f4a" stroke-width="3" stroke-linejoin="round"/>
<rect x="80.0" y="590.0" width="168.3" height="83.0" rx="12" fill="#f4f7fb" stroke="#e0e7f0"/>
<text x="164.2" y="617.0" text-anchor="middle" class="metric">이전 52주 수익</text>
<text x="164.2" y="647.0" text-anchor="middle" class="value">+6.0%</text>
<rect x="258.3" y="590.0" width="168.3" height="83.0" rx="12" fill="#f4f7fb" stroke="#e0e7f0"/>
<text x="342.5" y="617.0" text-anchor="middle" class="metric">최대낙폭</text>
<text x="342.5" y="647.0" text-anchor="middle" class="value">-20.6%</text>
<rect x="436.7" y="590.0" width="168.3" height="83.0" rx="12" fill="#f4f7fb" stroke="#e0e7f0"/>
<text x="520.8" y="617.0" text-anchor="middle" class="metric">연환산 변동성</text>
<text x="520.8" y="647.0" text-anchor="middle" class="value">+25.1%</text>
<rect x="615.0" y="590.0" width="168.3" height="83.0" rx="12" fill="#f4f7fb" stroke="#e0e7f0"/>
<text x="699.2" y="617.0" text-anchor="middle" class="metric">MA150 / MA200 이격</text>
<text x="699.2" y="647.0" text-anchor="middle" class="value">+7.9% / +11.5%</text>
<rect x="793.3" y="590.0" width="168.3" height="83.0" rx="12" fill="#f4f7fb" stroke="#e0e7f0"/>
<text x="877.5" y="617.0" text-anchor="middle" class="metric">150·200주선 간격</text>
<text x="877.5" y="647.0" text-anchor="middle" class="value">+5.6%</text>
<rect x="971.7" y="590.0" width="168.3" height="83.0" rx="12" fill="#f4f7fb" stroke="#e0e7f0"/>
<text x="1055.8" y="617.0" text-anchor="middle" class="metric">ATH 안전마진</text>
<text x="1055.8" y="647.0" text-anchor="middle" class="value">+24.8%</text>
<text x="1140" y="698" text-anchor="end" class="axis">실제 종목 차트가 아니라 학습구간 고정 중심점의 역변환 프로토타입</text>
</svg>