<svg xmlns="http://www.w3.org/2000/svg" width="1400" height="1120" viewBox="0 0 1400 1120">
<rect width="100%" height="100%" fill="#ffffff"/>
<style>text{font-family:Segoe UI,Arial,sans-serif;fill:#30343b}.small{font-size:12px}.label{font-size:14px;font-weight:600}.title{font-size:18px;font-weight:700}</style>
<text x="72" y="25" class="title">CVX · MMRM 2019-02-18 · 시가총액 32위 · T-52 ~ T+52</text>
<rect x="72" y="42" width="1242" height="390" fill="#fcfcfc" stroke="#d7dce2"/>
<line x1="72.00" y1="42" x2="72.00" y2="432" stroke="#e2e5e9" stroke-width="1"/>
<line x1="382.50" y1="42" x2="382.50" y2="432" stroke="#e2e5e9" stroke-width="1"/>
<line x1="693.00" y1="42" x2="693.00" y2="432" stroke="#656d78" stroke-width="2.2"/>
<line x1="1003.50" y1="42" x2="1003.50" y2="432" stroke="#e2e5e9" stroke-width="1"/>
<line x1="1314.00" y1="42" x2="1314.00" y2="432" stroke="#e2e5e9" stroke-width="1"/>
<rect x="72" y="444" width="1242" height="150" fill="#fcfcfc" stroke="#d7dce2"/>
<line x1="72.00" y1="444" x2="72.00" y2="594" stroke="#e2e5e9" stroke-width="1"/>
<line x1="382.50" y1="444" x2="382.50" y2="594" stroke="#e2e5e9" stroke-width="1"/>
<line x1="693.00" y1="444" x2="693.00" y2="594" stroke="#656d78" stroke-width="2.2"/>
<line x1="1003.50" y1="444" x2="1003.50" y2="594" stroke="#e2e5e9" stroke-width="1"/>
<line x1="1314.00" y1="444" x2="1314.00" y2="594" stroke="#e2e5e9" stroke-width="1"/>
<rect x="72" y="606" width="1242" height="120" fill="#fcfcfc" stroke="#d7dce2"/>
<line x1="72.00" y1="606" x2="72.00" y2="726" stroke="#e2e5e9" stroke-width="1"/>
<line x1="382.50" y1="606" x2="382.50" y2="726" stroke="#e2e5e9" stroke-width="1"/>
<line x1="693.00" y1="606" x2="693.00" y2="726" stroke="#656d78" stroke-width="2.2"/>
<line x1="1003.50" y1="606" x2="1003.50" y2="726" stroke="#e2e5e9" stroke-width="1"/>
<line x1="1314.00" y1="606" x2="1314.00" y2="726" stroke="#e2e5e9" stroke-width="1"/>
<rect x="72" y="738" width="1242" height="150" fill="#fcfcfc" stroke="#d7dce2"/>
<line x1="72.00" y1="738" x2="72.00" y2="888" stroke="#e2e5e9" stroke-width="1"/>
<line x1="382.50" y1="738" x2="382.50" y2="888" stroke="#e2e5e9" stroke-width="1"/>
<line x1="693.00" y1="738" x2="693.00" y2="888" stroke="#656d78" stroke-width="2.2"/>
<line x1="1003.50" y1="738" x2="1003.50" y2="888" stroke="#e2e5e9" stroke-width="1"/>
<line x1="1314.00" y1="738" x2="1314.00" y2="888" stroke="#e2e5e9" stroke-width="1"/>
<rect x="72" y="900" width="1242" height="110" fill="#fcfcfc" stroke="#d7dce2"/>
<line x1="72.00" y1="900" x2="72.00" y2="1010" stroke="#e2e5e9" stroke-width="1"/>
<line x1="382.50" y1="900" x2="382.50" y2="1010" stroke="#e2e5e9" stroke-width="1"/>
<line x1="693.00" y1="900" x2="693.00" y2="1010" stroke="#656d78" stroke-width="2.2"/>
<line x1="1003.50" y1="900" x2="1003.50" y2="1010" stroke="#e2e5e9" stroke-width="1"/>
<line x1="1314.00" y1="900" x2="1314.00" y2="1010" stroke="#e2e5e9" stroke-width="1"/>
<rect x="72" y="1022" width="1242" height="110" fill="#fcfcfc" stroke="#d7dce2"/>
<line x1="72.00" y1="1022" x2="72.00" y2="1132" stroke="#e2e5e9" stroke-width="1"/>
<line x1="382.50" y1="1022" x2="382.50" y2="1132" stroke="#e2e5e9" stroke-width="1"/>
<line x1="693.00" y1="1022" x2="693.00" y2="1132" stroke="#656d78" stroke-width="2.2"/>
<line x1="1003.50" y1="1022" x2="1003.50" y2="1132" stroke="#e2e5e9" stroke-width="1"/>
<line x1="1314.00" y1="1022" x2="1314.00" y2="1132" stroke="#e2e5e9" stroke-width="1"/>
<text x="78" y="60" class="label">주봉 가격 · MA 5/20/50/150/200</text>
<text x="1321" y="54" class="small">132.62</text>
<text x="1321" y="428" class="small">98.68</text>
<line x1="72.00" y1="265.55" x2="72.00" y2="303.69" stroke="#ef3b3b"/>
<rect x="68.75" y="267.23" width="6.51" height="3.06" fill="#ef3b3b" stroke="#ef3b3b"/>
<line x1="83.94" y1="233.05" x2="83.94" y2="294.50" stroke="#3156d9"/>
<rect x="80.69" y="261.40" width="6.51" height="15.22" fill="#ffffff" stroke="#3156d9"/>
<line x1="95.88" y1="219.81" x2="95.88" y2="282.75" stroke="#ef3b3b"/>
<rect x="92.63" y="221.49" width="6.51" height="57.50" fill="#ef3b3b" stroke="#ef3b3b"/>
<line x1="107.83" y1="210.32" x2="107.83" y2="247.77" stroke="#3156d9"/>
<rect x="104.57" y="218.72" width="6.51" height="20.75" fill="#ffffff" stroke="#3156d9"/>
<line x1="119.77" y1="212.69" x2="119.77" y2="266.15" stroke="#3156d9"/>
<rect x="116.52" y="242.73" width="6.51" height="20.65" fill="#ffffff" stroke="#3156d9"/>
<line x1="131.71" y1="225.04" x2="131.71" y2="272.47" stroke="#3156d9"/>
<rect x="128.46" y="250.93" width="6.51" height="1.98" fill="#ffffff" stroke="#3156d9"/>
<line x1="143.65" y1="214.87" x2="143.65" y2="287.49" stroke="#ef3b3b"/>
<rect x="140.40" y="245.79" width="6.51" height="8.60" fill="#ef3b3b" stroke="#ef3b3b"/>
<line x1="155.60" y1="186.21" x2="155.60" y2="244.61" stroke="#ef3b3b"/>
<rect x="152.34" y="194.81" width="6.51" height="45.65" fill="#ef3b3b" stroke="#ef3b3b"/>
<line x1="167.54" y1="144.62" x2="167.54" y2="196.29" stroke="#ef3b3b"/>
<rect x="164.29" y="171.20" width="6.51" height="16.90" fill="#ef3b3b" stroke="#ef3b3b"/>
<line x1="179.48" y1="124.36" x2="179.48" y2="182.95" stroke="#ef3b3b"/>
<rect x="176.23" y="128.61" width="6.51" height="45.65" fill="#ef3b3b" stroke="#ef3b3b"/>
<line x1="191.42" y1="115.97" x2="191.42" y2="163.59" stroke="#3156d9"/>
<rect x="188.17" y="124.66" width="6.51" height="14.72" fill="#ffffff" stroke="#3156d9"/>
<line x1="203.37" y1="87.71" x2="203.37" y2="158.15" stroke="#ef3b3b"/>
<rect x="200.11" y="96.80" width="6.51" height="32.11" fill="#ef3b3b" stroke="#ef3b3b"/>
<line x1="215.31" y1="84.55" x2="215.31" y2="116.95" stroke="#3156d9"/>
<rect x="212.05" y="92.75" width="6.51" height="23.61" fill="#ffffff" stroke="#3156d9"/>
<line x1="227.25" y1="91.36" x2="227.25" y2="181.97" stroke="#3156d9"/>
<rect x="224.00" y="107.17" width="6.51" height="65.21" fill="#ffffff" stroke="#3156d9"/>
<line x1="239.19" y1="138.00" x2="239.19" y2="193.43" stroke="#ef3b3b"/>
<rect x="235.94" y="155.98" width="6.51" height="27.17" fill="#ef3b3b" stroke="#ef3b3b"/>
<line x1="251.13" y1="115.17" x2="251.13" y2="178.71" stroke="#ef3b3b"/>
<rect x="247.88" y="130.39" width="6.51" height="18.87" fill="#ef3b3b" stroke="#ef3b3b"/>
<line x1="263.08" y1="111.22" x2="263.08" y2="156.08" stroke="#3156d9"/>
<rect x="259.82" y="127.13" width="6.51" height="26.97" fill="#ffffff" stroke="#3156d9"/>
<line x1="275.02" y1="125.06" x2="275.02" y2="172.68" stroke="#ef3b3b"/>
<rect x="271.77" y="143.63" width="6.51" height="7.41" fill="#ef3b3b" stroke="#ef3b3b"/>
<line x1="286.96" y1="117.64" x2="286.96" y2="174.95" stroke="#ef3b3b"/>
<rect x="283.71" y="130.49" width="6.51" height="19.76" fill="#ef3b3b" stroke="#ef3b3b"/>
<line x1="298.90" y1="127.92" x2="298.90" y2="162.50" stroke="#3156d9"/>
<rect x="295.65" y="141.85" width="6.51" height="11.26" fill="#ffffff" stroke="#3156d9"/>
<line x1="310.85" y1="109.94" x2="310.85" y2="164.68" stroke="#3156d9"/>
<rect x="307.59" y="144.62" width="6.51" height="9.49" fill="#ffffff" stroke="#3156d9"/>
<line x1="322.79" y1="155.68" x2="322.79" y2="197.28" stroke="#3156d9"/>
<rect x="319.54" y="164.28" width="6.51" height="7.31" fill="#ffffff" stroke="#3156d9"/>
<line x1="334.73" y1="124.46" x2="334.73" y2="182.56" stroke="#ef3b3b"/>
<rect x="331.48" y="135.03" width="6.51" height="35.77" fill="#ef3b3b" stroke="#ef3b3b"/>
<line x1="346.67" y1="109.54" x2="346.67" y2="161.41" stroke="#3156d9"/>
<rect x="343.42" y="127.23" width="6.51" height="26.78" fill="#ffffff" stroke="#3156d9"/>
<line x1="358.62" y1="137.70" x2="358.62" y2="179.20" stroke="#3156d9"/>
<rect x="355.36" y="150.35" width="6.51" height="10.67" fill="#ffffff" stroke="#3156d9"/>
<line x1="370.56" y1="157.66" x2="370.56" y2="222.77" stroke="#3156d9"/>
<rect x="367.30" y="161.32" width="6.51" height="54.44" fill="#ffffff" stroke="#3156d9"/>
<line x1="382.50" y1="198.57" x2="382.50" y2="220.40" stroke="#ef3b3b"/>
<rect x="379.25" y="203.80" width="6.51" height="9.98" fill="#ef3b3b" stroke="#ef3b3b"/>
<line x1="394.44" y1="180.78" x2="394.44" y2="212.89" stroke="#3156d9"/>
<rect x="391.19" y="200.34" width="6.51" height="8.89" fill="#ffffff" stroke="#3156d9"/>
<line x1="406.38" y1="197.68" x2="406.38" y2="259.33" stroke="#3156d9"/>
<rect x="403.13" y="204.59" width="6.51" height="42.78" fill="#ffffff" stroke="#3156d9"/>
<line x1="418.33" y1="217.63" x2="418.33" y2="255.67" stroke="#ef3b3b"/>
<rect x="415.07" y="219.91" width="6.51" height="19.27" fill="#ef3b3b" stroke="#ef3b3b"/>
<line x1="430.27" y1="180.98" x2="430.27" y2="220.89" stroke="#ef3b3b"/>
<rect x="427.02" y="182.86" width="6.51" height="34.78" fill="#ef3b3b" stroke="#ef3b3b"/>
<line x1="442.21" y1="152.13" x2="442.21" y2="178.51" stroke="#ef3b3b"/>
<rect x="438.96" y="171.49" width="6.51" height="3.66" fill="#ef3b3b" stroke="#ef3b3b"/>
<line x1="454.15" y1="135.73" x2="454.15" y2="163.29" stroke="#ef3b3b"/>
<rect x="450.90" y="141.36" width="6.51" height="21.93" fill="#ef3b3b" stroke="#ef3b3b"/>
<line x1="466.10" y1="118.93" x2="466.10" y2="231.76" stroke="#3156d9"/>
<rect x="462.84" y="154.00" width="6.51" height="62.05" fill="#ffffff" stroke="#3156d9"/>
<line x1="478.04" y1="201.33" x2="478.04" y2="233.34" stroke="#ef3b3b"/>
<rect x="474.79" y="212.40" width="6.51" height="4.35" fill="#ef3b3b" stroke="#ef3b3b"/>
<line x1="489.98" y1="208.94" x2="489.98" y2="296.18" stroke="#3156d9"/>
<rect x="486.73" y="212.79" width="6.51" height="64.91" fill="#ffffff" stroke="#3156d9"/>
<line x1="501.92" y1="222.57" x2="501.92" y2="317.13" stroke="#ef3b3b"/>
<rect x="498.67" y="246.09" width="6.51" height="26.58" fill="#ef3b3b" stroke="#ef3b3b"/>
<line x1="513.87" y1="175.54" x2="513.87" y2="227.61" stroke="#ef3b3b"/>
<rect x="510.61" y="198.86" width="6.51" height="28.55" fill="#ef3b3b" stroke="#ef3b3b"/>
<line x1="525.81" y1="180.48" x2="525.81" y2="265.95" stroke="#3156d9"/>
<rect x="522.55" y="185.13" width="6.51" height="18.18" fill="#ffffff" stroke="#3156d9"/>
<line x1="537.75" y1="198.96" x2="537.75" y2="271.98" stroke="#3156d9"/>
<rect x="534.50" y="212.40" width="6.51" height="44.86" fill="#ffffff" stroke="#3156d9"/>
<line x1="549.69" y1="196.69" x2="549.69" y2="253.11" stroke="#ef3b3b"/>
<rect x="546.44" y="204.49" width="6.51" height="42.88" fill="#ef3b3b" stroke="#ef3b3b"/>
<line x1="561.63" y1="170.01" x2="561.63" y2="262.89" stroke="#3156d9"/>
<rect x="558.38" y="186.41" width="6.51" height="52.17" fill="#ffffff" stroke="#3156d9"/>
<line x1="573.58" y1="216.55" x2="573.58" y2="276.32" stroke="#3156d9"/>
<rect x="570.32" y="240.46" width="6.51" height="14.52" fill="#ffffff" stroke="#3156d9"/>
<line x1="585.52" y1="243.72" x2="585.52" y2="362.88" stroke="#3156d9"/>
<rect x="582.27" y="258.84" width="6.51" height="91.20" fill="#ffffff" stroke="#3156d9"/>
<line x1="597.46" y1="289.27" x2="597.46" y2="389.45" stroke="#ef3b3b"/>
<rect x="594.21" y="306.16" width="6.51" height="52.86" fill="#ef3b3b" stroke="#ef3b3b"/>
<line x1="609.40" y1="276.23" x2="609.40" y2="321.48" stroke="#ef3b3b"/>
<rect x="606.15" y="284.72" width="6.51" height="16.50" fill="#ef3b3b" stroke="#ef3b3b"/>
<line x1="621.35" y1="253.30" x2="621.35" y2="293.61" stroke="#ef3b3b"/>
<rect x="618.09" y="267.73" width="6.51" height="14.62" fill="#ef3b3b" stroke="#ef3b3b"/>
<line x1="633.29" y1="246.88" x2="633.29" y2="291.14" stroke="#ef3b3b"/>
<rect x="630.04" y="249.65" width="6.51" height="29.94" fill="#ef3b3b" stroke="#ef3b3b"/>
<line x1="645.23" y1="245.60" x2="645.23" y2="288.67" stroke="#ef3b3b"/>
<rect x="641.98" y="261.01" width="6.51" height="1.20" fill="#ef3b3b" stroke="#ef3b3b"/>
<line x1="657.17" y1="201.43" x2="657.17" y2="282.25" stroke="#ef3b3b"/>
<rect x="653.92" y="210.13" width="6.51" height="63.83" fill="#ef3b3b" stroke="#ef3b3b"/>
<line x1="669.12" y1="195.40" x2="669.12" y2="234.33" stroke="#ef3b3b"/>
<rect x="665.86" y="217.93" width="6.51" height="1.20" fill="#ef3b3b" stroke="#ef3b3b"/>
<line x1="681.06" y1="190.17" x2="681.06" y2="229.69" stroke="#ef3b3b"/>
<rect x="677.80" y="200.44" width="6.51" height="23.91" fill="#ef3b3b" stroke="#ef3b3b"/>
<line x1="693.00" y1="186.91" x2="693.00" y2="209.93" stroke="#ef3b3b"/>
<rect x="689.75" y="200.05" width="6.51" height="4.84" fill="#ef3b3b" stroke="#ef3b3b"/>
<line x1="704.94" y1="173.86" x2="704.94" y2="208.94" stroke="#ef3b3b"/>
<rect x="701.69" y="173.96" width="6.51" height="25.89" fill="#ef3b3b" stroke="#ef3b3b"/>
<line x1="716.88" y1="147.58" x2="716.88" y2="201.92" stroke="#3156d9"/>
<rect x="713.63" y="167.64" width="6.51" height="10.37" fill="#ffffff" stroke="#3156d9"/>
<line x1="728.83" y1="140.07" x2="728.83" y2="166.85" stroke="#ef3b3b"/>
<rect x="725.57" y="141.56" width="6.51" height="24.11" fill="#ef3b3b" stroke="#ef3b3b"/>
<line x1="740.77" y1="125.65" x2="740.77" y2="167.34" stroke="#3156d9"/>
<rect x="737.52" y="142.54" width="6.51" height="20.95" fill="#ffffff" stroke="#3156d9"/>
<line x1="752.71" y1="145.51" x2="752.71" y2="174.06" stroke="#ef3b3b"/>
<rect x="749.46" y="162.60" width="6.51" height="2.47" fill="#ef3b3b" stroke="#ef3b3b"/>
<line x1="764.65" y1="128.41" x2="764.65" y2="159.93" stroke="#ef3b3b"/>
<rect x="761.40" y="130.59" width="6.51" height="25.19" fill="#ef3b3b" stroke="#ef3b3b"/>
<line x1="776.60" y1="121.50" x2="776.60" y2="203.90" stroke="#3156d9"/>
<rect x="773.34" y="127.13" width="6.51" height="69.26" fill="#ffffff" stroke="#3156d9"/>
<line x1="788.54" y1="168.92" x2="788.54" y2="202.91" stroke="#3156d9"/>
<rect x="785.29" y="193.82" width="6.51" height="1.58" fill="#ffffff" stroke="#3156d9"/>
<line x1="800.48" y1="171.49" x2="800.48" y2="237.00" stroke="#3156d9"/>
<rect x="797.23" y="186.31" width="6.51" height="36.36" fill="#ffffff" stroke="#3156d9"/>
<line x1="812.42" y1="175.05" x2="812.42" y2="230.78" stroke="#ef3b3b"/>
<rect x="809.17" y="220.99" width="6.51" height="2.57" fill="#ef3b3b" stroke="#ef3b3b"/>
<line x1="824.37" y1="171.10" x2="824.37" y2="228.60" stroke="#ef3b3b"/>
<rect x="821.11" y="174.36" width="6.51" height="44.36" fill="#ef3b3b" stroke="#ef3b3b"/>
<line x1="836.31" y1="169.42" x2="836.31" y2="195.21" stroke="#3156d9"/>
<rect x="833.05" y="175.15" width="6.51" height="13.73" fill="#ffffff" stroke="#3156d9"/>
<line x1="848.25" y1="174.85" x2="848.25" y2="225.04" stroke="#3156d9"/>
<rect x="845.00" y="187.01" width="6.51" height="19.76" fill="#ffffff" stroke="#3156d9"/>
<line x1="860.19" y1="200.74" x2="860.19" y2="256.07" stroke="#3156d9"/>
<rect x="856.94" y="205.09" width="6.51" height="49.70" fill="#ffffff" stroke="#3156d9"/>
<line x1="872.13" y1="173.07" x2="872.13" y2="248.66" stroke="#ef3b3b"/>
<rect x="868.88" y="179.40" width="6.51" height="66.99" fill="#ef3b3b" stroke="#ef3b3b"/>
<line x1="884.08" y1="159.44" x2="884.08" y2="198.37" stroke="#3156d9"/>
<rect x="880.82" y="172.28" width="6.51" height="13.73" fill="#ffffff" stroke="#3156d9"/>
<line x1="896.02" y1="132.76" x2="896.02" y2="190.27" stroke="#ef3b3b"/>
<rect x="892.77" y="145.31" width="6.51" height="41.60" fill="#ef3b3b" stroke="#ef3b3b"/>
<line x1="907.96" y1="140.86" x2="907.96" y2="165.47" stroke="#3156d9"/>
<rect x="904.71" y="149.16" width="6.51" height="1.20" fill="#ffffff" stroke="#3156d9"/>
<line x1="919.90" y1="136.32" x2="919.90" y2="171.00" stroke="#3156d9"/>
<rect x="916.65" y="141.06" width="6.51" height="17.98" fill="#ffffff" stroke="#3156d9"/>
<line x1="931.85" y1="132.27" x2="931.85" y2="163.69" stroke="#ef3b3b"/>
<rect x="928.59" y="134.94" width="6.51" height="22.92" fill="#ef3b3b" stroke="#ef3b3b"/>
<line x1="943.79" y1="130.79" x2="943.79" y2="160.82" stroke="#3156d9"/>
<rect x="940.54" y="134.15" width="6.51" height="10.08" fill="#ffffff" stroke="#3156d9"/>
<line x1="955.73" y1="124.86" x2="955.73" y2="161.41" stroke="#3156d9"/>
<rect x="952.48" y="140.96" width="6.51" height="16.30" fill="#ffffff" stroke="#3156d9"/>
<line x1="967.67" y1="147.09" x2="967.67" y2="215.46" stroke="#3156d9"/>
<rect x="964.42" y="159.64" width="6.51" height="27.17" fill="#ffffff" stroke="#3156d9"/>
<line x1="979.62" y1="155.59" x2="979.62" y2="224.16" stroke="#ef3b3b"/>
<rect x="976.36" y="170.11" width="6.51" height="31.91" fill="#ef3b3b" stroke="#ef3b3b"/>
<line x1="991.56" y1="163.00" x2="991.56" y2="239.87" stroke="#3156d9"/>
<rect x="988.30" y="164.28" width="6.51" height="71.14" fill="#ffffff" stroke="#3156d9"/>
<line x1="1003.50" y1="206.47" x2="1003.50" y2="249.84" stroke="#3156d9"/>
<rect x="1000.25" y="222.38" width="6.51" height="19.27" fill="#ffffff" stroke="#3156d9"/>
<line x1="1015.44" y1="204.10" x2="1015.44" y2="243.03" stroke="#ef3b3b"/>
<rect x="1012.19" y="216.55" width="6.51" height="17.78" fill="#ef3b3b" stroke="#ef3b3b"/>
<line x1="1027.38" y1="203.21" x2="1027.38" y2="247.87" stroke="#ef3b3b"/>
<rect x="1024.13" y="211.21" width="6.51" height="24.60" fill="#ef3b3b" stroke="#ef3b3b"/>
<line x1="1039.33" y1="161.51" x2="1039.33" y2="208.05" stroke="#ef3b3b"/>
<rect x="1036.07" y="179.20" width="6.51" height="27.27" fill="#ef3b3b" stroke="#ef3b3b"/>
<line x1="1051.27" y1="141.95" x2="1051.27" y2="168.73" stroke="#3156d9"/>
<rect x="1048.02" y="146.00" width="6.51" height="5.34" fill="#ffffff" stroke="#3156d9"/>
<line x1="1063.21" y1="144.62" x2="1063.21" y2="209.33" stroke="#3156d9"/>
<rect x="1059.96" y="158.94" width="6.51" height="48.91" fill="#ffffff" stroke="#3156d9"/>
<line x1="1075.15" y1="199.36" x2="1075.15" y2="288.67" stroke="#3156d9"/>
<rect x="1071.90" y="208.45" width="6.51" height="46.34" fill="#ffffff" stroke="#3156d9"/>
<line x1="1087.10" y1="223.37" x2="1087.10" y2="276.92" stroke="#ef3b3b"/>
<rect x="1083.84" y="232.06" width="6.51" height="21.64" fill="#ef3b3b" stroke="#ef3b3b"/>
<line x1="1099.04" y1="217.54" x2="1099.04" y2="245.99" stroke="#3156d9"/>
<rect x="1095.79" y="237.69" width="6.51" height="8.30" fill="#ffffff" stroke="#3156d9"/>
<line x1="1110.98" y1="205.38" x2="1110.98" y2="237.99" stroke="#ef3b3b"/>
<rect x="1107.73" y="207.16" width="6.51" height="30.83" fill="#ef3b3b" stroke="#ef3b3b"/>
<line x1="1122.92" y1="198.86" x2="1122.92" y2="253.11" stroke="#3156d9"/>
<rect x="1119.67" y="203.11" width="6.51" height="28.36" fill="#ffffff" stroke="#3156d9"/>
<line x1="1134.87" y1="169.81" x2="1134.87" y2="223.46" stroke="#ef3b3b"/>
<rect x="1131.61" y="184.83" width="6.51" height="36.56" fill="#ef3b3b" stroke="#ef3b3b"/>
<line x1="1146.81" y1="164.97" x2="1146.81" y2="193.92" stroke="#ef3b3b"/>
<rect x="1143.55" y="187.70" width="6.51" height="4.35" fill="#ef3b3b" stroke="#ef3b3b"/>
<line x1="1158.75" y1="194.02" x2="1158.75" y2="232.75" stroke="#3156d9"/>
<rect x="1155.50" y="195.80" width="6.51" height="11.76" fill="#ffffff" stroke="#3156d9"/>
<line x1="1170.69" y1="201.73" x2="1170.69" y2="224.85" stroke="#3156d9"/>
<rect x="1167.44" y="209.53" width="6.51" height="12.84" fill="#ffffff" stroke="#3156d9"/>
<line x1="1182.63" y1="201.04" x2="1182.63" y2="236.51" stroke="#ef3b3b"/>
<rect x="1179.38" y="213.68" width="6.51" height="1.20" fill="#ef3b3b" stroke="#ef3b3b"/>
<line x1="1194.58" y1="198.57" x2="1194.58" y2="232.26" stroke="#ef3b3b"/>
<rect x="1191.32" y="214.18" width="6.51" height="14.23" fill="#ef3b3b" stroke="#ef3b3b"/>
<line x1="1206.52" y1="194.61" x2="1206.52" y2="215.16" stroke="#ef3b3b"/>
<rect x="1203.27" y="197.18" width="6.51" height="8.10" fill="#ef3b3b" stroke="#ef3b3b"/>
<line x1="1218.46" y1="179.99" x2="1218.46" y2="202.42" stroke="#ef3b3b"/>
<rect x="1215.21" y="191.06" width="6.51" height="9.78" fill="#ef3b3b" stroke="#ef3b3b"/>
<line x1="1230.40" y1="167.15" x2="1230.40" y2="201.43" stroke="#ef3b3b"/>
<rect x="1227.15" y="184.04" width="6.51" height="5.63" fill="#ef3b3b" stroke="#ef3b3b"/>
<line x1="1242.35" y1="177.52" x2="1242.35" y2="231.76" stroke="#3156d9"/>
<rect x="1239.09" y="181.77" width="6.51" height="47.43" fill="#ffffff" stroke="#3156d9"/>
<line x1="1254.29" y1="220.80" x2="1254.29" y2="238.28" stroke="#3156d9"/>
<rect x="1251.04" y="228.90" width="6.51" height="8.79" fill="#ffffff" stroke="#3156d9"/>
<line x1="1266.23" y1="241.94" x2="1266.23" y2="279.58" stroke="#3156d9"/>
<rect x="1262.98" y="242.43" width="6.51" height="32.11" fill="#ffffff" stroke="#3156d9"/>
<line x1="1278.17" y1="274.64" x2="1278.17" y2="328.39" stroke="#3156d9"/>
<rect x="1274.92" y="290.35" width="6.51" height="30.73" fill="#ffffff" stroke="#3156d9"/>
<line x1="1290.12" y1="286.20" x2="1290.12" y2="338.27" stroke="#ef3b3b"/>
<rect x="1286.86" y="303.30" width="6.51" height="19.66" fill="#ef3b3b" stroke="#ef3b3b"/>
<line x1="1302.06" y1="267.14" x2="1302.06" y2="309.42" stroke="#ef3b3b"/>
<rect x="1298.80" y="292.03" width="6.51" height="15.22" fill="#ef3b3b" stroke="#ef3b3b"/>
<line x1="1314.00" y1="281.96" x2="1314.00" y2="316.04" stroke="#ef3b3b"/>
<rect x="1310.75" y="302.61" width="6.51" height="1.20" fill="#ef3b3b" stroke="#ef3b3b"/>
<path d="M 72.00 217.73 L 83.94 256.37 L 95.88 259.05 L 107.83 255.30 L 119.77 253.64 L 131.71 250.77 L 143.65 244.61 L 155.60 239.27 L 167.54 225.62 L 179.48 198.66 L 191.42 175.96 L 203.37 146.16 L 215.31 130.47 L 227.25 130.71 L 239.19 136.18 L 251.13 134.38 L 263.08 145.84 L 275.02 151.30 L 286.96 142.92 L 298.90 142.35 L 310.85 147.09 L 322.79 150.59 L 334.73 148.87 L 346.67 153.57 L 358.62 155.15 L 370.56 167.48 L 382.50 173.92 L 394.44 188.76 L 406.38 207.44 L 418.33 219.22 L 430.27 212.63 L 442.21 206.17 L 454.15 192.60 L 466.10 186.33 L 478.04 184.83 L 489.98 203.80 L 501.92 218.72 L 513.87 230.22 L 525.81 227.67 L 537.75 236.64 L 549.69 222.00 L 561.63 220.50 L 573.58 231.72 L 585.52 261.07 L 597.46 270.85 L 609.40 286.90 L 621.35 292.73 L 633.29 291.66 L 645.23 273.85 L 657.17 254.65 L 669.12 241.29 L 681.06 227.83 L 693.00 217.91 L 704.94 200.50 L 716.88 194.08 L 728.83 178.80 L 740.77 171.41 L 752.71 163.92 L 764.65 155.25 L 776.60 158.93 L 788.54 169.69 L 800.48 181.53 L 812.42 193.21 L 824.37 201.96 L 836.31 200.46 L 848.25 202.73 L 860.19 209.16 L 872.13 200.84 L 884.08 203.17 L 896.02 194.46 L 907.96 183.13 L 919.90 163.98 L 931.85 155.09 L 943.79 146.73 L 955.73 149.12 L 967.67 156.45 L 979.62 158.67 L 991.56 178.76 L 1003.50 198.25 L 1015.44 210.11 L 1027.38 214.99 L 1039.33 216.80 L 1051.27 199.99 L 1063.21 193.23 L 1075.15 200.88 L 1087.10 205.05 L 1099.04 218.41 L 1110.98 229.57 L 1122.92 234.29 L 1134.87 220.30 L 1146.81 211.43 L 1158.75 203.74 L 1170.69 206.79 L 1182.63 203.23 L 1194.58 209.10 L 1206.52 210.99 L 1218.46 207.69 L 1230.40 200.03 L 1242.35 203.13 L 1254.29 207.83 L 1266.23 223.31 L 1278.17 249.31 L 1290.12 273.16 L 1302.06 285.73 L 1314.00 298.71" fill="none" stroke="#59a52c" stroke-width="2"/>
<path d="M 72.00 191.62 L 83.94 195.33 L 95.88 196.04 L 107.83 195.12 L 119.77 196.11 L 131.71 197.66 L 143.65 197.64 L 155.60 195.95 L 167.54 194.57 L 179.48 191.26 L 191.42 188.39 L 203.37 185.99 L 215.31 184.67 L 227.25 187.49 L 239.19 192.31 L 251.13 194.71 L 263.08 198.24 L 275.02 195.02 L 286.96 188.64 L 298.90 182.71 L 310.85 177.05 L 322.79 171.80 L 334.73 167.48 L 346.67 163.20 L 358.62 158.09 L 370.56 156.23 L 382.50 154.13 L 394.44 154.85 L 406.38 158.66 L 418.33 163.22 L 430.27 165.40 L 442.21 169.13 L 454.15 170.38 L 466.10 172.57 L 478.04 175.39 L 489.98 182.75 L 501.92 187.35 L 513.87 190.11 L 525.81 193.75 L 537.75 198.96 L 549.69 201.48 L 561.63 204.83 L 573.58 210.83 L 585.52 220.63 L 597.46 227.89 L 609.40 231.33 L 621.35 234.53 L 633.29 236.55 L 645.23 237.23 L 657.17 236.74 L 669.12 238.50 L 681.06 239.94 L 693.00 242.88 L 704.94 240.77 L 716.88 239.06 L 728.83 232.25 L 740.77 228.12 L 752.71 226.30 L 764.65 222.67 L 776.60 219.63 L 788.54 219.17 L 800.48 218.38 L 812.42 216.68 L 824.37 207.89 L 836.31 202.03 L 848.25 198.13 L 860.19 197.48 L 872.13 193.97 L 884.08 190.22 L 896.02 186.98 L 907.96 183.59 L 919.90 181.52 L 931.85 178.27 L 943.79 176.78 L 955.73 175.74 L 967.67 178.00 L 979.62 178.34 L 991.56 181.98 L 1003.50 187.53 L 1015.44 188.54 L 1027.38 189.33 L 1039.33 187.15 L 1051.27 183.67 L 1063.21 185.35 L 1075.15 188.64 L 1087.10 189.91 L 1099.04 189.47 L 1110.98 190.85 L 1122.92 193.13 L 1134.87 195.10 L 1146.81 196.98 L 1158.75 199.41 L 1170.69 203.78 L 1182.63 207.25 L 1194.58 210.10 L 1206.52 210.61 L 1218.46 211.66 L 1230.40 209.09 L 1242.35 208.47 L 1254.29 209.53 L 1266.23 212.69 L 1278.17 219.79 L 1290.12 227.39 L 1302.06 231.60 L 1314.00 233.99" fill="none" stroke="#13c8d4" stroke-width="2"/>
<path d="M 72.00 264.37 L 83.94 263.59 L 95.88 261.77 L 107.83 260.18 L 119.77 259.37 L 131.71 257.80 L 143.65 255.85 L 155.60 253.24 L 167.54 249.97 L 179.48 245.89 L 191.42 242.13 L 203.37 237.17 L 215.31 232.28 L 227.25 229.16 L 239.19 226.09 L 251.13 221.86 L 263.08 217.96 L 275.02 213.69 L 286.96 209.35 L 298.90 205.22 L 310.85 202.07 L 322.79 199.67 L 334.73 196.36 L 346.67 192.89 L 358.62 189.90 L 370.56 188.12 L 382.50 186.49 L 394.44 185.73 L 406.38 186.27 L 418.33 186.29 L 430.27 185.48 L 442.21 184.86 L 454.15 183.54 L 466.10 182.71 L 478.04 182.08 L 489.98 183.20 L 501.92 183.20 L 513.87 182.60 L 525.81 182.69 L 537.75 183.94 L 549.69 184.10 L 561.63 185.97 L 573.58 188.22 L 585.52 192.90 L 597.46 197.83 L 609.40 201.88 L 621.35 205.56 L 633.29 206.39 L 645.23 206.45 L 657.17 205.22 L 669.12 204.23 L 681.06 202.71 L 693.00 202.28 L 704.94 200.97 L 716.88 199.26 L 728.83 197.03 L 740.77 195.39 L 752.71 194.74 L 764.65 193.93 L 776.60 195.29 L 788.54 196.41 L 800.48 198.92 L 812.42 201.02 L 824.37 201.06 L 836.31 201.72 L 848.25 203.24 L 860.19 205.26 L 872.13 205.97 L 884.08 207.08 L 896.02 206.93 L 907.96 206.85 L 919.90 206.60 L 931.85 206.59 L 943.79 206.40 L 955.73 206.32 L 967.67 205.74 L 979.62 205.07 L 991.56 205.59 L 1003.50 205.48 L 1015.44 205.41 L 1027.38 205.98 L 1039.33 206.13 L 1051.27 206.33 L 1063.21 206.17 L 1075.15 207.02 L 1087.10 206.10 L 1099.04 206.10 L 1110.98 206.27 L 1122.92 206.83 L 1134.87 205.38 L 1146.81 205.05 L 1158.75 204.43 L 1170.69 203.77 L 1182.63 201.05 L 1194.58 199.21 L 1206.52 197.46 L 1218.46 195.92 L 1230.40 194.61 L 1242.35 193.97 L 1254.29 194.53 L 1266.23 195.66 L 1278.17 198.07 L 1290.12 200.14 L 1302.06 202.50 L 1314.00 204.99" fill="none" stroke="#173ee6" stroke-width="2"/>
<path d="M 72.00 359.41 L 83.94 359.25 L 95.88 358.76 L 107.83 358.34 L 119.77 358.06 L 131.71 357.66 L 143.65 357.01 L 155.60 355.90 L 167.54 354.53 L 179.48 352.77 L 191.42 351.05 L 203.37 349.00 L 215.31 346.89 L 227.25 345.06 L 239.19 343.04 L 251.13 340.68 L 263.08 338.33 L 275.02 335.61 L 286.96 332.95 L 298.90 329.76 L 310.85 326.89 L 322.79 323.88 L 334.73 320.58 L 346.67 317.53 L 358.62 314.52 L 370.56 312.13 L 382.50 310.19 L 394.44 308.40 L 406.38 306.87 L 418.33 305.12 L 430.27 303.34 L 442.21 301.12 L 454.15 298.73 L 466.10 296.92 L 478.04 295.05 L 489.98 293.40 L 501.92 291.76 L 513.87 289.95 L 525.81 288.03 L 537.75 285.96 L 549.69 283.64 L 561.63 281.53 L 573.58 279.73 L 585.52 278.32 L 597.46 276.79 L 609.40 275.19 L 621.35 273.34 L 633.29 271.59 L 645.23 270.37 L 657.17 269.00 L 669.12 267.51 L 681.06 265.85 L 693.00 264.34 L 704.94 262.70 L 716.88 261.41 L 728.83 259.89 L 740.77 258.49 L 752.71 257.01 L 764.65 255.26 L 776.60 254.09 L 788.54 252.82 L 800.48 251.83 L 812.42 250.79 L 824.37 249.47 L 836.31 248.39 L 848.25 247.47 L 860.19 247.02 L 872.13 245.98 L 884.08 244.77 L 896.02 243.17 L 907.96 241.70 L 919.90 240.30 L 931.85 238.68 L 943.79 237.09 L 955.73 235.61 L 967.67 234.10 L 979.62 232.57 L 991.56 231.72 L 1003.50 230.87 L 1015.44 229.78 L 1027.38 228.66 L 1039.33 227.50 L 1051.27 226.21 L 1063.21 225.42 L 1075.15 225.12 L 1087.10 224.78 L 1099.04 224.66 L 1110.98 224.47 L 1122.92 224.60 L 1134.87 224.43 L 1146.81 224.24 L 1158.75 224.12 L 1170.69 224.07 L 1182.63 223.91 L 1194.58 223.64 L 1206.52 223.23 L 1218.46 222.76 L 1230.40 222.05 L 1242.35 221.64 L 1254.29 221.50 L 1266.23 221.42 L 1278.17 221.46 L 1290.12 221.39 L 1302.06 221.22 L 1314.00 221.21" fill="none" stroke="#971f1f" stroke-width="3"/>
<path d="M 72.00 324.26 L 83.94 324.91 L 95.88 325.30 L 107.83 325.68 L 119.77 326.19 L 131.71 326.63 L 143.65 327.09 L 155.60 327.45 L 167.54 327.95 L 179.48 328.13 L 191.42 328.41 L 203.37 328.35 L 215.31 328.47 L 227.25 329.03 L 239.19 329.23 L 251.13 329.30 L 263.08 329.41 L 275.02 329.51 L 286.96 329.65 L 298.90 329.82 L 310.85 329.75 L 322.79 329.87 L 334.73 329.65 L 346.67 329.34 L 358.62 328.87 L 370.56 328.57 L 382.50 328.42 L 394.44 328.49 L 406.38 328.70 L 418.33 328.65 L 430.27 328.52 L 442.21 327.86 L 454.15 327.15 L 466.10 326.39 L 478.04 326.13 L 489.98 326.21 L 501.92 326.11 L 513.87 325.55 L 525.81 324.86 L 537.75 324.53 L 549.69 323.72 L 561.63 323.43 L 573.58 323.37 L 585.52 323.59 L 597.46 323.49 L 609.40 323.13 L 621.35 322.59 L 633.29 322.23 L 645.23 321.79 L 657.17 321.14 L 669.12 320.62 L 681.06 320.11 L 693.00 319.64 L 704.94 319.00 L 716.88 318.36 L 728.83 317.50 L 740.77 316.61 L 752.71 315.61 L 764.65 314.38 L 776.60 313.40 L 788.54 312.39 L 800.48 311.48 L 812.42 310.42 L 824.37 309.06 L 836.31 307.71 L 848.25 306.32 L 860.19 305.06 L 872.13 303.20 L 884.08 301.48 L 896.02 299.05 L 907.96 296.88 L 919.90 294.56 L 931.85 292.08 L 943.79 289.75 L 955.73 287.47 L 967.67 285.54 L 979.62 283.91 L 991.56 282.70 L 1003.50 281.52 L 1015.44 280.19 L 1027.38 279.00 L 1039.33 277.37 L 1051.27 275.63 L 1063.21 274.24 L 1075.15 273.04 L 1087.10 271.58 L 1099.04 270.34 L 1110.98 269.03 L 1122.92 267.73 L 1134.87 265.82 L 1146.81 263.99 L 1158.75 262.26 L 1170.69 260.74 L 1182.63 259.01 L 1194.58 257.40 L 1206.52 255.76 L 1218.46 253.98 L 1230.40 252.35 L 1242.35 251.27 L 1254.29 250.38 L 1266.23 249.55 L 1278.17 248.91 L 1290.12 248.29 L 1302.06 247.65 L 1314.00 247.31" fill="none" stroke="#d41968" stroke-width="3"/>
<text x="78" y="462" class="label">거래량 · MA50</text>
<text x="1321" y="456" class="small">64473675.00</text>
<text x="1321" y="590" class="small">0.00</text>
<rect x="68.33" y="526.80" width="7.33" height="56.70" fill="#e98b8b" opacity="0.72"/>
<rect x="80.28" y="513.41" width="7.33" height="70.09" fill="#8d9be5" opacity="0.72"/>
<rect x="92.22" y="508.75" width="7.33" height="74.75" fill="#e98b8b" opacity="0.72"/>
<rect x="104.16" y="507.17" width="7.33" height="76.33" fill="#8d9be5" opacity="0.72"/>
<rect x="116.10" y="525.99" width="7.33" height="57.51" fill="#8d9be5" opacity="0.72"/>
<rect x="128.04" y="531.45" width="7.33" height="52.05" fill="#8d9be5" opacity="0.72"/>
<rect x="139.99" y="517.53" width="7.33" height="65.97" fill="#e98b8b" opacity="0.72"/>
<rect x="151.93" y="517.47" width="7.33" height="66.03" fill="#e98b8b" opacity="0.72"/>
<rect x="163.87" y="513.59" width="7.33" height="69.91" fill="#e98b8b" opacity="0.72"/>
<rect x="175.81" y="514.41" width="7.33" height="69.09" fill="#e98b8b" opacity="0.72"/>
<rect x="187.76" y="517.94" width="7.33" height="65.56" fill="#8d9be5" opacity="0.72"/>
<rect x="199.70" y="501.63" width="7.33" height="81.87" fill="#e98b8b" opacity="0.72"/>
<rect x="211.64" y="526.58" width="7.33" height="56.92" fill="#8d9be5" opacity="0.72"/>
<rect x="223.58" y="520.70" width="7.33" height="62.80" fill="#8d9be5" opacity="0.72"/>
<rect x="235.53" y="528.03" width="7.33" height="55.47" fill="#e98b8b" opacity="0.72"/>
<rect x="247.47" y="520.75" width="7.33" height="62.75" fill="#e98b8b" opacity="0.72"/>
<rect x="259.41" y="513.02" width="7.33" height="70.48" fill="#8d9be5" opacity="0.72"/>
<rect x="271.35" y="508.57" width="7.33" height="74.93" fill="#e98b8b" opacity="0.72"/>
<rect x="283.29" y="531.04" width="7.33" height="52.46" fill="#e98b8b" opacity="0.72"/>
<rect x="295.24" y="545.60" width="7.33" height="37.90" fill="#8d9be5" opacity="0.72"/>
<rect x="307.18" y="536.63" width="7.33" height="46.87" fill="#8d9be5" opacity="0.72"/>
<rect x="319.12" y="534.72" width="7.33" height="48.78" fill="#8d9be5" opacity="0.72"/>
<rect x="331.06" y="529.10" width="7.33" height="54.40" fill="#e98b8b" opacity="0.72"/>
<rect x="343.01" y="531.03" width="7.33" height="52.47" fill="#8d9be5" opacity="0.72"/>
<rect x="354.95" y="530.88" width="7.33" height="52.62" fill="#8d9be5" opacity="0.72"/>
<rect x="366.89" y="525.42" width="7.33" height="58.08" fill="#8d9be5" opacity="0.72"/>
<rect x="378.83" y="538.89" width="7.33" height="44.61" fill="#e98b8b" opacity="0.72"/>
<rect x="390.78" y="540.82" width="7.33" height="42.68" fill="#8d9be5" opacity="0.72"/>
<rect x="402.72" y="535.40" width="7.33" height="48.10" fill="#8d9be5" opacity="0.72"/>
<rect x="414.66" y="527.90" width="7.33" height="55.60" fill="#e98b8b" opacity="0.72"/>
<rect x="426.60" y="513.61" width="7.33" height="69.89" fill="#e98b8b" opacity="0.72"/>
<rect x="438.54" y="531.68" width="7.33" height="51.82" fill="#e98b8b" opacity="0.72"/>
<rect x="450.49" y="534.65" width="7.33" height="48.85" fill="#e98b8b" opacity="0.72"/>
<rect x="462.43" y="512.25" width="7.33" height="71.25" fill="#8d9be5" opacity="0.72"/>
<rect x="474.37" y="517.06" width="7.33" height="66.44" fill="#e98b8b" opacity="0.72"/>
<rect x="486.31" y="512.38" width="7.33" height="71.12" fill="#8d9be5" opacity="0.72"/>
<rect x="498.26" y="495.44" width="7.33" height="88.06" fill="#e98b8b" opacity="0.72"/>
<rect x="510.20" y="513.51" width="7.33" height="69.99" fill="#e98b8b" opacity="0.72"/>
<rect x="522.14" y="507.26" width="7.33" height="76.24" fill="#8d9be5" opacity="0.72"/>
<rect x="534.08" y="534.45" width="7.33" height="49.05" fill="#8d9be5" opacity="0.72"/>
<rect x="546.03" y="516.47" width="7.33" height="67.03" fill="#e98b8b" opacity="0.72"/>
<rect x="557.97" y="510.76" width="7.33" height="72.74" fill="#8d9be5" opacity="0.72"/>
<rect x="569.91" y="514.03" width="7.33" height="69.47" fill="#8d9be5" opacity="0.72"/>
<rect x="581.85" y="465.87" width="7.33" height="117.63" fill="#8d9be5" opacity="0.72"/>
<rect x="593.79" y="516.47" width="7.33" height="67.03" fill="#e98b8b" opacity="0.72"/>
<rect x="605.74" y="529.19" width="7.33" height="54.31" fill="#e98b8b" opacity="0.72"/>
<rect x="617.68" y="525.37" width="7.33" height="58.13" fill="#e98b8b" opacity="0.72"/>
<rect x="629.62" y="523.88" width="7.33" height="59.62" fill="#e98b8b" opacity="0.72"/>
<rect x="641.56" y="527.36" width="7.33" height="56.14" fill="#e98b8b" opacity="0.72"/>
<rect x="653.51" y="498.77" width="7.33" height="84.73" fill="#e98b8b" opacity="0.72"/>
<rect x="665.45" y="517.84" width="7.33" height="65.66" fill="#e98b8b" opacity="0.72"/>
<rect x="677.39" y="527.85" width="7.33" height="55.65" fill="#e98b8b" opacity="0.72"/>
<rect x="689.33" y="543.73" width="7.33" height="39.77" fill="#e98b8b" opacity="0.72"/>
<rect x="701.28" y="523.31" width="7.33" height="60.19" fill="#e98b8b" opacity="0.72"/>
<rect x="713.22" y="510.15" width="7.33" height="73.35" fill="#8d9be5" opacity="0.72"/>
<rect x="725.16" y="518.32" width="7.33" height="65.18" fill="#e98b8b" opacity="0.72"/>
<rect x="737.10" y="527.02" width="7.33" height="56.48" fill="#8d9be5" opacity="0.72"/>
<rect x="749.04" y="541.44" width="7.33" height="42.06" fill="#e98b8b" opacity="0.72"/>
<rect x="760.99" y="538.02" width="7.33" height="45.48" fill="#e98b8b" opacity="0.72"/>
<rect x="772.93" y="464.37" width="7.33" height="119.13" fill="#8d9be5" opacity="0.72"/>
<rect x="784.87" y="489.95" width="7.33" height="93.55" fill="#8d9be5" opacity="0.72"/>
<rect x="796.81" y="460.64" width="7.33" height="122.86" fill="#8d9be5" opacity="0.72"/>
<rect x="808.76" y="467.87" width="7.33" height="115.63" fill="#e98b8b" opacity="0.72"/>
<rect x="820.70" y="480.03" width="7.33" height="103.47" fill="#e98b8b" opacity="0.72"/>
<rect x="832.64" y="509.63" width="7.33" height="73.87" fill="#8d9be5" opacity="0.72"/>
<rect x="844.58" y="521.31" width="7.33" height="62.19" fill="#8d9be5" opacity="0.72"/>
<rect x="856.53" y="526.87" width="7.33" height="56.63" fill="#8d9be5" opacity="0.72"/>
<rect x="868.47" y="525.17" width="7.33" height="58.33" fill="#e98b8b" opacity="0.72"/>
<rect x="880.41" y="538.09" width="7.33" height="45.41" fill="#8d9be5" opacity="0.72"/>
<rect x="892.35" y="513.45" width="7.33" height="70.05" fill="#e98b8b" opacity="0.72"/>
<rect x="904.29" y="531.66" width="7.33" height="51.84" fill="#8d9be5" opacity="0.72"/>
<rect x="916.24" y="548.57" width="7.33" height="34.93" fill="#8d9be5" opacity="0.72"/>
<rect x="928.18" y="544.03" width="7.33" height="39.47" fill="#e98b8b" opacity="0.72"/>
<rect x="940.12" y="537.56" width="7.33" height="45.94" fill="#8d9be5" opacity="0.72"/>
<rect x="952.06" y="535.63" width="7.33" height="47.87" fill="#8d9be5" opacity="0.72"/>
<rect x="964.01" y="518.67" width="7.33" height="64.83" fill="#8d9be5" opacity="0.72"/>
<rect x="975.95" y="511.11" width="7.33" height="72.39" fill="#e98b8b" opacity="0.72"/>
<rect x="987.89" y="524.62" width="7.33" height="58.88" fill="#8d9be5" opacity="0.72"/>
<rect x="999.83" y="527.10" width="7.33" height="56.40" fill="#8d9be5" opacity="0.72"/>
<rect x="1011.78" y="540.07" width="7.33" height="43.43" fill="#e98b8b" opacity="0.72"/>
<rect x="1023.72" y="543.00" width="7.33" height="40.50" fill="#e98b8b" opacity="0.72"/>
<rect x="1035.66" y="523.50" width="7.33" height="60.00" fill="#e98b8b" opacity="0.72"/>
<rect x="1047.60" y="509.10" width="7.33" height="74.40" fill="#8d9be5" opacity="0.72"/>
<rect x="1059.54" y="524.71" width="7.33" height="58.79" fill="#8d9be5" opacity="0.72"/>
<rect x="1071.49" y="517.47" width="7.33" height="66.03" fill="#8d9be5" opacity="0.72"/>
<rect x="1083.43" y="536.86" width="7.33" height="46.64" fill="#e98b8b" opacity="0.72"/>
<rect x="1095.37" y="544.83" width="7.33" height="38.67" fill="#8d9be5" opacity="0.72"/>
<rect x="1107.31" y="544.66" width="7.33" height="38.84" fill="#e98b8b" opacity="0.72"/>
<rect x="1119.26" y="525.12" width="7.33" height="58.38" fill="#8d9be5" opacity="0.72"/>
<rect x="1131.20" y="517.24" width="7.33" height="66.26" fill="#e98b8b" opacity="0.72"/>
<rect x="1143.14" y="535.63" width="7.33" height="47.87" fill="#e98b8b" opacity="0.72"/>
<rect x="1155.08" y="523.26" width="7.33" height="60.24" fill="#8d9be5" opacity="0.72"/>
<rect x="1167.03" y="533.84" width="7.33" height="49.66" fill="#8d9be5" opacity="0.72"/>
<rect x="1178.97" y="524.90" width="7.33" height="58.60" fill="#e98b8b" opacity="0.72"/>
<rect x="1190.91" y="527.50" width="7.33" height="56.00" fill="#e98b8b" opacity="0.72"/>
<rect x="1202.85" y="506.94" width="7.33" height="76.56" fill="#e98b8b" opacity="0.72"/>
<rect x="1214.79" y="552.88" width="7.33" height="30.62" fill="#e98b8b" opacity="0.72"/>
<rect x="1226.74" y="542.76" width="7.33" height="40.74" fill="#e98b8b" opacity="0.72"/>
<rect x="1238.68" y="505.78" width="7.33" height="77.72" fill="#8d9be5" opacity="0.72"/>
<rect x="1250.62" y="513.97" width="7.33" height="69.53" fill="#8d9be5" opacity="0.72"/>
<rect x="1262.56" y="525.50" width="7.33" height="58.00" fill="#8d9be5" opacity="0.72"/>
<rect x="1274.51" y="502.99" width="7.33" height="80.51" fill="#8d9be5" opacity="0.72"/>
<rect x="1286.45" y="510.04" width="7.33" height="73.46" fill="#e98b8b" opacity="0.72"/>
<rect x="1298.39" y="525.57" width="7.33" height="57.93" fill="#e98b8b" opacity="0.72"/>
<rect x="1310.33" y="539.93" width="7.33" height="43.57" fill="#e98b8b" opacity="0.72"/>
<path d="M 72.00 528.16 L 83.94 528.72 L 95.88 528.53 L 107.83 528.23 L 119.77 528.11 L 131.71 527.89 L 143.65 527.64 L 155.60 527.46 L 167.54 527.21 L 179.48 526.83 L 191.42 526.80 L 203.37 525.98 L 215.31 525.76 L 227.25 525.69 L 239.19 526.10 L 251.13 525.91 L 263.08 525.37 L 275.02 524.69 L 286.96 524.48 L 298.90 524.75 L 310.85 525.04 L 322.79 525.35 L 334.73 525.11 L 346.67 525.07 L 358.62 524.93 L 370.56 524.54 L 382.50 524.59 L 394.44 524.99 L 406.38 525.07 L 418.33 524.95 L 430.27 524.37 L 442.21 524.18 L 454.15 524.22 L 466.10 524.06 L 478.04 523.85 L 489.98 523.49 L 501.92 522.81 L 513.87 522.00 L 525.81 521.55 L 537.75 521.60 L 549.69 521.44 L 561.63 521.20 L 573.58 520.33 L 585.52 518.78 L 597.46 518.78 L 609.40 518.65 L 621.35 518.64 L 633.29 519.25 L 645.23 520.78 L 657.17 520.43 L 669.12 520.25 L 681.06 520.54 L 693.00 521.24 L 704.94 521.57 L 716.88 521.25 L 728.83 520.99 L 740.77 521.18 L 752.71 521.66 L 764.65 522.14 L 776.60 521.14 L 788.54 520.58 L 800.48 519.76 L 812.42 518.59 L 824.37 517.78 L 836.31 517.41 L 848.25 517.42 L 860.19 517.70 L 872.13 518.03 L 884.08 518.17 L 896.02 517.53 L 907.96 517.43 L 919.90 517.70 L 931.85 518.00 L 943.79 518.13 L 955.73 518.23 L 967.67 518.09 L 979.62 517.54 L 991.56 517.21 L 1003.50 517.05 L 1015.44 517.29 L 1027.38 517.88 L 1039.33 517.71 L 1051.27 517.20 L 1063.21 517.45 L 1075.15 517.46 L 1087.10 517.95 L 1099.04 518.94 L 1110.98 519.56 L 1122.92 519.92 L 1134.87 519.57 L 1146.81 519.96 L 1158.75 520.21 L 1170.69 520.60 L 1182.63 521.78 L 1194.58 522.01 L 1206.52 521.56 L 1218.46 522.11 L 1230.40 522.49 L 1242.35 522.06 L 1254.29 522.36 L 1266.23 522.51 L 1278.17 522.02 L 1290.12 521.34 L 1302.06 521.39 L 1314.00 521.98" fill="none" stroke="#173ee6" stroke-width="2"/>
<text x="78" y="624" class="label">Momentum 14</text>
<text x="1321" y="618" class="small">20.58</text>
<text x="1321" y="722" class="small">-14.78</text>
<line x1="72" y1="674.47" x2="1314" y2="674.47" stroke="#4775d1" stroke-dasharray="5 5"/>
<path d="M 72.00 680.65 L 83.94 688.68 L 95.88 681.15 L 107.83 687.66 L 119.77 694.17 L 131.71 706.40 L 143.65 704.91 L 155.60 697.76 L 167.54 707.42 L 179.48 688.13 L 191.42 690.99 L 203.37 641.60 L 215.31 632.55 L 227.25 645.13 L 239.19 641.60 L 251.13 631.26 L 263.08 654.56 L 275.02 646.15 L 286.96 635.20 L 298.90 644.98 L 310.85 647.38 L 322.79 667.61 L 334.73 663.78 L 346.67 681.97 L 358.62 680.86 L 370.56 709.61 L 382.50 700.30 L 394.44 685.35 L 406.38 701.47 L 418.33 700.91 L 430.27 682.96 L 442.21 682.70 L 454.15 677.68 L 466.10 693.06 L 478.04 691.69 L 489.98 705.82 L 501.92 707.28 L 513.87 687.72 L 525.81 686.96 L 537.75 686.73 L 549.69 674.67 L 561.63 683.13 L 573.58 676.71 L 585.52 712.91 L 597.46 710.89 L 609.40 707.92 L 621.35 711.80 L 633.29 684.39 L 645.23 688.83 L 657.17 654.50 L 669.12 666.15 L 681.06 674.93 L 693.00 673.50 L 704.94 649.86 L 716.88 666.64 L 728.83 645.80 L 740.77 647.43 L 752.71 619.09 L 764.65 622.59 L 776.60 648.37 L 788.54 653.10 L 800.48 666.50 L 812.42 662.64 L 824.37 663.90 L 836.31 665.88 L 848.25 676.33 L 860.19 690.64 L 872.13 676.07 L 884.08 676.83 L 896.02 675.57 L 907.96 670.52 L 919.90 673.41 L 931.85 675.75 L 943.79 659.05 L 955.73 663.20 L 967.67 663.87 L 979.62 659.43 L 991.56 692.50 L 1003.50 690.05 L 1015.44 677.36 L 1027.38 661.59 L 1039.33 674.41 L 1051.27 664.22 L 1063.21 692.94 L 1075.15 705.38 L 1087.10 696.04 L 1099.04 707.28 L 1110.98 693.06 L 1122.92 696.39 L 1134.87 673.88 L 1146.81 679.66 L 1158.75 666.23 L 1170.69 668.77 L 1182.63 673.62 L 1194.58 675.34 L 1206.52 679.78 L 1218.46 686.20 L 1230.40 667.43 L 1242.35 666.90 L 1254.29 676.13 L 1266.23 682.90 L 1278.17 708.12 L 1290.12 695.69 L 1302.06 706.14 L 1314.00 708.41" fill="none" stroke="#e24b55" stroke-width="2"/>
<text x="78" y="756" class="label">MACD 12·26·9</text>
<text x="1321" y="750" class="small">3.42</text>
<text x="1321" y="884" class="small">-3.13</text>
<line x1="72" y1="815.87" x2="1314" y2="815.87" stroke="#a5abb3" stroke-dasharray="5 5"/>
<rect x="69.34" y="815.87" width="5.32" height="34.97" fill="#ef9999" opacity="0.55"/>
<rect x="81.28" y="815.87" width="5.32" height="39.49" fill="#ef9999" opacity="0.55"/>
<rect x="93.22" y="815.87" width="5.32" height="33.71" fill="#ef9999" opacity="0.55"/>
<rect x="105.17" y="815.87" width="5.32" height="31.00" fill="#ef9999" opacity="0.55"/>
<rect x="117.11" y="815.87" width="5.32" height="31.04" fill="#ef9999" opacity="0.55"/>
<rect x="129.05" y="815.87" width="5.32" height="28.36" fill="#ef9999" opacity="0.55"/>
<rect x="140.99" y="815.87" width="5.32" height="24.48" fill="#ef9999" opacity="0.55"/>
<rect x="152.93" y="815.87" width="5.32" height="14.41" fill="#ef9999" opacity="0.55"/>
<rect x="164.88" y="815.87" width="5.32" height="4.44" fill="#ef9999" opacity="0.55"/>
<rect x="176.82" y="808.50" width="5.32" height="7.37" fill="#ef9999" opacity="0.55"/>
<rect x="188.76" y="802.96" width="5.32" height="12.91" fill="#ef9999" opacity="0.55"/>
<rect x="200.70" y="794.89" width="5.32" height="20.99" fill="#ef9999" opacity="0.55"/>
<rect x="212.65" y="793.60" width="5.32" height="22.28" fill="#ef9999" opacity="0.55"/>
<rect x="224.59" y="801.31" width="5.32" height="14.56" fill="#ef9999" opacity="0.55"/>
<rect x="236.53" y="805.10" width="5.32" height="10.78" fill="#ef9999" opacity="0.55"/>
<rect x="248.47" y="805.07" width="5.32" height="10.81" fill="#ef9999" opacity="0.55"/>
<rect x="260.42" y="808.95" width="5.32" height="6.92" fill="#ef9999" opacity="0.55"/>
<rect x="272.36" y="810.75" width="5.32" height="5.13" fill="#ef9999" opacity="0.55"/>
<rect x="284.30" y="810.81" width="5.32" height="5.06" fill="#ef9999" opacity="0.55"/>
<rect x="296.24" y="814.35" width="5.32" height="1.52" fill="#ef9999" opacity="0.55"/>
<rect x="308.18" y="815.87" width="5.32" height="1.26" fill="#ef9999" opacity="0.55"/>
<rect x="320.13" y="815.87" width="5.32" height="5.52" fill="#ef9999" opacity="0.55"/>
<rect x="332.07" y="815.87" width="5.32" height="3.59" fill="#ef9999" opacity="0.55"/>
<rect x="344.01" y="815.87" width="5.32" height="4.95" fill="#ef9999" opacity="0.55"/>
<rect x="355.95" y="815.87" width="5.32" height="6.75" fill="#ef9999" opacity="0.55"/>
<rect x="367.90" y="815.87" width="5.32" height="14.80" fill="#ef9999" opacity="0.55"/>
<rect x="379.84" y="815.87" width="5.32" height="17.82" fill="#ef9999" opacity="0.55"/>
<rect x="391.78" y="815.87" width="5.32" height="19.71" fill="#ef9999" opacity="0.55"/>
<rect x="403.72" y="815.87" width="5.32" height="24.90" fill="#ef9999" opacity="0.55"/>
<rect x="415.67" y="815.87" width="5.32" height="23.48" fill="#ef9999" opacity="0.55"/>
<rect x="427.61" y="815.87" width="5.32" height="16.73" fill="#ef9999" opacity="0.55"/>
<rect x="439.55" y="815.87" width="5.32" height="10.22" fill="#ef9999" opacity="0.55"/>
<rect x="451.49" y="815.87" width="5.32" height="1.78" fill="#ef9999" opacity="0.55"/>
<rect x="463.43" y="815.87" width="5.32" height="5.92" fill="#ef9999" opacity="0.55"/>
<rect x="475.38" y="815.87" width="5.32" height="7.74" fill="#ef9999" opacity="0.55"/>
<rect x="487.32" y="815.87" width="5.32" height="16.76" fill="#ef9999" opacity="0.55"/>
<rect x="499.26" y="815.87" width="5.32" height="17.46" fill="#ef9999" opacity="0.55"/>
<rect x="511.20" y="815.87" width="5.32" height="10.88" fill="#ef9999" opacity="0.55"/>
<rect x="523.15" y="815.87" width="5.32" height="6.63" fill="#ef9999" opacity="0.55"/>
<rect x="535.09" y="815.87" width="5.32" height="10.34" fill="#ef9999" opacity="0.55"/>
<rect x="547.03" y="815.87" width="5.32" height="5.26" fill="#ef9999" opacity="0.55"/>
<rect x="558.97" y="815.87" width="5.32" height="5.96" fill="#ef9999" opacity="0.55"/>
<rect x="570.92" y="815.87" width="5.32" height="7.99" fill="#ef9999" opacity="0.55"/>
<rect x="582.86" y="815.87" width="5.32" height="20.73" fill="#ef9999" opacity="0.55"/>
<rect x="594.80" y="815.87" width="5.32" height="21.80" fill="#ef9999" opacity="0.55"/>
<rect x="606.74" y="815.87" width="5.32" height="18.30" fill="#ef9999" opacity="0.55"/>
<rect x="618.68" y="815.87" width="5.32" height="12.64" fill="#ef9999" opacity="0.55"/>
<rect x="630.63" y="815.87" width="5.32" height="5.77" fill="#ef9999" opacity="0.55"/>
<rect x="642.57" y="815.87" width="5.32" height="2.21" fill="#ef9999" opacity="0.55"/>
<rect x="654.51" y="808.89" width="5.32" height="6.99" fill="#ef9999" opacity="0.55"/>
<rect x="666.45" y="804.10" width="5.32" height="11.77" fill="#ef9999" opacity="0.55"/>
<rect x="678.40" y="799.15" width="5.32" height="16.72" fill="#ef9999" opacity="0.55"/>
<rect x="690.34" y="796.57" width="5.32" height="19.30" fill="#ef9999" opacity="0.55"/>
<rect x="702.28" y="792.38" width="5.32" height="23.49" fill="#ef9999" opacity="0.55"/>
<rect x="714.22" y="791.29" width="5.32" height="24.58" fill="#ef9999" opacity="0.55"/>
<rect x="726.17" y="787.11" width="5.32" height="28.77" fill="#ef9999" opacity="0.55"/>
<rect x="738.11" y="788.69" width="5.32" height="27.18" fill="#ef9999" opacity="0.55"/>
<rect x="750.05" y="790.97" width="5.32" height="24.90" fill="#ef9999" opacity="0.55"/>
<rect x="761.99" y="789.66" width="5.32" height="26.21" fill="#ef9999" opacity="0.55"/>
<rect x="773.93" y="798.68" width="5.32" height="17.20" fill="#ef9999" opacity="0.55"/>
<rect x="785.88" y="805.23" width="5.32" height="10.64" fill="#ef9999" opacity="0.55"/>
<rect x="797.82" y="813.52" width="5.32" height="2.35" fill="#ef9999" opacity="0.55"/>
<rect x="809.76" y="815.87" width="5.32" height="2.91" fill="#ef9999" opacity="0.55"/>
<rect x="821.70" y="815.87" width="5.32" height="0.70" fill="#ef9999" opacity="0.55"/>
<rect x="833.65" y="815.87" width="5.32" height="0.70" fill="#ef9999" opacity="0.55"/>
<rect x="845.59" y="815.87" width="5.32" height="3.21" fill="#ef9999" opacity="0.55"/>
<rect x="857.53" y="815.87" width="5.32" height="10.93" fill="#ef9999" opacity="0.55"/>
<rect x="869.47" y="815.87" width="5.32" height="5.72" fill="#ef9999" opacity="0.55"/>
<rect x="881.42" y="815.87" width="5.32" height="3.10" fill="#ef9999" opacity="0.55"/>
<rect x="893.36" y="812.09" width="5.32" height="3.79" fill="#ef9999" opacity="0.55"/>
<rect x="905.30" y="808.70" width="5.32" height="7.18" fill="#ef9999" opacity="0.55"/>
<rect x="917.24" y="808.20" width="5.32" height="7.68" fill="#ef9999" opacity="0.55"/>
<rect x="929.18" y="805.36" width="5.32" height="10.51" fill="#ef9999" opacity="0.55"/>
<rect x="941.13" y="805.48" width="5.32" height="10.39" fill="#ef9999" opacity="0.55"/>
<rect x="953.07" y="807.95" width="5.32" height="7.93" fill="#ef9999" opacity="0.55"/>
<rect x="965.01" y="813.87" width="5.32" height="2.00" fill="#ef9999" opacity="0.55"/>
<rect x="976.95" y="815.78" width="5.32" height="0.70" fill="#ef9999" opacity="0.55"/>
<rect x="988.90" y="815.87" width="5.32" height="9.62" fill="#ef9999" opacity="0.55"/>
<rect x="1000.84" y="815.87" width="5.32" height="16.19" fill="#ef9999" opacity="0.55"/>
<rect x="1012.78" y="815.87" width="5.32" height="16.41" fill="#ef9999" opacity="0.55"/>
<rect x="1024.72" y="815.87" width="5.32" height="15.13" fill="#ef9999" opacity="0.55"/>
<rect x="1036.67" y="815.87" width="5.32" height="9.54" fill="#ef9999" opacity="0.55"/>
<rect x="1048.61" y="815.87" width="5.32" height="2.05" fill="#ef9999" opacity="0.55"/>
<rect x="1060.55" y="815.87" width="5.32" height="4.49" fill="#ef9999" opacity="0.55"/>
<rect x="1072.49" y="815.87" width="5.32" height="11.80" fill="#ef9999" opacity="0.55"/>
<rect x="1084.43" y="815.87" width="5.32" height="12.89" fill="#ef9999" opacity="0.55"/>
<rect x="1096.38" y="815.87" width="5.32" height="14.65" fill="#ef9999" opacity="0.55"/>
<rect x="1108.32" y="815.87" width="5.32" height="10.01" fill="#ef9999" opacity="0.55"/>
<rect x="1120.26" y="815.87" width="5.32" height="9.59" fill="#ef9999" opacity="0.55"/>
<rect x="1132.20" y="815.87" width="5.32" height="2.81" fill="#ef9999" opacity="0.55"/>
<rect x="1144.15" y="814.55" width="5.32" height="1.33" fill="#ef9999" opacity="0.55"/>
<rect x="1156.09" y="814.46" width="5.32" height="1.42" fill="#ef9999" opacity="0.55"/>
<rect x="1168.03" y="815.87" width="5.32" height="0.70" fill="#ef9999" opacity="0.55"/>
<rect x="1179.97" y="815.87" width="5.32" height="0.70" fill="#ef9999" opacity="0.55"/>
<rect x="1191.92" y="815.87" width="5.32" height="0.70" fill="#ef9999" opacity="0.55"/>
<rect x="1203.86" y="813.76" width="5.32" height="2.11" fill="#ef9999" opacity="0.55"/>
<rect x="1215.80" y="811.54" width="5.32" height="4.33" fill="#ef9999" opacity="0.55"/>
<rect x="1227.74" y="809.41" width="5.32" height="6.46" fill="#ef9999" opacity="0.55"/>
<rect x="1239.68" y="814.09" width="5.32" height="1.78" fill="#ef9999" opacity="0.55"/>
<rect x="1251.63" y="815.87" width="5.32" height="2.27" fill="#ef9999" opacity="0.55"/>
<rect x="1263.57" y="815.87" width="5.32" height="9.31" fill="#ef9999" opacity="0.55"/>
<rect x="1275.51" y="815.87" width="5.32" height="19.07" fill="#ef9999" opacity="0.55"/>
<rect x="1287.45" y="815.87" width="5.32" height="21.79" fill="#ef9999" opacity="0.55"/>
<rect x="1299.40" y="815.87" width="5.32" height="20.75" fill="#ef9999" opacity="0.55"/>
<rect x="1311.34" y="815.87" width="5.32" height="20.12" fill="#ef9999" opacity="0.55"/>
<path d="M 72.00 789.33 L 83.94 803.72 L 95.88 806.37 L 107.83 811.42 L 119.77 819.22 L 131.71 823.63 L 143.65 825.87 L 155.60 819.40 L 167.54 810.54 L 179.48 796.88 L 191.42 788.12 L 203.37 774.79 L 215.31 767.93 L 227.25 772.01 L 239.19 773.10 L 251.13 770.37 L 263.08 772.52 L 275.02 773.03 L 286.96 771.84 L 298.90 775.00 L 310.85 778.09 L 322.79 783.73 L 334.73 782.71 L 346.67 785.29 L 358.62 788.79 L 370.56 800.53 L 382.50 808.01 L 394.44 814.82 L 406.38 826.24 L 418.33 830.69 L 430.27 828.12 L 442.21 824.17 L 454.15 816.18 L 466.10 821.79 L 478.04 825.54 L 489.98 838.76 L 501.92 843.82 L 513.87 839.96 L 525.81 837.37 L 537.75 843.67 L 549.69 839.90 L 561.63 842.09 L 573.58 846.12 L 585.52 864.04 L 597.46 870.56 L 609.40 871.64 L 621.35 869.14 L 633.29 863.70 L 645.23 860.71 L 657.17 849.76 L 669.12 842.03 L 681.06 832.90 L 693.00 825.49 L 704.94 815.43 L 716.88 808.19 L 728.83 796.82 L 740.77 791.61 L 752.71 787.66 L 764.65 779.80 L 776.60 784.52 L 788.54 788.41 L 800.48 796.11 L 812.42 802.10 L 824.37 799.54 L 836.31 800.03 L 848.25 803.43 L 860.19 813.87 L 872.13 810.09 L 884.08 808.25 L 896.02 800.42 L 907.96 795.23 L 919.90 792.82 L 931.85 787.35 L 943.79 784.88 L 955.73 785.36 L 967.67 790.79 L 979.62 792.67 L 991.56 804.79 L 1003.50 815.40 L 1015.44 819.73 L 1027.38 822.23 L 1039.33 819.03 L 1051.27 812.05 L 1063.21 815.62 L 1075.15 825.87 L 1087.10 830.18 L 1099.04 835.61 L 1110.98 833.47 L 1122.92 835.45 L 1134.87 829.36 L 1146.81 824.90 L 1158.75 824.46 L 1170.69 826.37 L 1182.63 826.36 L 1194.58 826.32 L 1206.52 823.46 L 1218.46 820.16 L 1230.40 816.42 L 1242.35 820.65 L 1254.29 825.27 L 1266.23 834.64 L 1278.17 849.16 L 1290.12 857.33 L 1302.06 861.47 L 1314.00 865.88" fill="none" stroke="#ef4444" stroke-width="2"/>
<path d="M 72.00 754.36 L 83.94 764.24 L 95.88 772.66 L 107.83 780.41 L 119.77 788.17 L 131.71 795.27 L 143.65 801.39 L 155.60 804.99 L 167.54 806.10 L 179.48 804.26 L 191.42 801.03 L 203.37 795.78 L 215.31 790.21 L 227.25 786.57 L 239.19 783.88 L 251.13 781.18 L 263.08 779.44 L 275.02 778.16 L 286.96 776.90 L 298.90 776.52 L 310.85 776.83 L 322.79 778.21 L 334.73 779.11 L 346.67 780.35 L 358.62 782.04 L 370.56 785.74 L 382.50 790.19 L 394.44 795.12 L 406.38 801.34 L 418.33 807.21 L 430.27 811.39 L 442.21 813.95 L 454.15 814.39 L 466.10 815.87 L 478.04 817.81 L 489.98 822.00 L 501.92 826.36 L 513.87 829.08 L 525.81 830.74 L 537.75 833.32 L 549.69 834.64 L 561.63 836.13 L 573.58 838.13 L 585.52 843.31 L 597.46 848.76 L 609.40 853.34 L 621.35 856.50 L 633.29 857.94 L 645.23 858.49 L 657.17 856.75 L 669.12 853.80 L 681.06 849.62 L 693.00 844.80 L 704.94 838.92 L 716.88 832.78 L 728.83 825.59 L 740.77 818.79 L 752.71 812.56 L 764.65 806.01 L 776.60 801.71 L 788.54 799.05 L 800.48 798.46 L 812.42 799.19 L 824.37 799.26 L 836.31 799.41 L 848.25 800.22 L 860.19 802.95 L 872.13 804.38 L 884.08 805.15 L 896.02 804.21 L 907.96 802.41 L 919.90 800.49 L 931.85 797.86 L 943.79 795.27 L 955.73 793.29 L 967.67 792.79 L 979.62 792.76 L 991.56 795.17 L 1003.50 799.21 L 1015.44 803.32 L 1027.38 807.10 L 1039.33 809.49 L 1051.27 810.00 L 1063.21 811.12 L 1075.15 814.07 L 1087.10 817.30 L 1099.04 820.96 L 1110.98 823.46 L 1122.92 825.86 L 1134.87 826.56 L 1146.81 826.23 L 1158.75 825.87 L 1170.69 825.97 L 1182.63 826.05 L 1194.58 826.10 L 1206.52 825.57 L 1218.46 824.49 L 1230.40 822.88 L 1242.35 822.43 L 1254.29 823.00 L 1266.23 825.33 L 1278.17 830.09 L 1290.12 835.54 L 1302.06 840.73 L 1314.00 845.76" fill="none" stroke="#3f5bff" stroke-width="2"/>
<text x="78" y="918" class="label">RSI 14</text>
<text x="1321" y="912" class="small">100.00</text>
<text x="1321" y="1006" class="small">0.00</text>
<line x1="72" y1="973.92" x2="1314" y2="973.92" stroke="#4775d1" stroke-dasharray="5 5"/>
<line x1="72" y1="955.00" x2="1314" y2="955.00" stroke="#e05a5a" stroke-dasharray="5 5"/>
<line x1="72" y1="936.08" x2="1314" y2="936.08" stroke="#e05a5a" stroke-dasharray="5 5"/>
<path d="M 72.00 962.38 L 83.94 963.44 L 95.88 955.46 L 107.83 957.70 L 119.77 960.56 L 131.71 959.01 L 143.65 957.93 L 155.60 950.91 L 167.54 948.10 L 179.48 943.56 L 191.42 945.30 L 203.37 941.08 L 215.31 944.30 L 227.25 952.40 L 239.19 950.51 L 251.13 947.68 L 263.08 951.06 L 275.02 949.82 L 286.96 948.26 L 298.90 951.74 L 310.85 951.90 L 322.79 954.65 L 334.73 949.51 L 346.67 952.55 L 358.62 953.67 L 370.56 961.38 L 382.50 959.45 L 394.44 960.19 L 406.38 965.06 L 418.33 960.34 L 430.27 954.72 L 442.21 953.12 L 454.15 949.09 L 466.10 959.27 L 478.04 958.76 L 489.98 965.77 L 501.92 961.27 L 513.87 955.33 L 525.81 955.86 L 537.75 961.75 L 549.69 955.38 L 561.63 958.93 L 573.58 960.57 L 585.52 968.53 L 597.46 963.26 L 609.40 960.84 L 621.35 958.93 L 633.29 956.91 L 645.23 958.09 L 657.17 952.47 L 669.12 953.37 L 681.06 951.46 L 693.00 951.42 L 704.94 948.47 L 716.88 949.07 L 728.83 945.04 L 740.77 948.44 L 752.71 948.33 L 764.65 944.63 L 776.60 954.32 L 788.54 954.19 L 800.48 957.77 L 812.42 957.53 L 824.37 951.14 L 836.31 953.25 L 848.25 955.79 L 860.19 961.85 L 872.13 952.07 L 884.08 952.92 L 896.02 948.39 L 907.96 949.08 L 919.90 950.37 L 931.85 947.54 L 943.79 949.01 L 955.73 951.09 L 967.67 955.54 L 979.62 953.14 L 991.56 961.73 L 1003.50 962.44 L 1015.44 958.55 L 1027.38 957.74 L 1039.33 953.05 L 1051.27 949.38 L 1063.21 957.32 L 1075.15 962.64 L 1087.10 959.45 L 1099.04 961.03 L 1110.98 955.71 L 1122.92 958.65 L 1134.87 952.77 L 1146.81 953.15 L 1158.75 955.78 L 1170.69 957.69 L 1182.63 956.43 L 1194.58 956.50 L 1206.52 953.85 L 1218.46 952.89 L 1230.40 951.77 L 1242.35 959.19 L 1254.29 960.44 L 1266.23 965.41 L 1278.17 970.55 L 1290.12 967.14 L 1302.06 965.03 L 1314.00 966.32" fill="none" stroke="#ef4444" stroke-width="2"/>
<text x="78" y="1040" class="label">MFI 14</text>
<text x="1321" y="1034" class="small">100.00</text>
<text x="1321" y="1128" class="small">0.00</text>
<line x1="72" y1="1095.92" x2="1314" y2="1095.92" stroke="#4775d1" stroke-dasharray="5 5"/>
<line x1="72" y1="1077.00" x2="1314" y2="1077.00" stroke="#e05a5a" stroke-dasharray="5 5"/>
<line x1="72" y1="1058.08" x2="1314" y2="1058.08" stroke="#e05a5a" stroke-dasharray="5 5"/>
<path d="M 72.00 1080.61 L 83.94 1078.49 L 95.88 1077.48 L 107.83 1076.32 L 119.77 1076.10 L 131.71 1081.93 L 143.65 1079.93 L 155.60 1078.77 L 167.54 1078.88 L 179.48 1077.90 L 191.42 1071.61 L 203.37 1062.96 L 215.31 1052.39 L 227.25 1052.51 L 239.19 1052.84 L 251.13 1052.85 L 263.08 1052.80 L 275.02 1060.61 L 286.96 1055.04 L 298.90 1054.27 L 310.85 1054.65 L 322.79 1060.34 L 334.73 1060.86 L 346.67 1061.48 L 358.62 1068.08 L 370.56 1076.17 L 382.50 1082.38 L 394.44 1075.98 L 406.38 1075.32 L 418.33 1076.02 L 430.27 1076.26 L 442.21 1067.70 L 454.15 1067.91 L 466.10 1070.32 L 478.04 1077.47 L 489.98 1078.51 L 501.92 1086.57 L 513.87 1085.56 L 525.81 1086.50 L 537.75 1086.01 L 549.69 1079.75 L 561.63 1085.69 L 573.58 1086.53 L 585.52 1093.86 L 597.46 1100.49 L 609.40 1100.73 L 621.35 1100.47 L 633.29 1094.39 L 645.23 1093.98 L 657.17 1086.18 L 669.12 1078.77 L 681.06 1079.56 L 693.00 1073.44 L 704.94 1067.72 L 716.88 1067.34 L 728.83 1059.93 L 740.77 1059.36 L 752.71 1054.44 L 764.65 1047.83 L 776.60 1059.41 L 788.54 1067.82 L 800.48 1076.97 L 812.42 1069.40 L 824.37 1068.59 L 836.31 1068.23 L 848.25 1073.39 L 860.19 1077.50 L 872.13 1077.62 L 884.08 1078.90 L 896.02 1078.69 L 907.96 1073.72 L 919.90 1073.37 L 931.85 1073.64 L 943.79 1069.85 L 955.73 1067.27 L 967.67 1063.65 L 979.62 1073.57 L 991.56 1083.03 L 1003.50 1091.09 L 1015.44 1084.90 L 1027.38 1079.03 L 1039.33 1078.86 L 1051.27 1076.88 L 1063.21 1085.08 L 1075.15 1092.17 L 1087.10 1087.08 L 1099.04 1087.37 L 1110.98 1082.17 L 1122.92 1082.55 L 1134.87 1074.46 L 1146.81 1066.67 L 1158.75 1066.78 L 1170.69 1066.33 L 1182.63 1072.79 L 1194.58 1071.93 L 1206.52 1071.10 L 1218.46 1073.68 L 1230.40 1067.04 L 1242.35 1068.09 L 1254.29 1075.33 L 1266.23 1080.96 L 1278.17 1087.26 L 1290.12 1087.69 L 1302.06 1088.63 L 1314.00 1093.97" fill="none" stroke="#f05252" stroke-width="2"/>
<rect x="638.00" y="48" width="110" height="22" rx="4" fill="#30343b"/>
<text x="693.00" y="64" text-anchor="middle" style="font-size:12px;fill:#fff;font-weight:700">MMRM 기준봉</text>
<text x="72.00" y="1152" text-anchor="middle" class="small">이전 52주</text>
<text x="382.50" y="1152" text-anchor="middle" class="small">-26</text>
<text x="693.00" y="1152" text-anchor="middle" class="small">T0</text>
<text x="1003.50" y="1152" text-anchor="middle" class="small">+26</text>
<text x="1314.00" y="1152" text-anchor="middle" class="small">이후 52주</text>
</svg>